<svg width="330" height="500" viewBox="0 0 330 500" fill="none" xmlns="http://www.w3.org/2000/svg">
<path d="M241.934 193.678C254.624 195.043 265.473 191.086 273.558 181.909C298.939 153.082 312.687 120.23 306.001 80.964C305.626 78.7124 305.421 76.4609 305.25 74.1752C305.182 73.3906 305.523 72.5718 305.694 71.719C322.853 79.77 334.93 127.087 327.664 157.892C322.342 180.34 310.879 198.864 291.229 211.486C271.648 224.074 250.36 227.315 227.981 220.629C230.676 231.921 233.098 242.326 235.725 252.662C236.1 254.163 237.465 255.528 238.659 256.688C249.371 267.059 252.714 280.193 250.906 294.214C243.844 349.991 236.339 405.7 228.595 461.409C227.401 470.04 224.297 478.466 221.67 486.858C219.35 494.261 214.096 499.037 206.352 499.89C198.813 500.709 192.263 496.888 189.568 490.44C186.259 482.56 183.12 473.588 183.666 465.366C185.577 437.904 188.272 410.408 192.4 383.184C198.745 341.36 206.694 299.774 213.687 258.052C216.348 242.257 208.809 230.01 198.301 219.332C196.834 217.865 193.56 217.559 191.171 217.695C177.048 218.582 165.347 222.88 156.613 235.707C124.682 282.717 91.83 329.079 59.66 375.884C52.4278 386.391 46.5601 397.819 39.8736 408.702C32.232 421.086 19.5755 422.416 9.47759 411.738C0.232561 402.016 -2.05311 389.939 1.76772 377.658C4.59922 368.583 8.76119 359.475 14.356 351.833C40.8629 315.638 67.9158 279.783 95.1391 244.099C107.147 228.339 121.885 216.979 143.445 218.855C145.56 219.025 147.914 216.944 150.098 215.75C156.306 212.407 162.14 207.87 168.758 205.891C175.342 203.913 177.594 200.365 178.686 194.19C189.227 133.671 192.502 72.8788 185.952 11.6774C184.724 0.146691 186.43 -1.76375 197.756 1.30656C237.67 12.1209 260.731 39.549 269.942 78.6442C279.085 117.33 267.554 152.195 246.403 184.536C244.868 186.89 243.333 189.278 241.832 191.7C241.729 191.836 241.832 192.177 241.934 193.678ZM193.832 21.6729C193.321 23.6175 193.014 24.1633 193.048 24.7092C196.834 82.8062 194.071 140.528 182.916 197.772C182.506 199.955 184.963 203.947 187.146 205.141C200.724 212.612 211.094 223.187 214.983 238.061C217.406 247.375 222.489 250.104 232.45 250.991C229.891 242.94 229.004 234.82 224.979 228.85C216.689 216.501 216.826 209.166 229.141 197.738C248.45 179.794 259.366 155.368 264.756 129.168C271.682 95.2921 265.814 64.1796 243.571 37.0245C232.348 23.3104 218.361 13.2467 201.099 8.53892C198.37 7.7884 194.856 9.90341 191.683 10.688C193.73 12.8373 195.402 16.0782 197.892 16.9652C217.167 23.8563 231.734 36.3422 242.684 53.3312C257.968 76.9725 257.558 102.866 253.021 129.1C249.78 147.863 243.844 165.773 232.382 181.363C232.689 179.145 233.678 177.235 234.565 175.291C249.814 141.79 257.149 107.266 245.175 71.1731C236.885 46.2354 219.794 29.5534 193.832 21.6729ZM154.294 229.464C142.627 222.369 131.198 222.164 121.373 228.85C111.685 235.434 102.542 243.622 95.3438 252.833C70.0991 285.003 45.6731 317.787 21.3153 350.639C15.9594 357.871 11.388 365.957 8.0789 374.281C3.81459 384.993 4.08751 396.182 11.5245 405.871C19.5414 416.31 28.6841 415.798 35.8481 405.018C57.5108 372.37 79.1053 339.688 101.007 307.177C118.269 281.557 135.974 256.176 154.294 229.464ZM245.55 292.201C245.379 276.918 242.241 265.148 230.096 257.882C222.591 253.379 219.691 254.709 218.156 263.34C210.787 305.574 203.077 347.774 196.425 390.144C192.741 413.683 190.728 437.529 188.238 461.273C187.18 471.302 186.975 481.741 194.515 489.417C197.79 492.76 203.794 494.841 208.57 494.909C214.403 494.978 217.542 490.099 218.736 484.095C221.192 471.848 224.979 459.806 226.616 447.456C231.188 412.83 234.906 378.067 239.068 343.373C241.183 325.599 243.571 307.86 245.55 292.201ZM314.154 93.8592C313.847 96.5543 313.608 97.6459 313.608 98.7376C313.438 130.328 300.781 157.005 281.336 180.988C272.262 192.211 260.458 199.341 245.993 198.045C232.996 196.851 229.619 207.427 221.295 212.782C240.433 225.644 275.195 219.435 296.312 200.399C325.276 174.267 333.156 129.952 314.154 93.8592ZM151.803 221.755C154.669 222.573 157.569 224.518 159.479 223.801C169.134 220.117 178.515 215.716 187.624 211.759C178.242 204.731 162.447 208.518 151.803 221.755Z" fill="white"/>
<path d="M209.013 170.89C215.631 170.822 221.022 176.587 221.022 183.683C221.022 190.744 215.666 195.896 208.502 195.725C202.6 195.589 196.698 189.516 196.596 183.512C196.459 176.996 202.429 170.958 209.013 170.89ZM220.237 183.819C215.188 179.93 212.22 175.905 209.184 175.836C206.659 175.768 204.033 180.374 201.44 182.898C204.203 185.491 206.625 189.312 209.9 190.267C211.913 190.881 215.222 187.128 220.237 183.819Z" fill="white"/>
</svg>
