<svg width="326" height="500" viewBox="0 0 326 500" fill="none" xmlns="http://www.w3.org/2000/svg">
<path d="M99.9032 148.162C86.3141 129.137 76.8431 110.771 48.1002 115.96C25.287 120.078 3.21478 98.994 0.496966 71.6511C-1.47963 51.391 2.96771 30.4721 4.61487 9.88257C6.26203 9.96492 7.90949 10.13 9.55665 10.2123C27.0989 34.9197 44.6408 59.5447 62.1831 84.2521C64.1597 83.8403 66.219 83.5108 68.1955 83.099C67.9485 49.0028 86.2317 25.613 109.621 4.77641C127.411 33.0252 122.387 81.6165 100.974 104.183C96.1971 109.289 90.1848 121.313 91.9966 123.207C100.397 132.102 111.022 144.126 121.563 144.868C145.2 146.597 169.249 142.479 193.133 140.42C211.581 138.856 218.581 124.69 206.886 105.747C188.932 76.8398 191.074 47.1087 196.921 16.3892C197.251 14.4949 198.404 12.7651 200.051 8.89431C207.381 20.5892 213.393 31.5429 220.805 41.4258C228.052 51.0617 236.865 59.4622 248.972 72.7218C248.972 46.779 248.972 25.4486 248.972 0C274.75 15.7304 285.703 35.0842 286.609 59.3798C287.515 84.0873 276.314 102.783 253.501 113.901C240.653 120.16 228.135 127.078 211.581 135.726C246.006 149.974 274.008 161.916 302.339 173.116C319.882 180.034 326.47 190.659 325.07 210.672C320.211 281.088 316.917 351.669 314.528 422.249C313.787 444.074 304.151 458.734 286.856 469.194C226.899 505.514 164.307 509.22 99.7383 482.947C81.8666 475.7 71.5721 462.77 68.6072 443.004C57.4889 368.47 44.229 294.183 34.9226 219.484C29.9811 180.117 41.3466 167.681 79.3137 154.915C85.5729 152.774 91.9968 150.715 99.9032 148.162ZM43.5706 217.754C44.7236 228.873 45.0529 237.685 46.5353 246.333C57.9831 311.066 70.8311 375.635 80.6317 440.698C83.5966 460.464 92.9851 468.947 109.704 474.959C163.731 494.313 216.028 490.113 267.255 465.241C289.986 454.205 302.669 438.062 303.657 411.049C305.798 350.763 310.328 290.559 313.705 230.355C313.952 225.331 313.128 220.225 312.881 215.695C223.44 250.533 135.153 248.062 43.5706 217.754ZM314.034 191.564C285.044 168.339 253.007 157.551 218.499 153.68C199.474 151.539 204.333 168.504 201.533 178.222C198.486 188.847 205.239 191.482 215.122 193.212C233.158 196.341 251.854 199.306 268.408 206.636C288.421 215.366 300.692 209.024 314.034 191.564ZM128.976 195.188C130.376 193.212 131.858 191.235 133.258 189.259C125.516 179.87 115.963 161.504 110.363 162.657C89.8557 166.775 70.4193 176.823 51.3122 186.211C48.8415 187.447 48.4293 200.624 51.3942 203.177C55.4297 206.636 63.8304 206.307 70.0896 205.565C77.8313 204.577 85.1612 200.624 92.8205 199.306C104.845 197.412 116.952 196.506 128.976 195.188ZM196.509 157.386C195.768 155.41 194.945 153.433 194.203 151.456C172.461 153.268 150.718 155.08 127.74 156.974C142.565 194.53 145.035 195.435 178.226 191.729C203.922 188.929 188.273 167.763 196.509 157.386ZM203.18 23.1426C192.721 61.0273 201.862 94.9586 228.464 115.054C227.229 100.394 226.323 89.111 224.923 73.2159C229.864 84.0048 232.911 90.676 237.688 101.218C247.159 63.4155 214.051 51.3914 203.18 23.1426ZM57.2418 104.842C48.1 96.7706 40.7701 90.2642 33.4402 83.6756C34.0167 83.0167 34.5109 82.3578 35.0875 81.6166C42.0055 85.5698 48.8413 89.6055 55.7594 93.5586C56.9948 91.9938 58.2303 90.429 59.5481 88.8642C50.2416 80.2166 39.8642 72.5574 31.9578 62.7568C24.3809 53.368 19.3572 41.9198 12.1097 29.4014C-0.738122 79.1457 18.9453 111.348 57.2418 104.842ZM89.3616 100.394C113.245 84.0871 120.658 44.5557 106.245 20.0129C81.1257 45.6263 75.5251 60.2857 82.7726 84.9931C86.1493 78.6515 88.8672 73.4633 93.2322 65.2274C91.7498 78.8989 90.6794 88.7815 89.3616 100.394ZM195.192 226.155C196.262 195.435 185.391 190.659 147.012 205.236C148.659 230.602 158.295 234.803 195.192 226.155ZM205.898 228.544C227.393 225.167 247.407 222.037 267.42 218.907C267.502 216.684 267.584 214.378 267.749 212.154C246.665 207.624 225.664 203.012 201.78 197.824C203.345 209.848 204.251 216.519 205.898 228.544ZM135.976 228.131C137.459 226.237 139.023 224.425 140.506 222.531C136.388 216.19 132.517 204.495 128.152 204.33C110.527 203.754 92.9028 206.636 75.1958 208.283C75.1134 210.672 75.0313 212.978 74.949 215.366C95.2914 219.649 115.634 223.849 135.976 228.131ZM257.207 15.6477C258.443 27.0955 256.466 37.3906 260.501 41.179C276.726 56.3329 266.102 70.8276 261.901 85.5696C260.337 91.0053 257.454 96.0295 253.995 103.936C285.786 81.4521 287.35 46.4496 257.207 15.6477Z" fill="white"/>
</svg>
