<svg width="367" height="500" viewBox="0 0 367 500" fill="none" xmlns="http://www.w3.org/2000/svg">
<path d="M256.242 125.48C256.242 117.131 255.669 110.774 256.378 104.553C257.633 93.3941 259.243 82.2076 261.589 71.212C262.326 67.7742 265.9 64.9639 269.12 62.3446C272.121 75.9049 271.303 88.5648 266.2 101.061C263.417 107.882 260.471 114.894 259.407 122.07C257.251 136.394 256.323 150.882 254.796 166.134C259.461 163.897 263.363 162.041 268.547 159.558C267.919 168.48 264.072 173.992 258.37 177.73C253.568 180.868 252.285 184.524 253.459 190.117C255.45 189.326 257.251 188.616 260.607 187.307C260.607 191.536 261.235 195.055 260.471 198.275C259.052 204.196 256.76 209.898 254.905 215.682C253.049 221.467 251.249 227.278 249.421 233.062C250.021 233.308 250.621 233.526 251.221 233.772C258.561 227.442 265.9 221.112 273.24 214.755C274.031 215.355 274.849 215.928 275.641 216.528C272.448 239.556 261.78 259.419 247.511 277.809C247.92 278.409 248.329 279.009 248.738 279.609C252.149 278.109 256.078 277.263 258.861 274.998C267.783 267.659 276.268 260.047 279.215 247.85C280.388 243.021 284.181 238.765 287.073 234.454C289.747 230.443 290.292 227.06 287.209 222.722C281.343 214.482 276.159 205.778 271.685 196.31C283.526 197.647 290.211 204.85 295.122 215.873C297.741 208.288 300.77 200.785 302.707 193.009C303.116 191.399 299.924 188.289 297.768 186.761C281.534 175.111 270.73 160.022 267.537 140.023C267.155 137.677 267.483 135.221 267.483 131.183C288 141.742 299.133 158.303 307.7 178.194C309.883 168.917 312.038 159.613 314.221 150.255C297.332 141.633 281.48 132.574 273.54 112.793C292.884 114.267 304.235 125.262 315.83 139.641C316.376 129.273 316.949 121.251 317.113 113.175C317.14 111.702 315.858 109.765 314.603 108.782C294.549 93.0667 286.145 71.1029 281.48 47.1745C279.924 39.2348 278.942 31.186 277.687 23.1644C278.287 22.5914 278.915 22.0457 279.515 21.4727C283.69 24.0375 289.01 25.7291 291.848 29.3579C297.523 36.5882 302.297 44.6371 306.554 52.7951C309.964 59.3706 312.065 66.6555 315.039 74.3224C318.259 64.1454 320.769 54.5959 324.289 45.4283C327.754 36.4245 332.801 28.2665 340.932 22.8097C341.778 23.0825 342.624 23.3281 343.469 23.6009C342.706 35.6878 342.487 47.8566 341.068 59.8617C339.049 76.8053 333.674 92.6301 322.133 105.808C320.905 107.227 319.896 109.355 319.841 111.183C319.596 119.096 319.732 127.036 319.732 137.185C332.337 120.597 345.325 107.418 366.47 105.754C366.088 107.637 366.17 109.083 365.515 110.01C354.192 126.272 341.232 140.623 321.969 147.826C319.923 148.59 318.04 151.319 317.277 153.556C316.049 157.103 315.83 160.977 314.957 166.025C328.327 159.095 341.014 154.375 355.12 156.776C358.121 157.294 361.041 158.14 365.979 159.34C357.63 167.416 349.199 170.854 340.059 172C333.374 172.819 326.444 172.546 319.732 171.864C315.258 171.4 312.938 172.137 312.12 176.829C311.383 181.059 309.937 185.151 308.355 191.045C319.896 186.461 330.564 181.986 341.696 186.843C341.996 187.661 342.269 188.507 342.569 189.326C337.958 191.754 333.593 194.919 328.709 196.42C322.461 198.357 315.776 198.821 309.364 200.239C307.454 200.676 304.917 201.876 304.235 203.404C301.343 210.007 299.023 216.856 297.577 224.768C307.4 217.92 317.222 211.071 328.791 203.022C327.454 207.197 326.908 210.089 325.653 212.599C316.485 230.989 301.206 244.031 286.091 257.154C278.969 263.348 271.384 268.969 264.018 274.862C264.591 275.599 265.164 276.308 265.764 277.045C269.502 273.361 273.212 269.678 277.605 265.34C279.16 268.587 280.252 270.851 281.78 273.989C296.841 246.841 319.296 231.671 348.271 226.132C348.735 226.678 349.199 227.196 349.663 227.742C348.981 229.079 348.544 230.58 347.617 231.671C341.396 238.901 335.393 246.35 328.654 253.089C323.907 257.837 318.45 261.247 319.568 269.651C320.005 272.87 315.885 276.608 314.166 280.264C312.475 283.784 310.237 287.413 309.883 291.151C304.262 350.03 295.231 408.391 282.025 466.043C279.733 476.056 274.167 483.314 264.072 487.488C227.921 502.44 191.223 503.777 154.007 492.645C133.435 486.506 121.103 473.082 118.074 451.037C110.298 394.531 102.031 338.107 93.791 281.656C92.7269 274.425 89.7529 268.477 82.1406 264.876C69.2624 258.791 60.2313 248.533 54.0378 235.9C54.3379 235.054 54.6107 234.208 54.9109 233.362C63.0416 234.672 71.145 236.009 79.494 237.346C76.8747 230.225 75.074 223.567 64.4058 222.913C52.5644 222.203 42.1418 216.283 32.6742 205.696C45.6342 204.305 56.466 204.932 67.7072 210.962C64.5422 201.249 61.7592 192.763 58.6761 183.378C48.1443 187.034 37.9673 190.581 27.7357 194.1C18.5409 197.265 18.5136 197.238 15.3486 188.125C11.1196 175.929 6.86323 163.76 2.27947 150.555C16.0035 146.653 28.9908 142.942 42.0054 139.232C39.1405 129.737 35.0752 120.869 34.0384 111.647C32.9197 101.825 28.7725 96.5591 19.8778 92.903C9.97363 88.8104 3.80739 80.4887 0.342284 70.3935C-0.312539 68.4563 0.178579 66.1371 0.151295 64.009C2.49774 64.3364 5.58088 63.8179 7.02695 65.1003C14.1209 71.403 20.7782 78.1695 27.5447 84.8268C28.6088 85.8636 29.3728 87.2006 31.4191 89.9017C31.4191 82.153 31.8011 76.1505 31.3099 70.2025C30.7915 63.6542 29.0181 57.2151 28.6088 50.6669C27.8176 37.6796 35.2935 26.6295 48.4991 22.7551C47.6805 29.3579 47.4077 35.2786 46.1253 40.9537C42.8785 55.278 38.6494 69.4112 35.921 83.8446C34.5568 91.0477 35.6754 98.7145 36.4667 106.354C44.4337 96.8865 46.9711 84.2266 55.5384 75.5229C56.4661 75.7412 57.3937 75.9867 58.3214 76.205C57.8303 82.2894 58.7579 88.9468 56.5479 94.3491C53.3556 102.125 48.4718 109.41 43.2059 116.04C40.5593 119.369 39.6862 121.661 40.9686 125.535C45.3068 138.659 45.1977 138.713 58.6488 134.566C60.3404 134.048 61.9775 133.393 63.9147 132.683C63.0416 128.427 61.4318 124.444 61.6501 120.542C61.8138 117.513 64.2421 114.594 65.6882 111.62C68.4439 113.475 72.0181 114.785 73.7643 117.35C75.8106 120.378 76.2471 124.471 77.6386 128.918C88.7706 125.399 99.4934 122.015 112.344 117.95C109.398 113.912 107.788 110.229 104.978 108.128C93.4635 99.4785 88.3341 87.4189 85.7694 73.9131C84.7872 68.6746 84.5689 63.2996 84.9236 57.5426C96.2739 62.672 98.9204 74.7589 107.078 84.6631C105.987 66.1098 108.661 50.2031 120.202 35.1967C122.412 45.4283 122.903 54.132 119.766 62.8084C119.002 64.9366 118.374 67.3103 116.983 69.002C106.942 81.3617 109.67 94.8129 113.49 109.219C119.356 99.9969 124.895 91.2659 130.461 82.535C134.035 95.4131 126.778 104.281 119.52 115.058C126.832 112.821 132.616 111.02 139.328 108.973C144.622 125.426 149.778 141.524 155.344 158.876C145.904 160.814 136.955 162.642 126.723 164.715C129.533 178.521 132.289 192.109 135.154 206.187C140.092 203.268 143.912 201.031 146.586 199.448C143.094 195.301 139.137 191.454 136.327 186.925C134.881 184.606 135.454 181.031 135.099 178.03C137.691 177.948 140.72 176.993 142.821 177.975C151.061 181.822 159.028 186.297 167.459 190.744C167.568 189.899 167.813 187.825 168.032 185.751C169.614 170.636 171.251 155.548 172.643 140.405C172.806 138.686 172.233 136.121 171.033 135.166C160.856 127.145 156.872 115.958 154.526 103.926C153.298 97.5686 152.398 91.1295 151.279 84.4176C161.429 85.8364 169.259 99.9151 175.944 126.845C176.572 127.008 177.199 127.199 177.827 127.363C178.645 123.68 179.9 120.024 180.228 116.258C181.019 107.064 180.419 97.6232 182.301 88.7012C183.447 83.2444 188.222 78.5788 191.36 73.5312C192.069 73.7767 192.778 74.0223 193.488 74.2678C193.952 75.6048 194.825 76.9144 194.825 78.2513C194.907 92.9576 193.215 107.255 185.33 120.215C178.754 131.046 174.853 142.861 173.734 155.52C173.652 156.53 173.87 157.594 173.979 159.095C179.218 154.565 183.829 150.336 188.74 146.489C190.104 145.425 192.396 145.589 194.252 145.207C194.552 147.117 195.425 149.136 195.016 150.882C192.806 160.404 186.749 167.034 178.018 170.909C173.325 172.982 171.633 175.902 171.851 180.84C172.124 187.088 171.933 193.364 171.933 200.785C177.417 193.582 181.619 186.925 186.967 181.331C192.096 175.984 196.407 168.18 207.075 170.09C202.983 187.607 193.897 200.621 178.591 208.588C173.106 211.426 171.797 214.482 172.479 220.266C174.743 239.802 179.573 258.655 186.394 277.045C188.058 281.519 190.486 283.347 195.971 281.383C189.04 269.296 184.102 256.718 186.776 242.694C187.403 242.394 188.031 242.093 188.658 241.793C191.25 245.859 194.279 249.706 196.353 254.017C200.036 261.793 203.037 269.896 206.557 277.754C207.266 279.337 208.931 280.51 210.158 281.874C211.359 280.482 212.669 279.2 213.705 277.727C216.407 273.798 215.233 270.797 212.341 267.004C200.827 251.97 193.488 234.945 190.486 216.201C190.104 213.8 190.159 211.317 189.886 207.06C205.356 216.801 212.096 230.689 218.262 245.668C218.398 243.294 218.644 240.948 218.644 238.574C218.398 212.435 217.989 186.297 217.88 160.159C217.853 154.92 216.325 151.564 211.632 148.536C201.837 142.206 197.144 132.52 196.871 120.842C196.816 118.769 197.417 116.695 197.744 114.621C198.426 114.43 199.108 114.239 199.79 114.048C205.002 122.315 210.213 130.555 215.424 138.822C215.834 138.713 216.243 138.631 216.652 138.522C216.079 129.573 215.697 120.624 214.879 111.702C213.569 97.4595 212.096 83.2171 210.431 68.9747C210.158 66.6555 209.367 63.4633 207.703 62.3992C195.043 54.2685 189.395 41.2538 183.747 28.3757C180.992 22.1003 179.3 15.3338 177.117 8.78554C177.99 8.13072 178.863 7.44863 179.736 6.7938C186.285 12.4962 192.833 18.1986 199.463 23.9829C199.981 16.3433 200.5 8.56727 201.018 0.791247C201.891 0.518404 202.764 0.245559 203.638 0C208.358 9.98605 213.051 19.9448 217.498 29.3306C223.637 24.3103 230.567 18.6079 237.525 12.9055C238.37 13.5057 239.216 14.106 240.089 14.7062C239.271 18.9626 239.38 23.7101 237.47 27.3662C231.713 38.3617 225.683 49.33 218.698 59.5616C215.506 64.2545 213.733 68.238 214.715 73.804C215.643 79.0699 215.834 84.4721 216.925 90.0381C222.627 79.561 230.622 72.3579 241.426 68.6746C242.163 69.1384 242.927 69.5749 243.664 70.0388C242.081 74.5134 241.344 79.6156 238.725 83.3535C234.059 89.9836 228.63 96.2044 222.791 101.852C219.544 104.99 217.662 107.637 218.453 112.275C219.326 117.377 219.49 122.588 220.063 128.536C224.483 123.516 228.33 119.15 233.323 113.475C236.188 122.397 234.742 129.273 229.885 133.447C220.99 141.06 220.717 150.173 221.7 160.35C222.245 166.161 221.809 172.082 222.818 178.33C228.112 165.097 234.905 153.283 247.729 143.815C247.729 147.663 248.165 150.2 247.647 152.519C244.291 167.553 236.215 180.049 226.474 191.727C224.646 193.909 223.446 197.238 223.282 200.103C222.873 208.206 223.146 216.337 224.346 224.877C225.383 223.322 226.393 221.739 227.457 220.184C230.922 215.137 233.514 208.998 238.07 205.287C247.865 197.32 250.13 187.279 250.539 175.493C250.976 163.269 252.858 151.073 254.359 138.904C254.823 135.085 253.922 132.738 250.594 130.446C244.291 126.135 240.117 120.16 238.234 110.856C246.392 113.394 249.803 119.56 256.242 125.48ZM97.0651 281.738C97.4198 284.984 97.638 287.576 98.02 290.114C106.042 342.636 114.445 395.104 121.921 447.708C124.786 467.871 134.39 481.431 153.816 487.543C189.559 498.811 225.001 497.938 259.789 483.832C269.256 479.985 275.477 472.264 277.823 462.141C289.938 410.11 297.796 357.342 304.644 304.411C305.353 298.899 305.981 293.361 306.608 288.231C291.684 292.024 277.523 296.171 263.145 299.172C206.393 311.068 150.542 312.678 97.0651 281.738ZM21.5422 193.255C63.4781 176.502 105.005 162.096 149.778 156.312C145.74 141.96 141.893 128.291 138.182 115.085C94.0365 127.854 50.3271 140.487 5.90828 153.338C10.874 165.97 16.058 179.203 21.5422 193.255ZM316.158 265.831C279.979 283.402 242.136 285.421 204.347 286.54C166.313 287.658 128.769 283.757 91.3627 268.968C97.2561 278.573 105.36 282.556 113.518 286.212C143.558 299.718 175.207 304.083 207.921 302.419C236.433 300.973 264.127 294.943 291.602 287.686C299.896 285.503 307.591 282.201 312.475 274.671C314.139 272.106 314.903 268.941 316.158 265.831ZM123.504 275.271C134.226 276.99 143.939 278.573 153.98 280.182C150.624 270.387 146.995 261.574 144.676 252.434C143.121 246.268 140.856 241.411 136 237.019C128.415 230.17 124.213 221.248 123.804 210.362C126.75 210.116 129.097 209.898 131.443 209.707C131.689 209.025 131.934 208.343 132.18 207.688C130.27 206.788 128.387 205.287 126.423 205.123C117.064 204.387 109.179 200.976 103.777 193.118C102.549 191.317 102.713 188.589 102.249 186.27C104.541 185.806 107.106 184.442 109.043 185.069C115.4 187.116 121.512 189.871 128.142 192.545C126.669 183.705 125.168 174.674 123.558 164.852C113.981 167.253 105.305 169.736 96.4648 171.536C91.1171 172.628 90.053 174.456 91.7447 179.831C99.739 205.151 107.269 230.634 114.964 256.063C115.728 258.573 116.464 261.056 117.665 265.094C121.976 254.999 124.049 245.422 131.825 238.437C135.072 249.842 132.507 261.274 123.504 275.271ZM316.158 104.171C314.794 79.2063 307.209 56.1783 293.894 35.1967C291.138 30.8585 286.2 27.9118 282.244 24.3103C281.725 24.8287 281.179 25.3198 280.661 25.8382C285.299 55.0597 290.729 83.9538 316.158 104.171ZM97.2834 251.97C90.4077 226.651 83.7776 202.149 77.0111 177.266C71.6634 179.067 66.8068 180.704 62.1139 182.286C64.7332 201.931 85.7694 243.812 97.2834 251.97ZM338.04 30.3401C325.898 51.8947 312.584 73.1764 321.124 101.197C337.467 79.37 339.486 55.278 338.04 30.3401ZM113.026 273.116C113.517 272.734 114.036 272.352 114.527 271.97C114.582 271.533 114.773 271.069 114.663 270.687C105.905 240.129 97.1742 209.571 88.225 179.067C87.7611 177.512 85.442 176.502 83.9686 175.247C83.3411 177.239 81.7313 179.503 82.1952 181.14C90.3532 209.025 98.6476 236.855 107.242 264.63C108.224 267.741 111.062 270.278 113.026 273.116ZM287.81 271.069C309.637 263.675 328.845 252.598 342.76 230.88C317.904 237.455 300.306 250.688 287.81 271.069ZM183.283 282.12C180.118 271.779 177.445 262.693 174.471 253.717C174.007 252.325 172.315 250.606 170.978 250.388C163.093 249.106 155.126 248.205 145.822 247.005C149.26 256.063 152.561 264.849 155.89 273.607C156.518 273.498 157.145 273.389 157.8 273.252C160.146 266.24 161.047 258.437 169.096 252.461C169.096 258.764 169.914 263.593 168.877 267.986C167.868 272.297 164.976 276.172 162.547 280.919C169.423 281.301 176.08 281.71 183.283 282.12ZM126.941 213.472C130.652 232.571 149.615 247.277 167.268 245.231C164.157 231.753 143.667 215.437 126.941 213.472ZM270.893 222.531C252.613 232.844 236.379 263.784 240.308 279.964C255.287 263.621 265.546 245.149 270.893 222.531ZM256.078 193.746C239.053 206.378 227.702 222.04 222.327 243.294C240.089 235.545 257.933 209.107 256.078 193.746ZM170.405 236.909C169.641 227.715 168.85 216.937 167.677 206.215C167.513 204.796 165.576 202.804 164.103 202.422C159.819 201.276 155.317 200.812 151.524 200.212C148.114 204.905 144.976 209.216 142.575 212.49C152.07 220.812 161.429 229.052 170.405 236.909ZM270.266 137.104C270.948 153.611 287.1 177.075 301.806 182.968C302.161 169.163 283.962 142.724 270.266 137.104ZM230.322 279.909C230.785 280.51 231.276 281.11 231.74 281.71C233.296 280.046 235.697 278.6 236.297 276.635C239.544 266.104 242.518 255.49 245.273 244.795C246.583 239.665 247.183 234.345 248.084 229.133C239.871 234.972 233.541 241.166 226.693 246.759C221.727 250.824 222.409 255.244 223.746 260.647C226.584 258.3 228.875 256.418 231.768 254.071C232.286 256.281 232.832 257.345 232.75 258.382C231.986 265.585 231.14 272.734 230.322 279.909ZM103.068 269.023C99.166 254.208 73.737 236.937 61.1862 239.829C70.3265 256.063 85.4965 263.266 103.068 269.023ZM320.66 213.8C304.262 225.586 284.481 234.208 280.443 257.373C296.104 244.931 311.192 231.971 320.66 213.8ZM358.803 111.593C340.85 115.795 330.455 128.591 321.751 143.352C338.122 137.486 349.499 125.753 358.803 111.593ZM216.079 265.04C213.569 242.175 203.256 219.802 193.16 214.891C197.335 232.871 203.965 249.106 216.079 265.04ZM215.397 58.8795C224.919 46.4651 232.914 35.1695 235.751 19.3719C220.281 28.5939 215.915 41.7722 215.397 58.8795ZM182.137 14.1606C187.731 30.1764 193.379 44.0096 204.456 54.9233C200.172 40.4353 199.572 24.0647 182.137 14.1606ZM279.27 118.032C288.028 129.164 298.041 138.659 311.902 143.215C304.016 130.965 295.258 119.833 279.27 118.032ZM203.965 12.2234C203.092 26.6568 203.883 40.7082 210.295 53.8592C214.606 39.0165 212.969 25.0197 203.965 12.2234ZM107.269 104.335C105.769 89.9563 98.02 78.5515 90.0257 67.2558C90.5714 82.0984 95.1824 94.9766 107.269 104.335ZM157.336 93.6397C158.919 107.309 160.419 121.033 172.752 130.037C169.996 116.886 166.722 103.98 157.336 93.6397ZM200.418 175.547C190.241 183.296 181.537 192.218 177.308 204.687C189.313 198.384 197.198 188.807 200.418 175.547ZM34.2021 64.6092C38.1583 52.3313 41.7053 41.3084 45.7706 28.7576C33.4381 34.6783 28.8816 49.9302 34.2021 64.6092ZM165.139 197.538C158.045 188.125 149.778 183.296 138.728 181.359C142.33 191.699 152.507 197.893 165.139 197.538ZM320.769 168.153C334.22 170.936 349.581 167.471 355.502 160.841C343.36 159.122 332.583 161.796 320.769 168.153ZM6.34484 67.6923C5.52631 68.4563 4.70778 69.2475 3.88925 70.0115C8.36387 81.3345 16.44 89.1378 27.2719 94.2126C28.0086 93.5032 28.7452 92.7939 29.4819 92.0845C21.7604 83.9537 14.039 75.823 6.34484 67.6923ZM202.519 282.01C203.256 281.656 203.992 281.274 204.729 280.919C200.227 270.442 195.698 259.965 191.196 249.488C188.195 261.22 195.179 278.409 202.519 282.01ZM219.381 100.815C228.112 92.4937 235.424 85.5908 239.134 73.613C227.511 79.9157 220.636 87.1187 219.381 100.815ZM39.0041 112.411C39.7135 112.739 40.4229 113.039 41.1323 113.366C50.7909 106.518 57.1754 91.5934 53.8195 81.962C48.6627 92.5483 43.8335 102.48 39.0041 112.411ZM244.455 155.193C243.582 154.756 242.709 154.293 241.836 153.856C233.623 162.287 228.357 172.246 226.338 183.842C227.02 184.224 227.73 184.578 228.412 184.96C233.759 175.029 239.107 165.097 244.455 155.193ZM192.096 83.2444C191.305 83.108 190.541 82.9442 189.75 82.8078C183.447 90.9113 181.401 102.534 186.203 113.257C188.14 103.271 190.105 93.2577 192.096 83.2444ZM214.388 280.81C226.311 282.474 230.622 275.926 228.985 259.692C223.773 267.222 219.408 273.525 214.388 280.81ZM68.3074 221.194C68.5803 220.457 68.8804 219.748 69.1533 219.011C62.5505 210.717 52.3461 207.224 43.124 211.863C51.5003 214.973 59.9039 218.083 68.3074 221.194ZM105.905 188.862C110.68 198.057 119.547 202.586 127.378 200.267C122.385 193.009 114.936 188.971 105.905 188.862ZM108.115 72.6308C108.797 72.8491 109.452 73.0401 110.134 73.2583C117.446 65.4004 120.639 53.2044 116.328 44.6371C113.327 54.8414 110.735 63.7361 108.115 72.6308ZM259.025 100.815C259.734 100.952 260.443 101.061 261.153 101.197C266.31 93.6124 268.329 81.3345 264.181 72.5489C262.462 81.962 260.744 91.3751 259.025 100.815ZM130.243 247.741C129.533 247.496 128.824 247.223 128.087 246.977C125.413 254.59 122.74 262.202 120.038 269.814C128.497 264.276 129.861 256.172 130.243 247.741ZM190.868 151.428C190.295 150.909 189.695 150.418 189.122 149.9C184.102 155.357 179.054 160.841 174.034 166.298C174.552 166.762 175.071 167.225 175.589 167.689C183.147 164.579 188.822 159.695 190.868 151.428ZM214.715 145.18C210.486 138.113 206.229 131.074 202 124.007C201.509 124.334 200.991 124.635 200.5 124.962C202.055 133.72 206.011 140.951 214.715 145.18ZM67.0251 132.22C74.2008 129.027 73.2732 120.406 64.8696 114.212C65.6882 121.006 66.2884 126.19 67.0251 132.22ZM333.347 191.236C332.965 189.98 332.583 188.753 332.228 187.498C324.971 189.844 317.713 192.191 310.455 194.537C310.728 195.41 310.974 196.256 311.247 197.129C318.613 195.137 325.98 193.2 333.347 191.236ZM221.099 136.012C221.973 136.503 222.846 137.022 223.719 137.513C226.611 132.574 229.503 127.663 232.395 122.725C231.467 122.206 230.567 121.661 229.639 121.142C226.802 126.108 223.937 131.074 221.099 136.012ZM129.042 94.1308C128.36 93.667 127.678 93.1758 127.023 92.712C123.613 98.4963 120.229 104.281 116.819 110.065C117.501 110.474 118.183 110.883 118.865 111.293C122.248 105.563 125.659 99.8605 129.042 94.1308Z" fill="white"/>
</svg>
