<svg width="198" height="500" viewBox="0 0 198 500" fill="none" xmlns="http://www.w3.org/2000/svg">
<path d="M149.975 28.8445C159.03 21.7083 167.936 14.6921 178.13 6.65643C178.85 22.308 180.259 35.8907 175.192 49.1736C169.855 63.176 156.002 67.014 143.319 74.9897C164.907 78.3779 183.407 84.0448 193.302 103.414C201.188 118.886 195.551 134.538 193.062 151.389C189.764 149.47 187.515 148.09 185.236 146.831C178.28 142.963 171.504 138.675 164.248 135.407C149.975 128.991 136.992 121.495 132.345 104.824C131.625 104.944 130.906 105.034 130.156 105.154C128.837 115.948 127.547 126.742 126.198 138.016C146.287 132.319 160.05 137.536 171.714 153.937C175.372 159.065 180.109 163.382 184.517 168.24C179.15 171.088 173.363 171.178 168.026 167.73C162.299 164.042 156.692 162.813 149.765 163.712C140.74 164.881 132.794 160.894 125.688 153.038C121.76 179.334 118.072 204.1 114.234 229.707C120.621 226.378 125.838 223.08 131.475 220.831C139.841 217.503 146.677 219.872 148.656 225.929C150.755 232.285 145.628 239.781 137.382 241.76C133.544 242.69 129.496 242.959 125.508 243.229C113.365 243.979 110.966 246.168 109.587 258.371C109.227 261.549 109.257 264.788 109.047 268.686C117.023 269.915 124.909 270.035 132.045 272.434C148.056 277.771 163.828 283.947 179.449 290.304C187.095 293.422 190.424 299.509 190.004 308.264C189.434 319.718 190.214 331.232 189.914 342.686C189.854 345.294 188.385 349.012 186.406 350.182C181.188 353.18 180.589 357.438 180.349 362.715C179.03 394.648 177.261 426.581 176.211 458.544C175.971 466.099 173.333 470.867 167.186 475.155C142.239 492.515 115.584 503.369 84.4305 499.052C67.5496 496.713 52.9174 489.757 40.774 477.823C38.795 475.874 37.2058 472.876 36.6961 470.147C30.1296 435.576 23.923 400.974 17.2366 366.433C16.6969 363.675 13.9684 360.376 11.4197 359.207C6.50237 356.928 4.16366 354.02 3.77387 348.563C2.81438 335.13 1.19519 321.727 0.0558041 308.294C-0.603841 300.349 4.61342 292.913 14.1783 289.135C22.2439 285.926 30.6694 283.678 38.915 281.009C39.7845 273.633 37.4457 270.215 29.8298 272.314C25.0024 273.633 22.4538 271.264 21.0445 266.737C16.6969 252.944 11.8695 239.301 7.7917 225.419C5.09315 216.184 5.9627 215.314 14.9279 212.766C17.5065 212.046 20.0251 211.147 23.1134 210.187C22.094 206.979 21.4643 204.31 20.3849 201.852C18.6158 197.864 19.3355 195.465 23.7131 193.756C28.8704 191.747 30.1597 194.895 30.7294 198.523C31.8388 205.659 35.3468 208.088 42.483 206.319C47.1005 205.18 49.8291 207.488 50.6686 212.556C53.2172 228.057 55.9757 243.559 58.9741 259.001C60.3234 265.957 55.8558 267.666 50.009 269.075C50.9385 272.344 51.7181 275.042 52.4677 277.681C66.9199 275.762 80.7425 273.993 94.5351 271.954C95.8543 271.774 97.8332 270.035 97.9532 268.866C98.6128 263.169 99.2126 257.382 98.7628 251.715C98.6429 250.036 95.2247 247.877 92.9459 247.247C88.6582 246.078 84.0407 246.078 79.6331 245.238C69.0188 243.169 63.3518 235.553 65.1808 226.139C66.74 218.013 72.6469 214.984 79.3932 219.692C85.0602 223.65 89.8875 228.807 94.9548 233.544C96.6339 235.134 97.8933 237.172 100.352 240.291C103.92 214.685 107.218 190.937 110.606 166.68C66.71 191.117 33.4578 192.107 13.6385 169.439C16.1272 168.12 18.5259 166.92 20.8346 165.631C32.5583 159.034 44.4319 152.708 55.8858 145.662C66.5301 139.125 77.744 134.088 90.2773 134.418C98.223 134.628 106.079 137.266 113.005 138.616C116.333 119.756 119.871 99.8163 123.469 79.6072C101.251 84.3446 81.7319 76.4589 65.4507 59.6679C56.9052 50.8527 50.5487 40.6282 47.8501 27.0155C56.9053 29.4442 64.6411 32.0228 72.6168 33.492C79.6631 34.7813 86.9491 35.6209 94.0553 35.321C105.749 34.8113 115.044 38.6192 122.3 47.6744C123.17 48.7838 124.339 49.6533 125.299 50.5528C129.256 33.7018 133.124 17.1808 137.022 0.659649C137.562 0.449762 138.102 0.209887 138.641 0C142.359 9.32499 146.047 18.7999 149.975 28.8445ZM21.2844 364.034C21.5543 366.763 21.6142 368.742 21.974 370.661C27.7909 399.535 34.4773 428.26 39.2448 457.314C42.3031 475.814 53.1573 485.139 69.6185 490.147C73.9062 491.466 78.2538 492.725 82.6615 493.445C114.534 498.572 141.52 486.908 166.286 468.408C168.205 466.969 169.105 463.311 169.315 460.582C171.684 429.939 173.812 399.295 175.971 368.652C176.241 364.994 176.361 361.336 176.601 356.598C125.538 379.776 74.206 379.386 21.2844 364.034ZM185.116 315.91C118.102 344.395 63.9814 345.924 5.30298 320.828C5.93265 326.285 7.25196 331.472 6.92214 336.509C6.05261 350.841 14.7779 356.748 26.5316 360.436C28.1807 360.946 29.8598 361.516 31.5389 361.935C55.8858 368.202 80.6526 370.631 105.719 368.952C131.115 367.273 155.492 361.246 177.95 348.922C180.859 347.333 184.457 344.035 184.757 341.217C185.686 332.941 185.116 324.456 185.116 315.91ZM23.0834 322.777C53.0673 337.948 141.34 334.38 167.666 316.33C162.449 313.631 157.981 311.323 152.434 308.414C151.355 308.834 149.166 309.734 146.917 310.603C145.628 308.414 144.548 306.615 143.469 304.786C142.989 305.446 142.479 306.075 142 306.735C138.971 305.116 135.943 303.497 132.525 301.638C130.756 302.807 128.297 304.426 124.759 306.735C123.649 298.37 118.762 304.097 115.044 303.947C114.264 300.648 113.545 297.74 112.855 294.862C112.016 294.772 111.206 294.652 110.367 294.562C109.527 297.02 108.178 299.419 107.968 301.938C107.458 308.144 107.788 314.441 107.098 320.648C106.858 322.837 104.61 324.815 103.29 326.914C101.161 325.445 98.433 324.366 97.0837 322.357C95.8544 320.468 95.8544 317.619 95.7644 315.161C95.5845 310.453 95.7044 305.746 95.7044 301.308C92.736 300.229 90.0974 299.269 86.7992 298.04C85.5998 299.959 84.3105 302.058 81.7619 306.195C79.633 301.998 78.5236 299.779 77.5342 297.83C74.5058 299.779 72.6768 300.948 70.5479 302.327C68.9888 300.409 67.6095 298.759 66.2303 297.05C53.697 303.047 64.731 312.612 62.7221 319.868C58.0146 320.918 53.7569 321.847 49.5292 322.807C48.8996 321.967 48.2699 321.427 48.06 320.768C47.4304 318.609 46.9806 316.42 46.4709 314.231C44.7318 306.825 44.0422 306.615 37.7756 311.173C36.6362 311.982 35.047 312.852 33.7877 312.732C26.3217 311.832 24.4627 316.66 23.0834 322.777ZM20.3249 170.908C36.4263 185.061 55.7659 184.701 75.6752 179.034C92.1063 174.356 107.398 167.64 115.194 150.549C106.798 145.722 98.1931 144.552 87.7287 148.36C72.9767 153.727 58.6144 160.144 44.0422 165.961C39.7845 167.67 35.2869 168.809 30.9092 170.218C30.6394 169.379 30.3696 168.569 30.0997 167.73C56.4256 160.834 78.2838 141.014 107.818 141.944C103.38 139.845 98.8527 138.166 94.2052 137.776C81.7619 136.667 70.6679 141.194 60.1736 147.341C46.9507 155.107 33.7577 162.962 20.3249 170.908ZM189.644 143.173C201.398 108.272 178.82 77.0586 142.569 80.9565C149.376 86.6234 155.762 91.2709 161.309 96.758C167.126 102.485 172.733 108.632 177.321 115.348C181.578 121.555 184.367 128.751 187.785 135.527C186.885 136.097 185.986 136.667 185.056 137.236C176.001 111.93 156.422 95.8585 136.033 79.2774C135.343 82.1559 134.564 84.4347 134.294 86.8034C132.315 104.974 139.931 118.886 156.392 127.102C167.306 132.529 178.28 137.686 189.644 143.173ZM44.7318 210.037C32.4684 212.766 21.1945 215.284 9.17093 217.953C12.4991 228.417 14.8079 237.892 18.4359 246.827C29.1702 273.093 21.1345 267.636 49.1095 263.438C53.1273 262.839 54.1168 260.95 53.2173 257.292C52.6776 255.133 52.4376 252.884 52.0479 250.665C49.6791 237.502 47.3104 224.339 44.7318 210.037ZM108.987 275.792C108.987 281.639 108.987 286.526 108.987 291.263C111.356 292.133 114.384 292.343 115.704 293.932C120.531 299.779 125.658 301.578 132.375 297.32C133.244 296.781 134.833 296.751 135.853 297.11C142.359 299.539 148.836 302.028 155.222 304.756C159.48 306.585 163.588 308.774 167.726 310.903C169.855 312.012 172.883 314.861 173.812 314.261C177.411 311.922 181.039 308.984 183.137 305.356C184.007 303.887 181.698 298.999 179.599 297.62C158.551 283.768 135.253 276.691 108.987 275.792ZM54.2367 33.7019C64.2213 67.6736 108.747 84.8244 122.69 72.7109C95.2546 40.898 90.0675 41.2278 54.2367 33.7019ZM143.709 68.5731C169.255 59.7579 179.899 41.018 173.692 16.2513C153.303 30.0139 136.932 45.0958 138.851 65.8746C149.346 56.4896 159.27 47.5844 169.135 38.7691C167.786 53.971 150.365 56.9094 143.709 68.5731ZM40.534 286.076C32.1386 288.685 24.2528 290.724 16.6669 293.572C10.3403 295.941 4.82327 300.139 5.42295 307.755C6.05261 315.73 12.3192 318.939 17.9862 321.007C21.6442 316.75 24.0729 312.372 27.8209 309.973C32.6783 306.855 38.5251 305.296 44.1021 303.017C42.8428 297.05 41.8234 292.253 40.534 286.076ZM97.5334 276.301C95.6445 276.032 94.8948 275.762 94.2352 275.882C85.1801 277.321 76.0949 278.7 67.0398 280.289C52.2577 282.898 51.778 284.007 58.8842 298.669C62.2124 294.742 65.8105 291.683 70.7878 296.091C71.1476 296.421 72.1371 296.001 72.8567 295.941C78.4037 295.341 84.1906 293.512 89.4378 294.502C96.0942 295.731 96.514 292.433 96.8139 287.875C97.0837 284.157 97.2636 280.499 97.5334 276.301ZM102.601 320.828C102.151 264.128 112.885 208.628 121.521 152.858C111.956 161.433 95.6445 305.716 102.601 320.828ZM177.68 167.82C173.782 162.453 170.544 158.135 167.456 153.697C161.579 145.302 153.154 140.684 143.589 138.166C135.733 136.097 129.616 139.365 127.128 146.411C147.007 145.332 158.671 163.892 177.68 167.82ZM129.346 71.0918C129.946 70.4321 130.576 69.7725 131.175 69.1128C122.09 46.2651 106.109 33.9718 94.3852 39.5788C105.869 49.9232 117.623 60.5075 129.346 71.0918ZM95.3746 243.199C95.8843 242.54 96.424 241.85 96.9337 241.19C91.1768 235.703 85.6299 229.976 79.5731 224.849C77.6242 223.2 74.3559 223.17 71.6874 222.391C70.9378 225.839 68.539 230.126 69.7683 232.525C71.5674 236.033 75.5853 239.241 79.3932 240.621C84.3706 242.48 90.0075 242.42 95.3746 243.199ZM140.98 39.2489C146.887 31.3631 145.868 21.1686 138.701 11.9936C134.474 28.4247 126.618 43.7165 132.165 60.6874C132.824 60.7773 133.484 60.8973 134.174 60.9872C135.853 51.2125 137.502 41.4677 139.181 31.7229C139.421 31.7229 139.661 31.7229 139.931 31.7229C140.2 33.7918 140.5 35.8607 140.98 39.2489ZM113.845 239.781C120.441 239.241 125.568 239.062 130.606 238.282C134.174 237.742 138.192 237.113 140.95 235.074C143.019 233.544 143.379 229.737 144.488 226.948C141.73 225.839 138.671 223.38 136.273 223.89C127.457 225.899 119.572 229.856 113.845 239.781ZM120.591 146.022C124.549 122.544 128.507 99.0667 132.465 75.5893C120.531 97.6875 117.922 121.495 120.591 146.022ZM55.9158 316.72C56.4555 315.94 56.9952 315.161 57.535 314.351C54.2667 300.798 51.0884 287.246 47.6103 273.753C47.2505 272.344 45.2415 271.354 43.9822 270.185C43.3825 271.744 41.9733 273.453 42.2732 274.832C44.8818 287.246 47.6402 299.659 50.8185 311.952C51.2982 313.871 54.1467 315.131 55.9158 316.72ZM126.828 149.74C133.994 159.394 143.919 162.932 153.933 159.274C145.178 154.477 138.072 147.821 126.828 149.74Z" fill="white"/>
</svg>
