<svg width="500" height="355" viewBox="0 0 500 355" fill="none" xmlns="http://www.w3.org/2000/svg">
<path d="M63.9274 133.988C65.5706 136.438 66.8101 138.283 68.0497 140.1C68.6262 140.013 69.1739 139.955 69.7505 139.869C70.6729 131.682 71.5954 123.524 72.4602 115.337C73.1233 108.88 73.325 102.365 74.5069 96.0229C74.9393 93.7744 77.5915 91.9294 79.2346 89.8827C80.8489 91.67 83.0685 93.1978 83.9334 95.3022C85.2594 98.5597 85.6631 102.221 86.7008 106.747C88.8917 104.383 90.5348 102.624 93.0427 99.9146C97.828 110.523 96.6462 121.045 97.6839 131.538C100.278 130.933 102.7 130.385 107.255 129.347C102.93 140.676 95.2048 150.65 102.844 161.806C104.574 158.866 105.784 155.551 108.062 153.274C110.253 151.083 113.539 149.958 115.413 148.892C119.045 159.558 122.158 169.705 126.107 179.506C127.059 181.899 130.633 184.32 133.285 184.753C153.609 187.837 153.608 187.78 152.427 208.304C150.12 248.835 146.719 289.222 137.609 328.888C136.658 333.039 133.487 337.94 129.913 340.073C103.536 355.813 66.2912 362.414 34.5814 338.43C30.8339 335.605 27.4323 331.021 26.0197 326.582C14.2871 289.914 7.16688 252.208 2.2951 214.07C2.09331 212.398 1.97795 210.697 1.51672 209.112C-1.51013 198.705 -0.558806 195.447 9.47302 191.296C16.6798 188.298 24.5784 186.915 32.1311 184.753C34.3219 184.118 37.1182 183.888 38.4731 182.389C45.5645 174.721 52.166 166.563 59.2286 158.837C62.5726 155.176 64.821 152.293 61.3329 147.076C58.6232 142.953 58.7674 137.966 63.9274 133.988ZM6.33088 213.551C6.50384 215.453 6.47499 217.558 6.93622 219.576C15.2384 255.523 23.5118 291.499 32.1023 327.389C32.823 330.416 35.3021 333.76 37.8965 335.461C66.1182 354.054 95.0318 351.517 124.032 337.392C126.943 335.98 130.72 333.645 131.44 331.021C134.265 320.788 136.024 310.266 138.417 298.706C135.649 299.744 134.554 300.148 133.487 300.609C113.481 308.94 92.7833 311.534 71.4513 307.758C68.5686 307.239 63.985 305.019 63.6679 303.001C61.7365 290.923 60.8429 278.7 59.5168 265.757C86.499 274.578 120.169 268.582 138.705 260.568C140.78 259.674 143.404 257.339 143.663 255.408C145.566 239.755 146.978 224.073 148.593 207.814C101.431 224.707 54.5586 228.137 6.33088 213.551ZM65.9164 196.947C65.0516 193.631 63.5238 191.123 63.9851 188.99C65.657 181.178 68.2226 173.568 69.9234 165.756C70.4712 163.161 69.3469 160.221 69.0009 157.425C66.8966 158.174 64.2733 158.376 62.7743 159.788C57.4989 164.689 52.5407 169.936 47.6113 175.153C42.7683 180.256 40.8946 186.569 42.9989 193.141C45.0168 199.454 47.4671 206.056 51.4741 211.158C54.1262 214.531 59.9781 217.27 64.2734 217.097C79.0905 216.52 93.8499 214.243 108.667 213.205C117.776 212.571 122.418 207.641 123.945 197.956C124.781 192.767 123.772 186.972 122.36 181.783C119.823 172.386 116.364 163.248 113.279 154.023C106.649 156.387 104.948 162.066 109.445 169.273C115.268 178.613 115.672 180.256 113.741 186.367C107.716 168.264 101.691 161.46 90.6213 160.711C98.0875 171.06 101.691 182.101 98.2604 196.024C97.165 187.981 97.3957 180.919 95.003 174.894C92.6104 168.811 88.0557 159.702 83.5875 159.183C75.5447 158.261 71.0477 167.139 68.8568 174.519C66.8966 181.265 66.9254 188.558 65.9164 196.947ZM62.3995 269.85C63.6391 280.199 64.504 289.712 66.0895 299.11C66.4066 301.012 69.174 303.664 71.1342 304.01C92.7257 307.758 113.625 305.365 133.516 295.91C135.736 294.843 138.59 292.768 139.022 290.721C140.752 282.159 141.674 273.425 143.087 263.451C116.133 273.281 90.1024 276.25 62.3995 269.85ZM81.3678 95.3022C80.3588 95.3887 79.3211 95.4751 78.3121 95.5616C76.496 110.436 74.5357 125.282 73.0367 140.186C72.8349 142.06 74.4781 144.942 76.0924 145.923C77.4761 146.73 80.9642 146.153 81.9731 144.942C83.9622 142.492 86.2684 139.062 86.0378 136.208C84.9135 122.515 82.9821 108.909 81.3678 95.3022ZM36.6858 187.981C26.3369 188.817 16.6798 192.046 7.80109 197.437C4.34184 199.541 2.58338 202.712 6.44621 206.229C9.27127 208.823 11.5198 210.121 15.5267 206.69C19.7067 203.116 25.2703 200.636 30.6321 199.109C36.5993 197.408 38.646 195.102 36.6858 187.981ZM16.4204 212.081C26.9711 213.81 37.0893 215.453 48.6202 217.327C44.8727 210.063 42.0765 204.643 39.1361 198.936C32.4482 204.557 21.2633 201.069 16.4204 212.081ZM91.169 142.579C95.6084 138.543 95.7237 116.346 91.3419 108.217C87.9115 115.193 87.825 131.567 91.169 142.579ZM145.883 201.732C149.371 196.774 149.515 193.487 143.75 192.075C139.224 190.951 134.64 190.172 128.961 189.019C129.797 202.02 141.761 195.592 145.883 201.732ZM96.7326 158.434C97.6839 150.621 98.4623 144.279 99.3271 137.274C95.2913 143.472 91.6014 149.209 87.3638 155.724C92.1203 157.107 94.8877 157.915 96.7326 158.434ZM63.1491 139.638C62.8608 147.912 66.1182 152.899 72.2296 154.398C75.1123 146.297 68.7992 143.703 63.1491 139.638ZM124.32 209.775C131.267 207.382 136.37 205.652 141.443 203.894C141.357 203.375 141.242 202.885 141.155 202.366C137.091 201.415 133.026 200.463 128.587 199.426C127.52 202.078 126.367 204.903 124.32 209.775ZM86.2972 153.994C86.6431 151.284 87.0468 148.315 87.4215 145.317C86.9026 145.26 86.3548 145.173 85.836 145.115C85.1441 146.96 84.4523 148.834 83.7316 150.737C81.8002 150.131 80.2435 149.641 78.0815 148.949C78.0815 151.919 78.0815 154.109 78.0815 156.589C80.5894 155.983 82.6362 155.522 84.6829 154.974C85.1153 154.801 85.49 154.455 86.2972 153.994Z" fill="white"/>
<path d="M407.258 121.679C410.141 123.87 412.995 126.061 417.607 129.52C416.252 107.813 413.312 88.2974 417.982 69.0985C418.818 69.185 419.625 69.2715 420.461 69.358C420.057 70.684 419.654 71.9813 419.279 73.3361C416.396 91.4395 417.636 109.255 422.335 127.041C423.891 124.533 424.929 121.881 424.785 119.344C424.122 109.312 423.228 99.2805 422.104 89.3064C421.499 83.9157 420.173 78.6115 419.164 73.2497C420.576 75.5558 422.825 77.7179 423.257 80.197C424.929 89.8252 426.025 99.54 428.59 109.284C429.08 100.924 429.859 92.535 429.974 84.1751C430.291 60.3928 430.262 36.6104 430.608 12.8569C430.666 8.6481 431.877 4.49704 432.54 0.288289C433.606 0.201807 434.673 0.0864813 435.739 0C436.892 2.56561 438.536 5.04475 439.112 7.75449C446.261 41.7416 448.625 76.1612 447.789 110.869C447.703 114.04 449.922 117.211 450.499 120.468C450.902 122.803 451.306 125.974 450.095 127.56C446.982 131.596 448.02 134.536 451.104 137.621C451.767 138.312 452.344 139.091 452.949 139.811C467.622 157.54 467.622 157.54 473.128 181.005C478.173 182.216 483.333 183.283 488.407 184.724C499.015 187.722 500.889 190.403 499.678 201.184C496.219 232.692 492.558 264.171 489.156 295.68C488.435 302.339 488.724 309.142 487.974 315.801C487.657 318.626 486.59 322.402 484.515 323.844C460.444 340.679 433.923 347.885 404.75 341.716C389.212 338.43 379.671 328.658 376.154 312.86C369.898 284.754 363.383 256.705 356.753 228.685C354.822 220.527 352.285 212.542 349.748 204.528C348.018 199.022 348.912 193.747 353.784 191.21C361.913 186.944 370.561 183.427 379.325 180.602C383.418 179.276 385.724 178.526 386.301 173.626C387.713 161.72 393.392 151.919 402.675 144.164C410.746 137.419 410.458 137.505 403.309 129.52C401.608 127.618 401.752 124.101 401.06 121.333C403.222 121.564 405.413 121.766 407.575 121.996C406.134 122.429 404.693 122.861 403.251 123.293C404.03 124.937 404.404 126.955 405.615 128.194C414.119 136.986 414.234 137.851 405.471 146.413C397.111 154.6 391.692 164.228 390.971 176.076C390.337 186.886 393.854 196.255 400.888 204.528C407.46 212.254 415.676 214.185 425.304 213.003C435.278 211.764 445.31 210.726 455.371 210.121C461.223 209.775 463.99 206.748 465.229 201.588C470.303 180.544 467.91 161.201 452.459 144.683C446.751 138.572 439.746 132.316 449.894 123.207C447.155 123.207 445.886 122.89 444.878 123.265C441.101 124.764 437.411 126.464 433.693 128.108C435.48 130.068 437.296 132.057 439.083 134.017C439.4 134.363 439.862 134.68 440.006 135.113C442.888 143.818 445.714 152.524 448.567 161.259C447.962 161.461 447.357 161.662 446.78 161.864C441.072 151.486 442.917 137.217 430.81 130.125C429.484 129.347 428.071 126.926 427.466 127.185C425.909 127.819 424.295 129.29 423.546 130.817C421.095 135.891 419.394 141.31 416.771 146.269C409.881 159.298 406.451 172.79 410.487 187.636C408.786 184.81 407.748 181.957 407.287 179.016C405.125 164.632 409.997 151.919 417.694 140.33C421.672 134.305 420.057 131.74 414.321 128.886C411.438 127.387 409.564 124.129 407.258 121.679ZM374.712 289.51C377.336 299.6 380.363 308.68 381.948 317.963C383.389 326.409 388.578 331.079 395.497 334.221C400.253 336.383 405.384 338.286 410.516 338.862C434.5 341.486 456.87 336.355 477.106 323.152C479.816 321.393 482.209 317.386 482.641 314.129C485.783 290.577 488.32 266.939 491.174 243.358C492.759 230.213 494.547 217.126 496.19 204.442C449.663 222.574 402.732 221.277 355.283 211.822C358.742 224.102 362.028 236.123 365.661 247.999C366.151 249.556 368.313 251.142 370.042 251.718C388.117 257.714 406.595 259.357 425.448 256.1C427.725 255.696 429.974 255.293 433.721 254.63C433.721 264.027 432.828 272.474 433.981 280.632C435.076 288.415 431.876 290.865 425.217 292.134C408.671 295.247 392.383 294.152 374.712 289.51ZM430.032 259.213C407.835 262.903 387.483 261.346 366.9 253.477C369.12 263.624 370.59 272.128 373.012 280.372C373.79 283.024 376.73 286.138 379.325 286.945C394.488 291.586 409.939 291.615 425.333 288.098C427.12 287.694 429.715 285.359 429.801 283.803C430.291 275.962 430.032 268.121 430.032 259.213ZM435.999 3.28624C434.817 3.43038 433.635 3.54573 432.482 3.68986C432.482 43.8172 432.482 83.9157 432.482 123.87C443.523 121.564 444.849 120.843 444.445 109.341C443.465 82.0419 441.966 54.7426 440.179 27.4722C439.631 19.3141 437.44 11.329 435.999 3.28624ZM382.928 182.793C375.145 186.281 365.978 189.538 357.791 194.381C352.083 197.754 352.717 203.692 358.627 206.085C371.686 211.389 385.638 211.533 398.697 212.427C393.681 203.087 388.953 194.179 382.928 182.793ZM469.496 207.18C479.47 204.961 488.637 203.173 496.478 192.911C488.003 190.317 480.883 188.126 473.532 185.877C472.033 193.747 470.851 199.974 469.496 207.18Z" fill="white"/>
<path d="M239.426 137.303C223.312 123.265 232.508 108.332 236.342 93.4285C242.078 104.152 238.907 117.759 249.487 128.021C250.755 121.218 252.571 115.279 252.86 109.283C253.378 97.5508 252.86 85.7893 253.205 74.0567C253.292 71.2028 254.935 68.3778 255.858 65.5239C257.933 68.0031 261.479 70.3092 261.854 73.0189C264.044 88.3837 265.745 103.835 267.014 119.315C267.561 125.917 265.745 132.778 266.581 139.292C267.129 143.472 269.839 147.941 272.837 151.083C283.07 161.835 291.978 173.164 295.553 188.039C295.927 189.567 298.868 190.922 300.857 191.469C306.824 193.113 313.166 193.718 318.931 195.851C325.1 198.129 328.242 203.029 327.089 210.121C323.486 231.856 319.969 253.621 316.539 275.385C314.002 291.499 311.667 307.643 309.159 323.757C307.948 331.627 303.768 337.507 296.562 341.053C274.711 351.835 251.995 353.622 228.674 346.992C218.844 344.195 212.646 338.055 210.051 327.303C201 289.77 191.025 252.468 181.599 215.021C177.88 200.319 182.81 191.96 197.713 190.374C205.814 189.509 207.861 186.05 210.83 179.189C214.491 170.8 221.986 164.084 227.694 156.56C229.481 154.225 231.21 151.775 232.364 149.094C234.007 145.346 235.102 141.368 236.399 137.476C237.437 137.419 238.417 137.361 239.426 137.303ZM242.655 164.631L242.799 164.804C243.635 163.075 244.384 161.316 245.307 159.644C248.91 153.158 247.815 149.901 240.954 146.816C239.34 146.096 237.668 145.519 234.67 144.337C237.841 152.582 232.709 155.983 228.443 160.365C223.485 165.439 218.44 170.973 215.413 177.258C205.9 197.12 219.939 221.997 241.473 223.813C250.755 224.592 260.182 224.275 269.493 223.727C271.799 223.583 275.46 220.931 275.892 218.855C277.709 210.063 279.755 201.011 279.381 192.132C279.063 184.205 275.72 176.422 273.471 167.601C284.8 185.733 285.953 203.663 277.478 222.343C282.984 224.361 286.097 222.603 288.259 217.875C293.852 205.566 294.457 192.68 288.49 180.948C281.773 167.716 272.808 155.637 264.765 142.953C261.969 145.375 260.124 146.932 258.193 148.604C256.319 146.096 255.051 144.395 252.744 141.339C252.571 144.51 252.715 145.865 252.427 147.133C250.842 153.879 250.813 161.547 242.655 164.631ZM186.529 218.077C186.529 218.134 186.327 219.086 186.557 219.893C196.733 257.166 206.794 294.469 217.402 331.627C218.411 335.173 222.274 339.237 225.733 340.477C249.314 349.038 272.462 346.819 294.745 335.663C300.367 332.838 303.365 328.196 304.287 321.48C307.228 300.321 310.888 279.248 314.232 258.175C316.164 246.183 318.066 234.162 319.825 223.035C274.624 232.289 230.403 235.633 186.529 218.077ZM222.13 222.257C217.719 215.05 212.53 208.477 209.446 201.069C206.044 192.853 206.16 192.017 197.569 194.554C194.86 195.361 192.121 196.428 189.728 197.927C183.156 202.02 182.983 206.632 189.123 211.475C199.126 219.316 210.887 221.594 222.13 222.257ZM292.468 221.911C301.26 220.844 309.908 220.527 317.029 214.791C323.457 209.602 322.823 203.317 315.299 200.406C309.736 198.244 303.653 197.408 297.974 196.024C296.014 205.278 294.371 212.946 292.468 221.911ZM256.867 71.0011C256.751 71.6929 256.492 72.3559 256.549 73.0478C258.193 92.9961 257.933 112.743 250.957 131.884C250.38 133.498 250.323 136.121 251.274 137.246C252.168 138.341 255.944 138.831 256.29 138.283C258.971 133.873 262.574 129.318 263.151 124.475C265.284 106.372 263.843 88.3838 256.867 71.0011ZM248.391 148.776C248.881 148.459 249.372 148.142 249.862 147.825C245.048 132.345 240.233 116.865 235.938 103.057C225.532 117.067 238.533 129.52 242.712 143.213C243.404 145.433 246.46 146.932 248.391 148.776ZM266.956 130.875C266.091 130.385 265.226 129.895 264.362 129.434C258.135 131.999 260.787 138.283 260.672 143.472C262.747 139.292 264.852 135.084 266.956 130.875Z" fill="white"/>
<path d="M215.991 156.531C215.991 144.308 215.991 132.086 215.991 118.422C219.191 132.086 222.563 144.279 215.991 156.531Z" fill="white"/>
<path d="M96.7037 284.004C97.7703 285.821 99.0387 287.954 100.595 290.548C103.132 288.3 104.977 286.685 107.226 284.725C103.795 292.624 102.959 292.998 97.5397 290.577C93.9363 292.364 91.0248 293.806 88.1132 295.247C86.1242 291.211 84.1351 287.175 82.146 283.14C82.6361 282.909 83.1261 282.707 83.6162 282.477C83.7603 282.563 83.9909 282.621 84.0486 282.736C85.8935 286.397 87.7096 290.058 89.5546 293.719C91.9472 290.462 94.3399 287.204 96.7037 284.004Z" fill="white"/>
<path d="M391 273.944C393.046 270.975 394.257 269.216 396.131 266.535C397.284 269.475 398.005 271.263 398.927 273.598C401.377 271.839 403.424 270.369 405.442 268.899C405.528 269.562 405.586 270.196 405.673 270.859C411.784 270.484 417.895 270.11 424.814 269.706C422.623 272.762 421.96 277.23 417.031 273.281C416.454 272.819 415.128 272.589 414.494 272.935C406.566 277.028 398.034 274.088 389.847 274.722C387.569 274.895 384.888 270.081 382.409 267.573C383.072 266.996 383.706 266.42 384.369 265.814C386.272 268.149 388.175 270.484 391 273.944Z" fill="white"/>
<path d="M300.05 265.354C300.05 271.84 300.482 279.508 299.819 287.06C299.589 289.655 297.11 293.229 294.746 294.267C273.644 303.434 251.649 305.02 229.308 300.119C226.195 299.427 222.217 295.622 221.438 292.538C219.219 283.918 218.469 274.895 217.028 265.354C245.192 265.354 271.626 265.354 300.05 265.354ZM296.562 269.015C270.329 269.015 245.336 269.015 219.334 269.015C220.574 275.847 221.352 283.255 223.456 290.26C224.263 292.97 227.78 296.17 230.577 296.746C251.592 301.128 272.174 298.851 292.065 290.981C293.967 290.231 296.158 287.522 296.36 285.532C296.965 279.882 296.562 274.117 296.562 269.015Z" fill="white"/>
<path d="M251.074 284.812C247.153 286.311 241.59 288.444 233.46 291.586C232.913 291.009 231.096 289.049 229.251 287.118C229.77 286.57 230.26 285.994 230.779 285.446C232.278 286.714 233.777 287.983 236.199 290.058C238.217 286.599 240.004 283.543 241.791 280.516C244.645 287.666 246.461 287.32 254.302 277.778C255.282 280.199 256.176 282.448 257.589 286.051C260.442 282.938 262.547 280.632 265.055 277.893C266.064 279.133 267.159 280.43 268.456 281.987C270.59 280.862 272.636 279.738 274.423 278.787C276.586 280.574 278.632 282.275 280.91 284.149C280.131 284.293 278.373 285.186 277.364 284.639C271.339 281.525 266.093 282.707 260.471 285.994C258.569 287.031 255.167 285.417 251.074 284.812Z" fill="white"/>
</svg>
