<svg width="500" height="388" viewBox="0 0 500 388" fill="none" xmlns="http://www.w3.org/2000/svg">
<path d="M176.825 178.1C176.825 161.48 176.553 146.956 176.942 132.394C177.097 126.646 177.408 120.317 179.854 115.346C188.203 98.6867 196.63 81.9496 206.688 66.2999C229.988 30.0687 263.967 10.1862 306.566 5.09911C324.197 3.00213 341.904 -0.221036 359.573 0.0119624C399.494 0.516792 424.697 23.739 437.861 59.077C444.851 77.8334 452.617 92.7064 472.578 99.8128C483.8 103.813 487.101 115.268 488.15 126.103C494.479 191.109 502.129 256.077 499.45 321.627C498.945 333.743 494.246 341.898 484.111 347.606C399.222 395.449 311.925 400.38 222.182 362.441C197.174 351.878 179.427 333.976 180.01 306.249C180.747 268.193 158.535 242.835 135.779 218.137C123.585 204.895 106.732 195.847 91.6257 185.517C89.2568 183.886 83.8202 183.964 81.4514 185.595C64.5202 197.323 47.2783 202.915 28.3278 190.682C7.74625 177.401 -2.19489 158.373 0.406923 133.869C3.94073 100.628 19.4351 72.7851 42.7349 49.7182C67.0832 25.6418 103.159 32.3599 119.236 62.805C128.4 80.1633 129.76 98.4925 125.682 117.521C124.944 120.899 124.828 125.986 126.808 128.122C141.332 144.16 156.477 159.655 171.466 175.265C172.243 176.042 173.563 176.353 176.825 178.1ZM186.533 287.415C183.776 325.044 195.31 341.704 220.823 353.548C233.91 359.645 248.2 363.14 261.908 367.877C338.72 394.361 410.328 378.517 479.373 341.393C487.917 336.811 492.11 330.52 491.839 320.423C491.023 289.706 491.528 258.951 490.13 228.311C488.771 199.031 485.664 169.868 483.296 140.16C473.471 145.364 464.927 150.412 455.957 154.529C426.094 168.237 394.911 177.324 362.253 181.556C322.1 186.76 282.141 185.945 242.57 177.518C218.804 172.469 197.601 162.256 182.573 137.986C182.573 152.975 182.806 164.47 182.495 175.964C182.301 182.45 184.592 186.915 190.106 190.449C203.698 199.148 216.979 208.39 230.57 217.127C243.463 225.438 250.88 237.204 251.579 252.349C252.355 269.746 252.627 287.26 251.928 304.657C251.618 312.191 249.055 319.918 246.259 327.064C242.725 336.073 236.978 344.073 226.143 344.383C216.008 344.655 213.872 335.063 209.911 328.423C201.873 314.87 194.3 301.084 186.533 287.415ZM310.799 176.935C347.069 176.935 381.514 172.314 415.143 161.868C420.153 160.315 424.425 158.684 423.182 152.121C419.221 131.229 415.61 110.259 411.105 89.4833C410.445 86.3378 406.095 82.2603 402.911 81.6778C358.875 73.6394 314.566 69.0959 269.83 74.5714C244.123 77.7169 219.969 85.6 199.349 101.988C184.281 113.987 182.961 125.909 194.339 141.442C203.271 153.635 215.736 160.936 229.716 165.829C256.355 175.071 284.121 176.236 310.799 176.935ZM122.42 133.365C112.362 148.315 102.033 163.693 91.4314 179.421C116.751 190.1 138.769 206.177 154.341 229.01C177.058 262.329 198.339 296.657 219.619 330.908C224.085 338.131 228.59 338.597 233.056 333.277C237.25 328.306 241.521 321.821 242.142 315.647C244.006 297.085 244.395 278.367 244.822 259.727C245.21 241.981 236.745 229.632 221.833 219.923C203.193 207.808 184.67 195.109 168.01 180.508C151.351 165.984 137.099 148.742 122.42 133.365ZM6.11538 138.141C7.31921 145.325 7.82394 151.81 9.53259 157.985C16.3284 182.721 35.9779 189.867 54.8119 172.741C69.7238 159.189 83.1989 143.539 94.6546 126.957C106.46 109.871 111.198 89.7163 106.343 68.6299C100.674 43.9321 78.5389 33.4084 57.4525 47.1164C24.7551 68.3969 11.6297 101.599 6.11538 138.141ZM405.164 74.0277C390.329 28.9814 355.651 6.65243 310.023 11.4677C273.131 15.3899 246.919 38.6508 243.618 71.5036C297.441 59.6983 350.797 65.135 405.164 74.0277ZM438.443 83.037C429.279 34.6122 389.087 -0.415183 351.535 6.61359C352.351 7.31259 352.972 8.16692 353.748 8.43875C381.165 17.0985 398.756 36.7092 408.464 62.339C414.173 77.3674 424.696 80.4352 438.443 83.037ZM40.9485 192.158C48.3268 190.721 56.7147 191.032 62.9669 187.537C96.0914 168.897 116.906 141.092 121.721 102.725C123.158 91.3472 121.605 80.1245 115.236 67.7368C116.828 126.491 85.723 162.412 40.9485 192.158ZM420.036 86.5319C424.23 109.754 428.347 132.238 432.424 154.762C450.404 151.034 452.074 149.014 450.132 131.811C449.278 124.472 447.725 117.21 446.171 109.948C441.783 89.7551 441.744 89.7939 420.036 86.5319ZM251.89 31.3502C233.793 38.7673 205.678 70.7269 202.183 89.1726C212.474 84.5903 223.037 79.9692 233.444 75.0762C235.269 74.2219 237.327 72.5132 237.987 70.7269C242.997 57.1742 247.657 43.4661 251.89 31.3502ZM459.297 143.306C468.733 140.316 476.772 135.462 479.335 125.676C480.538 121.016 480.305 113.327 477.393 110.803C470.209 104.55 461.122 100.512 450.637 94.3374C453.899 112.783 456.54 127.773 459.297 143.306Z" fill="white"/>
<path d="M277.481 137.791C265.753 134.568 253.637 132.394 242.415 127.889C229.91 122.88 229.406 109.56 241.094 102.492C245.871 99.6185 252.045 97.638 257.521 97.7157C278.18 98.0264 298.878 99.036 319.459 100.628C322.993 100.9 328.857 105.327 328.935 107.968C329.051 112.783 326.993 120.2 323.459 122.064C312.78 127.656 301.091 131.384 289.597 135.228C286.063 136.432 281.908 135.772 278.024 135.966C277.83 136.588 277.675 137.17 277.481 137.791ZM278.335 102.337C270.801 103.269 258.958 104.201 247.385 106.57C244.279 107.191 240.123 112.162 240.007 115.268C239.929 117.948 244.434 121.948 247.735 123.346C269.093 132.161 290.451 131.384 311.499 121.986C314.372 120.705 317.323 118.996 319.537 116.783C324.702 111.696 323.498 107.346 316.353 106.298C305.208 104.628 293.907 103.89 278.335 102.337Z" fill="white"/>
<path d="M38.6576 150.296C34.4248 155.344 31.2406 159.15 28.0174 162.994C25.9204 158.878 22.775 154.917 21.9983 150.568C21.0664 145.442 23.8234 140.277 29.8037 141.17C32.6385 141.597 34.852 146.218 38.6576 150.296Z" fill="white"/>
<path d="M64.2877 65.6396C59.0841 70.2608 54.929 73.9499 50.7739 77.639C49.4535 75.5421 46.5021 72.5131 47.0458 71.4646C49.8806 66.4551 53.6474 61.9505 57.1035 57.2517C58.9287 59.3875 60.7539 61.4845 64.2877 65.6396Z" fill="white"/>
<path d="M40.4433 102.414C35.395 106.841 31.6669 110.065 27.9778 113.327C26.3857 110.569 22.7742 106.725 23.5509 105.249C25.6867 101.327 29.6865 98.3758 32.9484 95.075C34.8901 96.9389 36.793 98.8418 40.4433 102.414Z" fill="white"/>
<path d="M44.1716 111.268C49.1811 107.074 53.2197 103.696 57.2583 100.356C58.4622 102.647 61.297 106.026 60.598 107.035C57.6856 111.385 53.7246 115.074 50.1131 118.996C48.6374 117.054 47.1229 115.113 44.1716 111.268Z" fill="white"/>
<path d="M89.1404 57.7952C89.6452 65.7171 88.8685 72.474 80.5194 74.3768C79.0826 74.6875 75.277 70.7654 74.8887 68.4354C73.879 61.9891 79.9369 57.5622 89.1404 57.7952Z" fill="white"/>
<path d="M88.4027 122.142C83.2767 126.802 79.5876 130.103 75.8985 133.442C74.3451 131.345 71.0056 128.161 71.5104 127.345C73.9957 123.268 77.4131 119.734 80.8692 116.433C81.1799 116.161 84.4417 119.074 88.4027 122.142Z" fill="white"/>
<path d="M67.0055 139.461C64.326 144.005 61.9961 148.82 58.7729 152.936C57.7633 154.218 53.5305 154.606 52.2101 153.558C50.851 152.47 50.1908 148.276 51.2004 146.995C54.4236 142.878 58.5787 139.5 62.3455 135.811C63.8988 137.053 65.4522 138.257 67.0055 139.461Z" fill="white"/>
<path d="M78.1899 86.9979C81.1801 91.5802 84.5197 94.648 83.8984 96.2013C82.6557 99.5021 79.5878 102.415 76.6365 104.589C76.0928 105.016 70.5009 100.784 70.8115 99.9681C72.2095 96.0848 74.8114 92.6287 78.1899 86.9979Z" fill="white"/>
</svg>
