<svg width="157" height="500" viewBox="0 0 157 500" fill="none" xmlns="http://www.w3.org/2000/svg">
<path d="M89.2605 376.211C89.2605 394.21 89.3339 412.246 89.2237 430.245C89.1503 445.562 89.3707 460.88 88.5258 476.124C88.1952 482.295 86.2851 488.833 83.3465 494.27C81.767 497.208 76.5142 498.163 72.9144 500C71.739 496.804 69.6085 493.645 69.4983 490.45C68.433 457.096 67.7351 423.743 66.8535 390.39C66.7801 386.863 66.3025 383.337 66.0087 379.81C65.1271 379.37 64.2455 378.892 63.4006 378.451C60.7192 381.574 56.6051 384.292 55.5766 387.892C52.5645 398.397 50.1034 409.123 48.6341 419.96C46.5771 435.093 46.5403 450.521 43.969 465.508C41.5814 479.283 34.2349 490.596 20.3499 496.143C12.232 499.376 7.56694 498.384 0 491.882C0.624456 490.707 0.955047 489.054 1.98356 488.245C16.6766 477.042 21.0846 461.137 22.5171 443.872C23.8028 428.334 23.8763 412.65 26.2639 397.295C28.9821 379.884 37.7245 365.889 54.9889 358.542C57.0459 357.661 59.1397 354.024 59.1029 351.673C58.7723 333.013 58.1479 314.353 57.0459 295.729C56.899 293.121 53.8134 290.624 51.94 288.199C47.7892 282.873 41.6916 278.208 39.6346 272.184C31.2595 247.426 27.1455 221.86 26.7414 195.596C26.0802 149.68 24.0967 103.801 24.2436 57.922C24.2803 44.6615 28.174 30.7764 33.1329 18.2872C37.8714 6.45931 48.3035 -1.14437 62.2619 0.141271C74.3103 1.24325 84.8158 11.5286 86.6157 26.4788C89.7747 52.8896 91.5012 79.4472 93.3745 106.005C95.4683 135.318 97.9661 164.63 98.6273 193.98C99.1048 214.073 97.709 234.349 95.2479 254.295C94.1827 262.89 89.5543 272 84.0077 278.796C79.2324 284.636 77.5795 289.852 77.8366 296.831C78.4243 312.112 78.6447 327.43 78.9386 342.711C79.0121 347.412 79.7467 351.122 85.6607 351.6C105.496 353.253 116.7 366.036 121.732 383.447C125.773 397.406 126.948 412.246 128.564 426.792C130.585 445.048 135.287 461.504 151.192 472.965C156.775 476.969 158.391 482.883 153.579 488.98C149.318 494.343 139.915 495.959 134.589 490.89C129.666 486.189 125.442 480.164 122.651 473.92C111.52 448.868 105.056 422.494 102.411 395.165C102.007 390.941 101.639 386.423 99.8395 382.713C98.26 379.443 94.7704 377.092 92.0889 374.337C91.2073 374.962 90.2523 375.586 89.2605 376.211ZM30.4881 140.571C31.1126 140.571 31.7371 140.571 32.3248 140.571C33.2431 169.92 33.2431 199.38 35.4838 228.619C36.5858 243.018 40.9202 257.417 45.4751 271.265C49.5524 283.571 62.4823 286.693 73.3185 279.347C82.869 272.882 87.5708 263.074 88.6728 252.238C90.4727 234.312 92.5664 216.203 91.7216 198.314C89.2237 145.125 85.477 92.0097 81.8037 38.8942C81.2895 31.7681 79.3059 24.238 76.0734 17.92C69.5717 5.21048 56.4949 2.74937 46.5403 12.8509C40.81 18.6914 36.2919 26.6624 33.8308 34.4865C31.1493 43.0452 30.7453 52.5588 30.6351 61.6686C30.231 87.9324 30.4881 114.27 30.4881 140.571ZM75.7061 489.935C76.9918 490.045 78.2774 490.156 79.563 490.266C80.4079 484.719 81.8772 479.209 81.9507 473.663C82.3915 442.77 82.3547 411.842 82.9792 380.949C83.0527 376.799 85.9545 369.268 87.7177 369.232C92.6032 369.121 99.6191 370.664 102.043 374.154C105.974 379.847 108.104 387.451 108.839 394.467C111.814 422.09 118.463 448.684 129.85 473.956C131.907 478.511 135.323 482.846 139.18 485.968C140.833 487.327 145.168 485.38 148.29 484.94C147.629 482.332 147.849 478.548 146.196 477.299C128.344 464.259 124.193 445.158 121.842 424.955C120.3 411.621 119.087 398.067 115.451 385.247C111.08 369.893 101.015 359.02 83.6404 357.771C76.0367 357.22 72.9144 352.775 72.6206 345.723C72.3634 339.625 72.1063 333.491 72.0696 327.356C71.9961 314.941 72.0328 302.525 72.0328 290.513C63.217 288.86 61.2334 291.762 61.6375 298.154C62.8864 316.777 63.6211 335.438 64.7598 354.061C65.0536 358.946 64.0251 361.959 58.8091 363.722C46.6138 367.799 38.6428 376.945 35.2634 388.884C32.2513 399.646 30.4514 410.997 29.8637 422.2C28.578 446.334 29.276 470.798 9.99129 490.413C21.8192 490.56 31.0759 484.535 34.6389 472.193C38.1653 459.998 39.4877 447.105 41.1774 434.432C42.6467 423.229 42.1691 411.658 44.667 400.748C46.6505 392.116 50.7279 383.374 56.0541 376.284C61.7477 368.717 70.7839 371.876 72.9512 381.206C73.5021 383.557 73.5389 386.055 73.5756 388.516C74.2735 416.066 74.9715 443.579 75.5592 471.128C75.8163 477.373 75.7061 483.654 75.7061 489.935Z" fill="white"/>
<path d="M67.1117 27.9111C65.7158 37.3881 62.7038 41.9798 55.5776 41.943C48.929 41.8696 47.7168 36.9842 48.0474 31.6947C48.4515 25.744 49.5535 18.6545 57.1939 19.7198C61.2345 20.234 64.6139 25.7071 67.1117 27.9111Z" fill="white"/>
</svg>
