<svg width="194" height="500" viewBox="0 0 194 500" fill="none" xmlns="http://www.w3.org/2000/svg">
<path d="M151.149 458.986C151.773 466.038 153.499 472.833 152.545 479.187C151.883 483.374 147.329 486.937 144.538 490.794C140.461 487.708 136.2 484.77 132.417 481.354C131.315 480.363 131.462 477.902 131.205 476.102C129.111 461.925 123.565 458.509 108.212 462.916C110.196 466.736 112.253 470.336 113.942 474.082C118.276 483.778 115.632 493.108 107.882 496.046C100.426 498.911 92.5657 494.356 88.8193 484.66C86.7257 479.261 85.4769 473.531 83.3099 468.132C80.9592 462.255 76.8089 458.729 68.3612 460.492C69.9773 464.312 71.3363 467.434 72.6218 470.629C74.0909 474.302 77.2864 478.416 76.5151 481.538C75.2663 486.607 72.4014 493.071 68.3244 495.054C65.4963 496.413 58.7014 492.116 55.1386 488.774C52.3105 486.129 51.7962 481.06 50.07 477.167C48.6008 473.825 47.7194 469.307 45.0748 467.654C41.255 465.267 36.1128 464.973 31.5584 463.798C32.2563 467.875 32.3664 472.172 33.8356 475.955C35.3782 479.848 39.8225 483.044 40.1898 486.827C40.5938 490.977 38.9778 496.891 36.0027 499.241C33.8357 500.968 26.7469 499.535 24.2125 497.074C17.234 490.316 11.1002 482.53 5.29701 474.67C-5.20755 460.308 0.338561 446.902 18.1522 445.396C31.7788 444.221 45.6258 445.47 59.3992 445.874C68.7652 446.168 78.1311 446.829 87.7174 447.343C85.881 425.122 84.1547 404.149 82.4284 383.177C82.3917 382.883 82.355 382.553 82.355 382.259C84.5588 333.482 73.8338 285.845 69.7201 237.619C64.5413 176.502 60.8684 115.274 57.122 54.0463C56.5344 44.1661 57.7096 33.735 60.2807 24.1854C64.5046 8.57552 78.8657 -1.04754 93.1166 0.0910699C106.339 1.15622 117.799 11.5873 119.194 27.8951C120.994 49.1613 121.141 70.6479 120.37 91.9876C118.754 135.218 112.363 177.824 102.152 219.916C101.528 222.523 103.474 225.719 104.025 228.657C104.539 231.265 105.274 233.946 105.09 236.517C103.915 254.845 104.76 273.65 100.793 291.354C91.7209 331.719 98.7362 371.534 101.785 411.532C102.556 421.743 105.935 431.88 109.02 441.76C109.718 443.927 114.346 446.204 117.101 446.131C130.25 445.837 143.399 444.956 156.511 443.854C169.55 442.789 179.357 447.123 184.572 459.611C187.731 467.177 191.147 474.706 193.094 482.566C193.828 485.541 191.588 491.455 189.2 492.41C186.005 493.695 179.541 492.924 177.778 490.537C173.003 484.072 169.697 476.469 166.355 469.087C163.306 462.329 160.294 456.305 151.149 458.986ZM63.4761 95.9544C63.77 95.9911 64.0639 95.9911 64.3577 96.0279C67.8102 137.752 71.4096 179.44 74.6051 221.164C75.156 228.327 79.233 229.355 84.7791 230.237C91.1333 231.265 93.0799 228.253 94.5124 222.597C109.461 162.912 115.852 102.345 114.236 40.8972C114.052 34.5798 112.877 28.0788 110.783 22.1286C107.845 13.6809 102.226 7.14307 92.4555 6.33503C82.5754 5.52699 74.5317 10.0814 70.5282 18.4557C66.8185 26.2056 64.3209 35.1675 63.8434 43.7254C62.7783 61.0983 63.4761 78.5447 63.4761 95.9544ZM183.177 488.443C184.352 487.855 185.491 487.304 186.666 486.717C188.098 477.645 182.883 470.409 179.21 462.622C174.215 452.008 166.171 448.188 154.712 449.29C141.93 450.539 128.964 450.171 116.33 452.081C106.266 453.624 103.327 449.73 101.307 440.732C92.1985 400.403 91.5005 359.487 91.6842 318.497C91.6842 316.036 92.0882 313.575 91.7577 311.188C91.6108 310.123 90.0314 308.507 89.0764 308.507C87.9745 308.507 86.285 309.792 85.9177 310.857C85.3668 312.51 85.5872 314.493 85.6974 316.293C88.5623 357.724 91.17 399.191 94.5858 440.585C95.3204 449.29 92.5657 451.457 84.8526 451.126C72.3279 450.539 59.8032 450.134 47.2785 449.914C37.8024 449.73 28.2528 448.996 18.8869 450.135C5.29705 451.787 1.88115 460.308 9.8514 471.401C14.8466 478.343 20.356 484.917 26.1225 491.234C27.7386 492.997 31.0075 493.255 33.5418 494.21C33.6153 491.418 34.6804 488.149 33.6152 485.946C31.5217 481.611 27.2244 478.159 25.7552 473.715C24.4697 469.895 24.2861 463.981 26.4531 461.227C28.6568 458.399 35.415 456.085 38.2431 457.48C44.1198 460.345 49.4456 465.23 53.5593 470.409C56.6445 474.266 56.975 480.216 59.5461 484.66C60.9418 487.084 64.3577 488.333 66.8553 490.096C68.1408 486.974 70.9689 483.485 70.3812 480.767C69.3161 475.845 66.0472 471.474 63.9536 466.736C60.5378 459.023 63.6598 454.028 72.1075 454.028C81.2531 454.028 86.7625 459.354 89.7009 467.544C91.7577 473.274 92.7126 479.591 95.7244 484.733C97.4139 487.635 102.189 488.737 105.568 490.647C106.743 486.386 109.241 482.015 108.763 477.939C108.323 474.045 103.878 470.703 102.997 466.736C102.336 463.761 103.511 458.252 105.641 457.076C119.452 449.437 135.282 458.362 137.412 474.009C137.926 477.865 140.387 481.428 142.811 487.158C148.688 477.645 147.182 470.85 144.538 464.312C141.563 456.966 145.382 453.697 151.479 452.448C160.074 450.685 166.428 454.799 170.248 462.292C172.452 466.589 173.186 471.658 175.317 475.992C177.447 480.436 180.495 484.329 183.177 488.443ZM76.111 233.579C75.8906 234.754 75.1561 236.517 75.3397 238.133C77.5802 256.645 79.7104 275.193 82.5018 293.594C82.9793 296.753 86.5788 299.434 88.7459 302.336C90.9496 299.361 94.6226 296.606 95.1001 293.411C96.6794 282.87 97.1936 272.145 97.9649 261.456C98.6261 252.752 99.1035 244.047 99.6544 235.342C91.1333 234.717 83.8976 234.167 76.111 233.579Z" fill="white"/>
<path d="M101.674 41.0442C101.674 49.7123 97.083 55.7359 90.288 55.8828C83.1258 56.0665 77.6532 49.4919 77.7634 40.9707C77.9103 32.1925 82.5381 26.1689 89.1861 26.1689C96.4218 26.1321 101.637 32.3394 101.674 41.0442ZM99.5438 41.485C95.3566 37.1509 92.4917 34.1758 89.6636 31.2008C86.9824 34.3227 81.877 37.6651 82.1708 40.4565C82.5381 44.1662 87.0925 47.4718 89.8472 50.9244C92.5652 48.2799 95.2832 45.6354 99.5438 41.485Z" fill="white"/>
</svg>
