<svg width="167" height="500" viewBox="0 0 167 500" fill="none" xmlns="http://www.w3.org/2000/svg">
<path d="M75.7454 339.747C73.9801 319.815 72.2469 300.943 70.61 282.07C65.1535 219.77 59.5366 157.503 54.4332 95.1713C53.5666 84.7399 51.3199 77.3897 40.4071 72.9604C31.9657 69.526 24.2946 63.3957 17.458 57.1689C11.8732 52.0656 6.99453 45.5821 3.62439 38.7776C-4.78491 21.8948 1.6986 8.79936 20.3788 5.81437C37.4863 3.08616 54.8826 1.86648 72.1827 0.48633C80.6883 -0.187699 89.2902 -0.0592869 97.8279 0.261679C122.414 1.12829 134.193 22.1516 120.36 42.7897C114.261 51.9051 104.729 60.3143 94.8108 64.9362C78.1206 72.7678 72.7283 84.3547 75.296 101.398C78.602 123.288 82.6141 145.114 85.0534 167.132C89.3865 206.418 92.7566 245.801 96.5119 285.151C97.86 299.241 99.6252 313.332 100.46 327.454C100.909 334.997 104.857 337.244 111.244 337.051C125.367 336.602 139.521 336.185 153.644 335.125C158.266 334.772 160.705 335.286 161.443 340.261C167.221 378.327 169.628 416.394 159.068 454.011C149.856 486.75 126.779 503.376 96.7687 499.428C76.1305 496.732 59.8576 486.076 47.3399 469.61C34.2445 452.406 27.1191 432.571 22.9465 411.74C19.0949 392.642 16.8161 373.256 13.6064 354.03C12.5152 347.483 15.2433 345.685 21.3096 345.204C39.0269 343.631 56.7763 341.641 75.7454 339.747ZM74.6542 344.786C57.0973 346.873 40.3749 348.702 23.7489 351.109C22.2404 351.334 19.8974 355.282 20.2183 357.112C24.102 379.996 27.5684 402.978 32.8323 425.574C36.8764 442.842 45.0611 458.633 57.4825 471.793C68.299 483.251 81.3302 490.633 96.9612 492.976C122.831 496.828 143.854 482.449 152.456 452.952C162.695 417.902 160.448 382.083 155.473 346.423C155.249 344.851 153.066 342.379 151.782 342.347C135.092 342.058 118.402 342.155 101.455 342.155C101.647 343.791 101.776 344.819 101.84 345.878C103.156 366.355 104.761 386.833 105.627 407.343C105.884 413.537 104.087 420.374 96.0947 420.855C88.6161 421.305 87.3965 414.853 86.3373 409.333C82.3894 388.181 78.6662 366.997 74.6542 344.786ZM78.8908 5.30082C78.8908 5.4292 78.8908 5.55757 78.8908 5.68596C73.2739 5.68596 67.625 5.20451 62.0723 5.78225C47.4683 7.32288 32.7681 8.51049 18.453 11.4313C5.55017 14.0632 1.28133 23.1786 7.12291 34.9902C10.5572 41.9551 15.7248 48.567 21.5022 53.7667C27.3437 59.0626 34.5013 63.4278 41.7872 66.4127C53.0531 71.0347 57.0973 79.2513 58.1565 90.5493C62.2969 135.517 66.9188 180.452 70.963 225.419C74.622 266.374 77.7033 307.394 81.266 348.381C81.4265 350.339 83.1597 352.939 84.8608 353.741C86.5941 354.544 90.5099 354.255 91.1839 353.132C93.2702 349.473 95.7416 345.139 95.5169 341.192C94.4578 323.057 92.243 305.019 91.0233 286.884C87.589 236.236 84.5399 185.587 74.2369 135.645C70.9309 119.597 71.0593 102.778 70.3211 86.2484C69.9038 76.9083 74.8788 70.3607 83.2881 65.835C91.4728 61.4057 99.6895 56.6554 106.847 50.7496C111.79 46.6733 116.251 40.9601 118.659 35.0222C125.27 18.6851 116.54 5.97486 99.0796 5.26874C92.243 5.07616 85.5669 5.30082 78.8908 5.30082ZM80.6562 361.22C84.251 377.814 87.7174 394.376 91.569 410.873C91.9863 412.735 94.3614 414.147 95.8378 415.752C97.3464 414.051 100.01 412.446 100.139 410.649C101.551 392.418 101.07 374.251 97.7636 356.405C92.3072 357.978 87.557 359.294 80.6562 361.22Z" fill="white"/>
<path d="M103.573 26.4847C102.482 28.7314 101.423 33.7385 98.3738 36.4988C87.5894 46.2562 76.2914 55.5 64.7687 64.3586C62.5861 66.0597 57.5149 66.6054 55.3003 65.2253C45.6392 59.1911 36.0102 52.8681 27.4404 45.3896C23.6209 42.0515 21.2458 36.0495 20.1224 30.8498C18.3571 22.8578 23.1715 16.1175 31.2278 15.2509C49.7796 13.2609 68.3635 11.5598 87.0116 10.7252C97.122 10.2759 103.477 16.4063 103.573 26.4847ZM84.1872 14.0312C83.8983 14.5768 83.6094 15.1225 83.3205 15.636C67.0797 17.0483 50.8067 18.2037 34.63 20.0012C25.6109 20.9961 22.337 27.6722 26.9268 35.6322C29.2378 39.6763 32.6721 43.4316 36.3953 46.2561C42.3332 50.7497 48.7204 54.7938 55.4286 58.0356C58.1889 59.3836 63.196 59.48 65.4428 57.811C75.0076 50.6534 84.3798 43.1107 92.8212 34.6693C95.8383 31.6522 98.3418 24.623 96.8333 21.5418C95.0038 17.8828 88.6165 16.4384 84.1872 14.0312Z" fill="white"/>
</svg>
