<svg width="431" height="500" viewBox="0 0 431 500" fill="none" xmlns="http://www.w3.org/2000/svg">
<path d="M406.245 474.841C404.785 483.13 405.136 490.748 395.913 490.952C386.631 491.186 387.011 483.218 385.61 477.818C382.779 481.875 380.823 486.516 377.35 489.288C372.3 493.345 368.623 491.507 366.93 485.261C366.2 482.517 365.5 479.773 364.799 477.03C364.041 476.563 363.282 476.125 362.523 475.658C362.173 476.797 361.706 477.906 361.443 479.073C359.458 487.946 358.641 488.53 348.571 488.004C340.545 487.596 333.89 482.984 334.211 476.388C334.562 469.295 330.972 468.683 325.601 467.982C295.801 464.1 267.49 469.062 240.492 481.933C238.099 483.072 235.501 485.202 234.509 487.508C230.131 497.724 226.687 499.037 218.018 492.908C210.459 501.168 210.459 501.168 198.288 493.754C195.836 495.885 193.443 497.928 191.05 500C190.583 499.504 190.086 499.008 189.619 498.512C190.291 497.023 190.874 495.447 191.692 494.017C195.807 486.924 198.405 486.72 204.709 492.09C206.227 493.375 210.634 494.046 210.867 493.579C214.983 485.29 219.77 484.443 225.84 492.732C232.32 475.833 247.906 474.053 261.098 469.325C283.981 461.152 307.71 460.452 331.643 464.129C337.013 464.947 339.086 467.427 338.94 472.856C338.765 480.416 345.39 485.202 352.716 482.955C354.263 482.488 355.08 479.949 356.452 478.577C358.962 476.096 361.618 473.79 364.245 471.426C366.405 473.965 368.856 476.33 370.637 479.131C371.717 480.824 371.746 483.188 372.242 485.261C372.943 485.553 373.614 485.844 374.314 486.107C375.686 483.568 376.912 480.97 378.43 478.548C380.035 476.008 381.932 473.644 383.713 471.222C386.106 473.528 388.645 475.717 390.747 478.256C391.535 479.219 390.863 481.32 391.593 482.43C392.556 483.86 394.424 485.932 395.562 485.728C397.284 485.407 399.006 483.626 400.116 482.05C400.845 481.029 400.057 478.985 400.729 477.818C402.042 475.541 403.822 471.893 405.486 471.864C408.025 471.776 411.236 473.761 413.075 475.833C414.826 477.818 415.147 481.029 416.139 483.831C421.685 479.569 424.02 467.019 421.831 453.33C415.088 461.035 406.566 461.094 397.635 460.277C380.21 458.642 362.756 457.27 345.302 455.869C302.894 452.513 262.061 458.992 222.425 474.549C190.933 486.924 158.448 489.551 126.08 478.373C111.136 473.206 97.0969 465.443 82.6785 458.905C83.525 468.77 87.4944 478.664 96.7758 483.685C103.372 487.245 112.712 485.377 118.053 492.82C118.141 492.937 118.637 492.908 118.754 492.791C126.05 485.377 130.37 493.17 135.974 495.768C138.396 496.906 142.103 496.41 144.847 495.505C148.174 494.396 151.122 492.12 154.128 490.398C162.271 498.774 162.3 498.803 171.874 492.82C178.441 488.734 179.492 496.381 183.286 499.3C173.742 498.803 164.198 497.957 154.654 497.928C145.022 497.869 135.04 502.802 125.437 495.155C117.966 500.204 112.216 497.14 107.838 489.464C107.604 490.281 107.371 491.098 107.108 491.886C103.606 491.186 99.0815 491.594 96.7466 489.551C88.2532 481.992 79.9349 474.432 66.6549 472.623C61.3137 477.264 54.4256 479.832 47.5375 471.28C46.837 470.434 43.3929 470.784 41.9627 471.718C36.5632 475.337 32.7689 474.257 28.9454 469.179C27.7779 467.632 23.9836 466.756 22.0572 467.427C17.7084 468.974 15.0524 467.778 12.7758 464.275C12.5131 463.867 12.1921 463.458 12.0461 463.02C8.01834 450.849 2.23933 438.941 0.371367 426.449C-3.0435 403.683 17.5917 378.145 41.7293 374.059C66.1587 369.943 90.705 366.324 115.339 363.726C132.676 361.888 145.226 353.19 155.967 340.61C161.804 333.751 162.563 325.667 160.841 317.202C154.362 285.535 148.933 253.633 141.111 222.316C129.524 175.938 122.373 128.947 117.732 81.4887C116.623 70.1642 116.535 58.6061 117.323 47.2523C118.345 32.6881 128.269 23.9321 140.936 19.4081C153.457 14.9425 166.533 11.2649 179.667 9.51367C209 5.60262 238.508 2.39213 268.016 0.290674C285.119 -0.935177 302.836 1.48734 316.816 11.9654C326.973 19.5832 337.072 20.0502 348.542 20.3421C365.5 20.7507 382.487 22.1517 399.357 23.9904C404.961 24.6034 410.594 27.2302 415.614 30.0029C424.516 34.8772 426.004 40.3642 424.808 50.5505C423.086 65.0272 422.21 79.5915 421.247 94.1558C416.314 167.181 411.586 240.207 406.478 313.204C404.873 336.057 408.23 357.655 418.299 378.349C424.895 391.921 430.995 406.077 430.587 421.458C430.149 437.715 428.106 453.914 426.676 470.113C426.355 473.732 426.559 477.847 424.866 480.737C422.881 484.122 419.437 488.033 415.964 488.822C410.973 489.931 410.594 484.706 409.776 480.824C409.514 479.336 408.171 477.993 406.245 474.841ZM264.601 327.184C264.805 350.446 248.694 362.179 231.006 372.366C213.465 382.464 193.822 386.142 174.267 390.17C153.603 394.402 132.968 398.955 112.624 404.5C101.679 407.478 92.6021 414.366 86.6771 424.552C78.6507 438.386 82.4158 451.579 95.8418 460.277C120.505 476.242 147.824 482.809 176.456 479.89C194.348 478.081 212.269 472.915 229.255 466.756C263.608 454.352 298.603 447.843 335.058 449.945C356.89 451.2 378.692 453.038 400.524 454.556C406.653 454.994 413.016 455.344 416.986 449.39C423.64 439.408 428.398 428.463 425.041 416.409C421.159 402.428 416.489 388.594 410.944 375.168C403.764 357.772 399.765 340.056 400.933 321.201C401.604 310.052 402.071 298.873 402.83 287.694C406.712 230.692 410.565 173.69 414.592 116.717C415.993 96.8995 417.803 77.1106 419.496 56.7673C350.936 78.8034 282.784 85.5164 213.699 62.0209C216.647 77.0522 219.799 92.7256 222.834 108.428C236.231 178.097 249.628 247.796 262.849 317.494C263.637 321.639 264.892 322.981 269.241 323.156C287.454 323.857 298.136 332.38 303.945 349.979C305.462 354.591 306.893 359.29 309.023 363.61C315.444 376.598 327.061 379.575 338.356 370.439C344.106 365.799 348.104 359.056 353.329 353.686C359.341 347.498 365.296 341.019 372.271 336.057C378.138 331.883 385.522 331.533 393.811 334.627C367.952 339.793 368.01 339.793 351.957 360.837C349.301 364.31 346.499 367.725 343.289 370.644C328.608 383.982 312.526 380.334 304.966 362.034C302.456 355.992 300.822 349.571 298.136 343.617C292.533 331.037 278.406 324.12 264.601 327.184ZM208.824 59.2191C179.404 63.3345 150.275 62.4588 120.913 54.8411C120.913 58.0516 120.622 60.4741 120.972 62.809C125.35 92.8424 128.881 123.022 134.456 152.851C143.854 203.257 154.595 253.4 164.665 303.689C167.963 320.092 167.817 320.121 183.986 319.742C197.296 319.421 202.141 322.835 206.606 335.619C208.766 341.807 210.4 348.257 213.232 354.095C217.785 363.522 229.372 367.2 237.311 361.771C250.503 352.723 261.04 342.011 257.421 323.857C256.749 320.53 256.924 317.056 256.312 313.729C249.015 274.531 241.572 235.391 234.275 196.193C225.84 151.07 217.493 105.918 208.824 59.2191ZM169.101 322.865C166.941 329.373 166.503 336.32 162.884 340.494C152.202 352.81 140.206 364.368 123.19 367.229C97.5638 371.548 71.7918 375.168 46.0489 378.874C26.5812 381.676 14.9357 393.701 7.87243 410.98C2.50203 424.085 5.62505 436.314 16.9204 444.837C35.0747 458.555 56.527 458.555 79.0593 459.635C78.6507 454.177 77.9502 449.915 78.0962 445.683C78.3005 439.262 77.9794 432.491 79.8765 426.478C83.3206 415.504 91.4346 407.215 101.884 403.391C118.433 397.32 135.565 392.709 152.64 388.331C173.07 383.107 193.764 378.874 214.282 373.883C218.485 372.862 222.309 370.323 226.337 368.513C214.866 364.777 209.934 356.809 206.986 346.944C205.439 341.836 204.446 336.232 201.586 331.971C198.988 328.148 194.494 324.12 190.203 323.244C183.198 321.814 175.726 322.865 169.101 322.865ZM213.378 50.6966C215.683 58.4311 220.674 60.1823 225.957 61.5832C273.882 74.3963 322.099 74.1628 370.345 63.9766C384.792 60.9411 399.094 56.7965 413.162 52.2434C422.152 49.3247 422.998 41.6778 415.059 36.6284C409.864 33.3303 403.735 30.4991 397.693 29.6527C343.61 22.0933 290.081 25.3622 237.428 40.014C229.022 42.3782 221.287 47.1358 213.378 50.6966ZM321.428 18.9702C318.742 17.3065 316.145 14.7674 313.08 13.9501C300.734 10.6228 288.359 5.95292 275.808 5.19406C243.119 3.20935 210.838 8.49218 178.791 14.6798C167.612 16.8396 156.434 19.4373 145.576 22.9105C135.624 26.0919 127.218 32.0168 123.278 42.4074C121.614 46.7271 121.614 50.317 127.568 51.6888C153.953 57.6721 180.426 58.8397 206.548 53.586C209.262 49.6458 211.947 45.3261 215.8 43.4873C225.607 38.8174 235.647 33.6804 246.154 31.5498C270.847 26.4712 295.889 23.1147 321.428 18.9702ZM17.4165 464.392C27.165 460.248 27.3401 460.101 33.0608 467.165C35.7168 470.434 37.6431 469.587 40.2115 467.457C44.035 464.275 47.5375 464.888 51.1275 468.245C57.6362 474.345 60.9051 473.615 66.2171 464.713C46.5451 462.933 27.1941 460.656 10.003 448.777C12.3963 453.885 14.8189 458.934 17.4165 464.392ZM69.5152 466.523C72.9009 468.595 76.2866 470.667 80.723 473.411C80.8397 462.933 75.3818 464.392 69.5152 466.523Z" fill="white"/>
</svg>
