<svg width="287" height="500" viewBox="0 0 287 500" fill="none" xmlns="http://www.w3.org/2000/svg">
<path d="M66.963 28.4756C75.5664 30.5313 81.5812 31.8254 87.596 33.5004C105.488 38.4493 119.726 56.4177 117.518 72.5587C116.833 77.5076 113.407 84.2077 109.371 85.8827C105.641 87.4815 98.1031 85.1211 94.6769 81.9234C84.2462 72.1779 75.0334 61.1384 63.0799 48.0428C63.0799 68.0669 63.9174 84.1314 62.6231 100.044C62.2424 105.069 56.6084 112.607 52.2686 113.444C47.472 114.434 40.1629 110.322 36.1276 106.211C24.5548 94.4099 24.0217 80.2485 31.1785 65.8586C34.5286 59.0824 38.8684 52.8393 43.8173 44.5404C26.1535 46.0631 7.8807 48.4994 1.02838 29.2368C-1.86482 20.9379 2.17058 10.2024 3.08423 0.533014C5.21606 0.38074 7.34786 0.152274 9.4797 0C13.8956 4.9489 18.007 10.1262 22.7274 14.7706C37.5741 29.3889 50.9743 29.8459 67.496 16.9026C90.6416 -1.37022 121.249 1.52291 142.795 24.4401C165.941 49.0323 169.976 79.259 167.007 111.313C166.398 118.089 165.408 124.789 164.418 132.935C183.148 134.534 200.203 134.991 216.953 137.504C274.055 146.259 290.501 166.968 285.857 223.69C279.766 298.228 272.837 372.69 267.203 447.304C265.909 464.74 258.371 475.856 243.22 482.632C185.204 508.671 128.786 505.397 74.1199 473.039C56.4561 462.608 47.8525 445.554 44.5025 426.291C32.0922 355.179 20.6716 283.915 8.10906 212.803C4.30221 191.104 14.1239 174.278 45.9491 160.649C74.1198 148.62 105.031 141.995 135.41 136.59C150.409 133.925 155.586 129.052 157.109 114.738C159.774 88.8518 158.784 63.8792 144.47 41.2665C125.969 12.3345 95.895 6.31975 66.963 28.4756ZM275.654 228.335C189.239 255.135 106.097 267.698 20.9002 233.36C21.2048 236.71 21.1285 239.756 21.7376 242.649C33.2343 302.416 45.3401 362.108 56.2276 421.951C60.339 444.792 72.8255 459.639 92.9257 469.384C138.303 491.236 184.138 492.758 231.19 474.485C246.646 468.471 254.336 459.106 255.554 442.28C257.762 411.292 261.797 380.456 264.767 349.469C268.421 309.877 271.924 270.21 275.654 228.335ZM237.053 222.929C225.099 204.58 177.057 187.449 165.636 191.408C164.114 205.037 164.723 216.686 160.611 226.355C159.393 229.249 139.597 229.477 137.999 226.127C133.43 216.762 133.735 204.885 131.908 192.094C103.28 190.495 75.1858 201.611 53.639 229.096C91.1745 247.597 200.736 243.638 237.053 222.929ZM156.424 174.049C186.498 187.678 214.44 197.728 239.337 212.727C250.377 219.35 259.208 223.386 266.365 214.554C271.923 207.778 276.34 192.627 272.533 187.145C263.777 174.354 251.443 160.877 237.586 155.624C218.628 148.467 196.853 148.619 176.219 145.726C165.484 144.203 159.469 148.315 158.784 159.812C158.48 165.979 156.805 172.146 156.424 174.049ZM148.582 146.64C111.046 149.228 75.5665 154.33 43.4367 171.613C33.9196 176.714 21.8138 188.135 21.7376 196.814C21.5854 207.55 32.7014 218.437 40.0867 231.152C64.2982 207.397 85.2358 189.429 115.919 186.612C147.592 183.795 147.44 182.5 148.582 146.64ZM53.7912 52.4584C28.9706 76.2132 28.9706 92.811 53.7912 105.754C53.7912 88.0905 53.7912 72.1018 53.7912 52.4584ZM67.1152 40.2005C81.1244 55.504 92.0882 67.6099 104.575 81.2384C111.351 55.3519 100.159 42.9414 67.1152 40.2005Z" fill="white"/>
</svg>
