<svg width="221" height="500" viewBox="0 0 221 500" fill="none" xmlns="http://www.w3.org/2000/svg">
<path d="M167.669 13.1665C174.102 9.18863 179.727 5.5215 185.538 2.16517C192.438 -1.8127 195.11 -0.569536 199.896 8.0699C202.973 13.6327 205.739 18.7915 197.068 22.1167C193.246 23.5774 189.796 26.0325 186.129 27.9592C181.126 30.5697 175.501 32.6208 176.65 40.0482C176.713 40.5143 176.526 41.2292 176.184 41.4778C167.172 48.7809 172.921 56.1772 176.122 63.4493C184.606 82.7481 197.13 99.0326 213.259 112.551C215.031 114.043 217.33 115.317 218.325 117.244C219.723 119.948 221.526 123.77 220.562 126.008C219.381 128.804 215.31 132.565 212.98 132.254C206.329 131.384 198.964 130.079 193.619 126.38C180.504 117.337 170.404 105.186 162.79 91.0147C156.015 78.3974 148.774 77.5273 138.612 87.7206C131.589 94.7751 128.357 102.7 131.589 112.955C140.818 142.261 150.297 171.536 158.47 201.152C171.896 249.663 179.292 299.325 184.42 349.328C187.434 378.665 189.516 408.126 192.624 437.462C194.644 456.326 187.03 470 172.237 480.629C151.82 495.297 128.636 500.704 104.023 499.928C90.8776 499.524 77.6387 498.063 64.7728 495.452C49.5761 492.376 36.7723 484.389 33.1673 468.073C28.6922 447.936 23.347 427.58 22.4147 407.131C19.5866 344.697 21.6999 282.294 35.1252 220.948C39.1963 202.364 45.94 184.277 52.4041 166.346C57.3453 152.672 49.2031 128.369 35.6846 122.807C31.0852 120.911 25.2116 121.936 19.9285 122.092C16.106 122.185 11.9106 124.236 8.58534 123.179C5.19794 122.123 1.53084 118.829 0.163443 115.597C-0.67564 113.639 1.87269 108.853 4.23455 107.206C29.0962 89.4919 53.8958 71.6225 79.3479 54.8098C103.091 39.147 127.673 24.7583 151.789 9.65477C158.004 5.77013 163.287 5.1486 167.669 13.1665ZM27.5424 345.008C27.5424 367.259 27.1384 382.798 27.6356 398.305C28.4125 421.396 31.8 444.113 38.7302 466.24C42.2729 477.614 48.4884 486.471 60.9192 488.615C75.6187 491.133 90.3803 494.271 105.204 494.769C125.342 495.421 144.89 491.008 162.324 480.193C178.764 470 188.957 456.73 186.502 435.505C182.586 401.351 180.349 366.98 176.65 332.795C170.435 275.613 160.117 219.208 142.87 164.201C141.409 159.571 139.202 157.862 134.634 158.141C110.891 159.664 87.1483 160.938 63.4675 162.834C60.7638 163.051 56.9724 166.159 55.9469 168.77C51.5961 180.082 47.6493 191.611 44.4173 203.296C31.0541 251.87 29.1895 301.811 27.5424 345.008ZM135.131 151.242C134.634 148.849 134.323 146.612 133.733 144.467C130.19 130.98 126.896 117.399 122.98 104.036C119.22 91.108 122.297 80.9147 132.832 72.3685C144.268 63.0764 155.425 53.4114 166.208 43.4046C168.539 41.2292 170.746 36.35 169.876 33.7395C167.42 26.25 163.349 19.2887 159.62 11.5505C105.142 43.4046 53.0567 77.1854 2.68069 113.483C5.75733 120.942 11.0404 120.849 15.9817 118.642C35.0941 110.158 50.7259 124.329 55.5118 139.992C57.221 145.617 58.4641 151.366 59.8626 156.774C85.1283 154.909 109.772 153.107 135.131 151.242ZM126.741 90.9836C127.455 91.543 128.17 92.1334 128.854 92.6928C130.252 90.9214 131.62 89.1501 133.049 87.4098C143.522 74.606 156.885 70.2863 168.26 90.1446C175.097 102.109 186.533 111.526 196.447 121.563C199.15 124.298 203.625 125.759 207.541 126.598C209.779 127.095 212.544 125.168 215.062 124.329C213.943 122.309 213.321 119.73 211.674 118.394C194.364 104.471 181.436 87.3165 172.797 66.8989C170.715 61.9887 169.005 56.9231 166.644 50.6145C153.56 65.2829 135.131 73.2697 126.741 90.9836ZM197.161 16.8958C196.819 16.1499 196.478 15.4041 196.136 14.6893C189.143 18.6672 182.12 22.614 175.128 26.5918C175.501 27.2445 175.873 27.9281 176.215 28.5807C183.208 24.665 190.169 20.7804 197.161 16.8958Z" fill="white"/>
</svg>
