<svg width="500" height="481" viewBox="0 0 500 481" fill="none" xmlns="http://www.w3.org/2000/svg">
<path d="M205.632 302.619C200.918 281.587 196.509 261.505 191.917 241.422C178.141 181.297 164.549 121.141 161.763 59.2093C161.303 48.8313 160.967 38.1777 162.681 28.014C165.743 10.0743 178.723 -0.181256 195.621 0.00242584C212.459 0.186108 225.256 10.7172 228.164 28.6568C230.858 45.4944 232.572 62.5462 233.674 79.5674C236.705 126.253 233.95 172.756 229.939 219.35C227.613 246.596 229.511 274.179 229.511 301.609C256.114 301.731 268.972 312.966 271.268 338.896C274.574 376.429 271.421 413.777 266.431 450.973C266.186 452.718 265.911 454.861 264.808 455.963C263.002 457.769 260.492 458.871 258.288 460.28C257.063 458.075 254.89 455.902 254.798 453.636C253.879 434.044 253.696 414.39 252.532 394.797C251.583 378.786 249.777 362.806 248.032 346.825C247.604 343.029 245.981 339.355 244.91 335.621C243.899 335.621 242.889 335.59 241.879 335.59C241.144 339.478 239.736 343.366 239.766 347.254C240.042 373 240.838 398.746 240.96 424.492C241.022 434.411 240.011 444.361 239.032 454.249C238.817 456.3 236.95 459.545 235.45 459.82C233.491 460.157 230.184 458.565 229.143 456.82C227.123 453.422 225.5 449.412 225.011 445.524C221.429 415.675 218.214 385.797 214.786 355.918C214.235 351.111 213.898 346.152 212.214 341.713C211.234 339.141 207.775 335.865 205.479 335.896C203.061 335.927 199.54 339.049 198.499 341.621C196.938 345.478 196.264 350.162 196.724 354.326C199.969 383.164 203.612 411.94 207.132 440.748C207.591 444.544 209.061 448.463 208.418 452.044C207.867 455.014 204.897 457.494 202.999 460.218C200.367 458.32 196.142 456.912 195.346 454.432C190.509 439.677 185.519 424.86 182.396 409.706C178.478 390.511 175.876 371.01 173.549 351.57C172.049 339.019 173.243 326.559 181.08 315.722C186.774 307.854 194.672 303.752 205.632 302.619ZM230.276 127.019C229.45 126.988 228.654 126.957 227.827 126.927C227.827 110.885 228.684 94.7825 227.582 78.8021C226.358 60.8318 224.337 42.7697 220.786 25.1056C218.184 12.1254 206.795 5.35983 193.938 5.94149C181.08 6.52315 171.13 14.4521 168.834 27.5548C167.304 36.2491 166.845 45.3107 167.334 54.1275C170.243 106.905 177.774 159.041 190.05 210.472C194.305 228.35 195.07 228.595 213.469 225.564C220.602 224.37 223.97 221.493 224.429 213.9C226.113 184.94 228.286 155.979 230.276 127.019ZM211.388 305.925C210.5 306.568 210.132 307.027 209.673 307.15C208.694 307.364 207.653 307.548 206.673 307.517C193.601 307.15 184.907 314.16 181.478 325.794C178.784 334.825 177.712 344.896 178.447 354.295C180.896 386.439 187.631 417.818 198.346 448.279C199.111 450.483 200.091 452.657 200.948 454.83C201.714 454.677 202.479 454.555 203.244 454.402C203.091 451.647 203.122 448.861 202.755 446.105C199.02 416.043 195.07 386.011 191.58 355.918C190.999 350.989 191.887 345.662 193.172 340.825C194.795 334.672 199.203 330.6 205.908 330.569C212.092 330.539 215.582 334.672 217.327 340.182C218.245 343.06 218.735 346.121 219.102 349.121C222.745 380.745 226.296 412.4 230.001 444.024C230.307 446.626 231.593 449.106 232.419 451.616C234.685 443.81 235.542 436.462 235.48 429.115C235.236 403.889 234.593 378.633 234.317 353.407C234.256 347.835 234.593 342.111 236.062 336.784C236.736 334.243 240.317 331.029 242.797 330.845C245.277 330.661 248.491 333.447 250.451 335.712C251.951 337.457 252.287 340.427 252.532 342.907C254.553 362.928 256.726 382.949 258.288 403.032C259.451 418.033 259.788 433.125 260.492 448.157C265.727 413.257 268.758 378.265 266.584 343.06C266.156 336.08 264.196 328.885 261.38 322.487C255.41 309.017 243.011 304.333 229.174 309.14C228.103 309.507 226.817 309.385 224.337 309.568C224.337 282.291 224.337 255.535 224.337 229.024C213.622 230.034 204.132 230.922 193.938 231.871C199.816 256.851 205.632 281.496 211.388 305.925Z" fill="white"/>
<path d="M376.303 426.176C369.048 426.635 361.792 426.972 354.567 427.584C336.169 429.146 317.862 429.329 299.861 424.554C295.177 423.298 288.258 422.655 289.023 416.043C289.789 409.338 296.86 410.104 301.544 410.471C311.157 411.206 320.647 413.563 330.291 414.329C342.108 415.278 353.986 415.706 365.833 415.523C371.344 415.431 373.67 411.941 373.15 405.665C370.456 373.123 368.282 340.55 365.833 308.007C365.68 306.17 365.099 303.629 363.782 302.711C357.904 298.548 356.435 292.547 355.914 286.057C355.241 277.669 354.843 269.25 353.986 260.893C346.883 191.338 341.71 121.692 343.546 51.7091C343.761 43.6577 344.679 35.2696 347.281 27.708C352.822 11.6358 371.252 7.77852 383.803 19.4423C393.386 28.3509 397.12 40.2596 397.58 52.5663C398.345 72.6489 398.651 92.854 397.151 112.845C394.549 146.918 391.518 181.022 386.528 214.788C382.763 240.228 387.263 265.791 383.497 290.864C377.681 329.498 384.997 367.49 386.252 405.787C386.497 413.043 389.498 416.38 396.355 415.461C410.162 413.594 424.091 411.971 437.622 408.849C450.511 405.91 463.032 401.379 475.614 397.185C480.635 395.501 483.788 396.45 486.084 401.348C490.125 409.859 494.319 418.308 498.758 426.605C501.513 431.748 499.493 433.983 494.594 435.421C471.083 442.279 447.113 446.106 422.805 442.279C402.508 439.095 383.467 440.595 364.517 448.83C345.291 457.157 325.76 456.392 306.718 447.3C304.881 446.412 302.555 445.861 301.422 444.391C299.555 442.003 298.452 439.003 297.014 436.248C299.677 435.85 302.585 434.595 305.004 435.207C327.505 440.748 349.639 436.799 371.742 432.942C373.793 432.574 375.477 430.125 377.313 428.656C376.977 427.829 376.64 427.003 376.303 426.176ZM347.404 111.896C349.792 148.448 351.506 174.899 353.282 201.318C354.445 218.584 354.506 218.584 371.558 219.319C381.477 219.748 381.477 219.748 382.487 209.584C385.457 179.919 389.222 150.316 391.151 120.59C392.62 97.7828 392.804 74.7919 391.549 51.9847C391.059 42.9536 386.528 33.2491 381.293 25.5651C374.497 15.6156 361.119 15.7074 353.833 25.1976C350.128 30.0346 347.863 37.1065 347.71 43.2598C347.036 69.5264 347.404 95.7623 347.404 111.896ZM307.79 440.748C307.575 441.33 307.361 441.912 307.147 442.524C309.32 443.565 311.463 444.697 313.698 445.585C332.709 453.269 351.2 450.453 369.262 442.493C383.161 436.37 397.457 434.962 412.55 436.217C426.969 437.442 441.572 438.085 455.96 437.105C468.42 436.279 480.696 432.85 494.533 430.309C489.88 421.4 486.145 414.512 482.655 407.471C480.359 402.818 477.573 401.9 472.308 403.4C444.817 411.175 418.152 423.574 391.151 419.013C386.559 423.452 382.303 425.809 380.834 429.329C378.171 435.666 373.333 436.983 367.67 438.024C347.893 441.697 328.025 444.575 307.79 440.748ZM354.659 224.738C356.802 246.504 358.915 268.24 361.119 289.915C361.241 291.139 361.853 292.364 362.404 293.496C365.772 300.476 372.323 301.15 376.548 294.629C378.232 292.027 379.181 288.537 379.334 285.384C380.007 272.189 380.405 258.964 380.589 245.739C380.895 222.871 380.773 222.87 357.659 223.85C357.139 223.85 356.68 224.126 354.659 224.738ZM381.538 422.503C381.905 422.38 382.273 422.288 382.64 422.166C380.344 382.613 378.048 343.06 375.752 303.476C370.884 303.17 368.864 304.793 369.384 310.12C372.446 342.05 375.109 374.01 378.14 405.971C378.66 411.512 380.375 416.961 381.538 422.503ZM346.149 422.686C329.311 420.696 313.055 413.165 295.636 417.023C311.953 423.39 328.913 424.401 346.149 422.686Z" fill="white"/>
<path d="M64.4734 314.62C75.0045 314.008 84.5866 313.487 94.1993 312.814C98.0872 312.538 100.689 313.365 100.996 317.834C103.445 353.163 108.465 388.491 103.537 423.911C100.567 445.31 91.7196 463.831 73.5045 476.964C67.7797 481.097 62.4223 482.046 56.9424 477.332C51.7687 472.893 46.0133 468.76 42.1254 463.311C14.1139 424.492 0.368263 380.99 0.00089859 333.08C-0.0603288 324.63 3.00106 321.294 11.1137 320.589C21.4917 319.671 31.7779 317.987 43.1356 316.487C40.7477 305.803 38.4824 295.731 36.1863 285.659C32.9413 271.485 27.7063 257.464 26.7879 243.167C24.6449 209.798 12.5525 178.297 10.134 145.112C7.68493 111.835 5.02156 78.5575 2.8786 45.2497C2.45 38.7596 3.09291 31.9021 4.71544 25.5957C8.57277 10.6256 22.0428 4.44166 36.4312 10.3195C47.4521 14.8503 54.1259 23.3916 56.6363 34.6268C58.6262 43.5354 60.0344 52.7807 59.8813 61.873C59.0547 114.375 57.5853 166.878 56.6056 219.381C56.5138 225.013 58.5649 230.646 58.9935 236.341C60.8915 262.056 62.6059 287.741 64.4734 314.62ZM5.11343 325.304C4.92975 328.212 4.68482 330.202 4.71544 332.223C4.96035 371.01 14.818 407.288 34.1965 440.84C39.4008 449.841 45.401 458.504 51.9217 466.586C58.6874 474.974 63.4632 474.791 72.1574 468.852C85.6275 459.668 93.036 446.657 96.1586 431.166C103.536 394.889 97.9342 358.551 95.7606 322.273C95.6688 320.926 93.3727 318.6 92.1176 318.63C83.0559 318.814 73.9637 319.518 64.3203 320.069C64.8408 322.61 65.3918 324.049 65.3918 325.457C65.3611 337.58 65.9428 349.764 64.6571 361.765C64.3203 365.071 58.3813 369.939 54.8607 370.092C51.3095 370.245 45.401 366.112 44.2683 362.622C41.0845 352.765 39.7987 342.325 37.7782 332.1C38.7885 331.886 39.7987 331.672 40.8089 331.457C41.911 336.478 43.0132 341.529 44.0541 346.55C44.9419 350.775 45.0337 355.397 46.8705 359.132C48.3399 362.163 51.9218 364.153 54.5546 366.633C56.82 364.153 59.269 361.826 61.2895 359.163C62.1467 358.061 62.3611 356.255 62.3917 354.785C62.4835 343.642 62.4529 332.529 62.4529 320.13C43.0438 321.906 24.1858 323.59 5.11343 325.304ZM54.9526 135.346C54.4321 135.346 53.9423 135.315 53.4219 135.315C53.4219 106.018 53.8811 76.7207 53.2076 47.4539C52.9014 34.5656 48.1869 22.8405 35.6353 16.4116C24.0633 10.4725 13.3484 15.0952 10.1952 27.6469C8.78699 33.2492 8.4197 39.2188 8.45031 45.0354C8.57277 106.202 16.716 166.388 29.9411 226.024C31.6249 233.616 36.0639 233.463 41.5437 233.432C47.4828 233.402 49.8707 230.738 50.1462 224.615C51.5238 194.859 53.2994 165.102 54.9526 135.346ZM59.2078 314.222C57.6159 287.772 56.0546 261.719 54.5239 236.096C45.6459 236.647 37.717 237.137 29.2064 237.657C29.4819 239.188 29.7268 241.116 30.1554 242.984C35.4516 264.75 40.809 286.516 46.1051 308.283C48.2787 317.1 48.4012 317.191 59.2078 314.222Z" fill="white"/>
<path d="M207.929 30.9532C208.021 40.7496 203.337 46.7805 197.674 46.505C191.673 46.2295 188.459 42.6783 188.275 36.7392C188.091 30.7695 194.796 23.7895 200.674 25.0141C203.919 25.657 206.49 29.6674 207.929 30.9532ZM205.909 35.9126C203.184 32.6981 200.888 29.4225 200.49 29.6368C197.459 31.2593 194.306 33.188 192.377 35.882C191.826 36.6474 195.133 40.1985 196.663 42.4639C199.357 40.5659 202.051 38.6372 205.909 35.9126Z" fill="white"/>
<path d="M379.886 47.209C379.855 54.5257 374.712 61.4444 369.14 61.6587C363.079 61.873 357.966 56.3932 357.997 49.75C358.027 43.4436 364.181 37.4127 370.855 37.1984C375.936 37.0147 379.886 41.3618 379.886 47.209ZM377.865 47.6376C374.497 44.8518 372.538 41.8517 370.426 41.7292C365.711 41.4231 361.242 44.2701 361.885 49.2295C362.283 52.2909 366.324 54.8931 368.712 57.6789C371.375 54.74 374.038 51.8317 377.865 47.6376Z" fill="white"/>
<path d="M38.4503 50.4235C38.3278 57.4034 34.6235 61.7811 28.8682 61.7811C22.9597 61.7811 18.6126 57.1891 18.5514 50.9133C18.4901 44.1477 23.2965 37.6269 28.4702 37.5045C34.1949 37.3514 38.6033 43.0762 38.4503 50.4235ZM36.3686 50.301C32.9398 47.1171 30.8581 45.1885 28.7763 43.2292C26.7252 45.7395 23.3577 48.1274 23.0516 50.8214C22.8373 52.8726 26.511 55.3522 28.4396 57.6482C30.6744 55.5971 32.9398 53.4848 36.3686 50.301Z" fill="white"/>
</svg>
