<svg width="506" height="500" viewBox="0 0 506 500" fill="none" xmlns="http://www.w3.org/2000/svg">
<path d="M449.732 369.544C448.73 373.548 446.946 377.509 446.902 381.514C446.685 399.273 447.773 417.031 446.815 434.747C446.249 444.932 443.768 455.335 440.069 464.867C438.589 468.741 431.712 472.615 427.272 472.615C424.094 472.615 419.132 466.695 418.001 462.56C412.777 443.757 408.599 424.692 404.072 405.714C402.766 400.274 401.591 394.789 400.329 389.305C399.154 389.305 398.022 389.305 396.847 389.305C396.455 392.787 395.628 396.313 395.802 399.795C396.542 416.466 398.327 433.093 398.152 449.764C398.022 461.211 396.02 472.789 393.408 483.976C391.319 492.768 385.791 500.255 375.388 499.993C364.419 499.689 359.544 491.201 357.586 482.147C353.015 460.906 349.533 439.404 345.659 418.033C343.918 408.457 342.351 398.837 338.477 388.87C337.911 391.612 336.997 394.311 336.823 397.096C335.43 415.552 334.255 434.007 332.775 452.419C332.34 458.164 332.601 464.563 330.077 469.394C327.552 474.226 321.981 480.493 317.672 480.537C312.535 480.58 305.353 475.836 302.655 471.135C299.303 465.216 299.129 457.294 298.476 450.155C297.258 436.88 296.735 423.56 293.819 410.198C290.076 427.652 286.637 445.193 282.415 462.517C280.804 469.046 278.28 475.793 274.45 481.233C269.705 487.936 262.044 490.243 254.036 487.109C246.027 483.976 243.981 476.924 245.113 469.176C245.94 463.474 248.116 457.99 249.161 452.332C251.554 439.926 253.905 427.478 255.559 414.986C255.907 412.461 253.252 409.501 251.946 406.759C249.465 408.413 245.94 409.501 244.721 411.808C236.799 426.825 229.791 442.364 221.652 457.294C216.341 467 210.596 476.881 203.109 484.759C199.54 488.502 191.052 489.416 185.437 488.328C183.131 487.893 180.737 478.404 181.52 473.529C184.175 456.771 188.049 440.231 191.749 423.647C193.446 415.987 195.797 408.5 197.843 400.927C196.798 400.448 195.753 399.969 194.752 399.49C192.01 404.06 188.702 408.413 186.569 413.245C181.172 425.519 177.385 438.621 170.943 450.286C163.848 463.083 155.491 475.531 145.698 486.282C142.085 490.243 131.464 491.68 126.328 489.286C121.801 487.196 117.928 478.056 118.232 472.267C118.842 461.255 122.237 450.286 125.24 439.491C131.247 417.641 137.776 395.921 141.737 372.982C137.819 379.25 133.728 385.388 130.071 391.786C122.28 405.279 114.837 418.99 107.089 432.483C98.8628 446.717 90.3316 451.679 81.7568 447.631C72.7468 443.409 70.701 432.309 76.6206 417.597C89.9398 384.299 103.651 351.132 116.622 317.66C119.538 310.217 120.234 301.903 121.975 293.981C114.489 295.07 106.872 295.635 99.5157 297.333C72.1809 303.644 44.9332 304.036 17.5984 297.681C8.58839 295.592 0.361845 291.936 0.0136315 281.359C-0.334582 271.13 6.02032 264.253 15.4221 261.249C22.9522 258.855 31.0047 257.941 38.7959 256.331C119.059 239.573 168.462 188.212 197.364 114.26C209.072 84.2697 214.644 52.8435 215.993 20.8078C216.385 11.6237 219.998 8.44621 228.355 8.53327C233.796 8.62032 239.889 6.92278 244.503 8.83795C269.487 19.1973 293.688 9.70849 318.15 7.14041C341.959 4.61586 365.769 2.30894 389.578 0.263184C395.671 -0.259136 401.939 0.0455536 408.033 0.741981C429.883 3.17948 432.669 7.22747 431.755 28.5991C429.666 76.609 432.234 124.097 444.552 171.018C464.966 248.844 484.031 327.018 503.4 405.105C505.011 411.634 505.489 418.773 504.88 425.519C504.096 434.399 498.394 440.188 489.341 441.102C480.287 442.016 474.89 436.401 472.844 428.348C469.71 416.074 468.1 403.408 464.661 391.264C462.441 383.342 458.176 376.029 454.824 368.412C453.04 368.847 451.386 369.196 449.732 369.544ZM428.621 466.304C431.886 462.169 435.629 459.513 436.238 456.293C437.849 447.5 438.589 438.49 438.85 429.524C439.416 411.068 438.806 392.569 440.112 374.201C440.417 369.718 446.075 362.492 449.688 362.188C454.52 361.796 461.745 365.844 464.357 370.11C468.97 377.64 471.451 386.693 473.802 395.399C476.544 405.497 477.763 416.03 480.723 426.085C481.55 428.958 486.338 432.832 488.906 432.527C491.822 432.179 495.957 428 496.479 424.953C497.393 419.425 496.784 413.375 495.435 407.847C482.942 357.182 469.493 306.735 457.61 255.939C445.553 204.491 427.838 154.261 424.225 101.028C423.703 93.4974 418.871 93.4539 413.604 93.5844C370.339 94.7161 329.076 105.032 288.9 120.527C282.807 122.878 281.37 126.839 281.762 133.194C282.589 146.208 283.285 159.353 282.458 172.324C277.932 242.489 249.9 300.075 190.748 340.599C187.483 342.862 183.348 344.908 181.651 348.172C179.213 352.873 178.604 358.532 177.211 363.798C182.042 364.886 187.266 367.716 191.705 366.845C221.956 360.708 247.724 345.952 270.314 325.016C274.406 321.229 282.328 316.441 285.592 318.052C290.729 320.576 293.645 327.932 296.953 333.591C298.128 335.593 297.78 338.553 297.954 341.077C300.74 379.033 303.395 417.031 306.268 454.987C306.572 459.252 307.095 463.866 309.01 467.566C310.403 470.265 314.146 472.963 317.106 473.224C318.977 473.399 322.111 469.481 323.156 466.782C324.549 463.17 324.679 458.991 324.984 455.03C326.029 439.839 326.682 424.605 327.9 409.414C328.901 396.922 330.468 384.517 331.774 372.068C332.862 371.546 333.951 371.067 335.039 370.545C338.216 373.418 342.264 375.768 344.31 379.294C346.791 383.559 348.053 388.696 348.967 393.658C354.278 422.168 358.891 450.808 364.855 479.144C365.899 484.106 371.993 488.023 375.736 492.463C379.61 488.154 383.658 483.975 387.227 479.405C388.446 477.838 388.707 475.27 388.751 473.137C389.099 457.598 389.36 442.103 389.447 426.564C389.534 412.809 389.012 399.055 389.447 385.344C389.534 382.254 392.32 379.294 393.887 376.247C396.934 377.944 401.635 378.946 402.766 381.514C406.597 390.306 410.427 399.447 411.994 408.805C415.346 427.957 418.479 447.065 428.621 466.304ZM284.243 322.622C279.237 327.192 276.06 330.065 272.883 332.981C249.073 354.788 221.565 369.718 189.66 375.072C184.001 376.029 174.686 373.244 172.031 369.021C168.897 364.059 169.333 355.006 171.596 348.956C173.642 343.428 179.648 338.814 184.872 335.158C257.213 284.667 281.501 213.501 274.319 128.623C273.797 122.486 271.359 119.396 265.483 118.395C253.687 116.436 241.979 113.781 230.139 112.388C207.375 109.733 207.375 109.994 198.713 130.495C197.451 133.498 196.276 136.545 194.839 139.462C162.151 205.753 112.225 250.455 38.0124 264.732C31.614 265.95 24.6062 265.907 18.9913 268.736C14.4645 270.999 11.6788 276.658 8.1096 280.793C11.9835 283.883 15.4221 288.628 19.8183 289.803C50.0694 297.899 80.1028 295.592 109.832 286.234C125.632 281.272 132.944 288.018 129.506 304.167C128.896 306.996 127.939 309.738 126.85 312.437C112.617 348.129 98.2969 383.734 84.1943 419.469C81.4956 426.346 76.5771 435.574 85.2825 439.883C93.9443 444.149 96.9911 434.05 100.473 428.174C112.878 407.281 124.892 386.171 137.297 365.278C139.343 361.84 142.433 359.01 145.045 355.876C146.394 356.094 147.787 356.312 149.136 356.529C149.746 363.232 151.965 370.327 150.616 376.595C147.395 391.786 142.477 406.672 138.298 421.689C134.032 437.054 129.201 452.288 125.98 467.871C125.022 472.528 128.722 478.143 130.289 483.366C135.338 481.407 142.041 480.842 145.088 477.185C152.009 468.959 158.016 459.688 162.716 450.025C169.898 435.4 175.296 419.948 182.173 405.192C185.437 398.228 190.399 392.047 195.274 384.43C206.853 395.007 204.981 405.889 202.021 416.901C198.408 430.176 194.056 443.278 191.009 456.641C189.181 464.737 189.268 473.268 188.397 482.713C202.63 479.623 207.244 470.178 211.815 460.689C220.346 443.104 228.659 425.432 237.495 408.021C240.673 401.797 245.33 395.703 253.687 398.315C262.436 401.057 264.83 408.761 263.742 416.727C262.001 429.611 259.128 442.364 256.691 455.117C255.602 460.776 253.861 466.391 253.383 472.093C253.208 474.443 255.037 478.448 256.952 479.144C259.476 480.102 264.395 479.71 265.701 477.969C269.27 473.224 272.665 467.74 273.971 462.038C279.847 436.967 286.332 411.939 289.858 386.519C292.208 369.587 290.163 352.003 289.51 334.766C289.466 331.284 286.637 327.889 284.243 322.622ZM422.353 85.0532C422.353 71.9517 422.353 59.9383 422.353 45.8357C415.52 54.3234 408.555 60.1124 400.329 53.3223C397.543 51.0153 396.585 42.0923 398.805 39.089C405.639 29.6872 414.301 34.6057 422.179 39.6984C424.181 12.6248 427.707 9.62144 396.02 8.5768C394.583 8.53328 393.103 8.44622 391.667 8.5768C353.102 12.4942 314.538 16.2375 276.017 20.6337C269.792 21.3301 263.568 24.5076 257.996 27.685C255.994 28.8167 254.427 33.7352 255.167 36.1727C262.61 60.3736 270.75 84.3133 278.236 108.514C280.282 115.043 283.677 116.523 289.51 114.173C295.56 111.735 301.436 108.775 307.617 106.773C344.528 94.5855 382.004 85.0532 422.353 85.0532ZM211.075 104.597C229.922 106.599 250.205 108.732 272.534 111.082C267.79 93.1927 263.307 76.3043 259.694 62.5934C251.032 62.5934 244.46 63.6816 238.671 62.0711C236.19 61.3747 232.925 53.1046 234.144 51.5812C238.018 46.7932 243.807 43.5723 249.77 39.002C242.37 30.7319 250.771 25.7698 258.083 18.9797C248.246 16.3246 238.54 14.4529 228.746 13.9306C226.44 13.8 222.043 18.0221 221.695 20.6772C217.821 48.5343 214.557 76.4349 211.075 104.597ZM417.652 45.0086C414.17 42.1359 411.776 39.2196 410.906 39.6113C407.685 41.0477 404.943 43.6158 402.026 45.7486C403.506 47.3591 405.378 50.5365 406.423 50.2754C409.687 49.4919 412.734 47.4461 417.652 45.0086Z" fill="white"/>
<path d="M369.947 31.4716C381.525 32.7774 386.835 37.6089 385.834 45.2696C385.312 49.2305 379.915 55.0631 376.128 55.5854C368.249 56.6736 362.983 50.5363 363.287 42.9626C363.505 38.6535 368.119 34.5185 369.947 31.4716Z" fill="white"/>
<path d="M305.005 57.5008C300.043 60.6347 295.255 65.9449 290.163 66.2061C286.724 66.3802 280.543 59.9383 279.76 55.6726C278.454 48.5343 284.504 44.0945 291.381 45.1827C296.169 45.9662 300.391 49.9271 304.875 52.4952C304.918 54.1492 304.962 55.8032 305.005 57.5008Z" fill="white"/>
<path d="M346.269 53.5397C340.48 58.4147 336.084 64.5955 333.167 63.9426C328.815 62.985 323.374 57.8488 322.242 53.4526C320.501 46.7495 325.681 40.6122 332.471 41.4392C336.736 41.9616 340.262 47.9683 346.269 53.5397Z" fill="white"/>
</svg>
