<svg width="488" height="500" viewBox="0 0 488 500" fill="none" xmlns="http://www.w3.org/2000/svg">
<path d="M294.096 376.262C294.944 386.122 296.505 395.982 296.461 405.887C296.416 417.353 295.524 428.863 293.962 440.196C292.847 448.271 288.787 455.365 279.329 456.079C269.825 456.748 263.445 451.037 260.947 442.739C257.244 430.425 255.102 417.62 251.935 403.388C248.678 415.925 246.536 427.57 242.61 438.545C237.256 453.536 231.01 468.214 224.273 482.625C221.864 487.801 217.759 493.422 212.941 495.965C207.23 498.91 198.619 501.408 193.622 499.088C188.67 496.768 184.476 488.38 183.851 482.268C183.048 474.46 185.413 466.028 187.733 458.31C190.41 449.431 189.875 442.56 179.702 437.742C176.981 444.925 174.839 452.376 171.359 459.113C167.656 466.251 163.507 473.479 158.064 479.279C151.461 486.284 142.181 487.8 133.302 484.097C124.156 480.305 119.873 472.051 120.364 462.548C120.721 455.276 122.416 447.78 125.138 441.044C133.168 421.056 142.225 401.47 150.345 381.527C151.818 377.957 150.747 373.362 150.881 369.213C146.91 371.265 141.511 372.291 139.236 375.548C131.384 386.791 125.093 399.105 117.33 410.393C108.987 422.573 100.198 434.53 90.5606 445.728C85.296 451.84 76.4175 455.99 69.9036 449.387C65.2636 444.657 61.7836 435.511 62.8098 429.176C64.5498 418.87 69.9036 409.01 74.6328 399.373C81.8159 384.694 90.1144 370.596 97.0744 355.828C99.8852 349.805 100.331 342.666 101.848 336.063C100.733 335.26 99.6175 334.457 98.5021 333.699C94.2637 336.599 89.6682 339.053 85.8759 342.443C68.4759 358.059 51.7451 374.433 33.8989 389.513C21.7189 399.774 12.662 400.399 5.8804 394.331C-1.57038 387.728 -2.41813 375.905 6.10342 363.725C27.2065 333.61 48.9343 303.896 70.7958 274.36C100.822 233.805 124.513 190.215 143.43 143.235C153.334 118.697 158.777 97.4153 148.159 72.3414C142.627 59.2244 141.154 44.3229 138.433 30.0905C137.407 24.7367 136.381 18.2228 138.478 13.7167C141.11 8.05051 146.374 1.40282 151.728 0.0643535C154.985 -0.78334 163.462 6.93515 164.578 11.9321C168.058 27.4136 169.842 43.3859 171.002 59.269C171.984 72.4752 171.225 85.8152 171.225 99.9137C174.438 98.2629 178.275 96.3445 182.111 94.3368C210.085 79.5244 239.888 71.0921 271.476 69.1291C293.873 67.746 309.176 77.963 318.501 97.8168C321.802 104.866 324.702 112.138 327.558 119.411C344.066 161.885 373.244 191.777 415.718 208.597C427.452 213.237 439.676 217.029 450.652 223.097C461.538 229.12 472.29 236.392 480.99 245.182C492.769 257.094 488.664 271.192 472.513 276.011C465.464 278.108 456.898 278.063 449.76 276.189C438.74 273.289 428.389 267.712 417.636 263.697C412.461 261.779 407.018 260.128 401.53 259.548C390.466 258.388 385.023 264.099 387.789 274.985C390.51 285.737 395.195 295.954 398.809 306.483C406.884 329.951 415.495 353.285 422.455 377.11C425.177 386.479 424.864 397.008 424.552 406.957C424.284 416.416 420.09 424.759 409.962 427.079C399.522 429.443 392.25 423.197 388.904 414.453C381.096 394.063 374.761 373.094 367.31 352.526C365.481 347.53 360.305 338.874 359.19 339.231C350.445 342.22 353.346 349.894 354.862 356.096C359.235 373.763 364.901 391.119 368.425 408.965C370.032 416.951 369.675 426.365 366.998 433.95C360.841 451.171 341.389 454.16 329.61 440.151C325.684 435.467 321.847 429.354 321.223 423.554C319.17 403.968 305.384 391.342 294.096 376.262ZM297.933 171.923C298.602 150.775 290.929 140.112 278.258 132.438C249.838 115.261 218.964 105.446 186.038 101.565C177.962 100.628 172.118 103.081 168.459 110.175C162.525 121.686 156.502 133.197 151.104 144.975C140.976 167.238 133.614 191.152 120.854 211.809C98.4574 248.082 72.8928 282.391 48.5774 317.459C36.3082 335.171 23.2804 352.348 11.725 370.506C9.00347 374.79 10.9665 382.017 10.7435 387.906C16.0973 386.97 22.8789 387.773 26.5374 384.739C43.6697 370.596 59.9543 355.382 76.5513 340.525C80.1205 337.313 83.1544 332.851 87.3036 331.022C92.3005 328.791 99.7067 326.337 103.365 328.523C106.89 330.62 109.121 338.963 108.05 343.737C105.819 354.133 101.893 364.35 97.2974 373.986C91.542 386.033 84.0913 397.231 78.1128 409.188C74.4544 416.416 71.4651 424.179 69.5913 432.031C68.8328 435.199 71.019 440.776 73.6513 442.471C75.9713 443.944 82.0836 442.783 84.2698 440.597C91.5421 433.28 98.5913 425.517 104.302 416.951C112.288 404.905 118.49 391.654 126.342 379.563C130.491 373.183 136.024 367.25 142.181 362.788C145.17 360.602 152.174 360.602 155.208 362.699C158.331 364.84 160.071 370.73 160.205 375.057C160.339 379.206 157.975 383.579 156.235 387.639C148.739 405.44 140.842 423.063 133.525 440.91C131.027 447.022 128.171 453.804 128.662 460.005C129.108 465.76 132.767 474.55 136.961 475.844C142.181 477.45 151.014 474.505 155.298 470.4C160.607 465.314 163.462 457.284 166.228 450.1C172.251 434.53 177.159 418.513 183.271 402.987C187.644 391.967 196.924 387.103 204.865 390.226C212.941 393.394 214.235 400.711 210.264 413.248C203.973 433.013 197.548 452.822 192.73 472.988C191.347 478.744 193.176 488.96 197.147 491.459C204.91 496.411 209.996 487.667 214.859 482.313C216.555 480.439 217.938 478.074 218.919 475.665C225.121 460.184 232.304 445.014 236.899 429.087C242.655 409.143 245.956 388.531 250.864 368.32C253.362 358.059 257.11 347.797 269.156 345.299C281.292 342.711 288.653 350.965 294.989 359.308C302.127 368.766 307.659 379.519 315.199 388.62C320.196 394.599 326.978 400.131 334.116 403.076C342.772 406.69 349.42 400.934 347.456 391.699C345.181 380.946 341.745 370.105 336.615 360.423C329.655 347.351 320.509 335.483 312.567 322.946C289.858 287.076 282.719 248.215 290.884 206.589C293.561 193.205 296.372 179.775 297.933 171.923ZM345.404 355.649C345.404 351.634 345.226 348.779 345.449 345.923C346.073 337.625 349.91 331.423 358.521 330.263C366.641 329.148 370.523 334.859 372.753 341.685C373.913 345.21 374.582 348.913 375.742 352.437C381.632 370.417 386.852 388.665 393.946 406.154C396.132 411.553 403.404 414.854 408.356 419.137C411.212 413.159 415.763 407.359 416.566 401.113C417.547 393.216 416.922 384.426 414.424 376.886C404.653 347.708 393.767 318.931 383.461 289.886C379.445 278.599 374.761 266.508 384.889 256.425C394.659 246.654 406.572 251.383 417.413 255.131C428.969 259.102 440.033 264.634 451.723 268.159C457.389 269.854 464.393 269.854 470.104 268.248C479.964 265.482 481.972 257.897 474.923 250.535C469.123 244.468 462.386 238.668 455.024 234.742C443.647 228.629 431.556 223.588 419.421 219.082C370.433 200.923 336.749 167.863 318.902 118.563C315.646 109.551 311.407 100.761 306.544 92.5076C300.521 82.246 290.795 76.6244 278.793 76.4906C249.793 76.1337 222.355 83.0937 193.845 95.5861C199.11 96.9245 202.233 97.5045 205.222 98.5306C228.021 106.16 251.488 112.228 273.395 121.909C302.305 134.669 310.069 153.363 303.644 184.549C301.146 196.551 298.067 208.463 296.505 220.599C289.679 273.156 313.326 315.183 345.404 355.649ZM289.724 415.791C288.162 396.517 287.538 380.545 285.218 364.796C284.593 360.513 279.284 355.426 274.956 353.776C272.146 352.705 265.632 356.185 263.624 359.397C260.679 364.082 258.939 370.417 259.118 375.994C259.475 388.933 260.858 401.916 262.553 414.765C263.668 423.153 265.141 431.719 268.13 439.571C269.558 443.274 274.555 447.022 278.481 447.825C280.489 448.227 285.307 442.427 286.199 438.813C288.385 430.247 288.966 421.323 289.724 415.791ZM163.596 96.3891C166.764 68.2814 165.693 43.3414 159.938 18.7582C158.867 14.2521 154.182 10.5936 151.193 6.57817C148.873 11.4859 146.196 16.2598 144.411 21.3905C143.608 23.6213 144.278 26.6105 144.902 29.109C149.587 48.9629 154.361 68.7721 159.224 88.5814C159.67 90.4106 161.142 92.0614 163.596 96.3891ZM326.71 411.017C328.495 423.911 330.815 435.154 342.861 439.437C346.564 440.776 353.747 438.679 356.424 435.6C366.284 424.313 361.599 411.91 357.093 397.097C351.382 413.516 339.782 412.713 326.71 411.017ZM192.73 437.34C196.924 425.919 200.85 416.014 204.062 405.842C204.732 403.7 202.768 400.711 201.965 398.123C199.333 398.971 196.032 399.06 194.158 400.756C184.922 409.188 183.896 425.517 192.73 437.34Z" fill="white"/>
</svg>
