<svg width="238" height="500" viewBox="0 0 238 500" fill="none" xmlns="http://www.w3.org/2000/svg">
<path d="M43.4508 54.7019C40.9451 39.3749 38.4068 24.2432 35.9988 9.11152C35.6408 6.83363 35.9337 4.4907 35.9337 0C55.4584 25.7076 77.0984 47.8357 73.8117 81.6786C73.649 83.1755 73.9744 85.0629 74.788 86.2994C80.7105 95.2157 86.8283 104.002 93.4667 113.667C94.4429 103.742 93.9548 94.5975 96.4605 86.332C99.7797 75.3981 103.75 63.8785 110.518 54.9297C119.89 42.5315 129.392 30.5888 134.599 15.75C135.022 14.5785 135.933 13.6022 136.812 12.268C144.914 31.2396 140.359 65.1476 127.635 80.3444C121.55 87.6011 114.684 94.2395 108.729 101.594C100.365 111.942 97.3716 122.681 103.912 136.055C110.746 150.048 115.107 165.245 120.964 181.027C122.624 170.842 123.112 161.437 125.878 152.716C129.36 141.75 134.143 131.076 139.317 120.761C145.337 108.688 152.366 97.1357 159.037 85.2256C158.744 85.0954 159.558 85.2907 159.558 85.4534C159.786 105.206 160.664 124.958 159.948 144.678C159.2 165.212 150.251 182.361 133.818 194.955C127.798 199.543 126.496 204.229 128.123 211.551C131.247 225.544 133.167 239.797 135.64 253.952C135.933 255.709 136.584 257.401 137.658 261.372C151.748 239.048 173.03 230.783 195.028 223.266C202.285 220.792 208.663 215.651 217.221 212.755C214.162 219.1 211.331 225.576 208.012 231.792C197.338 251.739 181.621 264.463 158.256 266.155C153.961 266.481 149.698 267.587 145.468 268.433C139.74 269.572 137.723 272.728 138.113 278.846C138.536 285.159 142.279 285.029 146.737 285.843C174.136 290.952 201.439 296.484 228.838 301.592C236.583 303.024 238.178 308.036 237.787 314.577C235.932 345.426 234.37 376.275 231.962 407.059C230.531 425.412 227.537 443.635 225.487 461.956C224.868 467.423 222.525 470.677 217.319 472.792C196.037 481.513 174.95 490.69 153.701 499.476C151.748 500.289 148.884 500.094 146.899 499.313C124.348 490.104 101.927 480.602 79.3763 471.393C73.7792 469.115 71.0132 465.633 70.0044 459.515C62.4223 413.014 54.5798 366.545 46.6723 320.108C45.631 313.926 47.4859 310.834 53.7012 308.979C77.2937 301.918 100.821 294.498 124.218 286.819C127.114 285.875 130.792 282.816 131.377 280.148C132.516 275.006 131.052 269.246 124.771 268.01C115.302 266.155 105.637 264.235 96.0374 264.105C77.8143 263.877 63.3985 256.165 50.1868 244.255C80.1898 234.265 108.078 231.987 128.449 263.259C129.034 262.641 129.62 261.99 130.206 261.372C127.179 244.775 124.121 228.179 121.094 211.583C121.062 211.323 120.931 211.063 120.899 210.802C115.432 187.177 110.128 183.338 86.3401 189.455C68.6377 194.011 51.5535 193.393 34.3066 188.186C33.0375 187.796 31.8335 187.177 28.9373 186.006C34.0788 183.956 37.8536 182.459 41.6284 180.929C49.6661 177.675 57.9316 174.909 65.6439 171.037C81.2311 163.227 94.9636 165.928 107.622 177.122C108.794 178.163 110.063 179.075 112.829 179.302C109.867 170.191 107.069 161.014 103.847 151.968C101.504 145.329 98.4455 138.951 96.0049 132.345C94.0524 127.074 90.8308 125.87 85.9171 128.115C77.0659 132.215 68.2797 136.446 59.3634 140.351C45.7612 146.338 31.801 148.388 17.5154 143.084C13.5453 141.62 9.96574 139.179 4.75914 136.446C31.9962 125.381 55.9791 108.59 86.5679 118.613C81.2637 94.207 66.7178 80.8325 44.4595 78.1967C38.2767 77.4808 32.0287 76.8951 25.9761 75.5934C6.80925 71.3956 -2.30231 57.9235 0.496237 35.1121C12.1135 50.862 26.5618 57.4679 43.4508 54.7019ZM149.405 492.74C149.763 491.601 150.088 491.113 150.088 490.592C150.186 444.807 150.349 399.021 150.121 353.268C150.121 351.088 147.03 347.736 144.687 346.988C121.517 339.503 98.1852 332.442 74.9182 325.25C66.8154 322.744 58.7126 320.271 49.4058 317.408C57.6712 360.297 66.8805 401.559 73.1284 443.245C75.9595 462.184 84.7131 470.384 102.123 474.94C118.231 479.138 133.427 486.59 149.405 492.74ZM157.248 490.039C162.487 488.379 166.164 487.501 169.581 486.102C183.606 480.342 197.436 474.159 211.559 468.627C216.798 466.577 219.109 463.55 219.662 457.986C223.176 423.232 227.114 388.543 230.628 353.789C231.93 341 232.418 328.114 233.297 314.999C231.344 315.162 230.498 315.032 229.815 315.325C206.027 325.803 182.239 336.184 158.614 347.053C156.597 347.964 154.937 352.064 154.97 354.667C155.555 396.646 156.434 438.591 157.248 480.569C157.313 483.173 157.248 485.809 157.248 490.039ZM196.557 323.167C196.622 322.289 196.72 321.41 196.785 320.532C189.496 318.221 182.239 315.878 174.885 313.73C174.071 313.503 172.965 314.707 171.924 314.837C170.427 315.032 168.897 315.032 167.4 314.804C162.975 314.121 158.582 313.307 154.189 312.559C153.896 313.405 153.603 314.251 153.278 315.097C152.822 314.414 152.562 313.503 151.943 313.145C149.34 311.55 146.672 310.118 144.003 308.654C142.702 311.192 140.912 313.633 140.294 316.334C139.643 319.165 140.456 322.321 139.936 325.217C139.675 326.649 137.951 327.821 136.877 329.122C135.77 327.886 133.883 326.747 133.688 325.38C133.232 322.028 133.525 318.579 133.525 317.147C127.96 315.585 124.153 313.958 120.183 313.6C117.58 313.372 114.391 314.414 112.243 315.943C110.193 317.375 109.152 320.239 107.394 322.842C100.235 315.813 95.8422 317.342 91.3515 324.241C112.959 330.554 133.427 336.574 153.928 342.464C154.84 342.725 156.109 342.367 157.02 341.944C170.232 335.761 183.378 329.448 196.557 323.167ZM125.064 194.89C149.991 183.5 164.537 138.593 155.067 105.173C132.874 130.653 124.869 161.144 125.064 194.89ZM98.1852 108.004C108.208 96.4523 117.482 86.2669 126.171 75.6259C137.69 61.503 136.974 45.0046 135.543 28.4086C127.733 38.4313 120.313 47.9658 112.829 57.4679C101.342 72.0138 97.9899 88.8377 98.1852 108.004ZM227.309 306.571C198.477 300.616 169.646 294.661 140.326 288.641C140.326 294.759 140.326 298.892 140.326 302.341C144.752 303.057 148.429 303.48 152.073 304.261C158.679 305.66 165.22 307.417 171.859 308.719C179.245 310.151 187.674 309.467 193.889 312.884C206.71 319.881 216.7 315.423 227.309 306.571ZM207.329 222.778C196.883 226.748 186.958 230.815 176.805 234.33C160.729 239.862 149.861 251.414 140.033 264.3C170.687 263.324 196.199 254.473 207.329 222.778ZM131.93 290.919C105.865 298.338 80.6454 305.497 55.4259 312.657C59.1682 315.195 63.1057 316.562 67.1408 317.408C74.007 318.807 84.0622 323.298 87.1862 320.401C93.6944 314.414 100.203 314.349 107.492 313.795C108.143 313.73 108.631 312.429 109.314 312.299C114.033 311.355 118.914 309.467 123.47 310.053C129.88 310.867 132.939 309.663 132.939 303.415C132.907 299.445 132.321 295.475 131.93 290.919ZM87.9672 122.681C60.3071 115.294 38.0814 124.47 15.9859 137.91C43.5158 150.048 63.8541 131.89 87.9672 122.681ZM121.322 261.632C107.492 241.879 87.3489 237.258 59.4936 246.891C77.2611 263.096 99.6821 258.313 121.322 261.632ZM68.5075 78.6523C74.3324 62.0237 58.4197 30.6864 40.8474 16.2706C42.1491 40.8068 51.0329 61.5356 68.5075 78.6523ZM40.3268 186.169C63.9517 194.141 84.4853 183.077 106.32 182.687C97.5018 172.957 87.3489 168.466 77.7818 171.558C65.6113 175.528 53.8639 180.799 40.3268 186.169ZM4.23851 46.111C5.67033 59.2902 11.5603 66.6445 21.2901 69.3454C33.2653 72.6972 45.7612 74.2266 59.2983 76.7649C53.4409 65.7334 47.6485 57.6957 35.2829 58.314C24.0887 58.8997 13.8382 56.2964 4.23851 46.111Z" fill="white"/>
<path d="M222.493 371.068C221.159 383.141 220.183 393.782 218.653 404.358C218.36 406.343 216.343 409.076 214.52 409.694C198.64 414.869 182.63 419.717 166.554 424.24C165.285 424.598 161.641 421.767 161.576 420.336C161.153 410.899 161.218 401.429 161.641 391.992C161.738 390.105 163.756 387.176 165.448 386.688C183.541 381.449 201.764 376.665 222.493 371.068ZM165.676 391.211C166.164 400.062 166.652 408.523 167.205 418.481C182.207 413.665 195.549 409.499 208.793 404.944C211.006 404.163 213.739 401.852 214.26 399.769C215.92 393.098 216.636 386.2 217.872 378.325C199.812 382.783 183.378 386.818 165.676 391.211Z" fill="white"/>
</svg>
