<svg width="500" height="281" viewBox="0 0 500 281" fill="none" xmlns="http://www.w3.org/2000/svg">
<path d="M468.871 201.414C478.151 201.414 487.627 201.414 497.466 201.414C498.322 214.938 499.112 227.64 500 241.723C490.885 241.723 482.79 241.987 474.729 241.625C469.398 241.394 467.621 243.171 467.424 248.568C466.733 266.797 466.502 266.797 448.667 267.225C446.463 267.291 444.291 267.357 442.086 267.39C423.594 267.653 420.928 265.382 420.632 247.252C420.566 242.579 418.691 241.625 414.775 241.691C406.285 241.789 397.763 241.855 389.273 241.658C385.028 241.559 383.284 243.237 383.416 247.449C383.515 250.18 383.317 252.944 382.922 255.642C381.639 264.362 377.427 268.015 368.608 267.949C361.764 267.916 354.887 267.883 348.043 267.455C338.599 266.863 336.131 264.165 335.539 254.886C335.374 252.418 335.901 249.621 334.88 247.581C333.696 245.244 331.195 243.566 329.122 241.789C328.628 241.394 327.543 241.691 326.72 241.723C319.908 241.921 310.958 239.617 306.878 243.072C303.061 246.297 303.982 255.577 303.489 262.256C302.995 269.331 298.849 272.589 292.696 273.74C288.977 274.431 285.062 274.3 281.212 274.234C261.435 273.971 257.52 270.45 257.059 250.871C256.895 243.895 255.118 241.098 247.714 241.592C237.941 242.25 228.135 241.756 217.737 241.756C217.309 249.588 216.98 256.63 216.487 263.671C215.96 271.733 211.715 276.537 203.522 276.669C196.414 276.768 189.175 276.833 182.265 275.484C175.684 274.201 171.275 269.627 170.913 262.223C170.748 258.374 169.958 254.524 170.222 250.74C170.748 243.632 168.214 241.164 160.844 241.493C146.497 242.118 148.504 240.802 148.274 253.866C148.241 254.951 148.175 256.07 148.142 257.156C147.188 276.011 138.336 281.802 120.271 275.057C112.67 272.227 108.754 267.126 108.754 258.209C108.721 238.301 111.354 242.085 92.4002 241.658C87.2341 241.559 82.0679 241.625 75.2894 241.625C75.2894 249.357 75.4539 256.366 75.2565 263.342C74.9274 274.76 70.0903 279.729 58.705 280.42C55.4474 280.618 52.124 280.42 48.8334 280.19C40.969 279.598 36.0332 276.044 35.8358 267.423C35.6383 259.229 35.079 251.068 34.6183 241.394C27.5436 241.394 20.7651 241.263 14.0194 241.427C8.8862 241.559 6.54994 239.617 6.74737 234.188C7.04352 225.435 6.97769 216.649 6.78026 207.864C6.68155 203.619 8.35971 201.941 12.5716 202.039C19.6463 202.204 26.7539 202.072 34.4866 202.072C34.4866 184.534 34.4866 168.015 34.4866 149.687C25.668 149.687 16.7506 149.424 7.86615 149.786C1.71283 150.049 -0.0640623 147.745 0.00174863 141.658C0.363708 117.67 0.166255 117.67 24.3518 117.637C27.5765 117.637 30.8012 117.637 35.1447 117.637C35.1447 103.981 35.1118 91.181 35.1447 78.3808C35.1776 57.6833 42.6801 40.6382 58.9683 24.9094C60.2845 26.5547 61.7981 27.9696 62.7524 29.7136C70.6826 44.5869 77.165 59.7234 75.6184 77.3278C74.6971 87.9562 75.5855 98.7163 75.0591 109.378C74.73 115.992 77.1979 117.999 83.5816 117.637C91.4789 117.176 99.4091 117.538 108.228 117.538C108.425 113.589 108.721 110.134 108.754 106.712C108.886 95.1954 108.952 83.6785 108.952 72.1616C108.919 54.7546 115.862 39.6839 124.746 25.2714C125.602 23.8893 126.293 22.4415 128.432 21.2898C135.704 35.9657 148.241 47.0548 147.879 64.396C147.583 79.4667 148.241 94.5703 148.01 109.641C147.912 115.498 149.327 117.966 155.776 117.769C172.558 117.209 169.761 119.216 170.189 103.981C170.32 99.3085 170.781 94.6031 170.255 89.9963C167.49 65.6463 174.763 43.5668 185.062 22.0795C188.023 15.8933 191.149 15.3011 194.999 20.895C201.844 30.8324 208.589 40.8356 214.808 51.1679C216.618 54.1952 217.145 58.3742 217.211 62.0267C217.441 80.0918 217.309 98.1898 217.309 116.946C230.142 116.946 242.614 116.946 257.158 116.946C257.158 99.4402 254.492 81.2436 257.915 64.2315C261.337 47.1865 269.859 30.8653 282.298 15.5643C291.61 35.0443 306.746 50.7074 304.443 73.9057C303.225 86.1136 304.377 98.5518 304.213 110.891C304.147 115.728 305.693 117.867 310.859 117.637C318.494 117.308 326.128 117.538 335.242 117.538C335.242 108.16 335.999 99.4073 335.111 90.8189C332.577 66.4031 338.237 44.2578 351.333 23.6261C355.677 16.8147 358.901 9.31224 363.739 0C380.487 38.7955 387.299 76.7684 382.758 117.472C394.966 117.472 405.331 117.736 415.63 117.176C417.111 117.11 419.48 113.162 419.546 110.957C420.007 96.9722 419.612 82.9874 420.106 69.0026C420.797 49.72 427.081 31.984 436.262 15.1694C436.92 13.9848 437.842 12.9319 438.73 11.9447C439.059 11.5827 439.684 11.484 441.856 10.5298C448.635 32.9055 464.923 51.2995 467.16 75.3863C468.18 86.278 467.424 97.3013 467.522 108.292C467.555 110.957 467.753 113.655 467.95 117.472C476.308 117.472 484.172 117.637 492.004 117.407C496.512 117.275 498.684 119.019 498.618 123.527C498.618 123.79 498.651 124.086 498.651 124.35C500.888 149.621 500.888 149.818 475.288 150.049C469.069 150.115 467.259 152.089 467.489 158.144C467.95 171.569 467.687 184.994 467.786 198.453C467.72 199.177 468.279 199.901 468.871 201.414ZM363.08 14.1822C353.143 35.0772 339.059 53.0765 339.718 78.5782C341.231 137.413 339.783 196.347 339.323 255.215C339.29 260.644 341.494 262.75 346.233 263.244C348.668 263.507 351.169 263.474 353.604 263.474C378.118 263.507 378.118 263.507 378.184 238.597C378.283 185.192 377.559 131.753 378.842 78.3479C379.336 55.2153 369.003 35.6695 363.08 14.1822ZM280.455 21.8821C275.749 31.7208 272.228 39.7169 268.214 47.4168C263.147 57.1239 261.534 67.1929 261.6 78.1834C261.962 134.32 261.929 190.49 261.468 246.626C261.304 268.574 261.995 269.989 283.844 269.792C296.611 269.66 298.816 267.653 298.849 255.149C299.112 190.49 299.31 125.863 299.441 61.2041C299.441 59.0653 299.277 56.6632 298.323 54.8205C292.893 44.4553 287.2 34.2216 280.455 21.8821ZM190.623 22.4415C186.214 31.9183 182.035 39.9472 178.744 48.3381C176.803 53.2739 175.289 58.7362 175.256 63.9682C175.124 125.929 175.454 187.89 175.289 249.884C175.223 271.24 175.289 271.799 196.941 272.424C209.182 272.753 211.32 270.713 211.353 258.505C211.682 192.99 212.044 127.443 212.341 61.9281C212.341 59.7892 212.439 57.2555 211.419 55.5444C204.772 44.5869 197.829 33.8597 190.623 22.4415ZM462.126 262.454C462.389 259.262 462.652 257.65 462.652 256.037C462.685 194.372 462.685 132.708 462.652 71.0429C462.652 69.1673 462.619 67.0942 461.83 65.449C454.689 50.4112 447.417 35.4391 439.651 19.3813C430.273 36.3276 425.008 53.4714 424.976 72.2275C424.844 125.929 424.581 179.664 424.35 233.365C424.317 239.387 423.659 245.442 423.857 251.43C424.087 258.472 427.575 262.618 435.209 262.454C443.929 262.322 452.649 262.454 462.126 262.454ZM58.705 30.9311C53.5389 39.4865 49.5573 46.956 44.7202 53.8333C40.5741 59.7562 39.4225 65.8438 39.4554 72.9842C39.6857 134.912 39.6199 196.807 39.4883 258.736C39.4554 275.55 40.9361 277.228 57.6192 276.175C58.705 276.11 59.8238 276.077 60.8768 275.879C67.2934 274.596 70.8143 271.371 70.8143 264.132C70.6827 198.387 70.8801 132.642 70.7485 66.8968C70.7155 54.2611 64.99 43.3364 58.705 30.9311ZM127.872 27.9039C119.679 41.4609 113.262 53.6359 113.328 68.7395C113.526 132.313 113.262 195.886 112.933 259.459C112.9 265.843 115.5 269.528 121.028 271.009C125.174 272.128 129.649 272.062 133.993 272.391C141.034 272.918 143.404 269.66 143.371 262.552C143.107 198.979 142.614 135.406 143.502 71.8656C143.766 55.0838 136.526 42.6126 127.872 27.9039ZM256.467 201.151C256.467 185.225 256.598 169.957 256.269 154.689C256.236 153.109 253.571 150.279 252.057 150.213C240.672 149.819 229.287 150.016 217.638 150.016C217.638 167.719 217.638 184.238 217.638 201.151C230.471 201.151 242.712 201.151 256.467 201.151ZM419.546 201.546C419.546 185.258 419.711 169.989 419.316 154.754C419.283 153.175 416.091 150.411 414.248 150.312C405.792 149.818 397.236 149.786 388.78 150.345C386.904 150.477 383.778 153.668 383.712 155.544C383.284 169.233 383.317 182.954 383.712 196.643C383.745 198.321 386.674 201.25 388.352 201.348C398.19 201.776 408.062 201.546 419.546 201.546ZM75.2894 201.612C85.7863 201.612 94.7694 201.875 103.72 201.381C105.431 201.283 108.392 198.42 108.425 196.775C108.787 181.539 108.656 166.304 108.656 149.884C98.4877 149.884 89.011 149.687 79.5342 150.082C78.0535 150.147 75.5198 153.01 75.4868 154.623C75.1578 169.891 75.2894 185.126 75.2894 201.612ZM334.946 201.513C334.946 191.411 334.946 182.197 334.946 172.984C334.946 148.766 334.946 148.766 310.991 150.016C310.728 150.016 310.333 149.917 310.201 150.049C308.227 151.957 304.64 153.833 304.575 155.807C304.114 169.167 304.213 182.559 304.575 195.919C304.64 197.827 307.108 201.151 308.622 201.25C316.98 201.809 325.371 201.513 334.946 201.513ZM217.145 206.251C217.145 215.629 216.816 223.527 217.408 231.358C217.54 233.168 220.764 236.064 222.673 236.162C231.919 236.689 241.199 236.327 250.478 236.458C254.492 236.524 256.565 235.175 256.434 230.832C256.269 224.58 256.862 218.262 256.269 212.043C256.072 209.97 253.308 206.58 251.564 206.482C240.475 206.021 229.353 206.251 217.145 206.251ZM148.142 175.287C148.175 175.287 148.175 175.287 148.142 175.287C148.175 179.137 148.076 182.954 148.175 186.804C148.57 203.553 145.148 201.381 163.871 201.612C168.017 201.678 169.86 200.295 169.827 195.985C169.728 182.559 170.09 169.101 169.629 155.676C169.564 153.701 166.207 151.266 163.838 150.18C161.798 149.259 158.968 150.18 156.533 149.884C150.281 149.127 147.352 151.168 148.043 158.012C148.603 163.705 148.142 169.529 148.142 175.287ZM400.724 206.284C396.611 206.284 392.399 205.758 388.418 206.515C386.542 206.877 383.91 209.443 383.646 211.286C380.422 235.636 381.211 236.458 405.298 236.458C406.121 236.458 406.943 236.458 407.766 236.458C419.711 236.458 419.711 236.458 419.579 224.547C419.382 206.218 419.382 206.218 400.724 206.284ZM91.775 236.524C110.531 236.294 108.524 238.532 108.623 224.58C108.721 206.087 108.656 206.021 89.2742 206.12C73.4467 206.218 75.3223 204.178 75.2894 220.072C75.2565 236.524 75.3552 236.524 91.775 236.524ZM217.573 145.146C230.471 145.146 242.91 145.146 256.434 145.146C256.434 138.499 256.697 132.28 256.236 126.127C256.138 124.679 253.67 122.31 252.255 122.244C240.87 121.915 229.484 122.079 217.573 122.079C217.573 130.305 217.573 137.512 217.573 145.146ZM334.88 221.158C334.782 204.145 336.592 206.416 320.106 206.218C319.843 206.218 319.547 206.218 319.283 206.218C302.567 206.416 304.377 204.014 304.443 220.96C304.509 238.334 301.975 236.393 319.448 236.36C336.361 236.327 334.42 239.025 334.88 221.158ZM419.579 145.08C419.579 138.598 420.04 133.07 419.349 127.706C419.085 125.666 416.19 122.507 414.347 122.375C405.627 121.816 396.841 121.98 388.089 122.309C386.509 122.375 383.811 124.448 383.745 125.765C383.284 132.148 383.548 138.598 383.548 145.047C396.15 145.08 407.272 145.08 419.579 145.08ZM494.636 235.537C497.4 207.502 495.623 205.034 474.005 206.251C473.445 206.284 472.688 206.054 472.392 206.317C470.714 207.93 467.983 209.509 467.753 211.385C464.758 235.109 467.424 237.873 491.017 236.228C492.07 236.129 493.09 235.833 494.636 235.537ZM108.688 145.179C108.688 138.466 109.083 132.675 108.458 127.015C108.261 125.205 105.464 122.375 103.72 122.244C95.7895 121.75 87.8264 121.816 79.8962 122.277C78.2838 122.375 75.6185 124.909 75.4868 126.521C74.9604 132.642 75.2894 138.828 75.2894 145.146C86.9709 145.179 97.2702 145.179 108.688 145.179ZM34.6183 205.725C27.6423 205.725 21.127 205.33 14.7434 205.988C12.9336 206.185 10.1037 209.377 10.0379 211.286C9.77468 218.064 10.1696 224.942 11.0251 231.687C11.2554 233.563 13.8878 236.393 15.6318 236.557C21.7522 237.15 27.9714 236.788 34.6183 236.788C34.6183 225.83 34.6183 216.419 34.6183 205.725ZM4.90468 145.014C15.2699 145.014 24.9111 145.014 34.4208 145.014C34.4208 137.051 34.4208 129.878 34.4208 121.75C29.0901 121.75 24.4834 121.75 19.9096 121.75C15.1054 121.75 10.2682 121.75 4.93757 121.75C4.90466 130.108 4.90468 137.578 4.90468 145.014ZM319.514 145.541C323.067 145.541 326.654 145.903 330.109 145.376C331.787 145.146 334.189 143.599 334.617 142.152C338.961 127.838 334.584 122.079 319.711 122.079C316.157 122.079 312.538 121.618 309.115 122.309C307.306 122.671 304.871 124.777 304.509 126.489C301.152 142.382 303.752 145.574 319.514 145.541ZM468.213 145.442C475.946 145.442 483.317 145.64 490.622 145.278C492.103 145.212 494.571 143.007 494.702 141.592C495.262 136.459 495.327 131.194 494.867 126.028C494.735 124.679 492.267 122.737 490.655 122.441C469.069 118.822 465.482 122.31 468.213 145.442ZM169.827 221.618C169.531 204.738 172.558 206.383 155.677 206.021C149.985 205.889 147.747 207.831 148.109 213.523C148.471 219.249 147.945 225.007 148.405 230.7C148.57 232.609 150.182 235.537 151.762 236.064C164.332 240.078 169.794 236.031 169.827 223.231C169.827 222.737 169.827 222.177 169.827 221.618ZM170.09 133.859C170.123 122.013 170.123 122.013 159.56 121.981C148.109 121.915 148.109 121.915 148.076 131.885C148.01 145.607 148.01 145.705 157.224 145.607C170.452 145.442 169.925 148.074 170.09 133.859Z" fill="white"/>
<path d="M356.993 230.174C353.965 225.139 350.741 222.145 351.201 219.874C351.728 217.242 355.479 215.267 357.848 213.03C359.823 215.432 363.245 217.768 363.344 220.236C363.442 222.737 360.25 225.369 356.993 230.174Z" fill="white"/>
<path d="M357.454 139.42C354.854 135.636 351.991 133.267 352.222 131.227C352.452 129.253 355.841 126.159 357.75 126.225C359.691 126.291 362.85 129.516 363.015 131.556C363.146 133.563 360.185 135.801 357.454 139.42Z" fill="white"/>
<path d="M281.508 135.34C277.888 131.26 273.874 128.627 274.104 126.456C274.367 124.021 278.217 120.895 281.014 120.236C282.495 119.874 286.411 123.889 286.773 126.291C287.102 128.496 284.107 131.194 281.508 135.34Z" fill="white"/>
<path d="M290.392 220.927C285.423 223.625 282.593 226.455 280.422 226.027C277.69 225.501 275.486 222.276 273.084 220.203C275.683 218.328 278.151 215.267 280.915 214.971C283.12 214.708 285.719 217.801 290.392 220.927Z" fill="white"/>
<path d="M204.246 220.137C199.639 222.507 196.974 225.073 194.999 224.613C192.926 224.152 190.722 220.927 190.195 218.558C189.932 217.373 193.617 213.852 194.966 214.116C197.599 214.675 199.869 217.11 204.246 220.137Z" fill="white"/>
<path d="M200.363 127.64C197.039 129.845 194.835 132.444 192.926 132.247C191.182 132.082 188.451 128.759 188.583 127.015C188.714 125.205 191.775 122.309 193.551 122.309C195.46 122.309 197.368 125.139 200.363 127.64Z" fill="white"/>
<path d="M450.313 220.763C445.903 224.086 443.567 226.85 440.737 227.508C439.487 227.804 435.406 223.494 435.801 222.112C436.492 219.578 439.158 216.682 441.658 215.86C443.238 215.3 446.002 218.163 450.313 220.763Z" fill="white"/>
<path d="M452.912 130.437C448.404 133.629 446.002 136.097 443.073 136.952C442.02 137.281 439.815 133.728 438.17 131.918C440.474 130.075 442.547 127.607 445.179 126.653C446.528 126.159 448.864 128.364 452.912 130.437Z" fill="white"/>
<path d="M62.6861 128.759C58.9349 131.885 56.4999 135.406 54.4926 135.176C52.1893 134.945 50.2808 131.359 48.1748 129.22C50.2808 127.212 52.1234 124.086 54.5255 123.56C56.3024 123.165 58.8362 126.159 62.6861 128.759Z" fill="white"/>
<path d="M62.0612 218.492C57.948 221.454 55.6446 224.382 53.3741 224.349C51.4985 224.316 47.9118 220.598 48.1422 218.953C48.5041 216.419 51.1695 212.898 53.4728 212.339C55.2168 211.878 57.948 215.366 62.0612 218.492Z" fill="white"/>
<path d="M138.138 127.903C133.334 130.602 130.504 133.464 128.398 133.004C126.227 132.51 123.825 128.891 123.43 126.357C123.232 125.008 127.181 121.618 129.089 121.75C131.524 121.882 133.762 124.712 138.138 127.903Z" fill="white"/>
<path d="M135.967 220.73C131.788 223.329 129.353 226.06 127.444 225.731C125.338 225.369 123.66 222.276 121.785 220.335C123.562 218.69 125.338 215.761 127.148 215.761C129.386 215.728 131.656 218.13 135.967 220.73Z" fill="white"/>
</svg>
