<svg width="167" height="500" viewBox="0 0 167 500" fill="none" xmlns="http://www.w3.org/2000/svg">
<path d="M71.3838 435.244C64.3274 425.546 56.8006 416.753 51.1555 406.91C47.1026 399.854 43.6286 391.386 43.4115 383.461C43.2668 377.165 46.8131 368.552 51.6621 364.825C63.7122 355.598 65.8472 344.018 64.8701 330.412C62.1199 291.33 59.3698 252.213 56.8729 213.131C54.3761 174.339 52.0239 135.511 49.9613 96.6828C49.3461 84.9222 46.994 75.2966 35.0162 69.3981C25.9334 64.911 17.8638 58.2165 9.57707 52.2095C-1.78551 43.959 -3.23298 34.3696 6.28408 23.9117C11.4226 18.2666 17.9362 13.1643 24.8117 9.83511C45.8361 -0.333314 68.3802 -2.21504 90.9968 2.34446C111.623 6.50592 119.62 25.721 107.824 43.2353C102.287 51.4859 94.2536 58.6508 86.0031 64.3683C74.8576 72.1122 70.3343 81.1226 71.5647 94.8373C77.6802 163.592 83.1082 232.419 88.9343 301.173C90.2732 316.769 92.372 332.294 93.8918 347.89C94.7603 356.719 98.8131 363.45 106.593 367.394C134.421 381.58 149.221 406.476 161.524 433.471C170.499 453.157 167.785 465.75 150.053 478.162C139.27 485.725 127.22 491.551 115.604 497.847C113.071 499.222 109.561 500.452 106.991 499.837C103.59 499.005 98.9218 496.87 97.9809 494.192C97.1486 491.695 99.6816 486.376 102.251 484.784C108.33 481.056 115.387 478.885 121.973 475.918C142.852 466.509 146.977 456.739 137.569 435.859C132.901 425.51 127.111 415.523 120.634 406.223C117.341 401.482 111.406 398.551 106.666 394.788C105.616 395.62 104.603 396.416 103.554 397.248C106.304 402.568 108.439 408.358 111.985 413.134C116.617 419.395 122.479 424.75 127.545 430.721C131.96 435.896 133.263 441.903 128.124 447.041C112.238 462.855 95.5202 477.691 73.374 484.132C69.9724 485.109 65.7748 483.372 61.939 482.902C62.9161 479.03 62.8437 474.29 65.1235 471.467C68.4164 467.414 73.3016 464.519 77.7887 461.552C80.7922 459.562 84.3023 458.404 87.4867 456.739C106.883 446.607 108.982 438.175 96.4972 420.733C92.1187 414.618 88.0657 408.177 82.9996 402.713C81.1179 400.686 76.7393 401.048 73.4825 400.324C73.7358 403.436 73.0121 407.2 74.4958 409.479C77.7164 414.473 82.0949 418.743 86.0393 423.303C97.4742 436.475 95.6649 446.209 80.6113 454.387C74.2786 457.825 68.525 462.457 62.0838 465.569C56.0045 468.5 49.4186 470.635 42.7964 472.191C40.4081 472.77 37.4046 470.598 34.6544 469.694C36.0295 467.269 36.8617 464.23 38.852 462.529C49.3461 453.41 60.0574 444.689 71.3838 435.244ZM104.096 490.791C104.35 491.514 104.567 492.202 104.82 492.926C106.412 493.07 108.439 493.903 109.561 493.215C124.469 484.349 139.776 476.026 153.853 465.967C161.163 460.756 162.176 451.601 158.485 442.843C146.398 414.147 132.358 386.899 102.83 371.99C92.9871 366.996 88.1381 359.216 87.0887 348.505C84.7366 324.224 82.0588 299.979 79.9962 275.698C74.8939 215.049 70.1896 154.364 65.0149 93.7155C63.7846 79.3495 68.4888 68.7106 80.5027 60.5686C87.6677 55.7196 94.7603 50.147 100.224 43.561C113.288 27.7475 105.978 9.61804 85.6413 7.62778C74.0616 6.506 62.0838 6.68687 50.5403 8.13434C36.3551 9.90748 23.0385 15.046 12.6167 25.5763C3.64246 34.6953 4.22145 41.0279 14.4261 48.41C22.749 54.3808 30.71 60.9667 39.431 66.2499C50.2508 72.7635 53.6162 82.2082 54.4123 94.1497C57.4881 139.853 61.143 185.485 64.4721 231.188C66.9328 265.167 69.4297 299.11 71.4923 333.09C72.2161 345.031 70.8047 356.647 60.781 365.296C47.1387 377.02 45.5465 385.813 55.1359 401.229C60.5277 409.914 66.9689 417.947 73.0121 426.198C79.9961 435.751 79.8876 435.896 70.5877 443.169C61.8305 450.008 53.3991 457.246 44.8228 464.266C45.438 465.17 46.017 466.039 46.6322 466.944C51.0831 464.809 55.6788 462.891 59.985 460.502C66.8243 456.703 73.4102 452.505 80.2133 448.633C89.1514 443.603 90.5626 437.886 84.1937 429.491C80.5751 424.714 75.9794 420.661 72.3245 415.884C66.1366 407.779 65.5576 398.334 70.6238 394.607C75.0747 391.314 84.1214 394.281 90.2007 401.808C95.1221 407.887 99.2836 414.546 103.843 420.914C114.373 435.678 112.021 448.561 96.5696 458.295C90.2007 462.312 83.2167 465.279 76.8479 469.26C73.6996 471.214 71.2752 474.326 68.525 476.895C86.0031 474.905 98.6684 465.424 110.936 455.183C129.499 439.695 129.137 439.949 113.071 422.289C107.57 416.246 103.409 408.647 99.9711 401.157C98.5237 397.972 100.478 393.232 100.876 389.179C104.531 389.902 108.62 389.866 111.804 391.531C125.627 398.804 132.901 411.759 139.414 425.148C155.517 458.186 150.488 471.141 116.436 484.928C112.202 486.629 108.185 488.837 104.096 490.791Z" fill="white"/>
<path d="M62.6268 16.2768C62.9163 16.2768 63.242 16.2768 63.5315 16.2768C72.6143 16.711 82.4933 16.5663 85.931 27.3137C89.224 37.6992 82.3485 44.1767 74.8579 49.7856C71.0221 52.6443 66.6798 54.9241 63.1335 58.1447C56.1133 64.4411 49.5273 65.0563 41.4939 59.4836C32.194 53.0785 25.608 45.2984 26.4765 33.7187C26.7298 30.3172 30.3123 25.6853 33.4967 24.274C42.6881 20.2573 52.4584 17.5796 61.9755 14.3951C62.1926 15.0103 62.4097 15.6616 62.6268 16.2768ZM32.1578 34.9491C32.3388 42.114 46.9581 56.661 52.3861 56.6972C53.2184 56.6972 54.1954 56.3715 54.883 55.9011C62.3736 50.4008 70.4431 45.5155 77.1015 39.1105C83.6512 32.814 81.3715 25.3596 72.8677 23.5864C60.0938 20.9086 47.6818 22.718 36.3916 29.4849C34.148 30.8238 32.9539 33.8273 32.1578 34.9491Z" fill="white"/>
</svg>
