<svg width="169" height="500" viewBox="0 0 169 500" fill="none" xmlns="http://www.w3.org/2000/svg">
<path d="M69.9952 219.054C71.3755 217.001 72.4018 215.55 74.9501 211.798C77.5692 216.364 79.7282 220.186 82.9843 225.849C85.9927 217.39 87.833 212.294 90.4521 204.897C93.9559 210.807 96.3627 214.842 98.8048 218.983C103.158 218.346 101.742 205.711 109.847 214.205C111.829 211.409 113.705 208.719 114.802 207.162C120.465 210.17 125.208 212.718 129.95 215.231C130.941 214.63 131.932 214.028 132.923 213.426C132.923 205.923 133.1 198.42 132.888 190.917C131.649 147.632 123.544 105.514 111.652 63.9635C108.361 52.4963 107.582 40.1797 106.98 28.1462C106.45 17.2807 108.432 6.66294 120.146 1.46023C129.065 -2.46834 145.311 1.88496 153.486 10.273C164.493 21.5278 168.21 35.7202 168.351 50.7621C168.599 78.4745 168.245 106.187 167.997 133.899C167.502 183.732 166.9 233.565 166.228 283.397C166.157 288.069 166.157 293.201 164.246 297.201C162.582 300.669 158.158 305.305 155.15 305.164C147.753 304.845 146.125 308.951 144.674 314.26C141.736 325.054 140.179 335.141 143.718 346.892C147.611 359.881 147.009 374.286 147.859 388.124C149.805 419.305 151.504 450.486 153.203 481.667C153.415 485.418 152.92 489.17 152.708 493.382C139.258 493.594 128.216 489.17 120.748 479.543C112.714 469.173 105.423 457.847 99.8311 445.991C92.0801 429.533 86.1696 412.226 78.7371 393.398C67.4823 428.967 71.4462 463.652 74.2776 500C55.6965 483.472 48.7596 463.546 45.4327 441.992C41.7873 418.597 44.2648 395.557 50.4231 372.799C51.0955 370.322 51.8742 367.49 51.3079 365.154C47.4501 349.546 43.3091 333.973 38.9912 318.471C38.425 316.383 36.3722 314.72 34.9565 312.879C33.5408 311.039 30.851 309.305 30.7802 307.429C28.869 248.182 13.1193 190.952 5.26212 132.59C1.26276 102.825 -2.6658 72.8824 2.39533 42.7988C4.62507 29.4558 10.9603 18.3425 22.6399 10.9101C39.4868 0.221514 53.573 7.26462 54.1393 27.0137C54.4224 37.5961 53.2191 48.2138 52.759 58.7962C50.4939 110.682 55.6258 161.824 67.907 212.294C68.3671 214.382 69.1104 216.293 69.9952 219.054ZM38.5312 304.137C48.2288 299.82 57.0415 295.749 65.9605 292.033C71.8002 289.591 76.8259 287.184 77.7462 279.61C78.1001 276.673 81.5331 273.806 84.1168 271.506C93.2127 263.436 93.602 260.888 83.6921 253.101C72.4372 244.253 66.102 232.751 62.7043 219.231C48.4765 162.709 43.5923 105.408 48.0872 47.2582C48.6534 39.755 47.8041 31.9686 46.4946 24.5008C44.4418 12.9982 38.8497 10.5561 28.3735 16.1482C16.0922 22.7312 9.4385 34.0922 9.4031 47.1875C9.33232 75.1122 9.33237 103.249 12.6593 130.855C17.1541 168.265 25.1174 205.251 30.9926 242.519C34.1071 262.622 35.9476 282.867 38.5312 304.137ZM121.527 285.804C130.339 289.343 138.551 292.493 146.655 295.926C155.645 299.749 158.264 298.369 159.22 288.777C159.468 286.441 159.397 284.07 159.432 281.699C159.963 227.442 160.529 173.185 161.025 118.928C161.237 96.5247 161.733 74.0858 161.273 51.7177C160.954 36.7112 158.264 21.3863 144.461 12.7859C137.914 8.71573 127.862 6.41521 120.642 8.25563C112.82 10.2022 112.006 20.3599 112.749 28.1109C113.953 40.3921 114.696 53.0272 118.271 64.6714C131.932 108.947 138.798 154.179 140.462 200.366C140.851 211.763 137.312 220.434 127.65 226.663C124.96 228.397 122.588 230.698 120.288 232.963C116.076 237.175 114.944 241.847 118.094 247.368C124.924 259.331 125.314 272.001 121.527 285.804ZM147.151 481.808C147.576 478.8 147.93 477.667 147.823 476.535C145.027 435.939 142.09 395.38 139.471 354.784C138.905 345.83 133.525 341.654 126.446 337.548C116.324 331.708 106.025 325.656 97.389 317.905C90.1335 311.393 85.2139 302.332 78.8079 293.803C66.8806 299.147 54.6348 304.668 41.7165 310.473C45.1496 324.842 47.804 338.716 51.8388 352.165C56.2982 367.101 71.4109 375.383 86.5943 372.268C91.1245 371.313 93.1065 372.127 94.8407 377.046C103.583 401.715 112.572 426.348 122.27 450.663C127.119 462.767 135.401 472.712 147.151 481.808ZM88.5408 233.175C87.2313 233.919 85.9218 234.662 84.6123 235.405C82.241 231.512 79.9051 227.654 77.5338 223.761C76.472 224.398 75.4102 225.035 74.3131 225.672C75.6226 229.778 76.0473 234.52 78.4186 237.883C81.5686 242.342 86.2049 245.775 90.3105 249.598C100.716 259.295 100.291 266.551 89.7089 276.036C86.9836 278.478 84.7539 283.044 84.7539 286.618C84.8601 301.448 96.221 309.057 107.016 319.675C115.652 297.236 118.943 276.319 113.599 254.376C113.457 253.809 113.103 253.314 112.785 252.818C107.476 243.545 107.724 235.087 115.722 227.123C117.209 225.637 116.961 222.381 117.704 219.195C111.051 224.256 106.096 228.079 100.645 232.255C97.389 227.76 94.77 224.115 91.5847 219.726C90.4167 224.894 89.4611 229.034 88.5408 233.175ZM65.9958 483.507C66.7744 483.436 67.5531 483.365 68.3671 483.295C68.1194 480.569 67.9424 477.844 67.6592 475.119C65.111 449.212 64.0492 423.41 70.88 397.892C75.8349 379.418 75.7641 379.417 58.1386 371.773C57.4308 371.454 56.5106 371.596 54.8826 371.454C46.7777 410.315 45.5035 448.044 65.9958 483.507ZM137.064 485.383C137.878 484.64 138.657 483.861 139.471 483.118C125.88 470.66 117.103 455.228 110.98 438.275C104.078 419.199 97.6014 399.945 90.6291 380.869C90.0274 379.17 87.2314 378.285 85.4264 377.011C84.7185 379.064 83.1967 381.223 83.4444 383.205C83.8691 386.673 85.2494 390 86.3465 393.362C94.9469 419.057 103.3 445 119.049 467.403C123.863 474.234 131.012 479.437 137.064 485.383ZM120.784 293.484C119.403 298.51 118.448 302.439 117.244 306.332C111.44 324.948 111.44 324.948 130.163 332.735C131.472 333.266 132.852 333.549 133.95 333.867C137.029 323.391 139.966 313.304 143.258 302.085C136.392 299.466 128.888 296.563 120.784 293.484Z" fill="white"/>
<path d="M112.537 350.572C112.749 357.12 110.236 361.509 103.122 361.721C95.6543 361.933 88.7527 355.209 88.6465 347.953C88.5403 341.193 93.283 336.486 100.326 336.38C107.582 336.238 112.466 341.901 112.537 350.572ZM110.696 349.971C105.352 346.467 102.45 343.671 99.0166 342.715C97.7071 342.361 95.2296 346.113 93.283 348.024C96.2914 350.714 99.052 353.793 102.414 355.81C103.228 356.27 106.13 353.262 110.696 349.971Z" fill="white"/>
</svg>
