<svg width="500" height="288" viewBox="0 0 500 288" fill="none" xmlns="http://www.w3.org/2000/svg">
<path d="M251.133 142.822C247.895 118.916 247.658 95.3521 252.107 72.315C256.056 51.8845 267.746 35.7191 287.15 26.4517C327.274 7.28486 369.741 -1.6667 414.051 0.255241C437.325 1.28203 458.94 9.68066 478.712 22.2918C485.505 26.6096 489.875 32.744 492.034 40.4318C498.379 62.9949 501.618 85.8476 499.196 109.332C497.59 124.734 491.797 138.082 481.161 149.325C477.844 152.826 474.579 156.407 471.025 159.645C460.967 168.834 456.492 179.075 457.071 193.687C457.861 213.012 454.622 232.548 452.779 251.951C452.569 254.242 450.699 256.98 448.777 258.428C442.88 262.904 436.956 267.643 430.374 270.881C409.838 280.912 388.091 286.309 365.107 286.783C340.28 287.283 315.505 287.573 291.389 280.333C265.297 272.513 254.003 258.033 254.24 230.81C254.319 222.411 251.686 216.435 246.526 210.274C189.947 142.637 117.966 102.408 31.1097 88.2698C22.9217 86.9271 14.8127 84.7946 6.96691 82.1355C4.0445 81.135 -0.299627 77.212 0.0163097 75.2638C0.569198 71.7885 3.62325 66.7862 6.59832 65.9964C14.0491 63.9691 22.2898 62.2052 29.767 63.3636C61.8082 68.3133 93.902 73.2892 125.548 80.2134C171.833 90.3497 214.247 109.095 249.211 142.242C249.474 142.479 250.001 142.479 251.133 142.822ZM269.826 167.096C269.378 167.701 268.904 168.307 268.457 168.939C266.324 167.517 263.612 166.517 262.112 164.595C234.968 130.158 198.951 108.964 158.327 94.5359C121.125 81.3192 82.423 75.0005 43.5892 69.182C38.7975 68.4711 35.3749 67.971 32.2945 73.2103C30.6358 76.0274 25.7125 77.0278 22.1319 78.5811C20.2626 79.3973 18.13 79.6607 16.129 80.1609C19.7886 82.1355 23.3693 83.1622 27.0025 83.6888C57.701 88.2172 87.6623 95.3785 116.36 107.437C173.623 131.501 221.435 167.86 258.768 217.541C263.928 224.412 267.298 232.732 270.984 240.63C272.011 242.842 271.142 245.922 271.142 248.608C270.458 248.713 269.773 248.818 269.089 248.923C265.877 241.604 262.665 234.259 259.453 226.913C258.636 227.177 257.82 227.413 257.004 227.677C258.321 234.838 258.9 242.263 261.111 249.134C266.693 266.484 281.173 273.145 297.26 277.2C321.166 283.203 345.493 282.544 369.872 281.807C397.148 280.991 421.238 271.618 443.117 255.927C445.065 254.531 447.303 252.057 447.487 249.924C449.278 228.335 451.489 206.72 451.963 185.078C452.463 162.094 450.989 139.083 450.857 116.072C450.805 107.858 452.095 99.6172 452.885 89.9285C441.3 100.144 427.82 101.513 414.867 104.251C406.521 106.015 398.043 107.41 389.566 108.437C359.367 112.044 329.143 112.465 299.076 107.358C282.49 104.541 267.088 98.6168 254.24 84.189C254.24 100.512 253.687 114.888 254.398 129.184C255.03 141.532 257.741 153.511 267.14 162.804C268.325 163.91 268.957 165.622 269.826 167.096ZM454.438 131.053C462.6 128.815 469.524 126.867 476.448 124.997C490.823 121.154 495.167 115.783 494.825 100.67C494.404 82.0038 489.665 64.3376 481.687 47.4614C474.579 32.3754 462.679 23.9768 446.434 20.9754C416.815 15.4992 387.038 15.078 357.472 20.054C341.385 22.7658 325.589 27.7154 309.976 32.665C304.421 34.429 299.787 39.1417 294.732 42.5117C295.101 43.1436 295.443 43.7492 295.812 44.381C301.209 44.1178 306.659 43.2752 312.003 43.6438C340.411 45.671 368.925 46.9874 397.122 50.5681C413.024 52.5953 428.637 57.861 444.012 62.8634C454.122 66.1544 457.413 72.6836 457.044 83.1622C456.86 88.1908 456.413 93.2196 456.149 98.2482C455.544 108.937 455.017 119.574 454.438 131.053ZM336.831 59.4406C321.929 59.4406 307.923 59.5723 293.916 59.3617C289.862 59.309 287.94 60.5464 287.439 64.7062C286.702 71.2355 285.623 77.7123 284.438 84.1626C283.753 87.8486 284.543 89.9812 288.65 90.4814C299.261 91.7715 309.95 94.8781 320.455 94.3516C346.203 93.0615 371.926 90.6131 397.543 87.6643C407.416 86.5322 417.026 82.8989 426.636 80.0028C428.347 79.4762 429.453 77.0014 430.848 75.4217C429.268 74.1053 427.873 72.1308 426.03 71.6043C417 68.9715 407.995 65.5752 398.754 64.522C377.955 62.1788 356.972 61.0203 336.831 59.4406ZM279.752 97.6162C281.226 85.7423 282.542 75.1322 283.859 64.4957C286.281 44.8287 295.891 31.6383 315.663 25.5039C355.971 12.9717 396.806 10.0494 438.562 14.999C463.284 17.9214 481.029 29.1108 489.349 53.3326C489.691 54.3331 490.586 55.1492 491.587 56.5182C490.455 38.1939 481.845 26.2936 465.864 18.5005C446.566 9.07511 426.583 3.33565 405.152 3.5726C365.686 4.02017 327.774 10.8918 291.889 28.6106C272.38 38.2466 261.664 53.8592 254.714 73.2103C254.029 75.1322 254.266 78.2652 255.424 79.8712C261.375 87.9539 269.326 93.5617 279.752 97.6162ZM289.993 52.4374C290.283 53.1483 290.599 53.8328 290.888 54.5436C293.021 54.5436 295.18 54.491 297.312 54.5436C327.089 55.5967 356.945 55.8074 386.643 58.0716C400.65 59.1248 414.472 63.7585 428.163 67.4708C431.164 68.2869 435.297 72.0517 435.403 74.5792C435.508 77.6596 432.401 81.5035 429.69 83.8204C427.188 85.9529 423.424 86.8744 420.08 87.7432C391.935 94.9834 363.29 98.8537 334.224 99.196C317.243 99.3803 300.182 99.5646 284.096 92.5876C281.937 98.8537 285.386 100.249 289.677 101.118C339.516 111.07 388.697 107.384 437.351 93.8513C441.353 92.7456 445.328 89.9548 448.251 86.9271C454.069 80.9243 453.095 73.4208 445.96 69.1556C441.327 66.3912 436.087 64.3904 430.901 62.837C391.409 51.0157 350.653 49.2781 309.844 48.3566C304.842 48.2513 299.787 49.0147 294.838 49.7782C293.126 50.0415 291.599 51.5159 289.993 52.4374ZM490.56 124.602C479.766 127.42 469.445 130.052 459.177 132.896C457.545 133.343 454.833 134.739 454.833 135.66C454.886 146.218 455.359 156.775 455.754 167.333C456.36 167.412 456.965 167.491 457.571 167.543C468.129 153.01 485.294 143.48 490.56 124.602ZM30.0829 68.1815C17.7614 64.3113 4.88699 68.3132 4.49207 76.1326C14.7337 78.3179 27.3711 74.3949 30.0829 68.1815Z" fill="white"/>
</svg>
