<svg width="362" height="500" viewBox="0 0 362 500" fill="none" xmlns="http://www.w3.org/2000/svg">
<path d="M215.445 44.0709C215.121 41.4202 213.893 36.9594 214.281 32.6279C214.475 30.2359 217.384 28.1024 219.065 25.8397C220.196 28.2317 222.556 30.7854 222.233 32.9512C220.908 41.7758 218.742 50.4712 216.608 60.4596C220.487 59.9747 222.362 59.7484 226.274 59.2635C224.851 64.5001 223.655 68.8963 222.459 73.2925C221.101 78.3028 218.839 83.2485 218.483 88.3235C217.449 103.904 216.996 119.517 216.673 135.13C216.608 138.427 217.675 141.886 218.839 145.054C221.198 151.615 223.978 158.016 227.243 166.194C229.797 154.751 231.898 144.666 234.355 134.677C239.688 113.246 245.571 91.9762 250.42 70.4479C251.875 63.9829 251.519 56.8068 250.646 50.1479C249.547 41.8728 249.968 40.7091 259.342 41.2263C260.053 37.5089 260.344 33.5007 261.701 29.8803C262.477 27.8438 265.031 26.4539 266.776 24.8053C267.585 27.1003 269.427 29.654 268.942 31.6258C268.134 34.8906 265.807 37.7675 264.158 40.8384C260.538 47.5943 255.075 53.6713 260.764 62.5283C262.122 64.6618 259.374 70.8035 256.917 73.7773C250.355 81.6323 248.707 90.7802 248.416 100.898C252.198 95.8875 255.98 90.8771 259.762 85.8345C260.505 86.0608 261.249 86.2547 261.992 86.481C261.669 89.6165 262.283 93.3015 260.829 95.7905C256.239 103.613 250.873 110.951 245.798 118.483C243.89 121.327 241.046 123.945 240.367 127.081C235.68 148.092 231.445 169.2 227.114 190.308C226.823 191.698 227.082 193.185 228.375 194.963C229.7 191.698 231.025 188.401 233.223 182.97C232.803 188.433 232.544 191.698 232.286 194.963C232.965 195.222 233.676 195.448 234.355 195.706C235.26 193.929 236.714 192.248 236.973 190.373C241.143 160.699 251.713 133.093 264.287 106.199C267.649 99.023 270.235 92.2994 269.007 83.9596C267.746 75.6198 269.718 74.5208 278.058 76.4926C278.187 73.8097 278.252 71.1914 278.478 68.5731C278.64 66.6982 278.349 64.0476 279.415 63.1425C285.686 57.9059 292.248 53.0248 298.843 48.2408C299.521 47.7559 301.235 48.6933 304.209 49.3721C300.782 53.6713 298.067 57.0654 294.899 61.0737C301.913 67.3124 295.836 70.2863 290.6 73.9713C286.818 76.6219 283.456 79.9837 280.127 83.2162C279.351 83.992 278.769 86.4163 279.221 86.8042C287.626 94.1743 278.349 97.0189 275.472 101.253C272.078 106.231 267.1 110.369 264.708 115.703C258.792 128.956 253.944 142.661 248.772 156.238C248.06 158.08 247.899 160.149 247.155 163.576C257.726 152.036 267.197 141.692 276.7 131.38C277.508 131.833 278.284 132.285 279.092 132.738C278.316 135.259 278.122 138.168 276.7 140.237C267.617 153.135 258.275 165.871 248.998 178.639C245.668 183.197 242.339 187.755 237.684 194.09C246.638 194.09 252.618 194.09 259.245 194.09C259.245 188.466 258.437 183.294 259.536 178.51C260.279 175.213 263.609 172.53 265.807 169.588C268.716 171.883 272.951 173.629 274.243 176.635C276.377 181.613 276.636 187.431 277.67 192.862C278.413 192.894 279.157 192.927 279.9 192.959C281.29 181.322 282.713 169.717 284.103 158.08C284.911 158.016 285.719 157.983 286.527 157.919C288.014 169.265 289.468 180.611 290.923 191.731C296.871 193.735 299.812 192.442 301.72 186.656C304.887 176.926 307.053 167.842 300.297 158.468C298.164 155.527 297.55 150.743 297.97 146.993C298.228 144.601 301.687 142.565 303.691 140.399C305.502 142.532 307.441 144.569 309.057 146.831C309.736 147.769 309.704 149.191 311.546 150.581C313.162 143.922 315.231 137.328 316.136 130.572C316.427 128.342 313.453 125.788 312.29 123.234C310.673 119.743 309.381 116.09 307.958 112.502C311.482 112.115 315.005 111.759 320.177 111.209C321.179 109.044 324.929 105.132 318.076 101.415C313.777 99.0877 307.506 96.728 310.867 90.166C314.552 82.9899 319.886 87.8063 325.543 90.9095C325.769 85.6406 325.123 81.2121 326.351 77.4301C327.709 73.3571 330.78 69.8014 333.333 66.2134C333.559 65.9224 336.566 66.8275 336.598 67.2801C336.889 71.7086 338.053 76.6543 336.533 80.5009C334.109 86.6749 329.842 92.1702 327.062 96.8249C330.973 100.833 335.434 103.452 335.208 105.617C334.885 108.527 330.586 110.789 328.743 113.763C325.317 119.258 322.472 125.109 319.369 130.798C320.08 131.251 320.791 131.703 321.535 132.124C324.476 131.542 327.45 130.992 330.844 130.313C332.525 138.265 327.838 141.692 322.892 145.086C320.565 146.702 317.041 148.092 316.33 150.322C311.999 163.834 308.314 177.54 304.402 191.213C310.77 193.993 313.55 190.922 316.363 186.235C327.062 168.521 337.988 150.904 349.237 133.514C351.661 129.764 355.767 127.081 359.128 123.913C359.807 124.463 360.454 125.012 361.133 125.562C349.302 146.928 337.471 168.327 325.058 190.761C334.012 191.084 334.594 196.062 334.368 202.236C334.012 211.384 334.012 220.564 334.432 229.712C334.788 237.567 332.46 242.416 324.638 241.899C324.638 267.338 324.541 292.487 324.702 317.603C324.735 324.068 321.211 327.753 316.718 331.6C313.777 334.154 310.706 338.065 310.189 341.718C306.019 370.228 302.689 398.835 298.552 427.346C297.259 436.3 295.158 445.351 291.957 453.788C285.202 471.534 271.237 481.684 253.265 486.112C233.223 491.058 213.182 496.65 192.785 499.366C172.841 502.016 153.801 496.198 136.766 484.981C126.649 478.322 120.022 469.303 117.307 457.311C109.29 421.883 99.4633 386.811 98.0087 350.187C97.7824 344.659 95.7137 340.748 90.5094 337.968C82.1696 333.539 77.4501 326.525 76.9006 316.634C76.0925 301.861 74.347 287.121 73.6359 272.316C73.3126 265.787 74.4763 259.192 75.0582 251.337C57.8614 239.119 39.2423 225.898 20.5909 212.645C20.9788 211.643 21.3667 210.673 21.7223 209.671C24.3729 209.541 27.0558 208.992 29.6094 209.315C48.4224 211.772 63.7445 221.825 78.8725 232.266C82.6545 234.852 86.1779 237.826 90.0892 240.153C91.9963 241.284 94.5176 241.317 98.5259 242.254C92.2226 224.928 88.4729 208.539 80.4887 194.575C74.3147 183.779 63.1302 175.697 53.4651 167.196C51.4933 165.483 46.3214 167.875 42.7656 167.358C39.3715 166.873 36.1714 165.095 32.9066 163.867C34.2966 160.893 35.7188 157.919 37.6906 153.717C34.3612 154.622 30.9024 155.656 27.4114 156.529C18.7806 158.695 16.4857 156.529 18.3928 148.577C14.5462 148.577 10.4085 149.288 6.72351 148.318C4.16985 147.639 2.23041 144.698 0 142.758C2.52133 141.304 4.91329 139.558 7.59625 138.524C8.88924 138.007 10.7318 138.847 11.5399 138.976C14.1905 136.132 16.4532 133.675 18.716 131.251C20.9464 134.548 23.2415 137.748 25.3103 141.142C26.3123 142.758 26.7972 144.698 26.668 144.375C31.6783 143.146 37.0119 140.463 38.3695 141.789C41.2464 144.601 42.0222 149.547 43.6385 153.49C46.0951 151.001 48.2609 148.836 50.3943 146.702C51.9136 149.579 54.6289 152.424 54.7582 155.365C55.3077 169.039 67.6234 172.368 75.6076 179.77C71.2115 164.319 66.9769 148.803 62.1605 133.514C61.4817 131.348 57.8937 129.99 55.5663 128.406C49.8448 124.527 43.6061 121.262 38.5634 116.64C36.4623 114.733 36.9795 109.981 36.3007 106.522C39.8241 106.07 43.3475 105.132 46.8386 105.294C49.069 105.391 51.2671 107.007 53.5298 107.977C54.0794 97.6977 50.7175 91.8146 42.2484 87.7417C40.5675 86.9336 38.9513 85.9315 37.3027 85.0587C32.8742 82.6344 29.4155 78.9816 32.0985 74.1329C33.2299 72.0965 38.1756 72.1611 42.2162 71.0297C41.0848 65.082 40.6322 57.324 30.0297 56.5159C27.9285 56.3543 25.3749 54.6088 24.0819 52.8309C22.8536 51.1823 22.2394 48.2731 22.8213 46.3982C23.2092 45.2022 26.2477 44.5881 28.1872 44.2325C29.6418 43.9739 31.2581 44.4911 32.8096 44.685C33.4238 43.9739 34.0056 43.2628 34.6198 42.5516C32.0985 39.901 29.868 36.8301 26.9911 34.6967C24.4698 32.8219 20.7202 32.4986 18.3605 30.4945C16.3886 28.8459 15.6775 25.7104 14.3845 23.2537C16.8735 22.3809 19.2978 21.3142 21.8515 20.7001C23.0152 20.4415 24.3729 21.088 27.3467 21.6375C23.4678 17.3383 20.3646 14.4614 17.9726 11.0996C15.3866 7.51154 13.2531 2.8891 18.2957 0.076847C19.5564 -0.601974 23.8556 3.37396 26.183 5.79832C27.7346 7.41456 28.2195 10.0329 29.5124 12.9098C30.6115 11.6814 31.1288 10.744 31.9046 10.3238C34.0057 9.19243 36.236 8.255 38.4018 7.25293C39.2422 9.83891 41.2464 12.7805 40.6322 14.9786C39.3069 20.0212 36.6886 24.7407 33.7793 31.4642C36.3977 29.9773 37.0765 29.4924 37.8523 29.1692C40.7292 27.9408 43.6061 26.7771 46.5153 25.6134C46.6769 29.2984 48.2285 33.7593 46.7093 36.5069C42.9596 43.1658 37.626 49.0166 45.4163 58.0998C46.1921 56.7422 46.7093 54.6087 48.0669 53.542C52.4308 50.0509 56.6653 51.8288 56.9563 57.4533C57.0856 60.007 56.7299 63.3688 55.1783 65.082C46.1274 75.038 52.6894 83.895 56.4391 94.2066C57.8937 92.1379 58.5079 90.6832 59.6069 89.8105C61.0939 88.5821 63.2596 86.6426 64.5526 86.9982C66.2012 87.483 68.4962 90.1013 68.3346 91.5883C67.6234 98.1179 66.0718 104.551 65.0051 111.048C64.4233 114.571 62.9363 118.515 63.9061 121.65C70.7589 143.761 77.9997 165.741 85.4667 187.625C86.889 191.827 89.6689 195.642 92.2549 199.327C101.661 212.645 111.262 225.865 120.927 239.248C125.291 226.641 129.331 213.42 124.838 199.456C123.998 196.806 121.38 194.252 118.955 192.603C108.062 185.266 99.3987 176.247 93.7095 162.509C106.833 162.735 112.555 172.012 121.703 179.576C119.731 166.937 118.212 155.818 116.046 144.795C115.723 143.114 112.038 142.371 110.518 140.625C108.417 138.201 106.93 135.259 105.185 132.576C107.835 131.574 110.486 130.54 114.527 128.988C113.492 124.657 112.199 119 110.842 113.408C110.163 110.531 108.87 107.718 108.805 104.841C108.773 103.161 110.518 101.415 111.488 99.7018C113.363 100.866 116.66 101.835 116.822 103.193C117.468 108.397 117.08 113.731 117.08 119.517C124.386 117.836 124.192 121.715 121.8 127.404C120.281 131.025 119.278 134.839 118.05 138.556C118.826 138.88 119.602 139.203 120.377 139.526C123.966 133.514 127.554 127.501 131.142 121.489C131.917 121.618 132.693 121.747 133.437 121.877C133.695 124.236 134.503 126.725 134.083 128.988C132.919 135.033 132.435 141.659 129.493 146.799C117.856 167.067 128.653 186.332 131.271 206.212C135.182 200.006 139.126 193.799 143.037 187.625C143.845 187.884 144.621 188.11 145.429 188.369C147.433 203.303 143.716 218.011 141.97 232.783C147.595 233.3 147.595 233.3 151.603 221.922C154.125 225.219 156.42 228.258 158.715 231.264C159.523 231.167 160.363 231.037 161.171 230.94C161.171 225.316 160.363 219.562 161.365 214.132C163.046 204.887 159.587 198.066 154.609 190.534C147.692 180.029 142.585 168.327 136.928 157.014C135.829 154.783 135.699 152.1 136.12 148.965C147.336 154.525 152.314 165.774 160.428 174.372C159.426 160.311 163.725 145.603 152.573 133.287C148.306 128.568 149.34 123.848 159.458 122.362C155.87 117.028 153.704 112.502 150.375 109.076C143.878 102.385 143.942 99.9281 152.67 95.4026C151.28 91.459 149.405 87.5154 148.565 83.3778C148.08 81.0504 148.92 78.2382 149.858 75.9431C150.181 75.135 153.575 74.4562 153.898 74.9087C155.353 76.9129 156.969 79.3049 157.098 81.6646C157.486 89.0347 157.26 96.4694 157.26 103.936C165.406 103.193 168.186 106.102 164.436 112.405C158.973 121.683 161.559 130.54 162.852 139.203C165.632 139.914 169.673 140.108 169.899 141.142C170.481 143.728 169.964 147.025 168.703 149.45C161.527 163.285 163.305 182.583 173.681 195.48C174.166 194.026 174.877 192.927 174.877 191.795C175.2 164.319 175.394 136.875 175.782 109.399C175.847 103.775 174.521 99.3786 168.832 97.1805C167.863 96.7926 166.602 96.1461 166.246 95.3057C164.727 91.6206 163.466 87.8386 162.141 84.089C165.471 83.4425 168.8 82.796 172.905 81.9879C172.97 75.6199 173.293 68.1528 163.369 64.888C160.493 63.9506 158.65 59.9424 156.323 57.324C159.006 55.2553 161.656 53.2188 165.568 50.1803C163.046 44.2648 161.43 36.0543 154.286 30.2359C148.726 25.6781 143.393 20.4738 145.332 10.9056C155.353 13.0391 155.191 23.0921 160.719 28.6196C162.529 26.2276 164.469 23.6416 166.764 20.5708C175.976 29.7833 167.022 41.3233 172 49.4368C175.814 49.0812 179.015 48.758 182.215 48.467C182.247 52.2814 183.508 56.6452 182.118 59.813C178.885 67.1508 176.784 74.1329 180.599 83.1515C182.603 80.0807 184.154 77.6886 186.288 74.4238C190.975 82.602 186.837 87.7093 184.898 93.2369C183.055 98.4735 181.827 103.904 180.308 109.238C181.213 109.561 182.085 109.916 182.991 110.24C187.613 102.967 192.235 95.6612 196.826 88.3882C197.86 88.9054 198.894 89.3902 199.896 89.9074C197.86 96.3401 197.117 103.678 193.528 109.076C179.726 129.796 181.956 153.07 181.213 177.152C188.357 166.97 194.918 157.596 201.513 148.189C202.321 148.577 203.161 148.965 203.969 149.353C203.743 151.195 204.002 153.264 203.258 154.88C197.925 166.905 193.852 179.835 186.482 190.502C178.077 202.656 179.435 215.263 178.497 228.581C182.991 228.581 186.579 228.581 190.749 228.581C190.328 224.152 189.973 220.273 189.423 214.358C192.817 217.396 194.822 219.207 197.989 222.051C197.989 213.356 197.989 205.566 197.989 196.773C209.012 199.004 209.206 192.959 210.014 185.33C211.792 168.198 210.855 151.68 204.39 135.55C203.064 132.253 203.097 128.406 202.515 124.818C203.129 124.43 203.743 124.042 204.39 123.655C206.976 125.917 209.594 128.148 214.216 132.156C211.727 117.093 219.679 103.419 209.788 90.5539C207.945 88.1619 207.59 84.0567 207.945 80.9211C208.042 79.8868 212.503 79.3049 215.639 78.3028C215.639 74.1976 216.22 69.2842 215.445 64.5971C214.927 61.5263 212.632 58.6494 210.79 55.9017C209.174 53.4774 207.105 51.3439 205.23 49.0812C208.172 47.5619 211.178 46.1396 215.445 44.0709ZM102.857 343.56C104.344 382.447 115.626 417.422 122.769 453.206C126.164 470.273 135.506 480.197 150.407 485.531C160.88 489.28 172.097 491.996 183.152 492.901C206.717 494.84 228.601 486.468 250.873 480.197C275.052 473.376 286.882 457.085 290.761 433.714C293.671 416.226 295.804 398.577 298.455 381.024C300.588 366.834 302.98 352.643 305.405 337.677C238.395 362.955 171.321 373.881 102.857 343.56ZM321.308 264.817C295.416 278.523 271.302 290.612 244.731 291.873C209.885 293.521 174.812 292.649 139.934 290.935C118.438 289.869 96.6511 286.604 77.3208 270.991C78.8724 285.181 81.4584 297.691 81.2645 310.136C81.0059 327.559 90.768 335.091 105.411 339.39C105.928 339.552 106.446 339.649 106.963 339.843C155.579 358.947 205.068 360.531 255.01 346.405C273.823 341.071 292.151 333.992 310.512 327.139C313.744 325.911 317.947 321.967 318.237 318.961C319.789 301.473 320.339 283.824 321.308 264.817ZM328.711 235.175C328.711 224.702 328.485 215.069 328.808 205.469C329.002 199.198 326.804 197.193 320.371 197.452C283.553 198.939 246.735 200.006 209.949 201.266C207.59 201.331 205.262 201.751 201.998 202.107C202.87 214.196 203.711 225.833 204.584 237.89C246.089 236.985 286.592 236.08 328.711 235.175ZM247.963 248.234C248.61 248.913 249.256 249.624 249.935 250.303C247.705 258.546 242.21 264.397 235.001 268.825C228.472 272.833 225.142 278.167 226.694 286.862C233.191 286.377 239.333 286.313 245.41 285.408C257.176 283.695 257.176 283.501 257.338 271.961C257.402 267.661 257.564 263.362 257.499 259.031C257.176 239.539 261.928 241.672 239.106 242.383C237.005 242.448 234.064 244.969 233.159 247.071C231.575 250.756 231.284 254.99 230.12 260.615C237.167 255.701 242.565 251.952 247.963 248.234ZM176.784 286.83C182.247 276.131 185.803 265.075 192.688 256.8C199.185 248.945 196.535 242.545 193.367 236.112C192.171 233.688 186.223 233.009 182.409 232.848C181.051 232.783 178.433 236.565 178.271 238.763C177.463 250.271 177.172 261.811 176.817 273.351C176.655 277.65 176.784 282.014 176.784 286.83ZM119.117 281.917C130.43 267.209 143.36 215.263 139.934 200.038C125.679 225.478 123.61 252.921 119.117 281.917ZM146.043 280.591C146.851 280.462 147.627 280.333 148.435 280.171C153.769 268.89 159.62 257.673 151.765 245.131C151.506 244.711 151.506 244.097 151.345 243.579C150.407 240.638 152.12 235.983 146.27 236.371C141.195 236.727 138.576 239.927 139.223 244.258C141.098 256.477 143.716 268.502 146.043 280.591ZM38.4987 216.394C37.9169 217.267 37.3674 218.172 36.7855 219.045C58.0876 232.815 79.3573 246.618 100.659 260.388C101.274 259.419 101.92 258.449 102.534 257.479C83.6566 239.894 62.9363 225.284 38.4987 216.394ZM115.593 271.056C124.58 243.709 107.157 227.902 95.3258 208.701C94.7116 210.705 94.3237 211.287 94.453 211.675C101.209 230.811 108.029 249.915 115.593 271.056ZM81.6201 254.376C80.6827 254.861 79.7129 255.346 78.7755 255.863C79.519 259.322 79.1957 263.621 81.1351 266.142C88.2466 275.419 98.7199 278.199 111.294 280.397C106.736 262.974 90.962 262.651 81.6201 254.376ZM228.698 245.454C228.666 245.39 227.793 244.064 226.952 242.707C225.336 244 222.588 245.099 222.298 246.65C220.099 258.287 218.322 269.989 216.705 281.723C216.511 283.21 218.16 284.955 218.968 286.604C220.164 285.149 222.104 283.824 222.395 282.175C224.593 270.571 226.435 258.869 228.698 245.454ZM261.604 280.591C262.574 281.012 263.544 281.432 264.481 281.852C265.871 279.622 268.425 277.391 268.457 275.128C268.619 265.787 268.166 256.412 267.52 247.071C267.391 245.293 265.354 243.676 264.19 241.963C263.318 243.676 261.734 245.39 261.701 247.103C261.508 258.255 261.604 269.439 261.604 280.591ZM299.618 241.058C296.677 241.996 292.96 242.125 292.41 243.482C288.563 253.439 285.331 263.621 281.904 273.738C282.713 274.256 283.521 274.773 284.361 275.29C286.883 273.286 290.794 271.734 291.699 269.148C294.802 260.485 296.839 251.37 299.618 241.058ZM169.608 275.096C170.384 274.805 171.127 274.514 171.903 274.191C166.182 259.871 160.46 245.584 154.739 231.264C153.672 248.234 161.43 261.746 169.608 275.096ZM171.192 207.861C172.388 207.149 173.584 206.471 174.812 205.759C165.729 192.086 156.614 178.445 147.53 164.772C146.625 165.353 145.688 165.935 144.783 166.549C153.575 180.32 162.367 194.09 171.192 207.861ZM215.283 169.491C214.798 169.588 214.346 169.685 213.861 169.75C213.44 178.348 213.053 186.914 212.632 195.48C221.522 196.03 224.528 193.023 222.33 186.138C220.552 180.417 217.675 175.051 215.283 169.491ZM209.82 136.293C209.206 136.52 208.559 136.746 207.945 136.972C212.891 150.775 217.837 164.578 222.75 178.38C223.429 178.122 224.108 177.896 224.787 177.637C223.881 162.347 217.449 149.094 209.82 136.293ZM273.694 276.906C274.987 276.842 276.28 276.777 277.573 276.745C277.573 266.175 277.67 255.572 277.444 245.002C277.411 243.903 275.763 242.125 274.664 241.963C273.726 241.834 271.561 243.644 271.625 244.517C272.142 255.313 272.95 266.11 273.694 276.906ZM304.467 265.948C311.967 262.263 317.785 259.386 317.914 251.952C317.947 249.689 314.682 247.329 312.936 245.034C311.223 246.553 308.572 247.749 307.958 249.624C306.407 254.279 305.793 259.289 304.467 265.948ZM271.787 145.538C270.849 144.795 269.88 144.051 268.942 143.34C260.053 154.492 251.164 165.612 242.274 176.732C243.406 177.605 244.537 178.51 245.668 179.382C254.396 168.101 263.091 156.82 271.787 145.538ZM167.054 207.473C166.408 207.699 165.761 207.925 165.115 208.184C165.115 215.134 165.115 222.116 165.115 229.001C172.841 229.421 174.521 228.451 173.293 222.989C172.065 217.623 169.188 212.645 167.054 207.473ZM193.69 261.875C193.011 261.681 192.332 261.455 191.621 261.261C188.13 269.342 184.639 277.391 180.889 286.022C189.52 286.895 193.722 277.327 193.69 261.875ZM58.2816 124.495C56.827 113.989 49.4246 108.042 39.7595 109.69C42.9273 118.644 50.1681 121.618 58.2816 124.495ZM125.711 283.565C131.4 284.018 135.893 284.341 142.197 284.826C138.609 277.424 136.12 272.316 132.855 265.593C130.14 272.478 128.2 277.327 125.711 283.565ZM209.788 285.02C210.531 285.085 211.307 285.181 212.051 285.246C214.378 271.314 216.673 257.382 219 243.418C217.901 243.256 216.835 243.062 215.736 242.901C212.665 256.768 211.081 270.862 209.788 285.02ZM272.466 193.476C271.076 186.365 269.88 180.288 268.716 174.243C267.229 174.34 265.742 174.469 264.255 174.566C263.964 180.708 263.673 186.849 263.35 193.476C266.486 193.476 268.554 193.476 272.466 193.476ZM102.211 165.774C101.112 166.84 100.045 167.939 98.9461 169.006C106.09 176.182 113.201 183.326 120.345 190.502C121.38 189.468 122.414 188.433 123.448 187.399C116.402 180.191 109.322 172.982 102.211 165.774ZM200.834 254.635C200.252 254.796 199.638 254.925 199.056 255.087C197.246 264.17 195.306 273.254 193.69 282.369C193.431 283.791 194.498 285.44 194.951 286.959C196.179 285.666 198.248 284.535 198.539 283.08C199.993 275.484 201.157 267.855 202.095 260.162C202.321 258.417 201.286 256.477 200.834 254.635ZM341.705 152.294C341.091 151.971 340.477 151.648 339.863 151.292C332.363 164.384 324.864 177.475 317.365 190.567C318.561 191.213 319.757 191.827 320.953 192.474C327.87 179.092 334.788 165.677 341.705 152.294ZM179.37 190.696C180.534 191.278 181.698 191.86 182.861 192.474C188.098 182.001 193.335 171.495 198.571 161.022C197.634 160.537 196.664 160.052 195.727 159.6C190.264 169.944 184.833 180.32 179.37 190.696ZM169.996 259.289C170.707 259.289 171.418 259.289 172.162 259.322C172.162 250.788 172.162 242.286 172.162 233.753C171.515 233.236 170.869 232.718 170.222 232.201C168.509 234.108 165.438 236.015 165.374 237.987C165.277 241.446 162.788 247.523 170.546 246.941C170.352 251.047 170.158 255.152 169.996 259.289ZM306.051 244.161C305.081 243.935 304.112 243.709 303.174 243.45C300.653 251.596 298.131 259.742 295.61 267.92C296.774 268.276 297.938 268.631 299.069 268.987C304.823 261.811 302.204 251.952 306.051 244.161ZM131.594 130.798C130.495 130.443 129.428 130.087 128.329 129.732C125.84 137.425 123.319 145.086 120.83 152.779C121.832 153.102 122.866 153.426 123.869 153.781C126.454 146.12 129.008 138.459 131.594 130.798ZM150.86 285.246C160.137 277.553 162.238 270.603 157.939 264.655C155.418 271.993 153.155 278.62 150.86 285.246ZM282.68 259.257C284.393 253.794 286.107 248.331 287.885 242.674C279.965 241.996 279.965 241.996 282.68 259.257ZM204.551 261.326C203.646 271.217 202.967 278.813 202.256 286.377C208.075 278.846 208.818 268.987 204.551 261.326ZM194.434 101.059C193.722 100.736 193.011 100.381 192.3 100.057C188.777 107.201 185.253 114.377 181.698 121.521C182.635 121.974 183.572 122.394 184.51 122.846C187.807 115.573 191.136 108.3 194.434 101.059ZM35.8482 160.634C35.9452 161.895 36.0098 163.188 36.1067 164.448C39.9857 164.157 43.8647 163.867 47.7437 163.576C47.679 162.606 47.6467 161.604 47.5821 160.634C43.6708 160.634 39.7595 160.634 35.8482 160.634Z" fill="white"/>
</svg>
