<svg width="755" height="500" viewBox="0 0 755 500" fill="none" xmlns="http://www.w3.org/2000/svg">
<path d="M188.557 117.335C182.489 74.798 208.921 67.0956 240.431 60.677C296.389 49.2403 352.347 40.6045 409.647 44.3973C447.342 46.9064 483.461 55.6589 517.887 71.4719C527.107 75.7315 530.608 81.5082 530.374 91.7195C529.733 119.728 530.141 147.794 530.141 179.537C536.968 173.819 541.811 170.376 545.954 166.175C569.003 142.951 578.455 115.235 574.663 82.5002C572.854 66.6289 572.037 50.4074 573.029 34.5361C574.546 9.09523 586.741 -2.16651 611.832 0.342561C669.774 6.17761 714.879 35.2946 744.112 84.8342C769.495 127.78 747.263 170.201 697.957 179.946C692.706 180.996 687.396 182.513 682.144 182.279C648.534 180.821 621.985 195.7 598.936 218.165C587.15 229.66 575.771 241.739 565.268 254.459C541.986 282.759 524.306 312.343 533.059 352.43C537.318 371.919 535.509 393.158 533.876 413.406C531.717 440.014 518.646 462.07 492.855 470.648C416.416 496.205 338.401 510.56 258.052 490.662C211.839 479.225 183.656 450.925 178.812 401.619C178.112 394.559 172.744 385.748 166.851 381.78C145.903 367.776 124.255 354.705 102.082 342.685C62.4032 321.212 27.5679 295.83 9.30418 252.008C-16.2534 190.74 10.8796 118.444 90.2364 108.349C119.12 104.673 147.42 105.724 175.311 114.243C178.579 115.293 181.905 115.818 188.557 117.335ZM197.251 106.366C196.901 110.684 196.493 113.426 196.434 116.168C195.442 211.455 194.684 306.741 193.342 401.969C192.933 431.962 205.829 453.435 231.736 467.03C242.823 472.865 254.843 477.708 266.98 480.451C342.602 497.606 415.599 483.077 487.662 460.553C503.65 455.535 515.028 443.456 520.338 427.352C530.725 395.842 524.481 363.866 521.213 331.832C516.487 342.568 511.761 353.305 507.034 363.983C505.225 363.341 503.416 362.699 501.608 362.057C502.425 356.748 502.6 351.204 504.233 346.128C523.139 288.828 556.224 241.155 602.612 202.586C623.969 184.847 647.717 174.577 675.959 175.102C686.054 175.278 696.323 173.585 706.243 171.543C711.67 170.434 716.571 166.817 722.406 164.016C658.045 156.197 616.325 118.969 580.848 70.0131C581.431 75.4981 581.956 81.0413 582.54 86.5262C586.391 124.221 573.437 155.438 545.195 180.004C535.393 188.523 524.073 195.642 512.578 201.71C487.195 215.131 475.583 236.721 473.541 264.145C472.549 277.683 473.191 291.337 472.841 304.932C472.782 307.733 471.44 310.534 470.332 314.91C449.792 277.449 467.006 217.29 502.191 196.05C508.493 192.258 517.946 186.714 518.354 181.404C520.163 158.239 519.113 134.841 519.113 109.4C430.187 157.539 286.936 155.555 197.251 106.366ZM179.513 329.731C181.555 329.323 183.656 328.856 185.698 328.448C185.698 280.542 185.815 232.636 185.464 184.73C185.464 181.579 182.897 177.203 180.155 175.453C141.06 150.42 98.6972 139.392 52.6003 148.611C29.8436 153.163 23.1916 164.483 27.3928 187.823C31.5357 210.988 43.0308 230.477 58.8438 247.457C92.9788 283.985 138.609 303.357 179.513 329.731ZM365.943 137.291C366.176 135.716 366.351 134.14 366.584 132.623C377.263 132.623 388.174 134.024 398.561 132.39C428.611 127.663 458.72 122.645 488.362 115.643C498.048 113.368 507.151 105.724 514.737 98.6048C521.213 92.5364 521.855 84.8925 510.652 81.0997C499.624 77.3652 489.062 72.3471 477.917 68.9044C413.498 49.0069 348.437 52.4495 283.26 64.2947C260.387 68.4376 237.63 73.6308 215.048 79.2324C210.614 80.3411 204.72 85.0093 204.078 88.8604C203.436 92.3614 208.046 98.6632 211.956 100.764C224.209 107.474 236.696 115.527 250.058 118.211C288.395 125.796 327.256 131.048 365.943 137.291ZM711.32 151.704C734.66 151.529 745.98 141.843 743.237 121.245C741.137 105.549 735.943 88.4519 726.782 75.9066C702.625 42.8802 668.14 22.9242 629.629 10.1454C622.918 7.92809 615.274 7.51973 608.097 7.86983C594.093 8.51169 585.924 16.2139 586.741 30.1014C587.441 41.4214 589.367 53.675 594.385 63.6529C616.383 107.007 653.611 132.973 698.016 149.72C702.917 151.529 708.577 151.295 711.32 151.704ZM15.5477 187.589C14.0889 187.881 12.6302 188.115 11.113 188.406C12.0466 201.244 11.4048 214.489 14.1473 226.918C23.7751 271.147 51.6667 301.256 90.2364 323.138C120.17 340.118 149.462 358.206 179.046 375.712C179.571 376.003 180.738 375.245 182.547 374.661C182.547 369.176 181.73 363.225 182.722 357.623C184.881 345.078 179.513 338.426 168.426 332.999C151.446 324.713 135.225 314.852 118.886 305.341C71.5059 277.624 28.2681 246.173 15.5477 187.589ZM45.8316 135.249C69.4636 136.416 93.9708 134.841 117.253 139.509C140.476 144.177 162.474 155.03 185.873 163.491C186.223 156.547 186.106 147.911 187.157 139.392C188.324 129.998 185.114 124.163 175.545 123.171C151.563 120.72 127.522 116.635 103.54 116.869C82.4174 117.16 61.8197 123.579 45.8316 135.249Z" fill="white"/>
<path d="M621.111 29.5177C634.123 29.2843 650.811 44.2805 649.119 52.9163C648.244 57.351 643.05 63.0109 638.732 64.1195C630.68 66.2785 615.217 50.9908 615.684 41.6547C615.859 36.9867 619.652 32.4936 621.111 29.5177ZM624.612 37.9786C623.386 39.2623 622.102 40.6043 620.877 41.888C626.829 46.9645 632.781 52.041 638.732 57.0592C640.074 55.3087 642.817 53.3248 642.583 51.8661C640.833 42.1215 634.823 37.2201 624.612 37.9786Z" fill="white"/>
<path d="M706.709 114.476C698.89 104.148 693.23 96.6207 687.512 89.1519C690.896 86.7595 695.914 81.5079 697.373 82.3832C705.892 87.343 713.536 93.7616 721.472 99.7133C717.679 103.506 713.77 107.416 706.709 114.476ZM696.381 85.7092C702.625 105.14 708.343 107.299 716.921 95.6289C709.86 92.2446 703.15 88.9769 696.381 85.7092Z" fill="white"/>
<path d="M675.551 99.4799C670.533 102.747 666.623 106.015 666.04 105.49C659.971 100.238 654.428 94.4035 648.709 88.6852C651.335 86.6429 655.595 82.3249 656.353 82.8501C662.48 87.3431 667.965 92.7112 675.551 99.4799Z" fill="white"/>
</svg>
