<svg width="500" height="85" viewBox="0 0 500 85" fill="none" xmlns="http://www.w3.org/2000/svg">
<path d="M292.331 79.6141C297.56 73.7778 300.812 70.1302 304.095 66.4521C303.821 65.5706 303.548 64.6891 303.274 63.8075C289.413 65.5402 275.522 67.0296 261.721 69.0966C256.432 69.887 251.69 71.8324 247.586 66.0265C246.462 64.4458 241.811 64.3243 239.197 65.0538C192.263 77.9119 143.901 76.9999 95.9343 79.5229C67.1481 81.0427 39.0305 74.9937 11.217 68.0327C9.27158 67.5463 7.38696 66.6953 5.62391 65.6921C-1.12429 61.8317 -2.12738 56.0562 4.40804 52.0741C13.1321 46.7546 22.4945 41.4959 32.2824 39.1249C45.9612 35.8116 60.2479 34.0789 74.3522 33.5622C127.73 31.6776 181.168 29.3674 234.546 33.471C239.835 33.8662 244.182 33.623 249.137 30.2489C253.149 27.5435 259.715 27.9995 265.156 28.0603C283.607 28.3339 302.028 28.881 320.449 29.6713C327.106 29.9449 330.176 26.9356 331.179 20.7649C331.817 16.7829 333.428 12.8312 333.398 8.87959C333.398 2.37457 336.651 1.15867 342.335 0.702714C368.537 -1.3947 394.436 1.55388 420.304 4.92798C442.008 7.75493 463.346 12.4057 482.74 22.7408C488.819 25.9933 494.261 31.6776 498.121 37.4835C502.012 43.2893 499.458 49.3992 494.139 54.3236C480.703 66.8473 464.41 73.0483 446.962 77.3647C418.328 84.4473 389.116 83.201 360.056 84.0217C342.608 84.5081 325.13 83.5962 307.682 82.897C303.213 82.8362 298.745 81.1035 292.331 79.6141ZM297.651 78.5198C301.967 78.915 303.973 79.2493 305.949 79.2493C334.036 79.0061 362.154 79.1582 390.211 78.2462C406.595 77.6991 423.04 76.2096 439.211 73.6258C457.632 70.7077 474.989 64.3243 489.184 51.4662C496.905 44.4749 497.027 39.1249 488.698 32.8327C483.743 29.0938 477.876 26.2973 472.101 23.8351C448.026 13.5912 422.401 10.1258 396.716 7.51168C379.875 5.80943 362.914 5.04957 345.982 4.25924C343.581 4.13765 339.386 5.9615 338.869 7.69415C336.985 14.1384 336.316 20.9474 335.1 28.2123C338.17 28.2123 340.906 28.1515 343.642 28.2123C353.734 28.5163 363.947 28.1818 373.918 29.4585C379.419 30.1577 384.952 32.9847 389.633 36.146C391.548 37.4531 392.855 43.1678 391.639 45.022C387.262 51.6486 380.514 55.1139 372.124 55.1139C377.656 51.1014 383.189 47.089 390.423 41.7998C384.8 38.8513 381.243 35.5381 377.474 35.2341C363.4 34.1094 349.235 33.8358 335.131 33.5926C333.58 33.5622 331.301 35.2341 330.541 36.7235C322.759 52.2261 312.545 65.8745 297.651 78.5198ZM243.179 60.5854C241.628 52.2262 242.54 43.4717 238.771 40.3408C234.668 36.9363 226.248 38.821 219.682 38.365C218.679 38.3042 217.675 38.2434 216.642 38.1826C164.298 34.9301 111.893 35.2037 59.64 39.1857C44.5325 40.3408 29.6074 45.3259 14.9255 49.612C10.2747 50.9798 6.62706 55.813 2.52342 59.0351C2.94899 60.1294 3.37454 61.1934 3.8001 62.2877C83.441 86.1495 162.839 72.7443 243.179 60.5854ZM325.647 36.2676C302.362 34.6565 280.75 33.015 259.137 31.7383C250.079 31.1912 244.607 36.146 244.82 45.4475C244.942 50.7367 247.282 56.0562 248.985 61.2542C250.626 66.2089 254.213 66.8472 259.229 66.1177C274.427 63.8987 289.717 62.3485 304.977 60.403C307.074 60.1295 309.931 59.6734 310.965 58.2448C316.102 51.1622 320.722 43.7453 325.647 36.2676Z" fill="white"/>
<path d="M326.406 60.707C336.163 58.488 345.951 56.2691 355.709 54.05C355.891 54.9012 356.104 55.7523 356.286 56.6034C346.438 58.8224 336.619 61.0414 326.771 63.23C326.649 62.4093 326.527 61.5581 326.406 60.707Z" fill="white"/>
<path d="M38.5436 64.7195C37.5405 64.7195 36.4157 64.9931 35.5342 64.6587C32.0993 63.3212 26.1415 62.2573 25.8071 60.2815C24.7432 54.3236 30.5187 53.1685 34.9263 52.8341C41.6441 52.287 48.4835 52.4694 55.2317 52.9253C56.9947 53.0469 58.5754 55.4787 60.2472 56.8162C58.7577 58.6096 57.5722 61.467 55.6876 62.0142C50.1553 63.6252 44.3798 64.3243 38.6955 65.3882C38.6347 65.1755 38.6044 64.9627 38.5436 64.7195ZM54.8974 59.5216C54.867 58.7008 54.8061 57.8497 54.7757 57.029C46.6293 55.1747 38.5739 54.8404 30.8834 59.5216C38.9083 59.5216 46.9029 59.5216 54.8974 59.5216Z" fill="white"/>
</svg>
