<svg width="247" height="500" viewBox="0 0 247 500" fill="none" xmlns="http://www.w3.org/2000/svg">
<path d="M147.668 57.0892C153.337 59.3072 157.809 60.7082 162.017 62.7219C173.034 68.0044 183.906 73.6079 194.865 79.0071C200.943 82.0131 206.73 85.1943 209.886 91.7025C212.867 97.8605 210.412 103.201 203.836 105.215C196.706 107.375 189.604 108.309 182.24 107.141C181.363 106.995 180.399 107.316 178.353 107.521C184.461 112.015 189.663 115.897 194.631 119.574C198.079 116.977 196.326 110.994 202.229 111.519C202.521 113.737 202.784 115.868 203.135 118.553C206.613 117.444 209.769 116.393 212.925 115.371C213.276 115.78 213.597 116.159 213.948 116.568C213.042 118.378 212.136 120.187 210.967 122.493C214.941 122.697 218.77 122.901 222.598 123.106C222.715 123.689 222.803 124.302 222.919 124.886C219.179 126.433 215.467 128.154 211.639 129.526C207.372 131.044 206.7 132.357 209.506 135.976C218.01 146.891 224.848 158.565 228.209 172.136C228.998 175.346 231.219 176.543 234.404 175.171C236.099 174.442 237.648 173.333 239.343 172.661C240.308 172.282 241.477 172.486 242.558 172.428C242.441 173.479 242.587 174.646 242.119 175.522C241.33 177.039 240.162 178.382 238.73 180.395C241.857 180.804 244.107 181.067 246.357 181.359C246.562 181.826 246.795 182.293 247 182.73C245.276 183.723 243.552 184.686 241.827 185.736C240.512 186.524 239.226 187.4 237.911 188.217C239.08 189.443 240.074 190.873 241.418 191.807C243.61 193.354 247.204 193.587 246.357 198.753C241.769 197.673 237.356 196.593 233.06 195.572C232.3 210.835 231.599 225.194 230.839 240.312C234.404 239.32 238.028 238.298 241.506 237.335C242.061 238.503 242.382 238.999 242.295 239.086C238.408 243.143 238.817 246.295 244.136 248.63C244.457 248.776 244.633 250.177 244.37 250.41C243.698 250.994 242.704 251.607 241.886 251.577C238.876 251.461 235.866 251.052 231.687 250.673C234.054 253.504 235.836 255.342 237.21 257.473C237.824 258.407 237.561 259.895 237.678 261.15C236.626 261.033 235.457 261.179 234.521 260.771C231.891 259.603 229.378 258.232 226.426 256.743C222.218 267.425 218.039 278.077 213.48 289.635C223.972 289.635 234.93 289.635 245.743 289.635C245.743 305.482 245.889 320.162 245.714 334.813C245.422 361.546 245.246 388.309 244.311 415.013C244.019 422.98 241.389 430.86 239.636 438.74C238.204 445.19 236.596 451.611 234.843 457.973C232.388 466.933 226.865 473.616 219.12 478.578C220.494 486.458 219.471 487.975 211.055 488.909C206.32 489.434 201.528 489.668 196.735 489.61C184.432 489.464 172.479 491.507 160.585 494.484C155.997 495.622 151.087 495.359 146.353 496.089C123.032 499.766 99.5072 499.854 76.0112 500C72.2998 500.029 70.6048 498.657 71.0724 494.892C71.1601 494.221 71.1308 493.52 71.0432 492.849C69.7865 482.051 71.1308 483.481 60.6395 478.811C47.255 472.858 38.4002 463.518 35.3025 448.109C30.9773 426.512 33.5782 405.09 33.6074 383.552C33.6367 363.472 33.4905 343.364 32.4969 323.285C32.117 315.492 33.4614 307.904 32.5554 300.024C36.2084 299.674 37.8156 300.608 37.2312 303.877C37.1143 304.548 37.1143 305.219 37.0851 305.92C36.8221 314.734 36.7927 314.062 45.5599 313.916C64.4677 313.595 83.4049 314.179 102.342 314.121C133.027 314.033 163.77 314.413 194.426 313.274C208.044 312.778 221.575 309.305 235.077 306.883C241.74 305.686 238.379 300.112 238.846 296.435C239.314 292.728 236.187 293.108 233.878 293.312C215.204 294.771 196.53 296.289 177.886 297.836C163.157 299.061 148.457 300.871 133.699 301.484C104.592 302.68 75.4852 303.235 46.3782 303.964C44.0988 304.023 41.8192 303.322 39.5398 301.951C47.7809 297.719 57.1034 301.104 66.1628 297.777C62.1299 293.487 58.6229 289.868 55.233 286.132C52.6613 283.272 50.1773 280.354 47.7809 277.348C44.8293 273.641 43.9819 273.758 41.4394 277.494C40.0659 279.478 37.9617 280.967 36.0621 282.572C35.9452 282.659 34.1043 281.288 34.1919 280.908C34.8641 278.252 35.4486 275.392 36.939 273.174C37.7865 271.89 40.2412 271.628 41.9654 270.927C41.264 269.993 40.5627 269.059 39.8614 268.096C37.9326 268.213 36.033 268.388 34.1042 268.446C32.6138 268.505 31.1234 268.388 29.6038 268.359C29.896 266.637 30.0712 264.886 30.568 263.222C30.7434 262.609 31.6493 262.201 32.2338 261.705C32.1169 261.15 32.0293 260.625 31.9124 260.07C28.4055 260.245 24.8987 260.45 21.3919 260.508C20.4859 260.508 18.8201 260.012 18.7909 259.662C18.7033 258.261 18.674 256.043 19.463 255.576C22.5315 253.825 25.9507 252.657 29.4868 251.169C23.9342 235.818 18.0896 219.737 12.0987 203.16C11.4266 204.152 11.0174 205.261 10.2284 205.903C9.03018 206.895 7.59826 207.596 6.25396 208.384C5.72793 206.749 4.55898 205.028 4.79277 203.539C5.84483 197.148 5.9909 197.177 1.65765e-05 194.784C0.496822 188.655 6.89684 192.974 8.94251 189.822C7.65666 185.328 -1.46118 186.408 0.905949 179.141C1.60732 178.995 1.98715 178.79 2.27938 178.878C11.2511 181.767 10.9882 181.738 11.8941 172.165C13.3846 156.61 17.1544 141.667 25.1617 128.038C25.8923 126.783 26.1845 125.236 27.1782 122.434C24.6941 123.339 23.2622 124.127 21.7426 124.36C19.9307 124.623 18.031 124.39 16.1607 124.36C16.8329 122.784 17.1544 120.8 18.2942 119.72C22.9992 115.196 22.9407 115.488 18.0018 111.432C16.2776 110.001 15.5763 107.287 14.4074 105.186C16.8914 105.682 19.3753 106.062 21.8301 106.674C22.7361 106.908 23.496 107.667 24.285 108.163C27.938 103.26 27.9381 103.26 35.1271 110.381C44.6249 102.413 54.0641 94.5042 63.5326 86.5659C63.4157 86.1574 63.3281 85.7488 63.2112 85.3402C59.5875 85.3402 55.9636 85.4861 52.3691 85.311C46.875 85.0484 41.3809 84.7857 35.9453 84.0561C30.5097 83.3556 26.9736 79.9118 26.0676 74.571C25.1033 68.7924 26.5645 63.6558 31.6202 59.8326C40.7965 52.8865 51.4631 50.8436 62.5389 49.968C64.5554 49.8221 66.5719 49.9389 68.5883 49.9389C68.8221 49.3844 69.0558 48.8299 69.2896 48.2754C65.8705 46.3783 62.5098 44.3354 59.003 42.6135C52.9829 39.6366 46.5244 37.3602 40.9134 33.7997C38.0495 31.961 35.1856 28.0794 34.9226 24.8982C34.718 22.4759 38.0787 18.8277 40.7381 17.2226C54.7363 8.72975 67.2732 14.7711 79.5472 21.9506C83.0541 23.9935 86.4734 26.2407 89.9218 28.4004C90.3018 28.021 90.6815 27.6125 91.0614 27.2331C88.6066 24.3146 86.2688 21.3085 83.6679 18.5067C79.3135 13.8079 79.3427 10.0723 84.3692 5.86967C96.088 -3.93646 112.103 -1.3974 119.935 13.0491C123.851 20.2578 127.358 27.2914 128.088 35.6383C128.468 39.7242 131.42 38.7611 134.196 37.331C148.106 30.2683 162.368 23.9935 178.412 25.7738C183.876 26.3867 189.341 28.8966 194.309 31.494C198.868 33.858 198.547 38.0023 195.8 42.5259C191.387 49.8222 183.847 51.1063 176.804 52.6823C168.388 54.5501 159.679 55.0171 151.116 56.0969C150.444 56.2136 149.684 56.5055 147.668 57.0892ZM221.955 471.311C223.475 469.706 225.462 468.275 226.631 466.32C233.615 454.529 236.07 441.163 236.947 428.029C238.73 401.53 238.846 374.942 239.431 348.355C239.723 334.813 239.489 334.784 225.813 335.834C209.184 337.119 192.614 338.928 175.957 339.57C151.467 340.504 126.919 340.65 102.4 341.088C97.2861 341.175 92.1719 341.088 87.0578 340.883C73.3226 340.3 59.5582 339.599 45.823 338.899C41.1764 338.665 39.5106 340.65 39.9782 345.32C40.5042 350.748 40.7673 356.235 40.5627 361.663C39.8029 379.816 38.3417 397.969 38.0203 416.122C37.8449 426.045 39.3353 436.026 40.1828 445.978C41.4102 460.162 49.7681 469.093 62.0129 475.046C64.7892 476.389 67.5947 479.541 70.6632 475.221C70.9847 474.784 72.6213 475.221 73.6149 475.28C84.9829 475.951 96.3217 476.885 107.719 477.264C121.016 477.702 134.342 477.761 147.639 477.848C152.402 477.877 157.253 477.877 161.929 477.206C172.771 475.63 183.584 473.645 194.368 471.778C197.027 471.311 199.657 470.494 202.317 470.202C208.804 469.443 215.351 467.925 221.955 471.311ZM140.917 252.395C143.489 254.729 145.009 255.984 146.353 257.414C147.376 258.523 148.136 259.866 149.012 261.092C147.317 261.004 145.564 261.179 143.927 260.771C140.391 259.895 136.943 258.757 132.589 257.444C133.173 270.431 133.699 282.397 134.254 295.005C147.054 294.392 159.65 293.866 172.216 293.078C173.356 293.02 174.671 291.532 175.372 290.364C181.1 280.938 183.789 270.343 184.899 259.633C186.828 240.983 186.39 222.363 183.73 203.656C180.954 184.16 177.535 164.928 172.391 145.899C169.586 135.567 164.209 127.045 158.13 118.64C153.805 112.657 147.697 107.054 145.885 100.312C142.554 87.996 129.783 85.3986 124.786 74.7169C121.484 79.941 122.594 82.6844 127.854 84.202C119.204 97.4227 119.116 111.607 120.052 125.936C120.578 126.141 121.104 126.345 121.63 126.549C123.909 123.748 126.189 120.917 128.439 118.115C129.053 118.436 129.637 118.757 130.251 119.107C129.374 123.135 128.497 127.162 127.591 131.394C132.004 131.394 135.453 131.394 138.872 131.394C138.989 132.036 139.106 132.649 139.222 133.291C135.803 134.984 132.384 136.706 128.234 138.778C131.449 140.325 133.524 141.083 135.306 142.251C136.212 142.835 136.621 144.177 137.235 145.169C136.212 145.52 135.189 146.103 134.167 146.132C131.098 146.22 128 146.278 124.961 145.957C120.958 145.549 119.876 147.154 120.285 150.948C121.571 162.739 122.565 174.588 123.821 186.378C124.026 188.188 125.166 189.91 125.984 191.953C130.601 187.867 134.634 184.277 138.667 180.658C139.018 180.833 139.369 181.008 139.719 181.154C138.901 184.744 138.083 188.334 137.264 191.865C140.041 192.332 142.349 192.711 145.71 193.266C142.788 195.805 141.21 197.177 139.544 198.636C140.713 200.124 141.677 201.321 143.401 203.452C138.784 203.452 135.248 203.743 131.77 203.364C127.562 202.926 125.955 204.882 126.335 208.588C127.533 220.233 128.936 231.848 130.309 243.464C130.367 243.989 131.04 244.456 131.77 245.361C136.212 241.45 139.368 235.993 146.996 234.854C145.184 238.824 143.84 241.742 142.525 244.661C145.096 246.12 150.883 243.902 148.896 250.147C146.499 250.877 144.307 251.461 140.917 252.395ZM88.0807 80.729C87.5547 80.3204 87.0286 79.9118 86.5025 79.5032C83.7847 80.5831 80.8624 81.371 78.3784 82.8303C74.3747 85.2234 70.634 88.1127 66.7764 90.7394C53.0412 100.049 41.118 110.819 32.7015 125.557C23.233 142.105 18.5863 159.616 18.1772 178.498C17.8265 194.988 21.1289 210.865 26.5353 226.216C31.0066 238.911 37.1434 250.789 44.8293 262.113C50.8494 270.985 56.402 280.062 63.854 287.884C69.728 294.042 76.1865 298.565 85.4212 297.777C92.2012 297.193 99.0688 297.398 105.878 297.135C110.934 296.931 112.483 294.246 110.115 289.926C107.924 285.957 105.907 281.871 103.335 278.165C100.91 274.663 97.8414 271.628 95.2697 268.621C93.224 271.394 91.7628 273.379 90.3016 275.363C88.7527 273.174 87.2039 270.985 85.7427 268.942C83.697 268.651 81.4761 268.359 79.3136 268.067C80.278 265.382 80.8916 263.602 81.5929 261.675C78.3491 260.537 74.3746 260.771 75.7189 255.809C77.9984 255.342 80.2486 254.846 83.5509 254.175C79.518 246.499 75.3098 239.495 72.1244 232.024C68.9098 224.465 66.7472 216.468 64.0294 208.355C62.2467 209.639 61.4577 210.281 60.6102 210.806C59.4997 211.536 58.3308 212.178 57.1911 212.878C56.8696 211.477 56.0805 209.96 56.3435 208.646C56.8695 206.049 57.9802 203.539 58.6815 201.467C56.0514 200.708 53.4796 199.949 50.8786 199.22C52.486 196.797 54.0641 194.346 55.1746 192.682C53.9472 190.61 52.9535 188.917 51.9599 187.196C53.6841 186.612 55.4376 185.386 57.0741 185.532C62.2175 185.999 62.0422 183.022 61.75 179.462C61.5162 176.514 61.5161 173.537 61.633 170.589C61.9252 163.556 62.3053 156.522 62.6852 149.518C58.4185 149.985 54.8531 150.364 51.2586 150.744C50.9663 150.16 50.7034 149.576 50.4111 148.993C52.3399 147.241 54.0057 144.877 56.2852 143.885C61.3409 141.667 61.3992 139.303 56.5188 135.713C59.1782 134.283 61.2531 133.145 63.5034 131.919C62.9773 129.147 62.3636 126.112 61.633 122.23C63.7956 122.901 65.2276 122.901 65.8705 123.602C69.0851 127.162 70.1956 125.761 71.5399 121.967C74.024 115.021 77.1509 108.309 79.8979 101.479C82.7034 94.5918 85.3629 87.6458 88.0807 80.729ZM84.3692 106.879C84.2816 107.025 83.2003 107.871 82.9373 108.922C80.6871 118.144 73.644 125.936 74.7837 136.151C74.8422 136.735 74.55 137.64 74.0824 137.99C69.3189 141.784 69.4067 147.738 68.7346 152.67C65.6953 174.617 67.4193 196.184 73.3225 217.781C78.2614 235.788 88.1683 250.585 98.7473 265.148C105.03 273.787 110.817 282.513 114.879 292.407C115.522 293.983 117.275 296.23 118.532 296.23C122.302 296.26 126.101 295.384 129.842 294.596C130.163 294.538 130.28 292.466 130.192 291.386C129.374 283.156 128.556 274.925 127.591 266.695C126.305 255.751 124.961 244.807 123.558 233.891C121.308 216.41 118.473 198.986 116.866 181.446C115.346 164.84 114.996 148.146 114.353 131.482C114.061 123.748 114.294 115.984 114.294 108.484C109.414 110.556 104.271 114.584 99.3318 114.35C94.3638 114.117 89.5711 109.68 84.3692 106.879ZM149.684 97.0142C150.503 98.8529 150.707 99.67 151.175 100.312C156.99 108.221 162.806 116.101 168.651 124.01C170.726 126.812 172.625 125.674 174.379 123.631C175.664 122.113 176.687 120.304 178.236 119.107C178.704 118.757 180.428 120.012 181.597 120.537C178.119 127.104 182.737 126.345 186.74 126.287C187.208 126.287 187.705 127.133 188.26 127.658C187.208 129.439 186.244 131.073 185.688 132.036C187.997 134.604 189.867 136.676 191.738 138.778C191.358 139.245 191.007 139.683 190.627 140.15C188.085 140.15 185.571 140.237 183.029 140.12C179.405 139.945 177.915 141.492 178.821 145.053C181.334 154.8 183.906 164.519 186.74 175.405C190.89 170.356 193.9 165.278 200.826 163.468C199.044 167.642 197.67 170.794 196.238 174.179C204.245 175.171 204.245 175.171 205.151 177.652C203.924 178.148 202.609 178.469 201.469 179.17C196.589 182.117 196.677 182.088 200.972 186.174C202.054 187.196 202.521 188.83 203.252 190.202C202.96 190.639 202.638 191.077 202.346 191.515C198.108 190.289 193.842 189.063 188.961 187.663C189.809 203.568 190.598 218.423 191.416 234.037C195.683 230.739 198.985 228.2 202.287 225.661C202.843 226.099 203.427 226.566 203.982 227.004C202.463 230.185 200.972 233.366 199.248 237.043C202.96 237.598 206.174 238.065 209.389 238.532C209.476 238.999 209.593 239.466 209.681 239.933C207.694 241.1 205.707 242.267 203.106 243.785C204.655 246.616 206.203 249.447 207.752 252.249C207.518 252.628 207.285 253.008 207.022 253.358C203.924 251.986 200.739 250.819 197.787 249.155C192.907 246.412 190.744 247.404 190.247 252.862C189.224 264.039 187.179 274.984 182.474 285.257C181.451 287.446 180.399 289.635 179.347 291.824C179.61 292.32 179.873 292.845 180.136 293.341C188.465 292.203 196.764 291.094 205.064 289.868C205.794 289.751 206.7 289.022 207.051 288.35C209.944 282.718 213.334 277.202 215.38 271.248C217.864 264.069 219.003 256.451 221.108 249.155C224.497 237.364 227.245 225.428 226.894 213.141C226.631 203.889 225.579 194.579 224.118 185.444C222.89 177.827 221.488 169.976 218.477 162.943C213.363 150.977 206.262 140.208 197.29 130.343C184.841 116.656 168.768 108.455 154.01 98.2399C153.191 97.5687 151.876 97.5687 149.684 97.0142ZM131.741 73.1701C131.449 73.5203 131.186 73.8706 130.894 74.2208C131.449 75.2131 131.77 76.4388 132.559 77.1393C141.56 84.99 151.73 91.0605 162.981 95.0004C169.498 97.2769 176.191 99.203 182.97 100.546C187.062 101.363 191.533 101.304 195.654 100.633C198.751 100.108 201.586 97.9481 204.538 96.518C202.171 93.5995 200.242 90.039 197.29 87.9376C192.439 84.4355 187.062 81.6045 181.655 78.9779C172.333 74.3958 162.952 69.9598 153.396 65.9031C148.925 64.0061 143.869 63.539 139.369 61.7296C134.605 59.8034 130.981 60.0077 128.147 64.8816C129.666 65.8739 130.952 67.0996 132.501 67.6833C144.249 72.1778 156.026 76.4972 167.774 80.9625C169.615 81.6629 171.252 82.8303 172.976 83.7934C172.742 84.2896 172.508 84.8149 172.245 85.311C158.013 84.1144 145.272 77.2268 131.741 73.1701ZM214.62 485.378C214.503 478.519 210.558 474.288 205.473 474.959C197.758 475.951 190.13 477.498 182.474 478.753C179.61 479.22 176.687 479.337 173.882 480.037C160.322 483.481 146.587 485.349 132.618 484.677C120.928 484.094 109.239 482.955 97.5785 482.022C93.6917 481.701 89.7171 481.671 85.918 480.796C79.0796 479.249 76.2742 481.175 76.4787 488.18C76.5372 490.339 77.034 492.499 77.3847 494.98C79.4304 494.98 81.1254 495.067 82.7912 494.98C98.7474 493.958 114.674 492.937 130.631 491.886C131.478 491.828 132.326 491.711 133.173 491.594C149.129 489.551 165.056 486.983 181.1 485.611C192.088 484.619 203.223 485.378 214.62 485.378ZM78.4952 57.4978C78.5829 57.1476 78.6706 56.7682 78.7291 56.418C77.0341 56.1845 75.3391 55.8635 73.6149 55.7759C63.445 55.163 53.6841 57.4394 44.0987 60.2995C40.5626 61.3502 37.2311 63.8018 34.4549 66.37C30.8311 69.7263 32.2924 76.0302 36.939 77.3727C41.2641 78.6277 45.8521 79.7951 50.3234 79.7367C67.4778 79.5908 83.9893 76.5847 98.2213 66.0782C99.8286 64.8816 100.939 63.0137 102.254 61.4669C100.384 60.533 98.426 58.636 96.6725 58.8111C90.4771 59.4239 84.3109 60.5038 78.2323 61.8755C73.1766 63.0137 68.267 64.9107 63.2405 66.2241C62.2176 66.4867 60.9025 65.6987 59.7043 65.4069C60.5226 64.5897 61.2239 63.3931 62.1883 63.0429C67.6239 61.0583 73.0888 59.3073 78.4952 57.4978ZM108.508 20.3162C110.612 22.651 112.629 23.8768 113.009 25.4819C114.353 30.9687 114.879 36.689 116.282 42.1757C116.749 44.0436 118.912 45.5027 120.315 47.1371C121.337 45.386 122.506 43.7225 123.325 41.8838C123.705 41.0375 123.412 39.8701 123.295 38.8486C122.273 30.0056 118.795 22.3299 113.418 15.1505C105.878 5.08166 95.825 3.6808 87.2624 11.8818C95.2405 22.8845 103.16 33.8288 111.109 44.7731C111.723 44.5105 112.366 44.2478 112.979 43.9852C111.547 36.5722 110.145 29.1593 108.508 20.3162ZM109.999 67.1288C109.502 66.6618 109.034 66.224 108.537 65.7571C104.621 69.3468 100.296 72.6156 96.9355 76.6723C94.8606 79.1822 93.9547 82.8303 93.1364 86.1282C91.9967 90.5351 90.2725 95.2922 91.0031 99.5241C91.5291 102.647 95.1237 105.857 98.1337 107.783C100.735 109.447 103.803 107.959 106.083 105.273C114.148 95.73 116.778 84.2311 118.444 72.3237C118.532 71.5941 117.743 70.1932 117.129 70.0473C116.399 69.8722 115.23 70.5143 114.616 71.1855C108.771 77.3144 105.79 84.9024 103.949 93.0158C103.599 94.5334 103.189 96.0219 102.78 97.5103C102.283 97.3644 101.787 97.2477 101.261 97.1018C98.1336 85.5737 106.375 76.9349 109.999 67.1288ZM40.9134 26.2116C59.2368 35.6675 75.7189 47.0787 96.3509 49.2384C93.6331 42.0881 86.1226 41.3294 80.9792 37.5353C75.602 33.5662 69.6697 30.3266 63.9711 26.7661C64.2341 26.1532 64.497 25.5695 64.76 24.9566C68.5006 25.9197 72.2414 26.8828 75.982 27.8751C73.4395 25.4528 70.2834 24.4021 67.5655 22.6802C58.7107 17.1351 49.7975 17.8647 40.9134 26.2116ZM131.916 50.7269C132.121 51.4565 132.296 52.2153 132.501 52.945C134.517 52.7115 136.563 52.5364 138.55 52.2153C142.846 51.5149 147.113 50.5518 151.438 49.9973C156.815 49.2968 162.397 49.5011 167.628 48.2461C174.583 46.6118 181.392 44.1603 188.055 41.5629C189.283 41.0959 190.569 37.6229 189.984 36.3679C188.085 32.3112 180.516 32.0485 177.155 35.288C175.928 36.4846 174.116 37.4185 172.421 37.7688C165.728 39.1988 158.744 39.6658 152.285 41.738C145.301 44.0436 138.726 47.6916 131.916 50.7269ZM203.895 332.215C208.045 332.215 211.814 332.274 215.584 332.128C216.11 332.099 217.075 330.99 217.046 330.464C216.607 325.445 216.023 320.454 215.555 316.31C206.087 315.58 203.34 319.637 204.567 327.079C204.742 328.334 204.216 329.735 203.895 332.215ZM197.582 318.615C188.757 317.711 187.149 319.111 187.033 327.546C187.003 328.742 186.945 329.91 186.887 331.106C186.682 334.433 188.786 335.28 191.445 334.871C194.309 334.433 198.722 335.98 198.868 331.048C198.985 326.904 198.05 322.73 197.582 318.615ZM85.6551 327.079C85.3044 334.667 85.3044 334.667 91.1199 334.754C97.4031 334.842 97.6954 334.463 97.0232 328.13C96.9063 327.108 96.7309 326.057 96.9354 325.065C97.666 321.417 95.5035 320.162 92.5811 319.549C87.1455 318.353 85.9765 319.637 85.6551 327.079ZM67.3609 320.862C67.5071 323.868 67.244 326.524 67.8577 328.917C68.2376 330.347 69.8157 332.128 71.1892 332.478C79.4011 334.55 79.4303 334.404 78.8166 326.028C78.7874 325.678 78.8166 325.357 78.8166 325.007C78.6413 318.878 77.9692 318.411 71.7738 319.958C70.4879 320.308 69.1436 320.512 67.3609 320.862ZM171.836 321.359C171.398 335.046 171.807 335.63 181.568 334.433C181.568 330.493 181.889 326.437 181.363 322.497C181.217 321.417 178.558 320.133 176.921 319.929C175.401 319.724 173.706 320.775 171.836 321.359ZM166.663 327.662C166.196 321.826 165.173 320.658 159.854 321.213C153.279 321.913 156.231 327.517 155.997 330.464C155.646 334.959 160.293 333.996 163.332 334.171C167.307 334.404 167.073 331.661 166.663 327.662ZM144.132 333.704C146.178 332.42 148.253 331.136 150.298 329.881C148.019 327.458 151.935 321.067 144.921 321.709C141.122 322.059 136.826 320.6 136.738 327.371C136.651 333.208 139.895 332.566 144.132 333.704ZM103.277 329.268C102.78 332.974 104.095 335.017 107.427 334.171C109.736 333.587 113.33 332.274 113.681 330.727C114.791 325.678 111.694 321.329 108.099 321.067C100.267 320.541 105.235 327.079 103.277 329.268ZM50.8203 332.624C54.1518 332.624 56.8696 332.916 59.4997 332.478C60.6394 332.274 62.1592 330.639 62.3345 329.501C62.656 327.371 62.7728 324.686 61.7208 323.051C60.7271 321.505 58.1554 320.483 56.1682 320.22C54.8531 320.045 52.3399 321.3 52.0184 322.409C51.1709 325.444 51.2002 328.713 50.8203 332.624ZM233.323 321.388C233.382 321.388 233.44 321.388 233.498 321.388C233.352 323.431 232.856 325.503 233.177 327.458C233.411 328.917 234.755 330.172 235.603 331.515C236.83 330.289 239.022 329.151 239.139 327.809C239.548 323.285 239.402 318.644 239.08 314.092C238.993 312.895 237.444 311.815 236.567 310.677C235.486 311.874 233.762 312.924 233.44 314.296C232.914 316.572 233.323 319.024 233.323 321.388ZM119.321 332.741C123.325 331.252 128.585 335.426 130.484 329.968C132.209 324.978 129.666 322.03 125.487 321.855C119.233 321.563 118.883 322.147 119.321 332.741ZM45.1216 327.371C45.0632 326.349 45.0048 325.328 44.9755 324.306C44.9463 321.971 44.8877 319.724 41.5562 319.958C38.7507 320.162 37.0558 321.183 37.5818 324.394C37.8448 326.057 37.2604 328.071 37.991 329.414C39.0431 331.34 40.9425 332.828 42.4914 334.492C43.4266 332.624 44.391 330.756 45.2385 328.859C45.4138 328.451 45.1509 327.867 45.1216 327.371ZM227.478 314.238C226.894 313.887 226.28 313.537 225.696 313.187C224.322 314.442 221.838 315.638 221.78 316.922C221.634 321.038 222.306 325.182 222.919 329.268C223.066 330.318 224.176 331.194 224.848 332.157C225.725 331.223 227.303 330.318 227.361 329.326C227.624 324.306 227.478 319.257 227.478 314.238ZM109.531 55.7759C109.502 56.3888 109.443 57.0017 109.414 57.6146C112.073 58.9571 114.645 60.9124 117.451 61.3794C119.204 61.6712 121.396 59.7159 123.208 58.5193C123.441 58.3734 122.74 55.9218 122.389 55.8926C118.152 55.6883 113.827 55.7759 109.531 55.7759Z" fill="white"/>
</svg>
