<svg width="353" height="500" viewBox="0 0 353 500" fill="none" xmlns="http://www.w3.org/2000/svg">
<path d="M3.95806 123.852C8.08097 125.969 12.3413 127.838 16.2443 130.284C18.9654 131.988 20.2023 133.033 22.3462 129.212C25.1498 124.21 28.5031 119.235 34.3027 116.871C34.8799 116.624 35.3746 115.909 35.9244 115.909C41.9438 115.826 47.606 114.947 50.8768 108.708C51.7564 109.807 52.3336 110.274 52.2786 110.494C50.1896 116.953 54.5325 119.29 59.0952 121.928C65.6643 125.749 67.3135 132.95 69.6498 139.382C70.8592 142.68 71.9861 142.928 74.7897 141.801C76.1365 141.251 77.7857 141.471 80.7542 141.196C79.1325 143.312 78.5278 144.577 77.5383 145.319C72.3984 149.167 73.4429 154.252 74.8996 159.172C78.7477 172.118 80.5343 185.339 81.3864 198.752C81.6062 202.023 82.4308 205.266 83.118 209.362C84.4373 208.097 84.8496 207.877 84.8496 207.685C84.3824 194.547 84.5748 181.353 83.2005 168.325C82.101 157.77 84.8221 147.545 84.3274 137.128C84.1625 133.39 85.6742 129.514 81.3039 126.931C80.2594 126.326 80.067 124.237 79.2974 122.341C81.6338 122.066 83.2829 121.873 85.2069 121.653C86.9111 114.452 88.5602 107.223 90.3743 100.022C91.5013 95.5417 91.3363 91.6386 86.8561 88.945C86.114 88.5052 85.3719 87.6531 85.152 86.856C84.7672 85.4543 84.7672 83.97 84.6297 82.5133C85.9765 82.9256 87.4883 83.063 88.6152 83.8326C92.0785 86.1964 93.7276 85.3993 95.1019 81.6062C97.4108 75.2294 99.5822 68.6328 103.155 62.9706C106.206 58.1331 106.674 53.7903 105.739 48.513C105.272 45.8468 106.261 42.9058 106.591 40.1022C108.213 42.3286 109.862 44.5549 111.484 46.8088C111.759 47.1936 111.896 47.6609 112.171 48.2106C117.311 44.9398 122.231 41.3941 127.536 38.5905C132.978 35.7044 138.997 35.4021 144.494 38.3156C147.518 39.9373 149.25 40.1847 151.064 37.0513C151.531 36.2267 153.098 36.0343 154.17 35.567C154.527 36.529 155.489 37.7934 155.187 38.3981C151.558 45.2696 157.221 49.6674 159.282 55.1096C161.673 61.4314 163.872 67.9181 165.274 74.5148C165.961 77.7856 166.153 80.0395 170.166 79.7647C170.964 79.7097 171.816 80.7541 172.64 81.3039C172.008 82.0735 171.513 83.1729 170.689 83.5852C163.377 87.1859 160.739 93.3153 162.938 101.039C164.065 104.997 165.054 109.12 165.219 113.188C165.356 117.091 166.456 119.455 170.276 120.609C171.458 120.966 172.365 122.231 173.382 123.055C172.09 123.66 170.826 124.704 169.479 124.814C166.758 125.062 165.686 126.161 165.411 128.992C164.367 139.464 163.13 149.937 161.728 160.381C161.179 164.504 161.563 167.335 166.648 167.61C167.94 167.693 169.177 169.232 170.441 170.084C170.276 170.441 170.111 170.826 169.974 171.183C167.335 171.513 164.697 171.843 161.069 172.31C161.756 180.749 162.278 189.022 163.267 197.24C163.405 198.45 165.714 199.631 167.225 200.429C168.765 201.226 170.551 201.556 172.228 202.105C171.898 203.122 171.898 203.59 171.678 203.699C162.58 208.455 164.065 206.036 164.669 216.645C164.944 221.455 165.329 226.238 165.769 231.048C166.236 236.573 167.665 237.507 172.833 236.325C174.399 235.968 176.131 236.27 178.412 236.27C180.226 231.873 182.178 227.145 184.459 221.648C184.239 221.565 183.47 221.455 183.112 220.988C178.88 215.683 178.935 215.738 184.514 211.533C185.394 210.873 186.136 209.554 186.246 208.482C187.07 199.247 187.895 190.011 188.39 180.776C188.72 174.344 187.84 173.52 181.518 172.035C180.749 171.871 179.979 171.623 179.154 171.403C178.247 167.94 180.391 167.445 182.81 167.528C187.373 167.693 188.692 165.191 188.39 161.178C187.785 153.043 187.373 144.907 186.383 136.826C186.191 135.259 183.635 133.995 182.123 132.62C181.381 131.961 180.501 131.411 179.677 130.806C180.501 130.009 181.216 128.717 182.15 128.525C185.861 127.728 186.411 125.447 186.163 122.121C185.201 109.834 184.542 97.5481 183.552 85.2893C183.442 84.025 182.26 82.5957 181.216 81.6887C179.842 80.4793 178.082 79.7097 176.048 78.4728C177.12 77.4558 177.863 76.109 178.605 76.109C184.129 76.1365 183.387 72.4259 183.387 68.8527C183.36 60.9916 183.387 53.1306 183.745 45.2696C183.882 42.3011 184.597 39.2501 185.641 36.5015C187.703 31.1692 186.383 27.1562 181.985 23.7205C180.859 22.8409 180.254 21.3292 179.402 20.0923C179.732 19.6525 180.089 19.2403 180.419 18.8005C182.618 19.4327 184.817 20.4496 187.043 20.6146C189.049 20.752 192.018 20.697 193.007 19.4876C198.505 12.6711 205.486 10.3623 213.952 10.4997C216.178 10.5272 218.652 8.68559 220.658 7.22883C223.544 5.13989 226.073 2.5562 228.904 0.384798C229.619 -0.137438 230.966 0.164911 233.439 -5.2011e-06C230.663 3.95799 228.382 6.92649 226.431 10.0874C225.908 10.912 225.908 13.0834 226.403 13.3857C235.116 18.3607 240.448 25.8369 242.757 35.0998C247.292 34.1652 251.333 33.3406 255.373 32.5161C255.593 33.1207 255.841 33.7254 256.061 34.3301C253.367 36.2816 250.563 38.1232 248.035 40.2671C246.743 41.3666 245.011 43.1806 245.121 44.5275C246.028 54.6698 247.375 64.7847 248.584 75.0096C251.58 75.147 253.999 75.2569 256.83 75.3944C256.335 76.4388 256.253 77.016 255.951 77.181C247.237 81.9635 250.261 89.9895 250.673 97.0809C251.195 106.151 252.46 115.194 252.845 124.292C253.037 128.827 254.082 131.631 259.084 132.016C260.431 132.126 261.695 133.39 264.059 134.709C261.668 135.836 260.321 137.018 259.002 136.963C253.422 136.688 253.065 139.849 253.065 144.302C253.01 156.808 252.845 169.342 252.02 181.821C251.69 186.658 255.153 187.84 257.462 190.314C258.204 191.083 258.672 192.1 259.276 193.007C258.259 193.255 257.16 193.859 256.253 193.667C251.415 192.568 250.398 194.711 249.986 199.219C249.079 209.526 247.32 219.779 246.083 230.059C245.588 234.072 249.904 239.871 253.889 240.256C255.621 240.421 258.204 239.596 259.166 238.304C263.949 231.9 268.319 225.194 273.267 217.965C269.968 216.041 267.412 214.886 265.296 213.155C264.004 212.083 263.372 210.186 262.465 208.647C264.141 208.4 265.928 207.657 267.44 208.015C274.586 209.746 275.246 209.472 276.62 202.408C277.912 195.838 279.094 189.269 280.358 182.7C280.825 180.226 280.386 178.412 277.637 177.505C276.51 177.12 275.466 176.103 274.696 175.141C274.091 174.372 273.542 173.025 273.844 172.255C274.091 171.623 275.741 170.991 276.51 171.211C282.117 172.86 282.777 169.864 283.244 165.246C283.904 158.787 285.003 152.273 286.845 146.034C288.851 139.19 287.67 133.775 282.365 129.047C281.293 128.085 280.99 126.271 280.331 124.842C280.853 124.485 281.348 124.127 281.87 123.77C283.794 124.952 285.855 125.969 287.615 127.343C290.885 129.927 293.002 129.212 293.991 124.952C295.311 119.207 296.548 113.435 298.004 107.745C298.499 105.794 299.901 104.09 300.396 102.138C300.835 100.407 300.725 98.4827 300.506 96.6686C300.368 95.4592 299.214 94.3048 299.296 93.1779C299.406 91.8585 300.341 90.5942 300.918 89.2748C302.1 90.017 303.502 90.5667 304.409 91.5287C305.343 92.5182 305.81 93.9475 306.607 95.4317C308.422 94.6896 309.933 93.865 311.555 93.3978C318.701 91.3913 325.463 93.6177 329.311 100.214C331.482 103.925 333.571 103.76 336.65 102.276C338.876 101.204 341.157 100.187 343.439 99.1424C343.851 99.5547 344.291 99.9394 344.703 100.352C343.494 101.973 342.587 104.145 340.993 105.107C336.65 107.746 334.368 110.659 335.688 116.239C337.749 125.062 338.766 134.16 340.855 142.983C341.322 144.962 344.208 146.693 346.325 147.848C347.974 148.755 350.173 148.617 352.152 148.947C352.234 149.524 352.344 150.102 352.427 150.706C350.585 151.256 348.744 152.218 346.875 152.3C343.659 152.41 342.504 153.62 342.312 156.891C341.515 169.974 337.942 182.48 334.148 194.931C333.269 197.79 333.984 199.329 337.007 200.291C339.921 201.226 342.614 202.847 345.308 204.359C345.94 204.716 346.132 205.788 346.545 206.531C345.748 206.86 344.896 207.52 344.126 207.41C341.9 207.163 339.481 207.053 337.557 206.063C333.104 203.754 331.317 206.146 330.245 209.774C327.14 220.466 324.034 231.158 321.285 241.933C320.9 243.444 322.165 246.056 323.484 247.182C325.93 249.271 328.981 250.646 333.022 253.092C326.81 255.786 322.357 252.955 317.464 251.333C315.65 255.428 314.001 259.469 312.077 263.399C309.136 269.309 306.195 275.218 302.897 280.935C301.11 284.014 301.66 285.581 304.848 286.652C308.092 287.752 311.308 288.961 314.551 290.143C314.606 290.61 314.661 291.05 314.716 291.518C313.314 292.067 311.967 292.837 310.51 293.084C309.301 293.304 307.789 293.277 306.717 292.754C298.472 288.522 293.964 292.672 288.796 298.939C281.43 307.927 281.348 310.758 291.682 316.612C292.617 317.135 293.442 317.904 294.651 318.811C291.792 319.911 287.999 320.543 287.917 321.532C287.477 326.068 287.944 330.74 288.357 335.303C288.549 337.309 289.374 339.233 289.951 341.212C293.139 351.85 296.135 362.514 299.598 373.069C302.127 380.737 305.151 388.241 308.202 395.745C310.868 402.286 313.864 408.663 316.695 415.122C318.069 418.311 319.636 421.444 320.653 424.743C323.209 432.879 328.871 439.723 329.476 448.738C329.943 456.049 331.592 463.278 333.049 470.479C333.571 473.036 335.056 475.427 336.21 477.873C337.777 481.144 336.705 483.288 333.324 483.92C327.112 485.102 320.873 486.504 314.606 486.944C290.94 488.538 267.027 488.181 243.664 491.589C221.483 494.805 199.467 491.259 177.45 493.458C159.804 495.217 142.131 497.223 124.43 497.966C96.4213 499.175 68.3854 499.45 40.3496 500C38.6455 500.027 36.9139 498.818 35.1822 498.186C35.2922 497.581 35.4021 496.976 35.5121 496.371C37.1337 496.234 38.7279 496.014 40.3496 495.959C66.7637 495.08 93.2054 494.2 119.62 493.32C120.527 493.293 121.434 493.018 123.523 492.633C121.571 488.208 119.894 484.25 118.108 480.32C115.194 474.025 112.363 467.703 109.23 461.519C105.107 453.383 100.709 445.385 96.5587 437.249C93.4802 431.257 90.4843 425.21 87.7357 419.053C84.6572 412.154 81.8261 405.118 78.9951 398.109C73.5253 384.613 68.0006 371.145 62.7233 357.594C59.9747 350.503 57.6934 343.219 55.1921 336.045C54.7798 336.072 54.395 336.127 53.9827 336.155C53.7354 337.447 53.323 338.766 53.2681 340.058C52.5809 358.474 50.2721 376.724 45.9843 394.59C41.0643 415.15 41.4216 435.847 42.4935 456.681C42.7134 461.162 42.6035 465.669 42.4935 470.15C42.3561 476.856 38.3156 488.098 32.9558 493.348C32.9558 491.781 32.6535 490.132 33.0383 488.648C33.6155 486.366 34.1653 483.783 35.5671 482.051C39.0853 477.736 38.7004 472.678 38.4531 467.896C37.8759 456.736 36.3916 445.605 35.8969 434.445C35.622 427.986 36.4466 421.444 36.9963 414.985C37.3811 410.367 37.9858 405.722 38.7554 401.16C41.8888 382.909 45.1597 364.686 48.2931 346.462C48.8153 343.329 49.2002 340.03 48.9253 336.87C48.4855 331.922 50.2996 328.404 54.3675 325.875C59.8098 329.916 61.3765 330.19 68.9901 328.486C70.0896 325.765 71.1066 323.209 72.3434 320.158C69.9247 316.97 67.2035 313.369 64.2625 309.493C61.7063 311.445 59.6174 313.039 57.1986 314.853C54.5325 311.967 55.0822 309.164 57.8308 306.91C60.7168 304.546 59.3975 302.429 58.0507 300.231C52.9108 291.847 47.2486 283.766 42.7684 275.026C40.7069 271.013 39.1402 272.222 36.5291 273.294C35.0998 273.899 33.5056 274.119 31.9939 274.504C32.3787 272.167 32.2962 269.556 33.3407 267.55C33.9728 266.313 36.3366 265.983 38.5355 264.938C37.0788 260.623 35.7319 256.17 34.1103 251.828C32.3786 247.265 30.2347 242.84 28.5856 238.249C26.3592 232.01 25.1223 231.515 19.5701 235.363C19.2403 235.611 18.6631 235.501 17.811 235.583C16.0244 232.45 16.6016 229.701 19.735 228.052C23.5281 226.073 24.4627 224.479 22.2363 220.026C19.6526 214.886 18.8005 208.812 17.5911 203.04C16.2718 196.828 15.5572 190.479 14.2378 184.267C13.963 182.92 12.4238 181.628 11.1319 180.749C7.66868 178.44 4.06797 176.351 3.12719e-05 173.905C3.13345 170.496 5.57971 171.403 8.05346 172.64C12.4237 174.867 13.1109 174.372 13.3308 169.479C13.6056 163.405 14.0454 157.33 14.4577 151.256C14.5402 149.992 14.7326 148.7 15.0074 147.463C15.6121 144.742 17.7286 141.086 16.6841 139.574C14.4852 136.413 10.5547 134.462 7.47628 131.851C5.52476 130.202 3.84808 128.278 2.034 126.463C2.69366 125.529 3.32588 124.704 3.95806 123.852ZM198.834 170.661C193.365 173.107 193.392 176.818 193.282 180.804C193.007 190.424 192.952 200.099 191.606 209.581C190.561 216.893 189.792 216.728 195.893 220.988C196.663 221.51 197.24 223.242 196.938 224.067C196.691 224.781 194.629 225.633 194.079 225.276C188.994 222.06 187.813 226.458 186.713 229.371C183.415 238.112 181.133 247.237 177.368 255.758C175.196 260.706 178.137 261.503 180.859 263.207C182.26 264.086 183.662 264.966 185.064 265.846C184.872 266.368 184.679 266.89 184.487 267.412C182.975 267.412 181.381 267.687 179.951 267.357C176.186 266.478 174.372 267.66 173.657 271.59C173.052 274.833 171.843 278.049 170.359 280.99C166.318 289.126 166.208 289.071 173.492 294.184C173.657 294.294 173.547 294.761 173.575 295.063C173.355 295.283 173.135 295.558 172.888 295.695C172.475 295.915 171.926 296.273 171.568 296.135C162.47 293.057 158.375 298.636 155.077 305.618C154.664 306.47 154.334 307.459 153.675 308.119C152.081 309.796 150.569 311.253 153.702 312.929C153.84 313.012 152.905 315.65 152.768 315.623C146.638 314.413 146.446 319.938 143.395 323.291C145.401 323.456 146.638 323.621 147.903 323.649C159.612 323.649 171.348 323.676 183.057 323.621C188.665 323.594 194.299 323.621 199.906 323.319C205.953 322.989 208.867 318.811 207.273 313.286C206.558 310.785 207.273 308.614 210.241 309.796C214.364 311.417 216.563 310.208 218.624 306.525C221.758 300.89 229.289 296.19 221.373 288.824C221.126 288.604 222.72 285.883 222.775 285.91C228.959 288.522 229.124 283.024 230.663 279.891C231.983 277.225 233.055 274.284 233.522 271.37C233.714 270.188 232.12 268.622 231.103 267.412C230.334 266.478 229.207 265.846 228.245 265.076C229.124 264.334 229.921 263.179 230.938 262.932C235.199 261.942 236.903 258.947 237.562 255.071C238.167 251.443 238.662 247.787 239.157 244.132C239.624 240.751 239.734 237.7 235.171 236.903C234.154 236.738 233.357 235.171 231.625 233.357C234.759 233.055 236.628 233.082 238.414 232.642C239.569 232.367 241.438 231.543 241.548 230.773C243.197 218.569 244.681 206.366 245.973 194.107C246.056 193.255 244.599 192.045 243.609 191.331C242.345 190.424 240.833 189.874 239.431 189.187C240.696 187.895 241.795 185.696 243.252 185.449C247.485 184.679 248.172 182.04 248.227 178.495C248.364 166.291 248.557 154.115 248.722 141.911C248.749 139.684 248.969 137.678 245.946 136.633C243.692 135.864 242.785 133.033 245.533 132.016C248.749 130.806 248.639 128.717 248.474 126.354C247.54 114.397 246.44 102.468 245.533 90.5117C245.286 87.4333 244.571 84.8771 241.328 83.7226C238.689 82.7881 239.376 81.5787 240.723 79.8471C241.768 78.5278 242.95 76.7137 242.84 75.2294C242.29 68.3854 240.668 61.5688 240.668 54.7523C240.696 48.4305 232.45 43.7304 237.562 36.7489C235.611 27.1563 228.519 20.3397 218.872 18.7455C218.102 18.6081 217.278 18.4157 216.618 18.0309C210.626 14.4577 205.431 17.3162 200.649 20.4222C196.471 23.1433 194.162 27.0738 197.79 32.3786C192.265 32.9283 190.809 36.2267 190.589 40.3771C190.121 49.6674 189.764 58.9577 189.407 68.248C189.242 72.7557 188.939 77.3184 194.134 79.6547C194.464 79.7921 194.437 80.7816 194.547 81.3039C189.737 83.6677 189.737 83.6677 190.121 89.3848C190.809 100.077 191.276 110.796 192.348 121.461C192.595 124.045 195.729 126.354 195.866 128.91C196.003 131.411 193.2 134.022 193.117 136.606C192.842 144.604 193.42 152.658 193.365 160.656C193.31 164.697 193.172 168.462 198.834 170.661ZM117.421 283.382C117.888 283.821 118.355 284.289 118.822 284.728C118.328 286.075 118.19 287.724 117.311 288.741C112.033 294.761 111.978 294.733 116.019 301.22C118.328 304.931 120.719 308.641 122.533 311.5C127.233 309.219 131.191 307.927 134.38 305.563C138.75 302.32 142.296 304.299 146.144 306.085C148.617 307.24 149.799 306.25 150.844 303.831C151.998 301.11 153.455 298.334 155.434 296.218C158.237 293.194 156.946 291.985 154.032 290.638C152.603 289.978 151.338 288.961 149.717 287.889C150.926 286.9 151.119 286.598 151.421 286.515C151.861 286.35 152.41 286.13 152.823 286.24C161.536 288.631 165.549 283.876 167.033 276.318C168.132 270.738 172.118 264.719 165.631 259.579C165.027 259.084 165.109 257.16 165.466 256.115C167.528 250.178 165.549 245.946 159.694 243.912C158.925 243.637 157.963 242.867 157.825 242.18C157.688 241.548 158.43 240.201 159.007 240.064C163.02 239.156 162.69 236.325 162.333 233.302C161.976 230.279 161.838 227.228 161.453 224.204C160.711 218.13 162.47 211.56 157.743 206.283C157.303 205.788 157.798 204.469 157.798 203.535C157.743 192.952 157.66 182.343 157.605 172.145C155.819 171.596 155.324 171.541 154.939 171.293C153.372 170.276 151.861 169.204 150.294 168.16C151.723 167.17 153.18 166.208 154.582 165.164C155.489 164.477 156.946 163.735 157.056 162.883C158.512 151.778 159.832 140.674 161.069 129.569C161.316 127.233 160.629 125.474 157.605 125.721C156.588 125.804 155.489 125.062 154.417 124.704C155.022 123.55 155.324 122.066 156.259 121.324C161.179 117.448 161.563 115.497 160.079 109.669C158.815 104.777 158.32 99.6371 157.743 94.5797C157.468 92.2983 158.595 89.7971 155.516 88.3128C155.132 88.1204 156.066 84.6022 156.836 82.8431C157.798 80.6442 160.079 78.7202 160.299 76.5488C160.574 73.8551 159.694 70.8317 158.622 68.248C155.984 61.7887 152.96 55.5219 149.717 48.3206C147.298 51.0417 146.006 52.5809 144.604 54.0102C144 54.6149 143.175 54.9997 142.46 55.4669C142.021 54.5599 141.334 53.6528 141.224 52.7183C141.114 51.8388 141.526 50.8218 141.938 49.9697C144.549 44.4725 143.642 42.8783 137.65 42.6034C128.223 42.1362 122.423 48.5404 116.404 54.2301C115.442 55.1371 116.074 57.8032 116.156 59.6448C116.211 60.6618 116.651 61.6238 117.091 63.328C108.68 60.3595 108.185 67.0936 105.822 71.4089C105.134 72.6457 104.695 74.0475 104.227 75.3943C102.111 81.6612 96.3388 87.4882 101.864 94.7171C101.973 94.8545 101.671 95.2668 101.479 95.844C97.933 95.5966 96.009 97.5756 95.5417 101.039C93.8376 113.82 92.1884 126.601 90.5117 139.382C90.0445 143.01 89.6597 146.666 88.8901 150.211C87.2959 157.688 88.3129 160.299 94.4972 164.972C96.2289 166.291 97.4108 168.325 98.8126 170.029C98.4827 170.386 98.1529 170.744 97.8231 171.101C94.882 170.661 91.9685 170.249 88.3129 169.699C88.3129 171.788 88.2304 173.355 88.3404 174.894C89 184.129 89.962 193.337 90.3193 202.6C90.4843 207.163 91.3913 210.269 96.5312 211.011C97.6032 211.176 98.4277 212.907 99.3623 213.924C98.1804 214.611 96.9985 215.931 95.8441 215.903C92.1334 215.876 91.1164 217.305 91.6936 220.906C93.0405 229.426 93.9475 238.002 95.4043 246.495C95.8166 248.859 97.026 251.69 98.8126 253.064C104.062 257.132 104.255 256.913 99.912 260.211C100.489 264.856 101.644 269.281 101.451 273.624C101.231 278.682 103.238 282.475 106.069 286.185C107.773 288.412 109.34 289.319 111.786 286.762C113.188 285.333 115.469 284.536 117.421 283.382ZM125.392 486.339C130.312 475.344 134.984 465.477 139.162 455.39C145.566 439.915 151.778 424.358 157.743 408.718C162.828 395.415 167.555 381.947 172.173 368.479C175.581 358.584 178.55 348.524 181.683 338.519C183.882 331.51 182.48 329.503 175.114 329.751C161.041 330.245 146.996 330.878 132.923 331.675C122.67 332.252 112.611 332.224 102.331 330.63C95.1569 329.531 87.4883 331.427 80.067 332.197C73.5803 332.857 67.1486 333.846 59.8922 334.781C78.5828 387.114 102.661 436.122 125.392 486.339ZM295.366 141.938C294.706 142.625 292.067 144.137 291.6 146.144C289.703 154.362 288.219 162.718 287.12 171.073C286.817 173.327 288.384 175.829 289.236 178.715C284.674 180.006 284.426 184.597 283.657 189.132C282.612 195.399 281.705 201.775 279.561 207.685C278.352 210.983 277.637 212.742 281.045 214.529C281.952 214.996 282.447 216.261 283.986 218.295C278.654 217.085 276.098 218.597 274.064 222.225C270.023 229.426 265.488 236.353 260.816 243.967C262.437 247.045 264.636 251.278 266.945 255.703C262.245 257.407 261.31 253.532 259.276 251.8C257.16 249.986 255.291 248.584 252.735 251.031C248.722 254.879 244.681 258.644 240.503 262.547C240.916 262.822 242.015 263.399 242.922 264.224C243.939 265.158 244.791 266.313 245.698 267.385C244.379 267.989 243.087 268.594 241.768 269.171C240.393 269.749 238.277 269.941 237.782 270.93C236.435 273.569 235.748 276.565 234.814 279.424C233.852 282.42 231.763 285.663 232.285 288.384C232.78 290.885 236.078 292.864 238.937 295.915C236.353 296.053 234.621 296.328 232.917 296.163C230.251 295.915 228.355 295.805 227.063 299.214C225.441 303.419 222.308 306.992 220.191 311.033C219.229 312.874 218.157 315.87 218.982 317.162C220.054 318.866 222.995 320.378 225.056 320.295C236.106 319.993 247.155 318.564 258.204 318.729C265.021 318.839 268.787 315.458 272.14 310.758C272.8 309.851 272.14 307.789 271.7 306.388C271.315 305.233 270.353 304.271 269.639 303.254C271.095 302.979 272.525 302.622 273.981 302.43C275.933 302.182 278.709 302.842 279.726 301.77C284.591 296.657 288.989 291.105 293.387 285.91C292.26 283.684 291.353 281.952 290.391 280.056C291.49 279.589 292.177 278.984 292.617 279.149C298.032 280.963 299.791 277.665 301.468 273.432C303.089 269.336 305.59 265.598 307.322 261.53C309.109 257.352 311.39 253.01 311.61 248.667C311.775 245.423 308.834 241.933 314.633 241.163C315.018 241.108 315.403 240.174 315.595 239.569C316.86 235.638 318.152 231.735 319.224 227.75C320.9 221.648 321.972 215.299 324.226 209.417C325.628 205.733 326.727 202.655 324.666 200.484C326.48 196.718 328.321 193.859 329.256 190.726C331.537 182.947 333.379 175.031 335.468 167.198C337.474 159.612 335.908 154.142 330.685 151.586C331.262 150.679 331.62 149.359 332.417 148.975C336.1 147.188 336.127 144.632 334.478 141.443C334.066 140.619 334.066 139.574 333.874 138.64C332.609 132.071 331.482 125.474 329.971 118.96C329.696 117.75 328.047 116.569 326.755 115.991C325.655 115.497 324.144 115.909 322.824 115.909C323.456 114.425 324.254 112.968 324.638 111.401C325.161 109.395 326.178 107.003 325.545 105.299C323.511 99.802 320.46 98.2903 314.688 98.8675C309.301 99.3897 308.504 101.176 311.198 106.014C311.912 107.306 311.692 109.12 312.05 111.951C308.916 109.175 307.075 107.553 304.326 105.107C303.007 110.082 302.072 113.737 301.083 117.393C299.956 121.516 298.636 125.611 297.647 129.789C296.795 133.308 296.3 136.936 295.366 141.938ZM79.4348 326.205C81.8536 326.205 83.118 326.205 84.3824 326.205C93.6452 326.178 102.908 326.15 112.171 326.122C116.981 326.095 121.791 326.15 126.601 325.93C127.508 325.875 128.36 324.638 129.212 323.924C128.47 323.209 127.81 322.055 126.986 321.917C125.721 321.697 124.32 322.137 123 322.329C121.901 322.494 120.169 323.209 119.839 322.797C119.18 321.972 118.767 320.323 119.152 319.361C120.719 315.513 119.097 312.682 116.926 309.713C115.084 307.212 113.82 304.299 111.951 301.852C111.044 300.67 109.312 299.571 107.938 299.571C107.141 299.571 106.014 301.715 105.602 303.062C104.447 306.827 103.678 310.703 102.551 314.496C102.303 315.265 101.094 315.76 100.324 316.365C99.6921 315.54 98.6751 314.798 98.5377 313.891C97.5757 308.147 99.6921 302.869 103.375 299.076C106.564 295.833 106.069 293.332 104.31 290.391C100.489 284.096 95.2943 278.379 92.6831 271.673C88.1754 260.073 84.2724 248.089 81.8261 235.913C78.5553 219.504 76.9886 202.737 74.5148 186.163C73.1955 177.313 71.6013 168.517 69.8147 159.777C69.4299 157.963 67.4784 156.533 66.5439 154.774C65.8842 153.537 65.0596 151.861 65.3895 150.679C66.379 147.051 64.7023 140.866 61.4315 138.063C57.1162 143.34 55.1646 150.734 46.8089 154.197C47.1662 151.613 46.8088 149.469 47.6884 148.342C51.2891 143.862 55.2746 139.684 59.0952 135.369C59.6724 134.709 60.6069 133.308 60.442 133.143C57.7208 130.257 55.2746 126.711 51.9213 124.924C48.6504 123.193 47.0287 126.244 46.3141 129.46C46.1217 130.312 44.61 130.861 43.7029 131.548C43.2082 130.669 42.4111 129.789 42.3012 128.882C42.0813 126.711 42.2462 124.512 42.2462 122.313C37.0788 120.801 34.605 124.32 31.6365 126.711C25.0399 132.043 25.0399 140.646 22.0989 147.6C19.1304 154.609 19.8725 163.157 18.9654 171.046C18.4982 175.114 19.6801 178.165 23.7205 179.869C24.6001 180.254 25.0674 181.628 25.727 182.535C26.1118 183.002 26.4691 183.497 26.8539 183.964C19.5976 182.343 20.6421 186.081 21.3292 189.159C23.5831 199.384 26.1393 209.527 28.3107 219.779C28.9154 222.555 30.1523 223.462 32.8185 223.434C34.6875 223.407 36.5565 223.902 39.1402 224.232C31.0593 231.543 31.0593 231.57 34.4951 235.693C42.8784 230.086 54.56 231.735 58.9302 240.009C56.3191 239.789 54.2301 239.706 52.1961 239.404C46.7814 238.579 41.3941 237.645 34.7974 236.545C35.6495 239.981 36.0343 241.933 36.6115 243.829C39.635 253.889 45.9568 262.575 48.3206 272.992C50.5195 282.749 57.1711 290.281 62.5309 298.417C63.8777 300.451 65.3345 303.062 68.5778 301C69.2375 302.1 70.7218 303.584 70.4194 304.244C68.9626 307.542 70.6943 309.548 72.4259 311.967C75.2295 315.898 77.3734 320.405 83.4753 320.103C81.9911 322.22 81.0016 323.759 79.4348 326.205ZM186.273 342.009C183.8 349.788 181.628 356.495 179.512 363.229C175.526 375.79 171.953 388.488 167.528 400.885C163.652 411.687 159.09 422.269 154.417 432.769C149.359 444.175 143.78 455.335 138.585 466.659C135.479 473.393 132.483 480.21 129.789 487.109C128.443 490.517 130.009 492.606 132.813 492.249C143.56 490.874 154.307 488.923 165.109 488.373C181.738 487.548 198.395 487.686 215.051 487.411C221.785 487.301 228.492 487.081 235.226 487.054C238.469 487.026 239.734 485.432 238.854 482.518C237.04 476.471 235.391 470.287 232.89 464.515C228.959 455.417 223.984 446.732 220.136 437.606C215.106 425.677 210.653 413.501 206.063 401.407C204.442 397.119 203.067 392.721 201.583 388.351C198.834 380.243 195.893 372.217 193.392 364.053C191.496 357.869 190.204 351.465 188.527 345.225C188.252 344.291 187.345 343.521 186.273 342.009ZM281.238 322.769C269.859 322.769 260.073 322.055 250.398 322.907C231.158 324.611 212 327.194 192.788 329.311C189.379 329.696 189.352 331.675 190.039 334.039C192.485 342.422 194.821 350.86 197.625 359.133C202.408 373.206 207.575 387.169 212.495 401.187C216.838 413.611 220.906 426.117 225.386 438.486C227.255 443.653 229.646 448.656 232.148 453.521C236.573 462.151 240.778 470.754 242.125 480.567C242.4 482.601 244.626 484.387 245.946 486.284C247.65 484.332 250.728 482.491 250.866 480.429C252.13 462.426 254.136 444.588 257.517 426.804C260.211 412.539 261.063 397.944 262.547 383.458C264.031 368.836 270.051 355.67 275.301 342.229C277.692 336.155 279.176 329.668 281.238 322.769ZM297.015 483.755C297.042 483.948 297.07 484.14 297.07 484.333C307.624 483.316 318.152 482.298 328.706 481.282C332.994 480.869 333.241 480.1 331.29 476.279C330.163 474.053 329.393 471.551 328.899 469.078C327.662 463.031 326.892 456.846 325.545 450.827C324.528 446.347 323.237 441.866 321.395 437.689C318.564 431.284 314.963 425.21 312.05 418.833C307.982 409.928 304.134 400.94 300.423 391.869C297.207 383.981 293.936 376.092 291.408 367.956C288.659 359.078 286.762 349.925 284.399 340.91C284.206 340.168 283.437 339.371 282.722 339.068C282.392 338.931 281.238 339.728 281.045 340.305C278.517 347.287 275.521 354.186 273.734 361.36C271.013 372.299 268.842 383.404 266.918 394.508C264.334 409.57 262.052 424.715 259.909 439.86C258.149 452.174 256.803 464.57 255.236 476.911C255.098 478.011 254.989 479.165 254.549 480.182C252.405 485.404 252.872 486.229 258.672 485.954C271.48 485.322 284.234 484.497 297.015 483.755ZM136.578 325.023C138.502 321.89 139.767 318.894 141.856 316.722C144.192 314.331 143.89 313.012 141.553 311.005C137.843 307.844 134.709 308.202 130.614 312.599C127.563 315.87 128.965 318.729 131.466 321.34C132.648 322.549 134.242 323.374 136.578 325.023ZM241.3 255.483C241.85 255.731 242.4 255.978 242.95 256.225C245.176 254.109 247.567 252.13 249.546 249.821C250.646 248.557 251.965 246.358 251.553 245.148C250.893 243.252 248.969 241.74 247.347 240.311C247.018 240.009 245.094 240.641 244.956 241.135C243.582 245.891 242.482 250.701 241.3 255.483ZM176.846 240.586C176.543 240.119 176.241 239.651 175.939 239.184C173.465 240.751 169.452 241.905 168.902 243.994C168.132 246.825 170.029 250.371 170.771 253.614C171.348 253.559 171.926 253.504 172.53 253.477C173.96 249.161 175.416 244.874 176.846 240.586ZM85.8666 217.113C85.2069 217.168 84.5473 217.223 83.8876 217.25C84.6297 223.324 85.3718 229.371 86.114 235.446C86.7462 235.391 87.3508 235.336 87.983 235.253C87.2684 229.207 86.5538 223.16 85.8666 217.113ZM281.568 317.657C280.083 314.084 278.682 311.225 275.411 313.836C274.669 314.441 274.531 315.843 274.119 316.86C276.593 317.107 279.094 317.382 281.568 317.657Z" fill="white"/>
<path d="M210.571 234.209C211.148 231.516 210.873 228.025 212.495 226.266C216.728 221.676 221.703 217.608 228.574 217.608C229.701 217.608 230.801 218.295 231.928 218.652C231.213 219.449 230.581 220.411 229.729 221.016C224.836 224.479 218.707 226.321 215.821 232.313C215.299 233.412 213.704 234.017 212.605 234.841C211.918 234.649 211.231 234.429 210.571 234.209Z" fill="white"/>
<path d="M236.271 152.328C230.251 158.787 224.671 164.779 219.119 170.716C216.948 165.384 218.734 160.299 225.633 156.011C228.849 154.005 232.532 150.349 236.271 152.328Z" fill="white"/>
<path d="M213.402 106.783C214.831 100.324 218.762 96.1463 223.737 92.9304C225.578 91.7485 228.135 91.6111 230.361 91.0064C229.234 92.9579 228.355 95.0744 226.98 96.8335C223.984 100.654 220.796 104.31 217.552 107.91C216.92 108.625 215.546 109.45 214.941 109.202C214.172 108.955 213.842 107.553 213.402 106.783Z" fill="white"/>
<path d="M212.797 52.856C208.675 46.9465 211.918 43.1259 214.804 40.2123C217.8 37.1889 220.109 31.7466 226.595 33.7256C221.95 40.1574 217.607 46.1768 212.797 52.856Z" fill="white"/>
<path d="M214.474 283.657C213.732 285.443 213.649 286.46 213.155 286.735C207.63 289.676 202.545 293.936 195.756 293.524C194.629 293.442 193.557 292.342 192.458 291.71C193.255 290.913 193.914 289.841 194.876 289.374C198.697 287.505 202.545 285.553 206.558 284.179C208.674 283.437 211.203 283.821 214.474 283.657Z" fill="white"/>
<path d="M190.891 243.444C193.2 244.434 195.344 244.654 195.838 245.671C198.477 251.003 200.786 256.473 202.985 261.998C203.37 262.987 202.573 264.444 202.325 265.708C201.198 265.131 199.467 264.829 198.999 263.894C196.938 259.716 195.151 255.401 193.392 251.086C192.623 249.244 192.128 247.265 190.891 243.444Z" fill="white"/>
<path d="M216.426 138.283C211.533 138.503 203.672 127.013 203.067 118.74C207.987 118.273 217.113 131.604 216.426 138.283Z" fill="white"/>
<path d="M214.144 194.986C210.131 191.743 206.008 188.61 202.133 185.201C201.253 184.432 201.088 182.865 200.621 181.656C201.94 181.683 203.617 181.216 204.497 181.848C208.042 184.487 211.423 187.4 214.721 190.369C218.322 193.695 215.601 195.096 214.144 194.986Z" fill="white"/>
<path d="M209.911 76.7964C205.761 72.5361 201.556 68.3032 197.488 63.9329C197.075 63.4931 197.323 61.9814 197.79 61.4042C198.092 61.0194 199.522 61.0744 200.181 61.4317C203.205 63.0808 206.695 64.4002 208.894 66.8464C210.818 68.9904 211.286 72.4811 212.385 75.3946C211.56 75.8619 210.736 76.3292 209.911 76.7964Z" fill="white"/>
<path d="M174.922 305.783C179.567 307.377 179.319 312.599 181.436 316.008C182.013 316.942 180.419 319.196 179.814 320.845C179.044 320.873 178.247 320.9 177.478 320.955C176.021 316.173 174.537 311.362 173.08 306.58C173.685 306.305 174.289 306.058 174.922 305.783Z" fill="white"/>
<path d="M146.693 108.735C141.086 116.376 137.101 123.908 130.037 130.064C128.553 120.637 137.101 109.587 146.693 108.735Z" fill="white"/>
<path d="M107.828 242.675C117.613 243.939 124.375 248.529 128.69 256.83C124.595 258.809 109.532 248.887 107.828 242.675Z" fill="white"/>
<path d="M150.816 59.6726C149.882 61.2668 149.497 62.3387 148.755 63.0808C145.072 66.8739 141.334 70.6395 137.485 74.2677C136.633 75.0648 135.122 75.2022 133.885 75.6145C133.527 74.3501 132.703 73.0308 132.895 71.8489C133.83 66.1868 142.598 59.8375 150.816 59.6726Z" fill="white"/>
<path d="M141.196 160.574C137.623 166.099 134.105 171.623 130.477 177.01C129.982 177.753 128.607 178.495 127.81 178.33C127.013 178.165 126.024 176.983 125.804 176.103C124.265 169.342 134.737 159.227 141.196 160.574Z" fill="white"/>
<path d="M100.792 189.132C108.488 186.768 118.355 192.155 118.438 200.071C118.438 201.033 117.833 202.765 117.421 202.82C116.156 202.93 113.875 202.655 113.655 201.995C111.951 196.718 108.103 194.162 103.128 192.54C102.111 192.183 101.589 190.369 100.792 189.132Z" fill="white"/>
<path d="M148.178 216.92C144.879 221.675 141.801 226.128 138.722 230.553C138.557 230.801 138.228 230.966 137.98 231.158C136.606 232.34 135.232 233.494 133.857 234.676C133.665 232.642 132.813 230.416 133.39 228.602C135.616 221.593 141.966 216.453 148.178 216.92Z" fill="white"/>
<path d="M103.54 134.077C111.649 136.743 113.353 144.962 117.613 151.229C116.541 152.136 115.634 152.905 113.793 154.472C109.615 147.903 105.657 141.718 101.699 135.534C102.303 135.039 102.936 134.572 103.54 134.077Z" fill="white"/>
<path d="M115.552 79.1326C119.097 83.338 122.808 87.4609 126.079 91.8587C126.986 93.068 126.793 95.212 126.876 96.9436C126.903 97.5483 126.189 98.6202 125.721 98.7027C124.924 98.8127 123.605 98.5652 123.248 97.988C119.922 92.7107 116.733 87.3509 113.6 81.9912C113.38 81.6063 113.792 80.8092 113.93 80.2046C114.452 79.8197 115.002 79.4624 115.552 79.1326Z" fill="white"/>
<path d="M145.649 266.203C143.477 270.986 141.526 275.548 139.272 279.973C138.612 281.265 137.073 282.09 135.919 283.162C135.204 281.788 133.83 280.413 133.857 279.094C134.022 271.7 139.987 265.406 145.649 266.203Z" fill="white"/>
<path d="M303.969 179.099C303.419 177.78 302.237 176.268 302.594 175.636C303.996 173.245 305.59 170.826 307.652 169.04C311.417 165.769 315.513 162.883 319.526 159.914C320.625 159.09 321.89 158.32 323.182 158.045C323.539 157.963 324.941 160.574 324.748 160.766C318.646 166.511 312.407 172.118 306.195 177.698C305.755 178.137 305.151 178.412 303.969 179.099Z" fill="white"/>
<path d="M266.588 259.854C266.588 268.594 266.643 277.362 266.505 286.103C266.505 286.9 265.433 287.697 264.856 288.522C264.086 287.862 262.85 287.34 262.63 286.543C261.365 281.623 258.397 276.922 261.448 271.425C262.685 269.226 262.107 266.093 262.685 263.454C263.042 261.915 264.059 260.513 264.774 259.056C265.406 259.304 266.011 259.579 266.588 259.854Z" fill="white"/>
<path d="M295.586 194.739C296.548 195.454 298.032 195.948 298.389 196.883C299.928 201.006 301.248 205.239 302.43 209.472C303.062 211.753 303.556 214.144 303.556 216.508C303.556 217.827 302.402 219.119 301.77 220.439C300.67 219.532 298.829 218.789 298.582 217.69C296.96 210.434 295.668 203.122 294.266 195.811C294.706 195.426 295.146 195.096 295.586 194.739Z" fill="white"/>
<path d="M264.471 303.337C262.767 305.151 262.052 306.663 261.063 306.855C255.044 308.064 248.969 309.054 242.895 309.906C242.125 310.016 240.641 309.081 240.503 308.394C240.338 307.652 241.108 306.113 241.823 305.838C244.599 304.793 247.485 303.694 250.426 303.419C254.604 303.034 258.864 303.337 264.471 303.337Z" fill="white"/>
<path d="M285.223 248.777C283.327 247.76 281.815 246.935 280.276 246.111C281.485 245.121 282.557 243.499 283.904 243.225C289.154 242.07 294.459 241.273 299.763 240.531C300.451 240.421 301.66 241.246 301.907 241.905C302.1 242.4 301.33 243.829 300.725 244.022C295.668 245.671 290.528 247.155 285.223 248.777Z" fill="white"/>
<path d="M304.656 118.108C305.728 118.493 307.432 118.548 307.789 119.29C310.455 124.595 312.957 129.982 315.211 135.479C315.595 136.414 314.633 137.925 314.276 139.19C312.984 138.667 310.923 138.503 310.538 137.595C307.927 131.494 305.7 125.254 303.337 119.07C303.776 118.713 304.216 118.41 304.656 118.108Z" fill="white"/>
<path d="M49.1727 176.296C46.8089 176.296 45.1047 176.818 44.0328 176.213C36.9414 172.118 30.6471 167.088 26.5241 159.777C30.0424 157.825 43.8679 167.528 49.1727 176.296Z" fill="white"/>
<path d="M63.9052 285.663C71.3265 286.873 78.7202 288.109 86.7737 289.429C82.5958 295.558 66.5714 293.249 63.493 287.477C63.6304 286.845 63.7678 286.24 63.9052 285.663Z" fill="white"/>
<path d="M68.8802 188.747C66.1316 193.805 63.8502 198.312 61.2391 202.573C60.6069 203.617 58.7378 203.892 57.4185 204.524C57.0062 203.26 56.1541 201.968 56.2366 200.731C56.6489 194.684 61.6513 191.881 65.4719 188.28C65.8842 187.923 67.1761 188.5 68.8802 188.747Z" fill="white"/>
<path d="M77.0436 251.965C75.5318 256.281 74.295 260.403 72.5358 264.279C72.0961 265.268 69.9796 265.626 68.5503 265.873C68.2755 265.928 67.0661 263.784 67.341 263.015C68.7977 258.864 70.4469 254.769 72.3434 250.783C72.7007 249.986 74.3774 249.436 75.3944 249.491C75.9716 249.519 76.4664 251.031 77.0436 251.965Z" fill="white"/>
</svg>
