<svg width="345" height="500" viewBox="0 0 345 500" fill="none" xmlns="http://www.w3.org/2000/svg">
<path d="M189.462 94.3749C189.58 95.1986 189.698 95.9929 189.815 96.8166C190.286 97.1696 190.757 97.5521 191.227 97.9051C195.67 92.9922 199.847 87.7851 204.701 83.2841C206.613 81.519 210.026 81.3424 212.762 80.4599C213.556 82.9899 214.998 85.5199 214.998 88.0793C214.998 91.5801 213.792 95.0809 213.291 98.6112C212.85 101.73 214.262 103.23 217.469 102.465C229.736 99.4937 239.621 106.084 249.918 110.732C252.948 112.114 255.537 114.497 258.596 115.733C260.302 116.409 262.832 116.203 264.568 115.439C278.101 109.496 290.839 111.085 302.871 119.175C306.284 121.469 309.108 123.352 313.374 120.557C315.168 119.381 318.228 120.116 320.728 119.998C320.787 122.44 321.758 125.353 320.787 127.265C317.816 133.119 319.522 138.444 321.905 143.622C326.171 152.859 328.583 162.479 329.554 172.599C329.936 176.541 332.702 178.512 336.85 179.071C339.38 179.424 342.939 180.542 343.881 182.425C345.616 185.926 343.175 188.838 339.791 190.633C334.555 193.427 333.172 197.575 333.261 203.606C333.437 216.256 332.496 228.936 331.819 241.586C331.701 243.851 330.76 246.087 329.966 249.234C332.378 251.529 335.673 254 338.056 257.148C339.144 258.56 339.409 262.031 338.409 263.267C337.026 265.032 334.143 266.503 331.848 266.533C324.641 266.65 320.964 270.681 318.139 276.594C316.139 280.83 313.138 284.625 311.285 288.891C310.137 291.509 310.196 294.686 309.961 297.657C309.873 298.569 310.726 299.54 310.961 300.54C313.02 308.66 311.049 310.808 302.989 308.631C299.017 307.571 296.193 308.336 293.516 311.455C290.868 314.514 287.75 317.103 284.867 319.957C283.367 321.457 282.455 322.928 285.279 324.164C297.017 329.341 301.753 339.697 305.725 350.964C307.637 356.406 311.049 361.408 314.374 366.203C317.786 371.145 320.287 375.411 317.198 381.912C314.874 386.825 314.109 392.768 313.903 398.298C313.432 410.654 312.638 422.687 307.166 434.16C304.725 439.279 304.224 445.309 302.312 450.722C300.988 454.517 298.841 457.989 296.987 461.607C296.164 463.255 295.075 464.755 294.369 466.432C292.751 470.462 291.28 474.522 289.78 478.611C289.486 479.376 289.368 480.259 289.397 481.112C289.515 489.702 288.574 491.173 279.866 492.144C261.332 494.174 242.769 496.586 224.147 497.439C198.464 498.616 172.753 498.41 147.041 498.939C138.45 499.116 129.89 499.94 121.329 499.999C112.033 500.087 108.679 495.939 105.502 487.525C102.913 480.641 98.3235 474.169 93.4106 468.55C81.8197 455.253 71.8175 441.073 64.6393 424.952C60.5207 415.744 56.1667 406.624 52.46 397.269C50.4889 392.297 49.3417 386.943 48.4591 381.648C48.1943 380.118 50.3418 378.264 51.1361 376.44C57.1669 362.584 64.9334 349.934 75.7006 339.196C78.2012 336.696 80.2606 333.754 82.7906 331.342C84.438 329.753 86.9092 328.282 84.3204 326.252C82.6729 324.958 79.731 324.575 77.5834 324.928C74.671 325.399 72.0527 327.488 69.1403 327.9C67.2575 328.165 64.7276 327.076 63.3155 325.723C62.58 325.017 63.3154 322.31 63.9626 320.722C65.816 316.221 67.1398 312.337 61.9327 308.748C57.5493 305.718 53.9897 301.541 49.8417 298.128C48.9297 297.393 46.8999 297.481 45.6349 297.922C43.252 298.716 41.1043 300.776 38.7508 300.982C36.2208 301.188 33.3084 300.246 31.0726 298.952C30.3372 298.54 30.8373 295.274 31.4256 293.509C32.3082 290.803 34.1027 288.391 34.8676 285.684C35.4265 283.742 35.7501 281.124 34.8676 279.506C30.2488 270.857 25.6008 262.149 20.0406 254.059C18.3932 251.647 13.9217 250.529 10.5679 250.058C0.183178 248.587 -0.258173 247.969 5.7138 239.409C6.30217 238.555 6.74344 237.438 7.53774 236.967C11.9211 234.554 11.3622 231.495 10.8915 226.847C9.53825 213.432 9.42048 199.841 9.50874 186.337C9.53816 181.395 10.3914 176.894 5.89031 173.364C4.24287 172.069 2.86027 170.157 1.91887 168.245C0.918639 166.303 -0.552341 163.362 0.212543 162.038C1.24219 160.302 4.53713 158.419 6.33166 158.86C15.3926 161.008 18.8052 156.389 22.5413 148.976C26.1304 141.857 32.6613 136.267 37.6036 129.765C39.0452 127.853 39.8983 125.147 40.1336 122.705C40.4278 119.675 39.4864 116.557 39.6041 113.497C39.7512 109.761 41.781 108.584 45.0759 110.732C48.0472 112.644 51.2832 114.38 53.6661 116.91C56.3432 119.793 59.2262 119.234 62.1387 118.557C70.7877 116.527 79.5251 115.645 87.9094 118.763C94.4109 121.205 98.4706 116.645 103.501 114.88C109.355 112.82 114.974 109.79 120.976 108.437C128.566 106.76 136.391 106.231 144.158 105.436C147.864 105.054 148.659 103.348 147.158 100.317C145.305 96.5519 143.393 92.7863 141.186 89.2267C139.598 86.6672 138.451 83.6959 141.128 82.1662C143.158 81.0188 147.217 81.0483 149.012 82.3721C154.631 86.5496 159.602 91.5801 164.868 96.2577C165.31 96.6696 165.928 96.8755 167.016 97.5227C167.016 95.8752 167.222 94.7573 166.987 93.7571C165.604 87.5204 164.251 81.2836 162.633 75.1057C160.691 67.604 158.69 60.0728 156.249 52.7182C155.837 51.4532 153.101 50.5118 151.306 50.1882C144.481 48.9526 138.009 42.3922 138.127 36.0378C138.156 34.2727 139.274 32.5664 139.598 30.7719C139.892 29.1244 139.98 27.3593 139.804 25.6825C139.598 23.6232 139.009 21.6227 138.568 19.5928C140.421 19.8576 142.275 20.0929 144.099 20.4165C144.599 20.5048 145.04 20.7695 145.511 20.9461C146.57 19.0633 147.629 17.2099 149.012 14.7387C150.453 16.7392 151.66 18.2395 152.719 19.8576C153.601 21.2108 154.307 22.6523 155.102 24.0644C156.572 23.0936 158.073 22.2111 159.455 21.152C160.779 20.1223 161.956 18.9162 163.221 17.7688C163.662 19.5928 164.868 21.6227 164.398 23.2113C163.25 27.2122 162.75 30.919 164.251 35.0081C164.957 36.9498 164.898 39.7151 164.045 41.5685C160.367 49.4527 163.751 56.1895 166.251 63.5148C168.193 69.222 167.957 75.6941 168.693 81.8132C168.781 82.6663 168.605 83.5783 168.84 84.3726C169.634 87.1673 170.34 92.1979 171.488 92.3156C175.783 92.7274 173.753 87.9028 175.341 85.8729C176.959 83.8136 179.107 81.2836 181.402 80.7835C184.932 80.0186 185.226 83.6959 186.109 86.2259C187.109 89.0207 188.374 91.7272 189.521 94.4926L189.462 94.3749ZM159.75 202.518C163.339 199.958 165.751 197.752 168.546 196.369C173.37 193.957 176.048 190.78 175.842 184.984C175.636 179.189 175.636 173.187 176.871 167.539C177.989 162.45 176.665 159.596 172.635 156.801C169.487 154.654 166.692 151.888 164.192 148.976C160.926 145.151 161.868 141.562 166.457 139.797C169.605 138.591 172.929 137.65 176.224 136.855C181.961 135.473 182.814 136.12 182.755 142.18C182.608 157.801 182.049 173.423 182.166 189.044C182.372 215.815 182.314 242.586 183.608 269.327C184.432 286.155 187.521 302.865 189.492 319.633C189.904 323.016 192.081 323.252 194.64 323.134C209.32 322.516 224.029 321.928 238.709 321.192C239.974 321.133 241.386 320.516 242.386 319.692C258.478 306.836 269.01 290.067 274.894 270.651C278.601 258.472 281.395 245.792 282.749 233.142C286.279 200.37 283.219 168.304 267.951 138.444C264.009 130.736 259.92 122.734 251.271 118.675C244.681 115.615 238.386 111.938 231.766 108.967C228.913 107.702 225.265 106.436 222.441 107.113C211.556 109.731 201.583 114.438 192.61 121.469C189.462 123.941 185.815 128 180.813 125.441C176.459 123.205 172.37 120.44 168.222 117.851C159.897 112.644 150.747 109.202 141.01 109.437C123.712 109.878 108.061 115.762 94.6169 126.794C84.1439 135.414 77.0244 146.711 74.4062 159.802C72.1409 171.128 71.9056 182.954 71.4643 194.575C71.1995 201.547 72.4058 208.548 72.7 215.55C73.4061 233.819 76.3184 251.676 84.7321 268.003C89.5273 277.329 95.4406 286.272 101.913 294.539C107.973 302.247 115.063 309.248 122.417 315.809C126.418 319.368 131.743 323.369 136.656 323.605C151.012 324.281 165.457 323.134 179.872 322.751C182.961 322.663 185.285 321.84 185.432 318.221C185.579 314.573 185.314 311.249 180.666 310.631C178.813 310.396 176.93 310.101 175.106 309.66C171.399 308.778 171.017 305.895 172.517 303.335C174.282 300.335 177.048 297.922 179.195 295.127C180.284 293.745 181.667 292.097 181.755 290.479C182.314 281.242 177.695 274.446 169.134 270.386C167.075 269.416 164.398 267.268 164.221 265.444C164.045 263.62 166.398 261.296 168.046 259.56C170.929 256.471 175.606 254.912 175.43 249.47C175.106 239.526 175.312 229.524 174.577 219.61C174.371 216.697 172.135 213.608 170.046 211.284C167.251 208.343 163.692 205.871 159.75 202.518ZM254.625 325.487C254.595 324.693 254.595 323.869 254.566 323.075C256.507 322.457 258.42 321.486 260.391 321.281C263.627 320.986 266.951 320.869 270.158 321.251C276.247 321.987 280.513 319.28 284.573 315.161C295.84 303.718 305.695 291.274 312.844 276.858C320.287 261.855 326.877 246.293 327.759 229.495C328.436 216.786 327.288 203.841 325.612 191.192C323.788 177.394 320.934 163.656 317.61 150.123C314.433 137.091 306.696 126.824 294.457 120.881C286.22 116.88 277.365 114.585 268.392 119.351C267.216 119.969 265.568 121.411 265.627 122.352C265.98 126.647 272.011 130.707 276.424 130.001C277.277 129.854 278.13 129.707 278.983 129.677C285.367 129.442 287.338 132.501 284.426 138.12C283.867 139.179 283.455 140.356 282.661 141.209C279.424 144.651 279.63 148.476 280.748 152.712C283.249 162.214 285.543 171.775 287.691 181.395C288.368 184.455 289.368 186.573 292.898 186.426C295.869 186.308 299.106 187.073 299.047 190.309C299.017 192.898 297.399 195.987 295.516 197.87C292.28 201.135 289.897 204.106 290.015 209.225C290.162 215.491 289.162 221.816 288.485 228.082C287.838 234.054 285.691 240.203 293.281 243.88C295.193 244.792 296.575 247.381 297.487 249.499C298.046 250.823 297.811 253.294 296.899 254.206C295.605 255.53 293.369 256.471 291.486 256.56C286.132 256.766 282.925 259.354 281.307 264.238C279.424 269.857 277.748 275.564 275.688 281.124C274.247 285.007 275.718 287.979 277.483 291.215C278.689 293.421 279.13 296.069 279.925 298.511C277.395 298.981 274.865 299.511 272.335 299.952C270.069 300.335 267.039 299.864 265.627 301.158C258.89 307.483 252.83 314.603 245.975 320.81C243.063 323.458 238.827 325.782 235.032 326.105C221.352 327.282 207.614 327.547 193.905 328.194C173.194 329.194 152.454 329.959 131.772 331.371C118.505 332.283 105.325 334.901 91.9986 331.901C91.0278 331.695 89.4685 332.695 88.6154 333.548C86.8503 335.343 85.5264 337.578 83.7907 339.402C81.4372 341.874 81.3785 343.315 84.6734 345.168C86.1443 345.992 86.9974 348.787 87.2033 350.787C87.6446 355.024 87.115 359.407 87.6445 363.614C88.2623 368.409 90.8806 369.556 94.7051 366.791C96.9409 365.173 98.8531 362.849 100.412 360.525C104.237 354.847 107.296 348.581 111.621 343.374C113.356 341.285 117.769 340.285 120.682 340.756C122.741 341.079 124.859 344.404 125.889 346.845C127.477 350.552 128.066 354.671 129.242 358.583C130.243 361.908 132.126 363.29 135.156 360.466C137.274 358.495 139.451 356.583 141.422 354.494C144.776 350.905 148.659 351.17 151.836 354.641C153.601 356.553 156.366 358.672 158.691 358.672C162.368 358.672 163.191 355.112 163.397 351.817C163.456 350.787 163.574 349.758 163.721 348.758C164.486 343.021 166.928 340.373 171.517 340.373C177.077 340.373 181.431 344.139 181.872 349.464C182.137 352.67 182.196 355.877 182.343 359.083C186.873 360.054 188.286 357.377 189.256 354.288C190.521 350.228 191.581 346.08 192.904 342.05C194.817 336.166 199.729 334.137 204.789 337.578C207.584 339.461 209.673 342.462 211.85 345.139C213.233 346.816 214.027 348.993 215.41 350.64C220.646 356.789 224.412 356.083 227.412 348.581C228.383 346.198 229.001 343.315 230.737 341.756C233.061 339.667 236.179 338.079 239.239 337.343C242.386 336.578 245.299 338.049 246.564 341.491C247.858 344.963 248.917 348.581 250.477 351.935C251.183 353.465 252.859 354.582 254.095 355.877C254.801 354.318 255.537 352.817 256.154 351.229C257.066 348.934 257.213 345.816 258.831 344.433C264.391 339.667 267.834 342.021 270.864 348.287C273.129 352.964 273.717 358.466 275.835 363.232C276.836 365.467 279.483 367.438 281.866 368.439C283.043 368.939 286.661 366.997 286.691 366.115C286.75 363.908 285.544 361.555 284.514 359.436C283.102 356.553 280.984 353.994 279.807 351.023C278.159 346.904 277.453 341.932 281.043 339.049C282.984 337.461 287.279 338.814 290.515 338.785C290.957 338.785 291.398 338.579 293.339 338.079C289.662 335.284 286.985 332.842 283.955 331.018C276.865 326.752 268.834 327.223 260.95 326.87C258.89 326.723 256.772 325.958 254.625 325.487ZM312.697 376.676C307.96 377.176 304.018 377.235 300.253 378.058C294.487 379.323 288.927 381.971 283.131 382.53C264.009 384.383 244.858 386.384 225.677 386.825C202.171 387.384 178.636 386.354 155.102 386.178C123.153 385.913 91.2043 385.796 59.2557 385.648C54.8723 385.619 53.6074 388.031 55.6372 392.532C58.7262 399.387 61.9916 406.183 64.9629 413.067C70.7289 426.511 78.3483 438.837 87.1444 450.458C93.9107 459.401 100.706 468.315 107.62 477.17C110.679 481.082 115.122 481.877 119.299 479.582C118.858 479.053 118.505 478.405 117.975 478.082C106.737 471.168 100.5 460.254 94.8521 448.957C91.4101 442.073 87.9388 435.101 85.5559 427.805C83.4672 421.421 82.4375 414.596 81.7902 407.86C81.349 403.182 85.7912 398.21 89.8804 397.239C98.5883 395.18 106.943 399.387 110.944 407.448C113.886 413.361 117.416 418.98 120.446 424.863C123.447 430.659 126.918 436.366 128.831 442.544C132.273 453.723 134.95 465.137 137.421 476.581C138.274 480.553 140.451 481.582 143.687 481.641C148.159 481.73 152.63 481.2 157.073 481.524C163.515 481.994 164.192 479.141 161.926 473.375C158.72 465.196 155.043 457.224 151.748 449.075C149.6 443.721 147.158 438.367 145.923 432.777C143.658 422.628 141.334 412.302 148.247 402.682C152.042 397.445 159.279 393.915 162.809 395.474C170.134 398.71 175.547 404.182 177.489 411.743C179.754 420.627 181.137 429.835 181.902 438.984C182.873 450.605 182.902 462.313 183.255 473.992C183.373 478.435 185.167 480.582 189.904 480.229C194.522 479.876 199.171 479.906 203.819 479.965C207.084 479.994 208.261 478.729 208.349 475.375C208.849 456.047 207.82 436.66 211.615 417.479C212.674 412.125 214.174 407.448 217.734 403.27C224.765 395.033 232.884 395.886 238.591 405.065C242.71 411.713 243.269 418.891 243.21 426.187C243.063 440.279 242.475 454.341 242.21 468.432C242.063 476.552 242.18 476.552 250.065 475.64C252.124 475.405 254.183 475.228 256.242 475.228C259.155 475.228 260.479 474.11 260.744 471.021C262.185 453.458 263.803 435.895 265.362 418.303C266.363 406.859 271.57 397.622 280.542 390.738C288.897 384.325 299.723 388.09 302.018 398.24C304.725 410.272 301.93 422.098 299.4 433.807C298.105 439.72 296.075 445.486 294.369 451.34C294.957 451.517 295.516 451.723 296.105 451.899C296.664 450.487 297.37 449.104 297.782 447.663C298.87 443.721 299.841 439.72 300.871 435.748C303.636 425.069 307.725 414.714 307.137 403.358C306.96 400.24 308.078 397.004 308.784 393.886C309.902 388.532 311.196 383.148 312.697 376.676ZM88.5565 123.852C79.2308 122.146 70.4936 122.264 61.8151 124.176C57.873 125.029 53.9014 126.382 50.3418 128.236C42.2811 132.501 36.6033 139.179 31.4551 146.711C20.4525 162.803 15.5691 180.777 14.6277 199.782C13.9217 214.197 17.0399 228.465 21.8351 241.88C25.9243 253.353 31.9552 264.267 38.1037 274.887C42.1929 281.977 47.3705 288.655 53.1071 294.51C60.6089 302.158 68.9638 308.984 77.2598 315.838C85.7912 322.869 94.3226 329.988 106.826 327.37C110.974 326.517 115.386 327.047 119.681 326.841C120.917 326.782 122.153 326.311 124.918 325.664C121.888 322.722 119.387 321.016 117.828 318.662C114.21 313.249 109.326 313.573 103.854 314.338C101.471 314.661 98.912 313.749 96.4408 313.396C96.8821 311.013 96.9409 308.454 97.8823 306.277C99.2356 303.129 100.618 300.629 96.9703 297.863C94.6463 296.098 93.2047 293.186 91.3513 290.803C85.2616 282.948 81.6432 271.828 68.4048 273.416C68.2577 273.446 68.0224 273.387 67.9048 273.269C65.9043 271.445 62.2563 269.592 62.3152 267.798C62.374 265.15 64.4627 261.826 66.6985 260.09C71.0819 256.707 71.4056 252.765 70.6701 247.881C68.9638 236.761 67.3751 225.582 66.1395 214.403C65.2864 206.548 62.4328 202.9 54.5781 200.635C53.3131 200.282 51.6657 198.605 51.5775 197.458C51.4892 196.252 52.9012 194.692 54.0485 193.78C55.0488 192.986 56.6079 192.898 57.9024 192.457C63.0506 190.691 65.8454 187.808 65.9925 181.66C66.169 173.893 67.787 166.156 68.9638 158.449C69.4933 154.977 70.0228 151.918 66.6985 149.241C64.5509 147.505 62.9919 144.916 61.521 142.504C59.7853 139.65 61.1972 136.708 64.4921 136.532C67.5516 136.385 70.6406 137.179 73.7001 137.002C75.7006 136.885 78.2013 136.385 79.4663 135.09C82.6729 131.825 85.2322 128.059 88.5565 123.852ZM55.1959 377.705C55.3724 378.323 55.5783 378.941 55.7549 379.559C60.4618 379.765 65.1393 380.118 69.8463 380.147C108.149 380.235 146.452 379.735 184.726 380.471C216.998 381.089 249.182 381.118 281.278 377.441C291.721 376.234 302.106 374.205 313.668 372.351C310.49 368.556 307.813 365.909 305.783 362.82C301.341 356.053 298.252 348.257 290.633 344.139C288.574 343.021 286.191 342.491 283.925 341.697C283.631 343.815 283.072 345.933 283.19 348.022C283.278 349.434 284.131 350.935 284.985 352.2C286.75 354.847 288.838 357.289 290.633 359.937C292.574 362.761 293.398 365.732 290.839 368.733C287.779 372.263 283.925 373.763 279.424 372.528C275.276 371.41 272.57 368.762 271.364 364.379C270.128 359.848 268.569 355.377 266.686 351.082C266.127 349.787 264.039 349.111 262.656 348.169C262.097 349.67 261.42 351.14 261.008 352.67C260.391 354.877 260.567 357.642 259.273 359.231C258.037 360.76 255.007 362.202 253.36 361.731C250.094 360.76 246.976 359.025 245.887 354.818C244.769 350.434 242.651 346.286 240.974 342.05C240.092 341.991 239.239 341.932 238.356 341.874C236.826 344.374 235.414 346.992 233.737 349.375C231.178 353.023 231.855 359.289 225.677 359.995C219.793 360.672 214.409 359.642 210.791 354.171C209.202 351.758 207.584 349.375 205.701 347.228C204.466 345.816 202.142 343.55 201.377 343.903C199.671 344.727 198.229 346.757 197.435 348.61C195.934 352.17 195.111 355.995 193.787 359.613C191.992 364.526 187.168 367.35 181.99 366.556C176.577 365.703 175.636 361.584 175.371 357.054C175.224 354.641 175.283 352.229 174.871 349.875C174.724 349.022 173.459 348.346 172.694 347.61C171.958 348.375 171.017 349.052 170.517 349.934C170.134 350.611 170.311 351.611 170.223 352.464C169.193 364.379 159.573 368.998 149.777 362.202C148.571 361.378 147.512 360.319 146.276 359.289C144.128 361.349 142.246 363.261 140.216 365.026C134.744 369.88 129.331 369.556 125.3 363.261C123.153 359.878 122.829 355.377 121.476 351.464C120.77 349.434 119.652 347.551 118.093 344.315C115.004 348.346 112.68 350.993 110.797 353.906C108.032 358.171 105.796 362.79 102.884 366.938C99.9417 371.145 95.9996 373.793 90.3806 373.263C86.0561 372.881 83.7907 369.88 82.7317 366.556C81.6726 363.261 82.0845 359.466 81.8491 355.877C81.702 353.582 81.496 351.288 81.2018 347.404C67.2868 354.553 62.6094 367.321 55.1959 377.705ZM299.076 410.154C298.694 410.066 298.282 409.948 297.899 409.86C297.782 407.801 297.87 405.712 297.517 403.711C296.311 396.475 289.721 391.915 285.102 395.415C278.307 400.534 273.511 407.183 272.335 415.92C271.04 425.717 269.775 435.542 268.51 445.339C267.451 453.605 266.215 461.872 265.48 470.168C265.362 471.492 267.333 474.228 268.304 474.198C271.982 474.11 275.718 473.345 279.307 472.404C280.513 472.08 281.778 470.58 282.308 469.315C284.484 463.99 286.867 458.695 288.338 453.164C292.163 438.867 295.546 424.481 299.076 410.154ZM238.003 477.876C238.003 458.43 238.209 439.426 237.827 420.421C237.768 416.891 235.708 413.273 234.09 409.948C230.707 402.976 225.029 402.329 221.529 409.007C218.91 414.008 217.292 419.892 216.733 425.511C215.056 442.015 214.174 458.607 212.909 475.169C212.674 478.288 213.909 479.759 216.969 479.523C223.97 479.053 230.943 478.464 238.003 477.876ZM87.5269 410.419C89.3214 417.185 90.1746 423.187 92.4692 428.541C96.9408 439.014 101.971 449.281 107.326 459.313C109.591 463.519 113.092 467.138 116.445 470.668C119.593 474.022 123.094 477.081 126.771 479.847C128.331 481.024 130.713 481.112 132.714 481.671C132.92 480.141 133.567 478.552 133.273 477.14C132.008 471.198 130.713 465.255 129.007 459.43C127.154 453.135 125.359 446.722 122.565 440.779C118.77 432.718 114.18 425.04 109.738 417.303C107.62 413.655 105.325 410.036 102.589 406.83C99.7356 403.447 95.6171 401.858 91.6161 404.212C89.6157 405.388 88.7331 408.448 87.5269 410.419ZM179.401 468.579C179.342 468.579 179.254 468.579 179.195 468.579C178.519 457.106 178.548 445.545 176.96 434.219C175.783 425.952 173.106 417.715 169.987 409.919C166.957 402.388 157.955 400.152 153.954 405.741C151.336 409.389 149.424 414.861 149.983 419.156C151.159 428.188 153.748 437.102 156.514 445.81C159.808 456.253 163.956 466.403 167.546 476.728C169.046 481.024 172.223 481.7 176.048 481.435C179.813 481.171 179.519 478.435 179.431 475.758C179.342 473.375 179.401 470.962 179.401 468.579ZM110.915 487.76C112.886 494.85 122.506 496.204 128.566 494.733C131.684 493.968 134.891 493.056 138.039 493.026C164.662 492.791 191.316 493.468 217.881 492.467C239.033 491.673 260.126 488.908 281.278 487.084C284.396 486.819 284.955 485.378 284.337 482.612C283.573 479.17 282.278 477.258 278.13 477.817C259.508 480.288 240.886 482.7 222.235 484.671C208.967 486.084 195.64 487.378 182.284 487.643C158.661 488.113 135.009 487.76 110.915 487.76ZM209.938 85.3728C207.525 87.5498 205.996 88.7853 204.642 90.1974C200.318 94.6691 196.111 99.229 191.786 103.701C189.256 106.348 187.256 105.289 185.697 102.553C184.138 99.8173 182.667 97.0226 180.578 93.1687C179.431 95.8458 178.666 97.758 177.813 99.6408C173.871 108.231 171.811 109.467 165.486 107.113C164.927 111.85 169.134 115.645 178.813 118.763C179.048 116.851 178.901 114.88 179.607 113.291C180.284 111.791 181.843 110.702 183.02 109.437C183.902 110.732 185.138 111.938 185.55 113.379C186.05 115.086 185.844 116.998 186.02 120.293C190.757 114.939 198.641 114.438 198.582 106.113C198.582 104.907 199.318 103.495 200.141 102.494C201.142 101.259 202.554 100.376 203.789 99.3466C204.466 100.7 205.054 102.112 205.819 103.406C206.26 104.171 206.937 104.789 207.525 105.495C208.055 104.76 209.026 104.054 209.085 103.289C209.438 97.8463 209.614 92.4038 209.938 85.3728ZM144.717 34.155C144.658 38.9797 150.336 45.0987 153.601 43.8337C156.102 42.8629 158.367 39.7445 159.426 37.0674C160.426 34.5374 153.866 27.6241 151.306 28.2419C147.806 29.0362 144.805 30.919 144.717 34.155ZM154.131 106.584C154.543 106.466 154.954 106.348 155.366 106.26C156.455 103.818 157.543 101.347 158.396 99.4349C155.984 96.5224 153.601 93.6689 151.218 90.7858C150.63 91.1683 150.071 91.5507 149.482 91.9332C151.012 96.7872 152.571 101.671 154.131 106.584ZM179.548 147.152C177.577 145.622 176.312 143.828 175.018 143.798C173.694 143.769 172.311 145.504 170.958 146.446C172.576 148.27 174.194 150.123 175.812 151.947C176.812 150.682 177.813 149.388 179.548 147.152ZM75.1416 261.62C74.4944 261.531 73.8473 261.473 73.2001 261.384C72.2587 263.238 71.2879 265.091 70.3466 266.944C72.3764 267.621 74.4356 268.327 77.907 269.474C76.5831 265.768 75.8771 263.679 75.1416 261.62ZM288.456 465.108C287.985 465.961 287.632 466.432 287.456 466.991C286.838 468.874 286.279 470.756 285.691 472.639C286.367 472.757 287.573 473.051 287.603 472.963C288.279 470.904 288.868 468.815 289.368 466.697C289.427 466.344 288.927 465.902 288.456 465.108ZM172.576 207.548C173.37 207.313 174.135 207.078 174.93 206.842C174.547 204.959 174.165 203.047 173.753 201.164C172.782 201.606 170.929 202.194 170.987 202.459C171.282 204.195 171.988 205.842 172.576 207.548Z" fill="white"/>
<path d="M189.609 94.4925C190.61 85.1963 191.551 75.8706 192.61 66.5743C192.787 64.8974 193.257 63.2206 193.64 61.5731C195.581 53.1594 197.641 44.7457 199.435 36.2731C199.7 34.9787 199.259 33.1548 198.464 32.0663C195.964 28.6537 192.875 25.4765 193.699 20.7989C194.052 18.7396 194.875 16.5038 196.199 14.9741C198.906 11.8557 201.465 9.03151 200.759 4.32454C200.553 3.03012 202.289 1.47093 203.112 -1.12357e-06C204.083 1.20616 205.172 2.32408 205.996 3.6185C207.113 5.41303 208.055 7.29583 209.526 10.0612C210.82 7.64885 211.32 5.67778 212.585 4.70697C213.939 3.6479 216.057 3.55965 217.822 3.03011C217.822 4.47162 218.381 6.26617 217.733 7.29582C214.586 12.2381 217.939 14.2974 221.499 16.5333C223.411 15.4448 225.382 14.3269 227.736 13.003C229.53 17.0922 229.324 20.0929 225.324 21.7992C222.117 23.1819 220.764 25.2706 220.528 28.8302C220.116 34.714 216.616 38.0971 210.879 37.6852C205.407 37.2734 203.524 39.9799 202.759 44.5692C200.847 56.013 199.229 67.5451 196.876 78.9007C195.728 84.4608 195.228 90.7564 189.55 94.3454C189.462 94.3749 189.609 94.4925 189.609 94.4925ZM198.582 21.7109C200.965 24.3292 203.054 27.5652 205.996 29.4774C207.908 30.713 211.144 30.4188 213.615 29.9776C214.262 29.8599 214.321 26.5944 214.645 24.7411C214.851 23.6231 215.145 22.5346 215.145 21.4167C215.174 20.1812 215.38 18.5631 214.703 17.7394C210.026 11.9734 204.466 12.3852 200.582 18.5631C200.053 19.4163 199.494 20.2694 198.582 21.7109Z" fill="white"/>
<path d="M219.646 297.363C220.117 292.45 220.234 288.832 220.882 285.302C221.735 280.653 224.588 279.683 228.06 282.742C231.649 285.89 235.591 288.802 238.474 292.509C241.151 295.951 239.533 298.275 235.238 299.099C232.355 299.658 229.531 300.599 226.795 301.629C223.441 302.894 219.646 299.982 219.646 297.363Z" fill="white"/>
<path d="M223.794 261.384C223.794 255.53 223.5 249.97 223.911 244.439C224.176 241.027 230.972 240.321 234.826 243.204C237.915 245.528 240.945 247.911 243.916 250.382C247.329 253.206 243.798 255.089 242.357 255.736C237.385 258.001 232.119 259.59 226.942 261.355C226.177 261.59 225.294 261.384 223.794 261.384Z" fill="white"/>
<path d="M122.593 198.399C123.182 209.607 123.182 209.608 113.533 206.989C109.826 205.989 106.09 205.106 102.501 203.753C101.618 203.43 100.618 201.135 100.971 200.252C102.736 195.869 111.12 188.838 115.739 189.132C122.005 189.544 122.535 189.603 122.593 195.722C122.623 197.105 122.593 198.458 122.593 198.399ZM110.208 198.752C114.886 201.429 116.769 199.134 117.975 195.251C113.297 192.368 112.209 192.839 110.208 198.752Z" fill="white"/>
<path d="M218.763 145.151C218.645 141.239 220.293 139.474 224.117 140.356C228.147 141.298 232.442 141.915 236.031 143.769C237.591 144.563 238.62 148.299 238.267 150.417C237.679 153.948 229 158.831 225.411 157.919C223.735 157.507 221.705 156.007 221.057 154.506C219.851 151.594 219.498 148.299 218.763 145.151Z" fill="white"/>
<path d="M107.237 142.621C113.915 137.708 120.24 136.238 127.036 136.767C127.918 136.826 129.478 138.826 129.36 139.709C128.83 143.269 127.654 146.74 126.918 150.27C125.741 155.801 122.417 157.389 117.857 153.742C114.092 150.77 111.15 146.799 107.237 142.621Z" fill="white"/>
<path d="M128.772 256.265C128.684 261.62 125.624 264.15 121.947 263.179C118.181 262.179 114.474 261.031 110.768 259.913C107.59 258.972 107.326 256.677 108.914 254.383C111.121 251.235 113.415 247.999 116.328 245.557C118.181 243.998 121.182 243.498 123.741 243.38C124.418 243.351 125.359 246.41 126.006 248.116C127.124 251.235 128.125 254.412 128.772 256.265ZM115.445 252.529C117.446 253.853 118.711 254.677 121.505 256.53C121.064 253.265 120.799 251.5 120.564 249.734C119.093 250.499 117.652 251.294 115.445 252.529Z" fill="white"/>
<path d="M222.941 195.545C223.5 195.251 225.471 193.339 226.53 193.751C231.148 195.575 235.62 197.84 239.886 200.37C242.739 202.047 242.651 205.077 240.062 206.636C235.973 209.107 231.443 210.931 226.942 212.608C226.324 212.844 224.029 210.667 223.823 209.402C223.235 205.401 223.235 201.311 222.941 195.545Z" fill="white"/>
<path d="M132.743 288.391C135.067 291.303 137.597 293.833 139.274 296.804C140.333 298.687 140.745 301.452 140.216 303.512C139.921 304.63 137.038 305.1 135.303 305.747C134.508 306.042 133.626 306.13 132.802 306.1C130.419 305.983 128.007 305.777 125.624 305.6C125.889 302.806 125.595 299.775 126.565 297.275C127.624 294.598 129.89 292.362 132.743 288.391Z" fill="white"/>
</svg>
