<svg width="386" height="500" viewBox="0 0 386 500" fill="none" xmlns="http://www.w3.org/2000/svg">
<path d="M20.6244 187.463C20.6244 183.87 20.3774 181.13 20.6918 178.458C21.1185 174.775 21.3879 170.8 25.1832 168.711C26.1488 168.172 27.8107 167.993 28.7314 168.464C35.8278 172.08 39.5107 178.66 42.7445 185.487C47.5503 195.637 47.5503 206.753 48.4486 217.578C48.8752 222.765 50.0205 226.201 55.208 227.773C58.6215 228.806 61.9451 230.221 65.673 231.591C65.673 229.817 65.6954 228.447 65.673 227.054C65.5158 221.013 66.9305 215.691 72.3202 212.121C74.9476 210.369 73.7799 207.809 72.8142 206.169C68.1207 198.107 63.1803 190.158 58.105 182.32C51.9967 172.888 45.4618 163.748 39.4658 154.249C33.1554 144.278 26.8225 134.262 21.2757 123.842C17.997 117.689 15.3695 110.728 17.0538 103.541C19.1647 94.4912 26.6204 91.7739 35.7155 95.6141C38.6124 96.8267 41.2623 98.6457 44.3389 100.375C44.8554 91.6167 45.327 83.6445 45.8211 75.6723C41.7115 74.8414 37.1751 73.8758 32.6164 73.0449C29.0457 72.3936 26.7102 70.3051 25.812 66.959C24.8239 63.2087 26.1712 59.7504 29.158 57.5721C31.8978 55.5959 35.1091 56.1124 38.0285 57.9538C38.7022 58.3805 39.6679 58.3131 40.4988 58.4928C40.5437 57.5721 40.5437 56.6513 40.611 55.7306C40.8581 51.8905 40.7907 47.983 41.5543 44.2551C41.8462 42.8403 44.2491 40.6845 45.3944 40.8641C47.3706 41.1785 49.3019 42.8179 50.8964 44.3225C51.8171 45.1983 52.0416 46.8152 52.895 48.8588C54.2424 47.2194 55.4551 46.1415 56.1961 44.7941C57.6109 42.3014 59.138 40.1006 62.3718 40.2803C65.7403 40.4824 67.3797 42.9526 68.2106 45.6924C70.5237 53.2154 69.8724 60.7834 67.1327 68.0145C66.2793 70.2602 66.3467 71.3606 67.8513 73.0898C75.6663 82.0052 79.7534 92.8069 83.0546 103.99C85.5922 112.569 88.5341 121.058 90.6226 129.749C93.3175 140.977 96.8432 152.138 96.2369 163.95C96.1246 166.129 97.2474 166.69 99.3583 167.476C104.434 169.363 109.441 171.698 114.023 174.573C117.84 176.975 121.007 180.434 124.465 183.398C124.847 183.196 125.251 182.994 125.633 182.792C124.128 179.288 122.646 175.785 121.142 172.282C120.827 171.586 120.333 170.957 120.108 170.216C116.875 159.661 113.955 149.017 110.407 138.574C107.712 130.692 104.029 123.146 101.177 115.309C99.2685 110.076 98.1457 104.552 96.439 99.2296C91.9925 85.5085 90.2633 71.4504 91.5883 57.1005C92.4192 47.9381 94.8445 39.0676 100.728 31.8814C105.714 25.7955 113.282 24.0439 120.603 31.0055C121.793 32.1284 122.714 33.5656 124.061 35.2724C125.341 31.3199 125.88 28.0862 127.407 25.4362C128.732 23.1456 130.955 21.1919 133.178 19.6873C135.042 18.4297 137.513 18.0928 139.669 17.1946C149.055 13.2871 157.32 17.6886 163.338 24.8074C169.424 31.9937 171.872 40.5722 171.782 49.7346C171.67 61.255 171.198 72.7978 170.412 84.2733C169.873 91.9087 168.503 99.4991 167.425 107.718C174.23 107.516 178.227 110.907 181.101 115.466C183.078 118.587 184.066 122.315 185.593 125.706C186.648 128.064 187.883 130.332 189.455 133.499C191.342 129.052 192.891 125.953 193.947 122.72C195.811 116.926 200.459 113.872 205.288 111.311C211.373 108.078 218.066 106.595 224.982 107.629C228.867 108.212 229.272 106.73 228.912 103.294C228.306 97.478 227.677 91.5494 228.171 85.7555C229.182 74.0554 233.246 63.321 238.838 52.901C242.723 45.6699 247.147 39.2697 253.323 34.0372C255.254 32.3979 257.5 31.1403 259.701 29.6357C256.444 24.493 252.649 19.7996 250.359 14.4773C248.832 10.9291 248.854 6.39279 249.326 2.44037C249.685 -0.68114 254.828 -0.815881 257.275 2.08106C258.937 4.03481 260.487 6.10085 262.148 8.07706C263.631 9.87361 264.956 9.8736 265.921 7.56054C266.168 6.95421 266.325 6.25804 266.752 5.80891C268.841 3.5183 270.727 0.509074 274.41 1.38489C277.868 2.2158 279.238 5.02292 279.53 8.43637C279.575 9.04271 279.934 9.60413 280.069 9.96344C283.101 9.6715 285.908 9.0427 288.67 9.22236C292.914 9.49184 295.632 13.8709 292.578 17.5314C288.446 22.4495 284.538 27.5921 280.9 32.8695C279.889 34.3292 279.395 36.9117 279.957 38.5062C283.617 48.9935 285.212 59.7279 284.92 70.7992C284.897 71.5627 285.032 72.3487 285.189 74.4597C288.648 71.8098 291.387 69.4742 294.352 67.4756C300.752 63.1863 307.085 58.7623 313.777 54.9671C318.066 52.5417 322.243 54.1811 327.049 59.6381C327.812 55.8204 328.307 52.7888 329.048 49.802C332.102 37.8325 335.291 25.8854 345.441 17.509C351.168 12.7705 355.951 14.2752 357.905 21.394C358.466 23.3927 359.207 25.3689 359.477 27.39C359.746 29.4336 359.544 31.5221 359.544 34.7559C363.092 32.6449 365.877 31.1852 368.437 29.3887C374.343 25.2566 380.249 29.3213 383.348 34.8681C389.591 45.9843 383.438 56.8984 376.005 64.5113C367.269 73.4716 357.95 81.848 348.675 90.2469C345.958 92.7171 342.454 94.2667 339.557 96.5573C338.524 97.3657 337.649 99.0949 337.671 100.397C337.851 112.075 335.403 123.371 330.844 133.858C325.791 145.491 319.346 156.562 312.991 167.588C308.23 175.83 302.706 183.623 297.451 191.572C291.837 200.039 286.132 208.415 280.496 216.859C279.957 217.69 279.755 218.745 279.35 219.823C279.957 219.98 280.339 220.227 280.63 220.115C290.759 216.702 298.327 221.732 299.652 232.466C300.909 242.617 298.327 251.285 292.218 259.684C284.852 269.79 275.915 277.897 266.101 285.397C261.362 289.013 257.343 293.617 253.188 297.951C252.245 298.939 251.728 300.668 251.616 302.105C251.167 307.989 251.01 313.895 250.583 319.779C250.426 321.822 249.483 323.821 249.37 325.842C249.281 327.504 249.775 329.233 250.156 330.918C250.628 333.051 252.29 335.005 249.034 336.891C247.574 337.744 246.721 340.686 246.631 342.73C246.361 350.186 246.81 357.664 246.451 365.119C246.114 372.081 244.969 378.998 244.363 385.937C243.801 392.405 243.554 398.917 242.993 405.385C242.611 409.854 242.005 414.322 241.353 418.769C240.859 422.115 240.208 425.439 239.445 428.717C237.985 434.893 236.39 441.046 234.886 447.222C234.526 448.749 234.167 450.298 234.032 451.848C233.022 463.705 232.056 475.562 231.091 487.42C230.686 492.27 229.002 493.775 224.286 494C217.212 494.359 210.116 494.561 203.109 495.459C198.416 496.066 193.924 498.087 189.253 498.895C184.897 499.636 180.383 499.861 175.936 499.883C160.733 500.018 145.552 500.018 130.349 499.973C129.473 499.973 128.62 499.254 127.744 498.85C128.238 498.199 128.597 497.233 129.271 496.941C130.888 496.223 132.617 495.369 134.301 495.325C148.314 495.077 162.35 495.257 176.341 494.786C183.347 494.539 190.286 492.989 197.293 492.45C205.265 491.844 213.26 491.597 221.254 491.372C227.677 491.192 228.306 490.721 228.306 484.455C228.306 482.097 228.351 479.739 228.351 477.381C228.351 474.574 227.408 474.215 224.443 474.664C215.281 476.101 207.039 481.895 197.27 480.189C189.478 478.841 182.179 481.356 174.746 483.041C172.972 483.445 171.108 483.625 169.289 483.647C155.388 483.737 141.488 483.804 127.609 483.759C124.757 483.759 122.983 483.984 124.061 487.622C124.757 489.98 124.892 492.54 125.004 495.01C125.049 495.796 124.218 496.605 123.791 497.413C123.208 496.739 122.264 496.155 122.062 495.392C120.176 487.599 119.165 479.47 116.358 472.014C113.753 465.098 113.596 458.136 112.788 451.084C112.024 444.527 110.362 438.082 109.127 431.592C108.858 430.177 108.723 428.74 108.543 427.325C107.263 417.758 106.208 408.147 104.658 398.603C102.996 388.34 100.885 378.144 98.999 367.904C96.2143 352.768 93.7216 337.587 90.5777 322.541C89.4099 316.994 87.546 311.268 84.5367 306.574C81.7072 302.173 76.7218 299.231 73.0388 295.323C67.4021 289.35 61.743 283.354 56.6677 276.909C51.1209 269.88 45.9558 262.514 41.1949 254.946C38.3429 250.41 36.5913 245.2 34.2333 240.326C32.9757 237.721 32.01 234.667 30.0114 232.781C19.1198 222.496 11.5069 209.83 3.64699 197.344C2.03009 194.761 1.26658 191.617 0.300935 188.675C-0.821911 185.329 1.40133 182.635 3.6021 181.422C5.57831 180.322 8.94683 180.591 11.2374 181.467C14.2691 182.837 16.9864 185.15 20.6244 187.463ZM206.725 298.961C204.861 303.408 205.49 305.541 208.881 305.406C214.472 305.182 220.019 304.418 225.589 303.745C226.352 303.655 227.25 302.936 227.7 302.263C230.978 297.21 234.19 292.112 237.378 287.014C240.769 281.602 244.25 276.257 247.484 270.756C251.639 263.659 255.816 256.585 259.588 249.264C264.125 240.461 267.65 231.074 272.636 222.563C279.777 210.391 287.637 198.601 295.564 186.924C303.694 174.954 311.621 162.917 318.178 149.96C322.715 140.955 327.363 132.039 329.587 122.181C331.248 114.747 333.337 107.09 333.067 99.6114C332.641 88.4503 329.587 77.5587 325.612 67.004C322.805 59.5708 318.381 57.617 311.621 61.8389C305.76 65.4994 299.876 69.2497 294.666 73.7411C290.893 76.9973 285.571 78.9735 284.111 84.6551C283.909 85.4635 282.158 85.8902 281.125 86.4966C280.608 85.4186 279.642 84.3407 279.642 83.2628C279.642 76.8401 280.069 70.4399 279.957 64.0172C279.822 55.506 278.677 47.1521 274.724 39.382C272.366 34.7559 266.864 31.7691 262.8 33.9923C258.6 36.2829 254.468 39.0676 251.1 42.4586C245.598 47.983 242.274 54.9671 238.906 62.041C235.47 69.2721 232.865 76.6605 231.877 84.4081C231.091 90.5613 231.809 96.9615 232.303 103.205C232.505 105.81 233.089 109.223 234.841 110.728C241.668 116.634 244.071 124.336 244.902 132.713C245.396 137.766 245.553 142.976 244.991 148.028C243.958 157.46 242.566 166.847 240.859 176.189C239.018 186.273 236.705 196.266 234.549 206.282C233.853 209.516 232.954 212.704 232.168 215.938C233.336 216.455 234.414 216.702 235.178 217.331C237.738 219.397 240.32 220.766 243.846 220.07C244.52 219.936 246.339 222.249 246.474 223.551C247.125 229.525 239.714 236.352 232.393 236.711C231.54 234.218 230.686 231.68 229.833 229.143C229.429 229.188 229.002 229.255 228.598 229.3C223.478 246.884 217.414 264.221 212.788 282.837C215.416 282.545 217.01 281.894 218.133 282.366C219.503 282.95 221.524 284.544 221.434 285.555C221.165 288.474 220.221 291.416 219.099 294.156C216.583 300.488 211.89 302.285 206.725 298.961ZM144.901 193.571C145.305 211.649 147.528 228.694 156.197 248.815C159.97 257.573 162.911 266.691 166.549 275.494C170.367 284.679 173.017 294.111 173.803 304.037C173.96 306.17 174.679 307.113 176.902 306.934C183.437 306.395 189.994 306.08 196.484 305.362C198.506 305.137 201.56 304.306 202.144 302.936C205.153 295.66 207.69 288.16 210.093 280.659C213.17 271.115 216.067 261.503 218.852 251.847C221.973 241 224.96 230.108 227.879 219.194C229.945 211.424 231.989 203.609 233.651 195.749C235.717 185.981 238.254 176.189 239.063 166.264C240.073 153.643 240.141 140.887 239.534 128.244C239.063 118.318 230.888 111.446 220.85 111.603C217.819 111.648 214.585 112.412 211.845 113.714C207.174 115.938 201.919 117.734 199.494 123.011C197.675 126.986 196.237 131.163 194.239 135.026C193.206 137.047 191.634 139.562 189.725 140.236C186.963 141.224 186.042 138.282 185.121 136.081C183.976 133.364 182.763 130.692 181.528 128.019C180.068 124.875 178.631 121.709 177.082 118.61C174.769 114.006 170.996 112.008 167.47 113.939C161.564 117.195 156.668 122.001 154.782 128.356C152.087 137.429 150.223 146.816 148.876 156.203C147.102 168.599 146.181 181.108 144.901 193.571ZM144.923 148.343C145.912 144.009 147.214 139.877 147.775 135.655C149.1 125.549 153.996 117.757 161.946 111.558C163.428 110.391 164.708 108.235 164.955 106.371C166.168 97.3208 167.38 88.2258 167.852 79.1083C168.413 68.7781 168.436 58.403 168.234 48.0728C168.076 39.629 165 31.814 159.026 26.0201C155.748 22.8312 150.74 20.4733 146.203 19.8445C142.857 19.3729 139.085 22.4046 135.447 23.7071C132.774 24.6727 131.068 26.2222 130.551 29.1641C129.787 33.3635 128.844 37.5405 127.766 41.6726C127.542 42.5708 126.441 43.8734 125.723 43.8958C124.69 43.9407 123.32 43.2221 122.624 42.3912C121.411 40.909 120.737 39.0002 119.614 37.4058C115.46 31.4996 110.227 29.1192 104.77 35.0478C99.8075 40.4374 98.2804 47.0847 97.2025 53.7544C95.0242 67.3408 96.1919 80.9048 99.8973 94.1319C102.3 102.688 105.354 111.064 108.161 119.508C110.452 126.358 112.945 133.14 115.123 140.034C117.84 148.545 120.243 157.168 122.961 165.702C124.218 169.632 125.902 173.427 126.868 175.942C129.338 174.123 131.517 172.012 134.099 170.732C140.612 167.544 144.227 162.715 144.16 155.349C144.137 154.069 144.16 152.812 144.16 151.532C142.431 154.182 141.42 156.832 140.41 159.504C139.624 161.548 138.613 161.772 137.019 160.155C134.795 157.887 132.033 156.023 130.281 153.463C128.979 151.532 128.036 148.567 128.552 146.457C128.912 145.019 132.056 144.278 133.964 143.245C135.042 142.661 136.3 142.302 137.243 141.561C139.556 139.719 141.577 140.034 142.79 142.706C143.666 144.548 144.272 146.524 144.923 148.343ZM109.486 190.158C104.613 185.397 99.1787 181.849 99.2461 174.326C99.2461 173.54 97.6965 172.08 96.8432 172.057C95.5631 172.035 94.1483 172.821 93.0255 173.607C87.9277 177.178 87.2092 183.106 86.1986 188.361C84.2224 198.848 86.266 209.313 89.612 219.217C93.3848 230.445 98.5723 241.112 104.838 251.285C110.407 260.335 115.303 269.79 120.445 279.087C124.914 287.171 129.383 295.256 133.695 303.43C135.155 306.192 137.108 307.472 140.163 307.428C148.943 307.338 157.724 307.203 166.504 307.293C169.626 307.315 170.816 306.17 170.345 303.138C170.165 301.971 170.322 300.735 170.008 299.613C168.301 293.212 166.729 286.79 164.685 280.502C162.934 275.09 160.711 269.835 158.577 264.557C154.917 255.462 151.166 246.435 147.506 237.34C146.518 234.869 145.709 232.332 144.631 229.278C143.756 230.378 142.902 230.984 142.768 231.703C142.116 235.61 139.466 234.959 137.67 233.432C135.177 231.299 132.729 228.671 131.382 225.729C130.349 223.484 130.506 220.295 131.157 217.802C131.449 216.679 134.369 216.387 135.873 215.399C138.186 213.85 142.184 214.411 142.139 209.763C141.982 197.591 142.139 185.397 142.161 173.225C142.161 172.035 142.004 170.845 141.914 169.655C141.51 169.452 141.128 169.25 140.724 169.048C138.231 171.361 135.065 173.293 133.403 176.1C131.315 179.648 130.484 183.915 129.091 187.867C127.879 191.303 127.138 191.438 124.51 188.945C121.411 186.026 118.29 183.151 114.943 180.052C113.035 183.69 111.463 186.587 109.486 190.158ZM31.3813 131.208C31.516 132.309 31.4037 133.072 31.7181 133.544C36.0972 140.461 40.4988 147.4 44.9902 154.249C52.4683 165.725 60.3058 176.975 67.4246 188.653C71.2423 194.941 73.7799 201.992 77.1934 208.55C77.8671 209.852 79.9555 210.391 82.089 211.739C82.2462 206.124 81.7072 202.689 77.9569 199.455C74.6108 196.58 72.455 192.134 70.3889 188.069C69.8275 186.969 70.9279 183.847 72.0957 183.218C75.307 181.557 78.945 180.726 83.0995 179.333C85.3003 176.616 88.2871 173.113 91.0493 169.43C92.1722 167.925 93.542 165.972 93.4521 164.287C93.1378 158.718 92.4416 153.126 91.4535 147.624C90.2858 141.224 88.871 134.846 87.1194 128.581C85.0758 121.35 82.336 114.343 80.27 107.112C77.4628 97.2759 73.4431 88.0685 67.7166 79.6023C65.9874 77.0422 64.2358 74.1453 60.3732 76.2787C59.6096 75.0885 58.9359 74.0779 58.2846 73.0898C54.5792 74.8639 51.9069 76.7727 50.29 80.7476C47.8197 86.8559 49.1447 92.8519 49.1447 98.9152C49.1447 101.071 49.0773 103.272 48.6507 105.383C48.1342 107.943 45.3494 108.639 43.2609 106.977C40.6784 104.889 38.2306 102.531 35.3786 100.981C33.1778 99.791 30.4156 99.1398 27.878 99.1398C23.4091 99.1398 21.2307 103.362 22.2188 109.605C22.3985 110.705 23.2744 112.502 23.9481 112.569C25.2506 112.704 27.0471 112.187 27.9678 111.289C31.1791 108.167 34.9295 108.414 35.7828 112.726C36.973 118.655 36.9057 124.831 37.3772 131.141C34.9968 131.208 33.4698 131.208 31.3813 131.208ZM115.527 327.706C115.078 327.706 114.629 327.706 114.18 327.684C113.012 330.94 111.799 334.174 110.699 337.452C108.97 342.573 106.949 347.625 105.759 352.88C104.344 359.146 100.773 365.299 104.568 372.148C105.624 374.057 106.455 374.439 108.274 374.529C117.144 374.888 125.992 375.539 134.863 375.742C154.512 376.191 174.162 376.505 193.812 376.662C197.562 376.685 201.335 376.033 205.063 375.382C210.655 374.394 216.157 372.777 221.771 372.081C226.15 371.542 230.664 372.171 235.133 372.036C240.051 371.879 241.578 370.397 241.937 365.569C242.162 362.447 242.409 359.281 242.229 356.159C241.713 347.356 242.05 338.688 244.767 330.199C245.193 328.896 245.306 327.212 244.879 325.955C243.846 322.945 242.364 320.071 240.814 316.545C239.624 317.623 238.187 318.319 237.805 319.375C236.435 323.282 235.178 327.257 234.324 331.322C232.146 341.652 230.282 352.027 228.171 362.38C227.834 363.974 227.003 365.524 226.172 366.961C224.915 369.207 223.523 369.296 222.355 366.826C220.266 362.425 218.155 358.023 216.202 353.554C212.496 345.065 208.903 336.509 205.265 327.998C204.659 326.561 203.94 325.146 202.93 322.99C201.447 325.618 200.28 327.324 199.449 329.166C198.146 332.108 197.091 335.184 195.878 338.171C193.475 344.1 191.072 350.028 188.625 355.912C186.536 360.92 184.537 365.995 182.112 370.846C181.371 372.328 179.193 374.192 177.913 374.035C176.61 373.855 175.083 371.587 174.544 369.925C172.343 363.166 170.816 356.182 168.436 349.489C165.696 341.854 162.372 334.443 159.139 326.988C158.353 325.191 156.758 324.742 155.635 326.763C154.041 329.66 152.357 332.624 151.391 335.746C148.337 345.537 145.709 355.44 142.655 365.232C141.959 367.5 140.41 369.543 139.062 371.565C137.602 373.72 135.828 374.125 134.009 371.834C133.111 370.711 131.921 369.701 131.427 368.421C127.34 357.776 123.432 347.064 119.39 336.397C118.222 333.478 116.807 330.626 115.527 327.706ZM115.572 446.368C119.48 445.785 122.04 445.335 124.622 445.066C126.554 444.864 128.507 444.819 130.461 444.864C142.341 445.088 154.243 445.987 166.1 445.403C176.588 444.886 186.985 442.483 197.473 441.338C207.735 440.215 218.043 439.609 228.351 438.756C231.877 438.464 234.257 437.139 234.302 433.029C234.324 431.143 235.357 429.279 235.559 427.347C236.233 421.441 236.727 415.513 237.334 409.068C232.528 410.145 228.688 411.201 224.758 411.852C216.022 413.289 207.286 415.49 198.528 415.603C180.877 415.85 163.203 414.974 145.552 414.48C136.772 414.233 128.013 413.761 119.233 413.424C116.875 413.334 114.494 413.402 111.777 413.402C113.079 424.81 114.292 435.275 115.572 446.368ZM131.696 307.046C118.469 284.14 105.714 262.087 92.9806 240.034C92.5539 240.102 92.1497 240.192 91.723 240.259C91.2289 242.886 90.5552 245.491 90.2857 248.119C90.0387 250.589 88.7362 251.487 86.6253 250.859C85.0982 250.41 83.3017 249.579 82.4708 248.343C80.7191 245.716 79.7085 242.595 78.0467 239.877C75.7337 236.104 77.665 233.836 80.6966 231.95C82.9199 230.558 85.3003 229.412 87.1867 228.402C86.1537 224.36 85.3228 220.991 84.3796 217.667C84.155 216.859 83.7507 215.893 83.122 215.422C79.2145 212.637 70.883 215.601 70.344 220.295C69.8724 224.517 70.4114 228.873 70.5685 233.163C70.7033 236.801 69.1538 238.081 65.7628 236.756C62.776 235.566 59.9689 233.859 56.9373 232.848C51.9518 231.186 46.8765 229.637 41.7339 228.514C38.9717 227.908 36.6362 230.805 37.6018 233.455C39.7801 239.338 41.5767 245.559 44.8105 250.836C50.8289 260.65 57.4762 270.082 64.3929 279.289C69.266 285.757 74.8129 291.775 80.4047 297.636C83.4588 300.848 86.8947 304.845 90.8022 305.811C97.6516 307.473 105.017 307.068 112.159 307.54C112.226 307.091 112.316 306.642 112.383 306.215C111.193 305.07 109.913 304.014 108.813 302.779C107.69 301.521 106.702 300.129 105.714 298.759C103.558 295.772 104.187 291.259 106.881 290.36C109.576 289.462 112.271 288.586 115.011 287.913C117.751 287.239 119.929 287.935 119.547 291.281C119.075 295.211 118.222 299.074 117.526 302.981C117.301 304.216 117.122 305.451 116.852 307.046C121.815 307.046 126.172 307.046 131.696 307.046ZM333.022 73.3368C335.089 72.5284 336.391 71.5627 337.559 71.6975C339.535 71.8996 341.668 72.4385 343.285 73.5165C344.565 74.3698 345.958 76.2338 345.935 77.6486C345.89 81.7357 343.645 84.7449 340.231 87.1029C338.771 88.1135 335.785 89.1465 337.559 91.6617C338.008 92.3129 341.129 91.1002 342.993 90.7185C343.195 90.6736 343.285 90.2918 343.465 90.1121C346.901 87.058 350.494 84.1835 353.728 80.9273C361.43 73.1572 369.088 65.3646 376.477 57.3026C380.654 52.7439 382.495 46.8601 380.698 40.9764C378.543 33.88 375.084 30.8259 370.144 33.925C366.304 36.3278 363.205 39.9434 359.701 42.9077C358.601 43.8285 357.231 44.4572 355.996 45.2208C355.479 43.7611 354.581 42.3014 354.491 40.7968C354.222 35.7215 354.469 30.5789 354.02 25.5261C353.862 23.6622 352.246 21.9554 351.302 20.1589C349.573 21.147 347.485 21.7758 346.182 23.1681C340.074 29.6806 336.189 37.4507 334.37 46.164C333.022 52.6316 331.9 59.189 331.226 65.7688C331.024 68.1942 332.394 70.8217 333.022 73.3368ZM231.472 301.185C233.044 301.297 234.302 301.656 235.447 301.432C237.962 300.938 240.455 299.59 242.925 299.635C246.586 299.702 248.607 297.861 250.448 295.256C251.122 294.313 251.728 293.302 252.559 292.516C257.702 287.71 263.047 283.084 268.055 278.144C274.679 271.609 281.304 265.029 287.502 258.09C295.16 249.534 297.249 239.406 294.172 228.334C293.072 224.382 288.895 220.924 285.706 221.665C279.463 223.124 273.759 225.303 271.221 232.354C269.335 237.609 266.258 242.437 263.765 247.468C261.632 251.824 259.588 256.226 257.253 261.099C259.476 261.099 261.318 260.762 263.002 261.189C264.664 261.593 266.078 262.896 267.695 263.569C271.782 265.298 272.883 269.116 269.694 272.193C266.056 275.696 262.036 278.795 258.016 281.872C257.635 282.164 255.614 281.22 255.232 280.412C254.625 279.199 254.648 277.627 254.603 276.19C254.513 273.158 254.581 270.149 254.581 267.117C254.244 267.095 253.907 267.05 253.57 267.028C246.384 278.166 239.197 289.282 231.472 301.185ZM91.0493 311.919C93.2501 314.726 93.003 318.768 96.7084 317.556C100.773 316.231 104.523 317.69 108.431 317.713C122.377 317.78 136.345 317.982 150.291 317.96C162.597 317.937 174.903 317.825 187.21 317.533C193.475 317.376 199.763 317.039 205.961 316.186C211.463 315.422 216.786 313.401 222.287 312.75C229.429 311.897 236.637 311.762 243.846 311.47C247.349 311.335 247.866 308.932 247.754 306.417C247.709 305.204 246.451 303.004 245.777 303.004C242.948 303.049 240.096 303.655 237.289 304.239C230.192 305.721 223.186 307.899 216 308.73C205.535 309.92 195.002 308.91 184.425 310.953C174.634 312.84 164.326 312.615 154.265 312.57C135.155 312.48 116.021 311.829 96.9105 311.447C95.3161 311.425 93.6992 311.717 91.0493 311.919ZM21.9494 216.253C21.2083 211.492 24.0154 209.673 27.4737 208.123C28.7762 207.539 29.6746 206.102 30.9546 205.428C32.1224 204.822 33.6494 204.261 34.8172 204.53C35.7379 204.755 36.973 206.282 36.973 207.202C36.9057 210.84 36.726 214.546 36.0074 218.094C34.8846 223.596 33.088 224.157 28.17 221.216C27.1369 220.587 25.9467 220.205 24.8238 219.711C24.6217 219.935 24.4196 220.16 24.2175 220.407C26.8674 223.529 29.5173 226.673 33.1553 230.939C33.6269 223.91 37.3997 222.765 42.2953 223.416C42.8118 223.484 43.3283 223.641 43.8448 223.686C46.3825 223.843 47.2808 223.102 46.6969 220.227C45.1474 212.615 44.0694 204.889 42.6322 197.232C42.0034 193.885 40.903 190.652 40.0272 187.351C39.4209 187.373 38.8145 187.418 38.2081 187.44C38.0959 188.361 37.512 189.619 37.9163 190.113C39.9149 192.65 38.3429 193.549 36.2095 193.526C32.9982 193.481 29.8093 192.942 25.9243 192.538C25.1158 194.627 23.162 196.019 20.1079 193.818C17.0986 191.64 14.2242 189.304 11.1027 187.306C9.643 186.385 7.77906 186.138 6.09479 185.599C5.8253 185.958 5.55585 186.34 5.28637 186.699C7.93629 197.995 14.8979 206.978 21.9494 216.253ZM235.537 315.31C228.081 314.007 226.801 314.749 224.668 321.778C224.398 322.631 223.949 323.439 223.612 324.293C221.412 329.503 219.054 334.668 217.055 339.968C214.809 345.874 219.39 350.275 220.94 355.328C221.501 357.147 222.759 358.764 224.084 361.189C227.992 345.425 231.742 330.468 235.537 315.31ZM178.519 365.052C178.901 365.052 179.26 365.052 179.642 365.052C180.518 363.076 181.416 361.122 182.247 359.146C185.054 352.386 187.794 345.604 190.623 338.845C192.51 334.331 194.576 329.885 196.417 325.348C197.068 323.731 198.012 321.508 194.733 321.665C192.15 321.8 189.568 322.451 186.985 322.496C184.156 322.564 183.28 323.799 183.033 326.516C182.247 334.758 180.136 342.573 174.903 349.287C174.409 349.916 174.095 351.039 174.297 351.78C175.622 356.226 177.082 360.628 178.519 365.052ZM135.694 366.489C136.861 365.232 138.344 364.333 138.725 363.098C140.41 357.641 141.712 352.094 143.262 346.615C144.564 342.011 146.001 337.452 147.439 332.916C148.427 329.772 149.527 326.673 150.785 322.945C148.359 322.945 146.293 322.833 144.25 323.013C143.531 323.08 142.498 323.709 142.251 324.338C141.398 326.494 140.544 328.717 140.185 331.007C139.534 335.162 137.737 338.598 135.357 342.079C132.505 346.256 128.597 350.59 131.315 356.541C132.639 359.415 133.875 362.357 135.694 366.489ZM179.282 383.04C179.193 382.681 179.103 382.299 179.013 381.94C176.565 381.94 174.072 382.276 171.692 381.872C167.246 381.131 164.932 383.826 162.979 386.903C158.6 393.797 155.321 401.455 148.988 407.024C148.651 407.316 149.235 409.539 149.572 409.607C152.087 410.011 154.692 410.303 157.23 410.168C159.588 410.033 161.272 408.978 162.619 406.507C165.786 400.736 169.559 395.279 173.331 389.844C175.016 387.397 177.284 385.308 179.282 383.04ZM221.681 376.146C218.425 376.348 216.336 376.348 214.315 376.662C213.439 376.797 212.272 377.448 211.912 378.189C207.107 387.711 202.368 397.255 197.742 406.867C197.248 407.9 197.36 410.348 197.54 410.393C199.786 410.819 202.189 411.358 204.389 410.954C205.647 410.729 207.017 409.045 207.646 407.675C210.318 401.904 212.653 395.975 215.213 390.159C217.122 385.735 219.233 381.401 221.681 376.146ZM155.613 479.358C159.588 479.111 162.709 479.043 165.763 478.662C166.549 478.572 167.493 477.628 167.897 476.82C172.029 468.713 176.049 460.539 180.158 452.409C180.765 451.197 181.685 450.164 182.988 448.255C179.215 448.682 176.61 448.794 174.095 449.333C172.995 449.58 171.737 450.501 171.153 451.489C166.257 459.618 161.497 467.837 156.758 476.034C156.331 476.775 156.174 477.651 155.613 479.358ZM140.275 478.953C144.901 481.671 149.235 480.728 151.436 476.865C156.062 468.758 159.296 459.843 166.055 453.016C167.29 451.758 167.111 449.759 165 450.164C160.621 450.972 155.725 450.86 153.098 455.89C149.033 463.593 144.654 471.116 140.275 478.953ZM215.213 443.584C209.667 443.337 205.018 443.022 202.099 448.322C198.618 454.678 194.733 460.831 191.095 467.119C189.905 469.162 188.984 471.363 187.883 473.609C196.35 476.012 196.529 475.854 199.875 468.938C202.391 463.728 204.973 458.518 207.893 453.51C209.824 450.231 212.406 447.334 215.213 443.584ZM206.5 379.919C201.739 379.694 198.595 380.076 196.44 384.051C192.173 391.933 187.412 399.546 182.92 407.316C181.73 409.36 182.045 410.887 184.784 411.021C186.491 411.111 188.288 411.448 189.86 410.999C191.095 410.64 192.51 409.517 193.071 408.349C196.035 402.241 198.73 396.02 201.582 389.867C203.019 386.768 204.614 383.714 206.5 379.919ZM171.063 478.28C173.915 478.123 175.891 478.459 177.463 477.831C179.799 476.887 183.347 475.607 183.796 473.856C186.311 463.683 191.185 455.037 198.348 447.536C198.618 447.267 198.461 446.593 198.506 446.099C191.364 445.538 188.535 445.942 184.717 453.51C182.045 458.787 179.395 464.087 176.588 469.297C175.105 472.059 173.309 474.642 171.063 478.28ZM211.149 409.674C211.62 410.056 212.07 410.437 212.541 410.819C214.854 409.921 218.2 409.674 219.301 407.967C221.771 404.172 222.961 399.568 224.937 395.436C227.25 390.608 229.878 385.914 232.371 381.131C233.112 379.694 233.785 378.234 234.908 375.921C230.844 376.348 227.116 374.147 224.96 377.987C222.894 381.67 221.636 385.802 219.929 389.687C217.863 394.403 215.685 399.074 213.597 403.768C212.743 405.721 211.957 407.72 211.149 409.674ZM166.01 408.551C172.77 412.054 177.463 410.37 179.619 403.992C179.956 403.004 180.36 402.039 180.899 401.163C184.605 394.942 188.377 388.722 192.06 382.568C187.659 381.266 185.525 381.49 182.022 386.027C176.386 393.258 171.333 400.983 166.01 408.551ZM127.834 346.143C132.684 339.024 135.312 332.153 136.749 324.809C136.861 324.248 135.941 322.9 135.469 322.9C130.079 322.766 124.69 322.811 118.402 322.811C121.658 330.873 124.577 338.081 127.834 346.143ZM227.228 442.775C227.048 442.259 226.869 441.765 226.689 441.248C224.398 441.877 221.479 441.81 219.997 443.269C217.369 445.83 215.393 449.153 213.597 452.387C210.498 457.979 207.758 463.795 204.816 469.477C203.783 471.475 202.525 473.339 201.313 475.36C209.397 477.831 210.879 473.721 213.529 467.433C215.124 463.66 216.583 459.82 218.582 456.272C221.209 451.646 224.331 447.267 227.228 442.775ZM150.807 451.96C142.745 450.411 142.251 450.613 138.299 457.485C137.602 458.697 137.131 460.022 136.457 461.257C133.807 466.198 131 471.049 128.53 476.057C127.968 477.179 127.856 479.425 128.552 480.076C130.484 481.85 135.491 479.897 136.637 477.494C139.085 472.329 141.622 467.186 144.362 462.156C146.226 458.742 148.516 455.553 150.807 451.96ZM117.706 408.888C120.243 409 121.793 409 123.32 409.157C126.868 409.517 129.136 408.461 130.506 404.756C131.449 402.196 133.538 399.995 135.379 397.862C139.399 393.235 143.621 388.811 147.641 384.208C148.225 383.534 148.494 382.232 148.269 381.378C148.112 380.817 146.653 380.053 146.091 380.255C143.868 380.996 141.151 381.558 139.713 383.175C134.773 388.699 130.349 394.695 125.588 400.399C123.365 403.116 120.827 405.564 117.706 408.888ZM136.682 380.345C134.256 380.053 132.617 379.919 131.023 379.671C127.946 379.177 125.88 379.806 123.926 382.815C120.243 388.497 115.64 393.595 111.642 399.074C109.554 401.926 109.936 405.048 111.71 408.416C119.974 399.119 127.946 390.136 136.682 380.345ZM160.913 382.501C158.487 380.772 155.298 380.929 153.277 383.354C146.855 391.057 140.477 398.805 134.122 406.597C133.695 407.114 133.717 407.99 133.493 408.843C135.649 409.202 137.58 409.921 139.444 409.719C141.061 409.562 143.172 408.821 144.025 407.608C149.819 399.344 155.321 390.9 160.913 382.501ZM101.649 352.409C104.703 343.448 107.555 335.095 110.385 326.718C111.732 322.721 111.373 322.474 107.061 322.092C103.58 321.8 101.447 322.631 101.424 326.538C101.424 327.257 100.975 327.998 100.661 328.694C97.4495 335.903 98.7295 343.246 99.9871 350.59C100.077 351.174 100.908 351.645 101.649 352.409ZM172.815 345.02C173.242 344.931 173.668 344.818 174.095 344.729C175.869 337.722 177.666 330.693 179.507 323.394C173.781 323.394 168.481 323.394 163.024 323.394C166.437 330.962 169.626 337.991 172.815 345.02ZM62.5515 69.2946C66.8183 63.5681 66.706 56.9208 65.8527 50.1837C65.673 48.7914 65.2687 47.2868 64.5276 46.1415C62.6637 43.2446 61.2714 43.4916 59.5198 46.4783C56.4881 51.7108 56.0839 57.1229 57.027 63.0291C57.6109 66.4201 58.6215 68.5984 62.5515 69.2946ZM122.511 478.392C127.429 469.05 132.28 459.82 137.108 450.635C133.089 447.896 129.877 450.276 127.789 454.228C125.161 459.214 122.781 464.334 120.4 469.454C119.996 470.308 119.951 471.52 120.198 472.419C120.805 474.417 121.68 476.281 122.511 478.392ZM272.816 29.6581C275.982 33.7902 277.329 33.7228 280.204 29.456C280.698 28.7374 281.304 28.0862 281.843 27.3675C284.066 24.4032 286.447 21.5512 288.423 18.4521C289.164 17.2844 289.029 15.5328 289.276 14.0506C287.66 13.8709 285.616 12.9502 284.538 13.6239C281.821 15.3082 279.036 17.3518 277.195 19.9343C275.218 22.6965 274.32 26.1998 272.816 29.6581ZM231.225 445.111C225.746 453.892 219.278 462.29 216.853 473.16C219.166 472.778 221.479 472.194 222.579 470.689C224.892 467.545 226.577 463.93 228.508 460.494C229.047 459.528 229.923 458.607 230.058 457.597C230.574 453.442 230.844 449.265 231.225 445.111ZM224.331 407.967C227.969 408.214 229.384 406.799 230.529 404.509C232.213 401.118 233.92 397.659 236.166 394.605C240.118 389.238 240.118 383.422 239.085 377.313C239.063 377.224 238.636 377.224 238.434 377.179C233.785 387.329 229.137 397.457 224.331 407.967ZM221.412 316.59C217.1 317.758 213.978 318.813 210.767 319.442C208.274 319.936 207.286 321.036 208.05 323.484C209.24 327.324 210.43 331.142 211.755 334.937C211.957 335.476 212.923 336.15 213.439 336.083C213.911 336.015 214.428 335.095 214.652 334.466C215.169 333.028 215.438 331.501 216 330.087C217.571 325.999 219.256 321.98 221.412 316.59ZM44.6309 70.5297C43.7775 66.712 35.9176 60.7834 32.7062 61.6143C31.4487 61.9287 30.1237 63.321 29.6072 64.5562C29.3152 65.2299 30.4156 66.9141 31.2914 67.5654C35.2663 70.4399 39.8475 70.7543 44.6309 70.5297ZM253.076 5.89874C251.571 9.94098 256.557 20.1813 261.677 23.5499C263.137 18.003 258.713 8.8855 253.076 5.89874ZM51.5251 67.7226C52.0641 56.8535 49.7735 49.4651 45.619 48.2749C44.1593 55.0793 47.3032 65.8811 51.5251 67.7226ZM108.027 393.078C108.566 393.191 109.082 393.28 109.621 393.393C113.327 388.834 117.009 384.275 120.872 379.537C113.484 376.954 112.383 383.512 109.262 386.453C107.959 387.711 108.386 390.81 108.027 393.078ZM268.93 23.2579C272.389 19.1483 274.59 14.8141 274.567 9.53675C274.567 8.93042 273.961 7.98723 273.444 7.85248C272.86 7.69529 271.917 8.0546 271.401 8.52619C267.74 11.8498 266.64 18.0255 268.93 23.2579ZM34.0761 178.008C30.6402 176.571 30.8423 171.653 26.1713 173.158C26.1713 175.987 26.1713 178.817 26.1713 182.388C29.0233 180.838 31.1567 179.648 34.0761 178.008ZM125.094 450.119C124.937 449.737 124.757 449.355 124.6 448.996C123.657 449.58 122.399 449.962 121.838 450.815C120.917 452.162 120.513 453.847 119.794 455.329C118.851 457.26 117.683 459.079 116.83 461.055C116.65 461.482 117.256 462.425 117.728 462.874C117.908 463.054 119.075 462.627 119.3 462.201C121.299 458.203 123.185 454.161 125.094 450.119ZM32.3694 115.758C31.9203 115.825 31.4711 115.893 30.9995 115.96C30.7749 117.712 30.8648 119.576 30.236 121.17C28.7538 124.965 29.0682 125.661 33.6045 126.066C33.3799 122.54 34.3456 118.924 32.3694 115.758ZM216.336 287.666C213.642 288.07 211.081 287.823 210.655 288.654C209.42 291.101 209.667 293.796 212.676 295.885C213.754 293.437 214.719 291.259 216.336 287.666ZM138.411 229.075C139.04 228.963 139.691 228.851 140.32 228.739C140.859 226.246 141.375 223.753 141.914 221.238C141.488 221.081 141.061 220.946 140.634 220.789C139.219 221.957 137.086 222.9 136.592 224.382C136.21 225.64 137.737 227.503 138.411 229.075ZM241.892 226.201C239.355 227.683 236.997 229.794 234.257 225.842C234.369 228.087 234.639 231.007 235.672 231.299C239.377 232.377 240.41 228.873 241.892 226.201ZM87.793 236.621C87.3214 236.621 86.8273 236.599 86.3558 236.599C85.7494 238.844 85.0308 241.09 84.6491 243.381C84.5592 243.897 85.6821 244.593 86.266 245.222C86.7825 244.616 87.7032 244.032 87.7481 243.381C87.9278 241.135 87.793 238.867 87.793 236.621ZM140.23 149.6C139.916 149.331 139.624 149.084 139.309 148.814C137.805 149.848 136.322 150.881 134.728 151.981C135.783 153.238 136.614 154.204 137.917 155.731C138.793 153.463 139.511 151.532 140.23 149.6ZM80.2475 186.362C77.9793 193.167 77.9793 193.167 80.2475 195.615C80.2475 192.336 80.2475 189.349 80.2475 186.362ZM110.25 177.694C109.868 177.627 109.464 177.559 109.082 177.492C108.094 179.019 107.106 180.546 105.871 182.455C107.69 182.814 108.768 183.016 110.25 183.308C110.25 181.175 110.25 179.446 110.25 177.694ZM28.8661 213.603C28.4844 213.917 28.1026 214.209 27.7208 214.523C28.664 215.601 29.4725 216.904 30.6178 217.69C31.1118 218.027 32.2795 217.375 33.1553 217.173C32.6837 216.477 32.3244 215.624 31.6956 215.13C30.8872 214.478 29.8318 214.097 28.8661 213.603ZM259.566 275.584C261.362 274.124 262.665 273.046 264.506 271.541C259.094 271.137 259.094 271.137 259.566 275.584Z" fill="white"/>
<path d="M300.101 91.7741C300.774 89.7081 301.156 87.0806 302.391 84.9697C304.233 81.8032 306.366 81.7808 309.353 84.0714C310.453 84.9023 311.643 85.7556 312.924 86.1823C316.651 87.4175 318.066 90.9657 315.641 94.2668C313.103 97.7476 310.296 101.049 307.309 104.148C304.839 106.73 303.02 106.057 302.301 102.643C301.583 99.2298 300.909 95.7939 300.101 91.7741ZM305.692 99.387C305.984 99.5667 306.299 99.7463 306.591 99.926C308.005 98.4213 309.42 96.8943 311.284 94.8956C308.881 94.4016 307.309 94.0872 305.692 93.7503C305.692 95.6816 305.692 97.5455 305.692 99.387Z" fill="white"/>
<path d="M269.2 53.5076C269.133 58.5379 263.81 66.5775 259.431 67.9249C258.712 68.1495 257.028 67.4982 256.894 66.9592C255.591 61.8615 254.041 56.7189 253.547 51.5089C253.188 47.8933 256.13 45.1985 260.015 47.8709C260.756 48.3874 262.014 48.4772 262.934 48.2751C267.583 47.3095 269.267 48.6569 269.2 53.5076ZM258.218 58.0439C258.196 59.6158 257.522 62.3107 261.115 62.423C262.642 62.4679 265.045 56.135 264.619 54.9673C262.777 55.8655 260.868 56.7863 258.218 58.0439Z" fill="white"/>
<path d="M265.158 106.686C265.158 105.63 264.933 104.53 265.203 103.564C265.562 102.284 266.213 100.128 266.909 100.061C268.459 99.9036 270.076 100.914 271.715 101.273C273.107 101.588 274.679 102.082 275.959 101.723C279.148 100.824 280.361 101.52 280.698 104.822C281.259 110.189 276.948 112.367 273.871 115.219C272.524 116.477 269.335 117.959 268.796 117.442C267.201 115.915 266.325 113.512 265.562 111.334C265.045 109.897 265.18 108.235 265.045 106.663C265.068 106.686 265.113 106.686 265.158 106.686Z" fill="white"/>
<path d="M247.933 157.281C248.45 151.24 249.887 150.364 255.546 152.632C256.287 152.924 257.388 152.453 258.263 152.138C260.554 151.307 262.867 151.128 263.99 153.576C264.641 154.99 264.462 156.967 264.237 158.606C263.428 164.198 258.308 166.309 254.783 169.677C254.356 170.081 252.02 169.542 251.818 168.959C250.314 165.141 249.168 161.188 247.933 157.281ZM259.678 158.628C257.949 159.864 256.242 161.099 254.019 162.693C254.783 163.187 255.95 164.108 256.108 163.973C257.702 162.424 260.913 161.772 259.678 158.628Z" fill="white"/>
<path d="M246.384 265.568C246.249 270.172 243.374 273.742 239.602 274.955C237.805 275.539 236.166 276.662 234.347 277.156C233.426 277.403 231.944 277.156 231.293 276.527C229.833 275.09 229.249 263.906 230.754 262.491C231.966 261.369 234.145 260.538 235.717 260.762C238.973 261.189 242.184 262.289 245.306 263.412C245.979 263.659 246.182 265.141 246.384 265.568ZM242.117 267.701C241.6 267.365 241.084 267.028 240.567 266.713C239.624 268.106 238.659 269.498 237.715 270.89C238.277 271.25 238.838 271.609 239.4 271.968C240.298 270.531 241.219 269.116 242.117 267.701Z" fill="white"/>
<path d="M265.023 218.97C259.454 212.166 258.488 203.654 262.059 200.061C263.923 198.175 265.584 198.377 267.628 199.432C269.312 200.308 271.064 201.296 272.883 201.611C276.768 202.285 278.228 204.934 275.712 207.854C272.456 211.627 268.796 215.085 265.023 218.97ZM269.492 209.897C269.02 209.336 268.571 208.775 268.1 208.213C267.111 208.999 265.989 209.695 265.248 210.683C265.023 210.975 265.966 212.121 266.37 212.862C267.426 211.874 268.459 210.886 269.492 209.897Z" fill="white"/>
<path d="M285.616 149.668C286.671 146.928 287.457 144.054 288.872 141.538C290.107 139.36 292.016 139.495 293.992 141.224C295.093 142.19 296.62 143.066 298.035 143.223C302.212 143.627 304.525 146.906 301.942 150.095C299.135 153.575 295.542 156.854 291.612 158.898C287.794 160.896 288.109 155.956 286.671 154.114C285.93 153.149 286.267 151.352 286.11 149.937C285.953 149.825 285.796 149.758 285.616 149.668ZM297.428 149.623C297.181 149.353 296.934 149.062 296.687 148.792C295.003 149.578 293.229 150.274 291.657 151.217C291.275 151.464 291.118 152.767 291.41 153.261C291.679 153.71 293.027 154.159 293.296 153.912C294.778 152.587 296.081 151.06 297.428 149.623Z" fill="white"/>
<path d="M167.56 126.717C168.076 126.739 168.593 126.829 169.132 126.807C176.408 126.627 177.845 127.997 176.116 134.981C175.285 138.372 173.242 141.516 171.423 144.57C170.21 146.614 167.582 146.838 166.392 145.177C163.989 141.786 161.497 138.103 160.509 134.173C159.139 128.559 161.833 126.201 167.56 126.717Z" fill="white"/>
<path d="M184.38 298.22C180.383 294.403 176.116 291.349 176.318 285.308C176.498 280.502 178.541 278.346 183.1 276.729C185.907 275.719 189.029 274.91 189.949 277.717C190.893 280.547 189.994 284.118 189.433 287.284C189.096 289.125 187.839 290.787 187.008 292.539C186.222 294.246 185.436 295.952 184.38 298.22Z" fill="white"/>
<path d="M209.105 127.93C208.948 120.474 210.565 119.261 215.281 120.676C216.044 120.901 217.145 120.317 217.976 119.868C220.873 118.296 223.029 118.924 223.32 122.136C223.59 125.168 223.253 128.424 222.355 131.321C221.479 134.173 219.66 136.8 217.976 139.315C217.549 139.944 215.236 140.214 215.079 139.944C212.653 135.363 210.43 130.669 209.105 127.93Z" fill="white"/>
<path d="M228.62 167.162C229.766 173.495 224.556 177.335 222.512 182.388C222.4 182.657 219.435 182.432 219.188 181.871C217.167 177.02 215.258 172.125 213.911 167.072C213.619 165.972 215.461 163.906 216.786 162.872C218.447 161.57 220.648 161.009 222.512 159.931C224.848 158.583 227.565 159.661 228.216 162.491C228.553 163.995 228.508 165.612 228.62 167.162ZM224.87 168.734C224.443 168.577 224.039 168.419 223.612 168.262C222.624 168.756 220.985 169.048 220.783 169.767C220.334 171.384 220.513 173.225 220.626 174.954C220.648 175.156 222.377 175.516 222.422 175.426C223.298 173.225 224.062 170.979 224.87 168.734Z" fill="white"/>
<path d="M206.59 253.015C204.299 248.186 202.211 243.987 200.302 239.72C199.898 238.822 199.718 237.497 200.1 236.666C200.841 235.049 202.436 232.22 202.997 232.377C206.994 233.5 210.138 226.987 214.068 231.074C216.269 233.365 216.988 235.947 215.595 239.518C213.642 244.571 210.632 248.591 206.59 253.015ZM212.227 236.935C212.002 236.891 211.8 236.868 211.575 236.823C209.936 238.507 208.184 240.102 206.725 241.943C206.388 242.393 206.815 243.987 207.376 244.436C207.893 244.84 209.712 244.638 209.869 244.256C210.812 241.876 211.463 239.383 212.227 236.935Z" fill="white"/>
<path d="M180.854 209.358C181.708 205.81 182.741 203.609 186.132 202.958C187.636 202.666 189.119 202.037 190.444 201.296C194.126 199.253 197.562 200.892 197.383 205.114C197.248 207.831 196.215 210.593 195.07 213.109C194.014 215.399 192.532 217.667 190.713 219.352C189.882 220.115 186.828 220.07 186.334 219.329C184.178 216.208 182.629 212.704 180.854 209.358ZM192.734 207.045C190.96 208.527 189.5 209.493 188.4 210.773C187.771 211.514 187.592 212.772 187.592 213.782C187.592 214.276 188.737 215.287 188.961 215.175C189.77 214.815 190.735 214.187 191.005 213.446C191.746 211.424 192.15 209.269 192.734 207.045Z" fill="white"/>
<path d="M177.8 177.223C176.947 179.176 175.397 183.106 173.444 186.789C173.107 187.441 170.345 187.777 169.851 187.216C166.684 183.758 163.54 180.209 161.047 176.279C159.655 174.056 164.528 169.587 167.65 169.857C168.907 169.969 170.277 170.283 171.445 169.991C176.857 168.554 177.823 169.25 177.8 177.223ZM166.909 178.054C168.66 180.007 169.963 181.489 171.265 182.949C172.343 181.287 173.421 179.603 174.903 177.312C171.782 177.604 169.94 177.784 166.909 178.054Z" fill="white"/>
<path d="M170.726 230.019C169.626 235.184 168.997 239.002 167.897 242.685C167.672 243.448 165.471 244.369 164.596 244.077C160.958 242.819 156.556 236.936 156.691 233.455C156.713 232.803 156.736 232.152 156.848 231.523C157.095 230.176 166.235 225.393 167.605 226.313C169.199 227.346 170.165 229.3 170.726 230.019Z" fill="white"/>
<path d="M113.618 38.8881C117.638 40.0559 118.402 43.3121 117.324 46.5908C115.976 50.6555 113.91 54.5406 111.822 58.3134C110.946 59.9078 109.486 60.0874 108.251 58.0663C106.859 55.7982 105.04 53.7995 103.535 51.5987C100.369 47.0175 102.884 41.7626 108.341 41.044C110.048 40.797 111.642 39.719 113.618 38.8881Z" fill="white"/>
<path d="M143.554 71.5179C142.902 73.8983 141.802 78.2774 140.387 82.5218C140.185 83.1056 138.052 83.7569 137.378 83.3751C132.976 80.9273 127.295 71.967 128.844 66.7795C129.316 65.2075 131.157 63.5008 132.752 62.9618C134.75 62.2656 137.131 62.6923 139.354 62.6249C142.588 62.5351 143.621 64.1745 143.554 71.5179ZM134.571 73.2695C135.604 74.8864 136.547 76.3686 137.49 77.8283C137.894 77.8283 138.299 77.8283 138.703 77.8283C139.174 75.4928 139.669 73.1572 140.365 69.7662C137.737 71.3831 136.277 72.2365 134.571 73.2695Z" fill="white"/>
<path d="M160.396 100.308C158.465 104.597 156.736 108.796 154.557 112.749C154.221 113.333 151.166 113.333 150.313 112.569C146.765 109.335 144.654 105.203 144.923 100.263C145.058 97.7924 146.293 96.1755 149.235 96.4675C150.268 96.5797 151.391 95.8836 152.469 95.6815C154.266 95.3671 156.466 94.4014 157.746 95.0976C159.026 95.8162 159.386 98.2191 160.396 100.308Z" fill="white"/>
<path d="M125.498 97.1862C124.42 101.7 123.836 105.046 122.736 108.19C122.466 108.931 120.064 109.807 119.412 109.38C116.223 107.337 112.922 105.226 110.34 102.508C106.522 98.4887 107.937 94.671 113.259 93.3011C113.978 93.1215 114.607 92.5376 115.348 92.3804C117.548 91.9312 120.445 90.5838 121.86 91.4821C123.769 92.7397 124.622 95.704 125.498 97.1862ZM119.951 104.979C122.601 99.9259 122.466 97.815 119.098 96.5574C122.062 99.2297 112.743 102.127 119.951 104.979Z" fill="white"/>
<path d="M156.758 37.5631C156.197 39.4495 155.501 42.3464 154.355 45.0637C154.041 45.8048 152.469 46.1641 151.391 46.3887C146.001 47.534 139.04 38.3266 142.52 33.9251C143.598 32.5777 145.373 31.7243 146.922 30.826C147.551 30.4667 148.472 30.6688 149.213 30.4892C154.535 29.2091 156.848 31.0506 156.758 37.5631ZM153.861 37.5856C153.502 37.3835 153.12 37.1589 152.761 36.9568C147.596 40.0783 147.596 40.0783 151.189 43.4019C152.132 41.291 153.008 39.4495 153.861 37.5856Z" fill="white"/>
<path d="M110.811 218.206C109.98 221.418 109.441 224.764 108.251 227.841C107.308 230.266 104.793 230.311 102.996 228.963C100.122 226.807 97.2698 224.45 95.0241 221.687C92.5763 218.678 94.7547 214.456 98.6173 213.67C99.8973 213.401 101.11 212.772 102.323 212.233C103.94 211.537 106.028 209.785 106.994 210.279C108.521 211.065 109.441 213.266 110.272 215.018C110.677 215.871 110.34 217.061 110.34 218.117C110.497 218.139 110.654 218.184 110.811 218.206Z" fill="white"/>
<path d="M133.178 280.569C130.394 277.987 127.564 275.584 125.049 272.911C123.859 271.654 122.938 269.902 122.534 268.218C121.838 265.276 122.579 262.986 126.329 263.03C127.137 263.03 127.968 262.581 128.777 262.312C130.573 261.728 133.156 260.066 134.032 260.717C136.008 262.2 137.962 264.647 138.366 266.983C138.77 269.206 137.333 271.834 136.457 274.192C135.806 275.943 134.75 277.56 133.178 280.569Z" fill="white"/>
<path d="M158.442 303.341C151.885 300.466 148.808 295.503 147.798 289.193C147.304 286.049 148.561 284.162 152.222 284.701C153.412 284.881 154.917 284.746 155.927 284.162C159.318 282.164 162.372 283.242 162.552 287.149C162.687 289.956 161.721 292.876 161.003 295.683C160.374 298.153 159.386 300.556 158.442 303.341ZM154.692 295.032C155.433 295.256 157.14 295.997 157.275 295.773C158.151 294.29 158.712 292.606 159.363 290.989C159.026 290.899 158.712 290.832 158.375 290.742C157.342 291.955 156.287 293.19 154.692 295.032Z" fill="white"/>
<path d="M56.6229 98.5111C58.1499 97.0963 59.6096 95.5917 61.2265 94.2892C62.282 93.4358 63.6519 92.9643 64.7074 92.1333C67.2225 90.1571 69.9623 90.741 71.3097 93.638C74.3863 100.24 72.0059 106.236 69.064 112.053C68.7721 112.637 66.3692 112.996 65.9874 112.547C63.1129 109.29 60.4405 105.855 57.8804 102.351C57.319 101.588 57.4762 100.33 57.2965 99.2971C57.0944 99.0501 56.8474 98.7806 56.6229 98.5111ZM66.9755 107.696C67.4471 107.494 67.9187 107.292 68.3903 107.067C68.3903 104.687 68.3903 102.284 68.3903 98.6683C66.3916 100.42 64.0112 101.633 64.1235 102.553C64.348 104.35 65.9425 105.989 66.9755 107.696Z" fill="white"/>
<path d="M66.1895 148.051C65.8975 150.993 65.5607 153.71 65.4035 156.472C65.2238 159.549 63.2701 160.155 61.1142 159.077C58.6215 157.842 56.4656 155.911 54.2424 154.182C50.2451 151.105 51.1882 144.638 56.1288 142.549C57.1393 142.122 57.9029 141.134 58.8011 140.461C62.282 137.878 65.134 138.956 65.7403 143.133C65.9873 144.84 66.0547 146.546 66.1895 148.051ZM58.0601 150.095C57.8804 150.746 57.7007 151.375 57.5211 152.026C59.0706 152.408 60.6201 152.812 62.2146 153.104C62.2595 153.104 62.6862 151.509 62.6637 151.509C61.1367 150.97 59.6096 150.544 58.0601 150.095Z" fill="white"/>
<path d="M82.2012 153.733C78.8102 148.904 75.3968 144.099 72.0956 139.226C71.7588 138.709 71.8037 137.294 72.163 137.047C75.2845 134.981 78.4509 132.938 81.8194 131.298C82.2237 131.096 84.7613 133.454 84.7838 134.622C84.8062 140.797 84.3346 146.973 84.0427 153.149C83.4363 153.351 82.8076 153.553 82.2012 153.733Z" fill="white"/>
<path d="M80.6517 290.271C77.5302 286.947 74.4761 284.275 72.163 281.086C69.6254 277.605 71.5117 274.349 75.7561 273.45C77.5077 273.069 79.1246 271.923 80.7415 271.003C83.3241 269.543 85.6371 270.284 85.8168 273.136C86.1761 278.863 85.5698 284.477 80.6517 290.271Z" fill="white"/>
<path d="M60.8223 243.875C59.6994 246.457 58.5766 249.017 57.4537 251.6C54.8936 250.163 51.8395 249.175 49.9531 247.108C48.3138 245.312 47.7075 242.348 47.3257 239.788C47.191 238.912 48.9201 237.474 50.0879 236.756C51.5251 235.858 53.389 234.735 54.8487 235.004C56.6228 235.319 58.6889 236.621 59.6321 238.126C60.4854 239.473 59.9913 241.674 60.1036 243.493C60.3507 243.628 60.5752 243.74 60.8223 243.875Z" fill="white"/>
<path d="M338.232 45.5352C338.232 44.0979 338.12 42.6607 338.255 41.2235C338.569 37.8549 341.062 36.7096 344.026 38.2816C345.778 39.2248 347.754 39.7413 349.528 40.6396C350.337 41.0438 351.302 41.7849 351.572 42.5933C353.907 49.9592 348.405 55.7755 342.275 57.5272C341.713 57.6844 340.276 56.5391 340.051 55.7531C339.086 52.4295 338.435 49.016 337.671 45.625C337.828 45.625 338.03 45.5801 338.232 45.5352Z" fill="white"/>
<path d="M276.678 236.554C277.487 234.578 278.228 232.579 279.126 230.67C280.339 228.043 282.719 228.043 284.785 228.986C291.59 232.107 293.027 233.769 291.23 237.048C290.04 239.204 287.66 241.09 285.369 242.19C280.136 244.706 277.24 242.595 276.678 236.554Z" fill="white"/>
</svg>
