<svg width="255" height="500" viewBox="0 0 255 500" fill="none" xmlns="http://www.w3.org/2000/svg">
<path d="M221.288 226.423C223.069 225.429 224.804 224.318 226.655 223.509C227.441 223.162 228.505 223.439 229.431 223.439C229.361 224.526 229.616 225.799 229.13 226.632C228.459 227.719 227.302 228.598 226.192 229.338C223.185 231.351 223.092 233.109 226.354 234.959C227.094 235.376 227.534 236.324 228.112 237.018C227.95 237.435 227.788 237.851 227.626 238.267C224.642 237.296 221.658 236.301 218.258 235.191C216.777 243.125 215.412 250.62 214.001 258.092C213.77 259.249 213.307 260.382 213.053 261.539C212.844 262.464 212.798 263.436 212.659 264.384C213.538 264.43 214.441 264.592 215.297 264.454C216.337 264.315 217.402 263.575 218.373 263.713C219.576 263.898 220.686 264.731 221.82 265.286C220.918 266.281 220.224 267.738 219.113 268.155C214.51 269.959 214.51 269.82 216.87 274.007C217.309 274.794 217.17 275.904 217.309 276.853C216.985 277.061 216.638 277.292 216.314 277.5C214.279 275.719 212.243 273.961 209.837 271.856C208.681 273.66 207.223 275.349 206.414 277.292C204.563 281.734 202.92 286.268 201.394 290.825C201.116 291.635 201.486 292.884 201.972 293.693C204.447 297.95 207.223 302.021 209.583 306.347C211.48 309.84 213.631 313.449 214.348 317.243C215.204 321.684 218.72 323.35 221.265 326.033C225.197 330.22 227.302 329.896 223.925 336.697C223.324 337.9 223.208 339.797 223.74 341C227.002 348.564 230.703 355.944 233.895 363.531C236.486 369.661 238.499 376.046 240.928 382.246C243.912 389.81 243.588 397.791 244.282 405.679C244.675 410.167 245.855 414.585 246.803 419.027C246.942 419.651 247.729 420.206 248.353 420.6C254.368 424.463 255.894 429.483 252.101 435.659C250.088 438.921 250.481 441.928 250.967 445.213C252.633 456.826 253.766 468.438 249.51 479.796C248.585 482.272 247.451 484.701 246.063 486.944C245.438 487.962 244.027 488.934 242.848 489.119C231.073 490.969 219.322 493.491 207.478 494.185C188.509 495.295 169.424 494.786 150.432 495.712C138.796 496.267 127.276 498.488 115.641 499.482C108.261 500.107 100.789 499.968 93.3638 499.991C84.3189 500.014 75.2508 500.014 66.2059 499.691C52.6038 499.205 39.0018 498.488 25.4229 497.747C22.2074 497.562 20.0098 495.735 19.3158 492.45C17.1876 482.341 15.2445 472.209 12.9081 462.146C11.8903 457.728 10.8724 453.194 6.2227 450.533C3.84003 449.169 3.2617 442.9 5.99136 440.494C12.0984 435.127 10.4329 428.257 11.3119 421.687C13.1394 407.969 14.6662 394.159 17.8585 380.742C19.8479 372.391 24.7058 364.757 28.0369 356.707C28.6152 355.296 28.754 353.029 28.0138 351.803C23.0865 343.637 25.3766 336.697 34.0514 333.551C35.6244 332.996 37.1512 331.446 38.0071 329.942C43.8597 319.671 48.9026 308.892 55.4492 299.13C60.2839 291.912 57.6237 286.129 54.7552 279.86C53.7837 277.755 52.28 275.904 50.5682 273.244C49.6892 275.002 49.1803 276.436 48.3243 277.616C47.7229 278.472 46.6819 279.027 45.826 279.698C45.3402 278.773 44.2992 277.709 44.4843 276.945C45.6409 272.296 43.3045 270.861 39.2331 270.584C38.4929 270.538 37.7989 269.682 37.1049 269.219C37.7989 268.548 38.4003 267.577 39.2331 267.299C41.3613 266.582 43.6053 266.165 45.7103 265.656C41.3151 251.569 30.327 240.904 28.2451 226.331C27.6899 226.285 27.3429 226.123 27.181 226.238C25.8855 227.21 24.6364 228.205 23.3641 229.199C23.2947 227.349 23.2484 225.475 23.1559 223.624C23.1328 222.977 23.0634 222.329 23.0634 222.283C20.0792 220.825 17.4652 219.715 15.0363 218.281C14.3654 217.887 14.2266 216.569 13.8565 215.667C14.8281 215.435 15.7765 215.135 16.7481 214.996C17.0951 214.95 17.5115 215.227 17.8816 215.389C20.0792 216.384 22.7626 218.003 24.3588 215.435C25.3535 213.839 25.0296 211.086 24.6364 208.981C22.9939 200.33 21.0046 191.724 19.339 183.073C17.4421 173.218 15.7765 163.34 13.949 153.093C11.5432 154.319 9.16058 155.707 6.59285 156.771C5.66754 157.141 4.39525 156.701 3.28488 156.609C3.655 155.568 3.7938 154.342 4.44152 153.532C6.43093 151.011 6.75477 149.368 3.19233 147.841C1.7581 147.217 1.04097 144.973 -1.18659e-06 143.469C1.73496 143.469 3.58555 143.099 5.18171 143.585C8.16584 144.464 11.0112 145.829 13.8796 146.985C14.8975 141.919 15.4758 137.247 16.8175 132.828C18.8763 126.097 21.3747 119.504 23.9193 112.957C24.567 111.292 25.8161 109.649 27.2504 108.562C30.9979 105.74 29.3555 103.935 26.5333 101.877C22.832 99.1932 21.6291 94.8905 23.5491 90.3565C26.3482 93.8264 28.8928 97.1113 31.6225 100.257C32.3396 101.09 33.635 101.437 34.6529 102.015C34.8611 100.813 35.4162 99.5402 35.2081 98.4067C34.3984 94.0809 33.2418 89.8245 32.4784 85.4986C32.3165 84.6196 33.3112 83.5555 33.7738 82.5839C34.6297 83.2316 35.9483 83.7405 36.2491 84.5965C37.1512 87.0948 37.6139 89.7551 38.331 92.3459C38.9093 94.451 39.6264 96.533 40.598 99.6327C44.4843 83.7174 44.4843 83.7174 48.0005 82.8384C47.7691 85.7762 47.6766 88.5753 47.3296 91.3281C47.0057 93.9421 46.4043 96.533 45.8491 99.5402C48.0236 99.5402 49.6892 99.5402 51.4241 99.5402C51.8868 87.3261 52.3494 75.2508 52.8352 62.551C50.0361 63.083 47.1445 63.6613 43.9985 64.2628C43.8597 60.3302 47.1446 59.5437 49.1109 58.7109C52.9046 57.1147 53.1822 55.8193 50.7533 52.627C49.319 50.7301 46.9364 47.9079 50.8458 45.3633C52.627 47.6072 54.362 49.8279 56.6984 52.7889C61.7645 44.3455 67.0156 36.4803 75.5978 32.9642C72.3592 28.8003 69.4908 25.4229 66.9693 21.8142C65.3501 19.5009 65.5582 19.3621 68.1491 17.1182C70.5317 19.8016 72.9376 22.485 75.3434 25.1916C75.7366 25.1222 76.1299 25.0296 76.5232 24.9602C76.5232 21.1433 76.5232 17.3264 76.5232 13.5326C76.9858 13.417 77.4484 13.3013 77.9111 13.1857C78.5588 14.1341 79.4842 15.0131 79.8312 16.0772C80.8259 19.1076 81.543 22.2537 82.5146 25.2841C82.7459 26.0243 83.5324 26.5795 84.0644 27.2041C84.689 26.6721 85.5449 26.2557 85.8919 25.5848C87.7425 22.0686 89.385 18.4831 91.2587 14.99C91.6057 14.3423 92.6235 14.0647 93.6645 13.417C95.6539 19.9404 90.9348 24.4976 89.917 30.7666C101.738 28.1526 103.982 39.21 110.898 45.479C111.292 42.9575 111.407 41.4307 111.824 39.9734C112.171 38.7473 112.865 37.5907 113.42 36.4109C113.952 36.4803 114.484 36.5729 114.993 36.6423C115.132 39.8577 115.502 43.0732 115.363 46.2886C115.247 48.9952 115.918 50.1981 118.833 50.3831C120.429 50.4988 121.956 51.7942 123.506 52.5576C123.367 52.9971 123.228 53.4367 123.089 53.8762C121.1 54.2463 119.111 54.6164 115.826 55.241C124.963 71.0869 125.171 89.6394 136.414 105.023C137.709 95.8621 138.958 87.1179 140.254 77.9805C137.941 78.9058 136.206 79.5998 134.471 80.3169C134.216 80.0393 133.962 79.7617 133.73 79.4841C134.818 77.7723 135.697 75.8523 137.038 74.3718C138.912 72.313 139.282 70.5318 137.2 68.4961C136.761 68.0565 136.229 67.4782 136.136 66.8999C135.951 65.7895 136.067 64.6329 136.067 63.4994C137.131 63.777 138.426 63.777 139.259 64.4016C142.22 66.5761 142.984 66.2291 144.048 62.7129C146.407 54.9634 148.975 47.2833 151.658 38.9324C150.155 39.0943 148.535 39.1406 146.962 39.4876C145.135 39.8809 143.4 40.7368 141.572 40.9912C140.439 41.1532 139.19 40.5286 138.01 40.251C138.843 38.9093 139.398 37.0124 140.601 36.3647C142.544 35.3237 144.927 35.1386 147.679 34.4447C147.032 33.1955 146.361 32.1314 145.852 30.9747C145.181 29.448 144.302 27.8981 144.094 26.3019C143.955 25.1916 144.765 23.9424 145.158 22.7395C146.106 23.6417 147.356 24.3819 147.911 25.4692C149.021 27.6668 149.646 30.1188 150.664 32.3858C151.103 33.3806 151.913 34.7454 152.722 34.8842C153.578 35.023 154.851 34.0514 155.545 33.2418C157.256 31.2523 158.668 28.9853 160.356 26.9728C164.659 21.7911 170.72 20.1024 176.966 19.2696C180.181 18.8301 180.921 17.8122 180.574 14.643C180.135 10.6411 180.459 6.54656 180.459 2.4752C180.991 2.29014 181.5 2.10508 182.032 1.92002C182.888 3.26172 184.183 4.48775 184.53 5.96825C185.316 9.36877 185.478 12.9312 186.242 16.3317C186.45 17.257 187.907 17.9048 188.786 18.6913C189.411 17.8122 190.406 17.0026 190.591 16.0541C191.215 12.6074 191.539 9.1143 192.002 5.66752C192.094 4.99667 192.071 4.14076 192.465 3.72437C193.737 2.38267 195.194 1.22603 196.582 -2.5172e-06C196.744 1.68869 197.299 3.44678 196.999 5.06608C196.189 9.64636 195.055 14.1572 194.5 19.0151C200.746 15.3601 204.91 8.65165 212.914 7.40248C213.238 12.2372 209.606 13.6252 207.223 15.7534C205.581 17.2108 203.36 18.0204 201.718 19.5009C201.209 19.9636 201.347 22.3 201.903 22.647C211.225 28.5458 215.25 37.6833 217.725 47.8385C218.489 50.9383 219.622 51.3316 222.098 49.0877C223.277 48.0236 223.994 46.4043 225.267 45.5484C226.331 44.8313 227.904 44.8775 229.246 44.5768C229.014 45.8954 229.107 47.4221 228.459 48.5094C227.117 50.7764 225.359 52.7658 223.879 54.9634C223.416 55.6574 223.3 56.6058 223 57.6006C226.701 58.2483 230.101 58.6878 233.409 59.5206C234.45 59.775 235.214 61.0473 236.116 61.857C234.89 62.389 233.687 63.2449 232.438 63.3606C230.171 63.5688 227.834 63.1293 225.567 63.3837C224.573 63.4994 222.977 64.6329 222.907 65.3963C221.913 78.5126 221.126 91.652 220.201 106.064C222.445 104.699 223.694 103.612 225.151 103.172C226.4 102.779 227.881 103.103 229.246 103.126C228.714 104.514 228.367 106.017 227.557 107.22C226.516 108.77 223.046 109.071 224.943 112.055C225.914 113.582 227.326 114.854 228.528 116.242C228.783 116.543 228.922 116.913 229.87 118.509C227.511 118.046 226.03 117.931 224.688 117.445C223.208 116.913 221.912 115.826 220.409 115.409C219.669 115.201 218.142 115.779 217.887 116.404C216.846 118.833 216.199 121.424 215.32 123.945C213.423 129.312 212.497 135.188 206.992 138.681C205.951 139.352 205.997 141.734 205.558 143.354C205.905 143.631 206.252 143.909 206.599 144.186C209.467 141.919 212.336 139.652 215.204 137.362C216.014 136.715 216.708 135.836 217.61 135.419C218.327 135.095 219.322 135.28 220.178 135.257C220.154 136.229 220.525 137.501 220.039 138.103C217.91 140.809 215.759 143.585 213.168 145.806C211.387 147.332 211.156 148.142 213.053 149.391C218.211 152.838 220.201 158.066 221.195 163.849C221.959 168.314 222.63 172.779 223.555 178.608C225.544 176.711 226.516 175.485 227.788 174.652C228.667 174.074 229.916 173.912 231.004 173.958C231.258 173.958 231.929 175.925 231.605 176.318C227.372 181.291 231.027 183.929 235.006 186.543C234.797 186.959 234.589 187.352 234.381 187.769C232.207 187.468 229.708 187.769 227.927 186.774C224.11 184.646 223.925 186.519 223.879 189.55C223.74 196.443 223.74 203.337 223.138 210.184C222.676 215.458 221.334 220.64 220.386 225.868C220.594 226.03 220.941 226.238 221.288 226.423ZM181.893 481.763C178.747 481.763 175.531 481.878 172.339 481.67C171.46 481.624 170.65 480.56 169.818 479.958C170.581 479.38 171.298 478.408 172.108 478.316C177.706 477.599 183.304 476.835 188.925 476.512C207.362 475.424 225.799 474.522 244.236 473.504C246.132 473.389 248.608 473.99 248.793 470.89C249.556 459 248.099 447.225 246.109 435.567C244.189 424.37 241.783 413.243 239.702 402.07C238.707 396.796 238.707 391.198 236.926 386.248C232.901 375.028 227.881 364.156 223.555 353.029C219.067 341.509 214.903 329.873 210.647 318.26C209.56 315.276 208.01 314.929 205.488 316.734C201.787 319.417 197.415 319.163 193.783 316.271C186.866 310.765 179.695 310.974 172.709 316.988C168.059 320.967 162.855 323.812 156.678 322.216C152.098 321.036 147.656 318.954 143.446 316.71C136.923 313.217 128.688 313.333 122.997 317.937C114.345 324.923 105.37 326.334 95.5614 320.504C93.5257 319.301 91.1893 318.561 88.9223 317.821C82.2369 315.693 76.6388 318.931 70.9482 321.615C64.3785 324.714 56.9297 323.558 52.0255 318.769C51.5166 318.284 49.0646 318.654 48.8333 319.186C45.0395 327.814 41.4076 336.512 37.8683 345.233C35.3237 351.525 33.0798 357.956 30.4427 364.202C28.1988 369.546 24.6826 374.519 23.3641 380.048C20.5882 391.637 18.8069 403.458 16.725 415.21C16.0773 418.911 15.4295 422.658 15.337 426.406C15.0826 436.237 14.5273 446.115 15.2445 455.877C15.8228 463.858 18.2054 471.677 19.4315 479.634C19.9173 482.711 20.8194 484.261 24.1968 484.03C36.5497 483.197 48.9258 482.734 61.2555 481.67C77.1709 480.305 93.0399 480.166 108.978 481.092C117.538 481.601 126.189 480.537 134.794 479.981C140.971 479.588 147.101 478.802 153.278 478.362C154.018 478.316 154.804 479.287 155.591 479.796C154.804 480.328 154.018 481.3 153.231 481.3C148.211 481.208 149.761 485.048 149.276 487.638C148.72 490.623 151.034 490.322 152.838 490.692C162.67 492.658 162.577 492.658 163.803 483.127C164.011 481.531 165.191 480.074 165.908 478.547C166.417 478.732 166.903 478.894 167.412 479.079C167.412 483.266 167.412 487.453 167.412 492.566C173.264 491.455 178.446 490.461 183.582 489.466C182.911 486.505 182.471 484.446 181.893 481.763ZM78.4663 222.537C77.2171 223.393 76.5 223.902 75.7598 224.365C74.5106 225.128 73.2614 225.845 71.9891 226.562C72.3361 225.244 72.4287 223.786 73.0533 222.606C76.0143 216.985 75.8292 216.499 69.4214 215.389C69.2826 215.366 69.0975 215.435 69.0281 215.366C68.1722 214.603 67.3394 213.816 66.4835 213.029C67.5013 212.22 68.4035 210.971 69.537 210.693C71.2489 210.3 73.1226 210.601 75.4128 210.601C74.4643 207.963 73.7935 205.997 73.0533 204.008C70.7631 197.762 68.5655 191.47 66.1597 185.293C63.4994 178.492 60.5847 171.784 57.855 165.006C55.588 159.385 53.2978 153.763 51.239 148.073C48.6713 140.948 46.0573 133.823 43.9291 126.536C42.2635 120.892 41.3382 115.016 40.0196 109.279C39.9271 108.886 39.3488 108.608 38.2847 107.59C37.128 114.877 36.0639 121.424 35.1155 127.994C35.023 128.687 35.3931 129.728 35.902 130.145C38.7705 132.481 38.8167 135.026 36.9198 137.964C36.5497 138.542 36.5266 139.467 36.596 140.208C37.0818 145.436 37.3825 150.687 38.2153 155.868C39.0018 160.726 39.7189 165.816 41.6852 170.257C45.132 178.053 47.7691 186.01 49.2033 194.361C50.8226 203.614 51.4935 213.053 53.668 222.167C54.8709 227.164 53.9224 232.993 58.2482 237.134C58.7803 237.643 58.7572 238.846 58.7572 239.748C58.7572 242.755 57.7856 246.063 58.7109 248.723C61.6025 257.167 65.1419 265.379 68.4961 273.66C69.6296 276.46 70.9944 279.166 72.313 282.034C74.4412 280.924 76.1762 280.045 77.888 279.143C78.1887 279.397 78.4894 279.675 78.7901 279.929C78.2812 281.595 77.7723 283.284 77.2171 285.088C79.1603 286.314 81.2885 287.679 83.4398 289.044C83.2548 289.506 83.0928 289.946 82.9078 290.409C81.1728 290.409 79.4148 290.154 77.7492 290.501C76.7545 290.709 75.9448 291.843 75.0426 292.537C75.9911 293.37 76.8701 294.781 77.9111 294.943C80.155 295.266 82.4914 294.966 84.7815 294.919C92.3691 294.758 92.3459 294.758 91.7907 287.239C91.7676 286.846 91.7908 286.43 91.7445 286.036C90.3797 276.737 89.3156 267.391 87.5575 258.162C85.7994 248.978 83.3936 239.933 81.1497 230.842C80.5714 228.135 79.5073 225.591 78.4663 222.537ZM182.749 250.643C182.379 250.99 182.008 251.337 181.638 251.684C180.782 251.106 179.973 250.296 179.024 249.996C176.804 249.325 174.513 248.908 172.246 248.376C171.876 249.972 171.229 251.569 171.206 253.165C171.09 264.361 171.044 275.58 171.067 286.777C171.067 292.236 172.755 293.555 178.03 292.19C180.597 291.542 183.327 290.779 183.096 287.101C183.049 286.245 183.628 285.342 183.975 284.487C186.172 278.796 188.833 273.221 190.498 267.391C192.788 259.434 194.778 251.337 196.073 243.171C198.525 227.904 200.121 212.521 202.55 197.253C204.702 183.72 202.828 170.326 202.273 156.886C202.227 155.961 201.602 155.059 200.908 153.324C199.289 155.429 197.993 156.748 197.091 158.297C193.413 164.728 189.596 171.113 186.311 177.752C182.98 184.53 179.441 191.354 177.428 198.572C175.115 206.946 174.305 215.736 172.964 224.365C172.431 227.811 172.2 231.304 171.899 234.797C171.83 235.63 171.946 236.509 171.992 237.342C172.894 237.088 173.889 237.041 174.652 236.555C176.757 235.237 178.677 233.34 181.731 235.191C180.69 236.81 180.065 238.591 178.816 239.54C174.93 242.477 177.474 244.143 179.649 246.248C180.921 247.474 181.731 249.163 182.749 250.643ZM140.462 163.919C140.092 164.219 139.745 164.543 139.375 164.844C137.385 163.641 135.28 162.554 133.407 161.166C131.163 159.5 130.284 160.449 129.844 162.67C129.682 163.456 129.659 164.289 129.659 165.098C129.405 191.03 129.15 216.939 128.942 242.871C128.942 243.865 129.266 244.86 129.474 246.04C130.353 245.832 130.839 245.716 131.325 245.577C132.713 245.161 134.101 244.721 135.489 244.282C135.257 245.716 134.91 247.173 134.864 248.608C134.841 249.764 134.818 251.175 135.442 252.031C136.668 253.72 138.45 254.969 139.745 256.612C140.37 257.398 140.37 258.694 140.925 260.706C136.553 258.208 133.222 256.288 129.15 253.951C128.41 266.697 127.67 278.588 127.114 290.478C127.068 291.38 128.317 293.046 129.104 293.138C132.296 293.508 135.535 293.508 138.75 293.393C139.352 293.37 140.231 292.282 140.416 291.542C141.457 287.517 142.498 283.492 143.238 279.397C144.649 271.648 145.528 263.76 147.263 256.08C148.882 248.908 150.085 241.853 148.906 234.497C148.235 230.425 147.934 226.238 147.888 222.098C147.841 219.298 148.906 216.499 148.836 213.723C148.605 203.106 147.957 192.488 147.749 181.87C147.356 162.114 143.099 143.053 137.987 124.107C137.802 123.459 137.177 122.904 136.668 122.21C133.36 127.947 129.636 144.371 131.995 151.427C133.684 150.016 135.188 148.512 136.946 147.379C137.686 146.916 138.912 147.217 139.93 147.194C139.814 148.119 139.907 149.16 139.514 149.946C138.82 151.334 138.01 152.792 136.877 153.833C134.841 155.707 135.165 156.979 137.015 158.806C138.473 160.194 139.329 162.184 140.462 163.919ZM113.142 298.436C113.142 298.598 113.142 298.783 113.142 298.945C96.533 298.945 79.9236 298.898 63.3143 299.014C61.8107 299.037 59.8676 299.777 58.8729 300.865C56.9529 302.97 55.5417 305.56 53.9918 307.989C51.9561 311.205 53.3441 316.433 56.814 317.52C62.1346 319.209 67.6864 319.255 72.4286 316.109C80.3863 310.812 88.4134 310.858 96.3248 315.392C104.838 320.25 112.541 319.764 120.036 313.588C125.009 309.493 130.885 307.897 136.969 309.609C142.96 311.274 148.905 313.495 154.388 316.387C160.495 319.625 165.561 317.474 169.887 314.004C176.04 309.054 182.587 307.874 189.758 309.956C192.187 310.65 194.199 312.824 196.351 314.374C199.404 316.549 202.342 315.484 205.026 313.865C207.871 312.153 206.506 309.562 205.673 307.388C201.209 295.914 198.733 294.318 186.427 294.781C184.275 294.873 182.101 295.058 179.973 295.405C174.143 296.354 168.36 298.135 162.531 298.274C146.083 298.713 129.613 298.436 113.142 298.436ZM38.3541 179.209C38.0071 176.757 37.9146 174.976 37.4982 173.264C36.5266 169.1 35.1155 165.029 34.4447 160.842C33.45 154.619 32.9873 148.304 32.1777 142.035C31.9232 140.092 31.8075 137.409 28.569 139.791C28.0832 140.161 26.9496 139.652 26.14 139.56C26.3713 138.727 26.3251 137.409 26.8802 137.108C31.368 134.517 30.0495 131.81 27.4817 128.664C26.1863 127.091 26.3251 125.426 28.8234 124.709C29.7718 124.431 31.1829 123.76 31.3448 123.043C32.2933 118.995 32.9179 114.877 33.8664 109.649C32.0389 110.945 30.9054 111.43 30.2577 112.286C25.261 118.764 22.3 126.328 21.0971 134.216C19.2233 146.361 19.4315 158.506 22.3462 170.697C25.1916 182.656 26.6952 194.963 28.8928 207.084C30.0263 213.284 31.2292 219.484 32.7097 225.591C33.635 229.477 34.7685 233.386 36.4572 236.972C39.4645 243.333 42.9806 249.44 46.2655 255.663C49.2265 261.284 52.3263 266.836 55.1022 272.55C57.4155 277.292 59.4049 282.196 61.3943 287.077C62.3428 289.391 62.4585 292.282 63.9389 294.064C64.8874 295.197 67.7327 295.151 69.6527 294.896C70.393 294.804 71.619 292.398 71.3183 291.519C68.7506 284.394 65.9052 277.362 63.0599 270.329C60.631 264.292 58.0863 258.3 55.588 252.309C55.0791 251.106 54.8246 249.394 53.9224 248.932C53.1822 248.538 51.6554 249.579 49.7354 250.25C49.9899 248.006 49.7817 245.924 50.5219 244.236C52.4419 239.863 52.3726 239.47 47.6072 238.175C46.7051 237.92 45.7334 237.712 44.9469 237.249C44.4611 236.972 43.906 236.093 44.0448 235.7C44.253 235.075 45.1089 234.127 45.5484 234.196C52.3263 235.353 51.9561 231.929 50.0824 227.395C49.8279 226.793 49.9668 226.053 49.828 225.382C47.7923 214.464 45.7335 203.568 43.6746 192.511C41.6621 192.95 40.0428 193.32 38.4235 193.667C38.1922 193.413 37.9377 193.135 37.7064 192.881C38.4003 191.794 39.0018 190.637 39.7652 189.596C41.7546 186.982 41.2919 185.293 38.2847 184.067C36.6885 183.396 35.1155 182.679 33.6813 181.731C33.0798 181.338 32.409 180.042 32.6403 179.649C33.0799 178.886 34.0746 178.145 34.9536 177.96C35.6476 177.868 36.5498 178.539 38.3541 179.209ZM134.193 112.911C129.289 113.35 122.766 118.555 121.1 123.598C118.093 132.597 114.715 141.596 113.073 150.872C110.968 162.762 109.904 174.884 109.302 186.959C108.631 200.376 108.863 213.839 108.886 227.279C108.886 232.276 109.002 237.319 109.765 242.223C111.107 250.643 113.165 258.971 114.623 267.368C115.27 271.046 115.201 274.84 115.409 278.033C118.486 278.935 121.077 279.675 123.899 280.485C124.362 275.419 125.148 270.352 125.171 265.286C125.194 257.907 124.547 250.505 124.385 243.125C124.107 231.651 124.015 220.178 123.806 208.704C123.783 207.57 123.575 206.46 123.436 205.257C121.47 205.881 119.966 206.39 118.44 206.876C118.185 206.483 117.931 206.09 117.676 205.696C119.041 204.147 120.522 202.666 121.725 201.024C122.927 199.381 123.968 197.901 121.216 196.143C118.856 194.639 116.982 192.141 115.363 189.758C114.715 188.81 115.363 187.005 115.409 185.594C116.543 186.195 117.746 186.704 118.787 187.422C120.152 188.393 121.401 189.527 123.274 191.053C124.015 181.661 125.241 173.38 125.171 165.122C125.009 147.286 128.595 130.191 134.193 112.911ZM61.2786 160.726C63.1524 158.205 64.4247 156.516 65.6739 154.827C66.1366 154.943 66.5992 155.059 67.0618 155.198C67.0618 157.511 67.432 159.894 66.9693 162.091C66.4836 164.428 66.5066 165.561 69.0975 166.648C71.3645 167.62 74.3487 169.355 72.2204 173.172C71.8041 172.964 71.4802 172.779 71.1332 172.663C69.8609 172.2 68.5655 171.761 67.2701 171.321C67.2701 172.57 67.085 173.843 67.2932 175.046C67.5014 176.225 68.0565 177.336 68.5192 178.446C70.7631 183.836 73.4002 189.11 75.2508 194.639C78.5357 204.609 81.728 214.649 84.2726 224.85C86.8403 235.098 88.5984 245.554 90.796 255.894C91.0968 257.352 91.8602 258.694 92.0452 259.179C94.4279 258.185 95.9547 257.537 97.4814 256.912C97.574 258.532 98.2216 260.382 97.6433 261.724C95.8158 266.073 96.3247 267.137 101.9 267.993C101.113 264.662 100.373 261.516 99.6328 258.347C98.3605 252.841 97.4351 247.243 95.7927 241.876C92.1146 229.847 89.2693 217.702 90.7498 205.026C91.4438 199.08 92.1378 193.274 88.5753 187.907C88.2515 187.398 88.4134 186.589 88.2746 185.918C87.2567 180.944 86.5396 175.855 85.0823 170.997C83.4167 165.445 81.2654 160.009 79.0215 154.642C76.7545 149.206 74.3024 143.839 71.5727 138.611C68.4961 132.759 65.2807 126.929 61.6257 121.401C57.9938 115.941 53.8993 110.806 49.666 105.786C48.8564 104.838 46.4737 104.791 44.9238 105.046C44.3455 105.138 43.5821 107.336 43.7672 108.423C44.6462 113.119 45.8029 117.769 47.0058 122.419C47.1446 122.974 48.0698 123.344 48.8564 124.015C49.2496 123.066 49.3653 122.349 49.7586 121.886C50.8458 120.707 52.3032 118.555 53.1591 118.764C55.7962 119.365 54.3851 121.331 53.7605 122.927C52.9277 124.986 53.2979 126.351 55.6112 127.369C57.3461 128.132 58.7109 129.728 60.9548 131.533C56.6753 131.81 53.6449 131.995 50.0362 132.227C54.0612 142.336 57.5543 151.265 61.2786 160.726ZM172.339 155.637C174.12 154.897 175.092 154.596 175.971 154.11C180.435 151.635 184.692 148.605 189.411 146.754C192.626 145.482 193.991 143.701 194.199 140.67C194.454 136.784 193.367 132.597 197.345 129.775C197.739 129.497 197.762 128.526 197.785 127.878C197.924 119.573 198.225 111.292 198.086 102.987C197.808 88.2746 197.369 73.5853 196.767 58.896C196.49 52.1875 195.772 45.5021 195.102 38.8399C194.963 37.4982 194.084 36.2259 193.552 34.9304C193.112 34.9998 192.65 35.0692 192.21 35.1618C192.187 45.5946 187.005 55.0791 186.034 66.3216C189.573 64.6329 192.118 63.2218 193.76 67.2932C192.511 68.0103 191.4 68.6811 190.267 69.3057C185.293 72.0816 185.201 72.9838 189.272 76.4537C189.989 77.0783 190.221 78.2812 190.66 79.2065C189.689 79.2528 188.624 79.5767 187.722 79.2991C183.165 77.9805 183.165 77.9574 182.679 82.6533C182.124 87.8813 181.523 93.1093 180.852 98.3142C179.51 108.955 177.821 119.55 176.896 130.237C176.41 135.72 176.757 141.179 174.375 146.43C173.195 148.952 173.079 152.005 172.339 155.637ZM162.924 293.624C163.109 293.647 163.757 293.763 164.428 293.74C168.985 293.578 169.355 292.953 168.175 288.627C167.759 287.101 167.712 285.412 167.712 283.816C167.62 266.004 167.504 248.168 167.481 230.356C167.458 215.667 170.419 201.579 176.04 188.023C177.081 185.502 178.007 182.934 179.163 179.973C175.439 179.788 172.108 179.626 168.777 179.464C168.753 178.909 168.73 178.354 168.707 177.798C170.974 177.174 173.218 176.434 175.508 175.971C178.03 175.485 179.279 174.236 179.094 171.552C178.932 169.262 178.77 166.949 179.001 164.682C179.094 163.826 180.32 163.086 181.014 162.276C181.546 163.04 182.355 163.734 182.587 164.59C182.98 166.047 183.049 167.62 183.234 169.147C183.651 169.309 184.09 169.447 184.507 169.609C188.416 163.872 192.349 158.112 196.258 152.375C196.096 151.959 195.911 151.566 195.749 151.149C192.626 151.867 189.272 152.098 186.427 153.416C177.359 157.557 171.437 164.913 167.065 173.658C165.654 176.503 164.034 179.279 162.993 182.263C160.518 189.388 158.344 196.582 156.1 203.776C155.984 204.147 156.447 204.679 156.817 205.535C158.297 204.517 159.547 203.684 160.888 202.759C163.225 205.257 161.86 207.2 160.495 209.305C159.061 211.549 156.655 213.654 159.223 216.731C160.171 217.887 160.634 219.46 161.305 220.848C159.662 220.339 158.02 219.784 156.354 219.298C156.123 219.229 155.845 219.368 155.383 219.46C154.342 244.305 156.933 268.849 162.924 293.624ZM212.405 214.186C212.127 214.464 211.85 214.718 211.572 214.996C210.809 214.672 209.93 214.51 209.305 214.024C206.714 211.965 205.534 212.868 205.026 215.805C204.563 218.581 204.008 221.334 203.476 224.11C201.694 233.34 199.936 242.547 198.109 251.754C197.6 254.321 197.369 256.334 201.116 256.01C202.62 255.871 204.193 256.658 205.65 256.982C205.789 257.444 205.881 257.676 205.905 257.93C205.928 258.185 205.951 258.67 205.858 258.717C200.468 260.336 201.81 264.708 201.81 268.525C201.81 268.594 201.602 268.664 200.885 269.126C199.89 268.109 198.803 266.929 197.623 265.818C196.351 264.616 195.194 264.107 194.338 266.304C192.464 270.977 190.383 275.557 188.671 280.276C187.769 282.775 187.329 285.481 187.005 288.118C186.913 288.882 187.699 290.247 188.393 290.547C194.708 293.115 198.155 291.334 200.214 284.602C200.376 284.093 200.538 283.584 200.746 283.099C203.314 276.83 206.529 270.746 208.287 264.269C211.017 254.206 212.798 243.865 214.903 233.641C215.412 231.142 215.482 228.552 215.921 226.03C217.101 219.183 218.674 212.405 219.576 205.535C221.311 192.279 218.882 179.209 216.939 166.209C216.176 161.12 214.996 155.383 209.004 152.838C206.876 151.936 205.766 152.167 205.928 154.504C206.205 159.061 207.015 163.618 207.131 168.175C207.385 178.215 207.339 188.254 207.385 198.294C207.385 199.15 207.385 199.983 207.362 200.839C208.172 200.653 208.958 200.422 209.768 200.306C211.086 200.121 212.428 200.006 213.77 199.867C213.376 200.977 213.053 202.134 212.567 203.175C212.243 203.892 211.734 204.563 211.156 205.118C209.028 207.084 207.547 208.889 211.133 211.017C211.942 211.456 212.012 213.099 212.405 214.186ZM174.999 99.9566C175.67 96.533 176.318 94.1966 176.572 91.8139C177.22 85.5218 177.081 79.0677 178.4 72.9144C180.297 64.0546 183.42 55.4723 185.571 46.6588C187.121 40.2972 188 33.7738 188.995 27.3198C189.11 26.5101 188.277 25.5386 187.884 24.6595C187.236 25.3535 186.381 25.9318 185.941 26.7415C184.276 29.7487 182.911 32.9179 181.106 35.8558C176.896 42.7262 171.576 49.0877 168.406 56.3976C164.52 65.3963 161.999 75.0426 159.57 84.5965C157.673 92.0915 156.817 99.8641 155.452 107.521C155.29 108.423 154.781 109.256 154.457 110.135C152.746 114.831 156.308 122.974 161.004 124.662C162.022 122.048 163.202 119.411 167.25 121.169C166.625 122.419 165.769 123.436 165.654 124.524C165.445 126.259 165.029 128.641 165.931 129.752C168.939 133.407 169.054 133.522 164.081 135.026C165.445 140.508 166.81 145.991 168.337 152.144C171.46 146.546 173.264 141.087 173.311 134.98C173.38 127.577 173.704 120.175 173.912 112.772C173.935 111.592 173.912 110.413 173.912 108.793C170.72 109.927 167.874 110.968 164.983 111.893C164.196 112.148 163.294 112.009 162.461 112.055C162.739 111.153 162.716 109.904 163.34 109.441C165.191 107.961 167.273 106.735 169.309 105.485C171.252 104.306 171.252 103.334 169.494 101.83C167.018 99.7022 166.51 97.0188 168.198 93.5257C170.28 95.4457 172.061 97.1575 174.999 99.9566ZM90.1252 91.0274C94.1271 92.1146 95.6077 86.0076 99.5634 89.3618C97.3195 92.6467 95.1219 95.8621 92.5542 99.5865C95.1682 100.535 97.1576 101.275 99.147 101.969C102.432 103.103 102.524 103.241 101.16 106.388C100.697 106.133 100.257 105.832 99.7947 105.624C93.5951 102.848 90.7035 104.514 90.796 111.176C91.0042 127.485 91.49 143.793 91.7445 160.125C91.837 166.463 91.5132 172.802 91.5595 179.163C91.5595 180.412 92.346 181.662 92.7623 182.911C94.5898 174.837 95.1681 167.042 96.5098 159.385C97.4814 153.902 99.4477 148.582 100.928 143.169C101.298 141.85 101.53 140.508 101.83 139.167C100.304 138.982 98.7537 138.635 97.2269 138.704C96.4636 138.727 95.7464 139.514 94.8905 140.046C93.5026 137.455 93.9884 136.159 96.6718 135.419C102.663 133.777 102.64 133.684 102.316 127.554C102.27 126.883 102.085 126.166 102.247 125.541C102.571 124.269 103.08 123.043 103.519 121.794C104.329 122.835 105.046 123.992 105.994 124.894C106.711 125.565 107.729 125.935 108.631 126.42C109.857 122.881 112.333 119.226 112.055 115.803C111.292 107.035 109.487 98.3142 107.706 89.6625C106.943 85.9613 105.809 82.075 103.82 78.9289C102.015 76.1299 98.3836 74.3718 101.645 70.393C101.784 70.2079 101.067 69.352 100.789 68.7968C98.3605 63.9389 95.9316 59.081 93.5026 54.2C91.4438 50.0824 89.4081 45.9648 87.3724 41.8471C86.8866 41.9397 86.3777 42.0322 85.8919 42.1247C87.303 58.5027 88.7372 74.927 90.1252 91.0274ZM199.474 138.611C199.867 138.658 200.26 138.704 200.677 138.75C202.897 135.419 202.597 129.937 208.472 129.752C208.75 129.752 209.143 129.266 209.259 128.919C210.832 124.547 213.029 120.29 213.816 115.779C216.592 99.9798 217.702 83.995 217.494 67.9409C217.471 66.6455 216.523 65.3732 216.083 64.0546C215.713 62.9211 215.389 61.7413 215.25 60.5384C215.019 58.7109 215.227 56.7909 214.764 55.0328C214.07 52.3494 212.706 49.8048 212.15 47.0983C210.786 40.3898 207.709 34.6529 202.759 30.0032C201.278 28.6152 199.242 27.8056 197.461 26.7415C196.929 28.7077 197.114 29.7256 197.345 30.7203C198.34 34.8611 199.983 38.9324 200.26 43.1194C200.908 53.4829 200.839 63.8695 201.278 74.233C201.463 78.6976 202.157 83.1622 202.643 87.7657C205.442 86.6322 207.755 85.7068 210.069 84.7815C210.346 85.2442 210.624 85.7068 210.901 86.1926C209.722 87.7425 208.611 89.3618 207.339 90.8192C205.326 93.1093 204.725 94.798 207.894 96.9494C209.328 97.9209 212.868 98.5687 211.48 101.969C211.017 102.062 210.762 102.177 210.508 102.154C209.976 102.085 209.444 102.015 208.935 101.83C202.99 99.8178 202.99 99.8178 202.944 106.341C202.944 107.151 203.082 107.961 203.013 108.77C202.18 116.358 201.347 123.922 200.468 131.51C200.191 133.846 199.821 136.229 199.474 138.611ZM86.7941 165.075C87.1642 165.029 87.5112 165.006 87.8813 164.96C88.0201 163.572 88.3671 162.161 88.2283 160.796C87.5575 154.295 86.3083 147.818 86.0769 141.295C85.4524 122.557 85.4293 103.82 84.7584 85.0822C84.2958 72.4749 83.1623 59.8676 82.2832 47.2833C82.2138 46.2886 81.7511 45.3171 81.4736 44.3224C79.3685 52.0024 77.9342 59.4743 76.7082 66.9693C75.2277 75.9679 74.3024 85.0822 72.4749 94.0115C70.1848 105.3 68.6118 116.566 70.9482 127.97C71.5034 130.677 73.5853 133.06 74.9733 135.581C75.3896 135.396 75.8061 135.188 76.2224 135.003C76.4769 133.985 76.5231 132.828 77.0552 131.995C77.6104 131.116 78.6514 130.538 79.4842 129.821C80.155 130.723 81.6124 131.926 81.4042 132.504C79.7386 137.062 79.646 141.017 85.6374 143.354C85.2904 143.562 84.9435 143.77 84.5965 144.001C82.9772 144.21 81.3811 144.418 78.9752 144.718C81.6355 151.751 84.2032 158.413 86.7941 165.075ZM168.73 35.7864C168.73 37.2206 168.615 38.3078 168.777 39.3257C168.915 40.1585 169.378 40.945 169.702 41.7777C170.488 41.4539 171.599 41.3382 171.992 40.7599C175.578 35.3237 179.048 29.795 182.564 24.2894C182.263 23.9193 181.939 23.5723 181.638 23.2021C179.117 23.7111 176.595 24.3588 174.051 24.6595C168.661 25.3304 164.474 28.1294 161.698 32.4784C158.297 37.7758 155.336 43.4202 152.561 49.0877C150.756 52.7889 149.438 56.7678 148.327 60.7466C146.083 68.7274 143.631 76.6851 142.266 84.8278C141.318 90.4722 142.012 96.3942 142.058 102.2C142.058 102.987 142.59 103.75 143.076 105.115C144.14 103.612 144.857 102.709 145.482 101.761C148.559 97.0187 151.982 92.4847 154.504 87.4649C155.938 84.5965 155.707 80.9184 156.539 77.6798C158.413 70.4624 160.541 63.2912 162.438 56.0738C162.67 55.2179 162.346 53.9456 161.79 53.2747C161.49 52.9046 160.079 53.3441 159.246 53.6217C157.627 54.1769 156.077 54.894 154.504 55.5186C154.203 53.8993 154.272 52.8352 154.735 52.6039C158.066 50.9152 161.467 49.3884 165.284 47.6072C165.145 45.8028 164.775 43.397 164.867 40.9912C164.936 38.7474 163.872 35.4394 168.73 35.7864ZM77.3328 38.7936C72.7525 39.7421 70.2079 42.9807 67.6171 45.8954C61.2787 52.9971 58.3408 61.9032 56.9528 70.9481C55.5649 79.9468 56.467 89.2924 55.3567 98.3605C54.2232 107.614 61.51 111.777 64.9105 118.255C65.3963 118.162 65.8589 118.046 66.3447 117.954C66.3447 111.662 66.3447 105.37 66.3447 98.7537C64.8642 99.0082 63.1062 99.3089 60.3303 99.7715C61.4869 97.9672 61.9495 96.7643 62.8054 95.9778C65.1187 93.8727 66.3448 91.9758 63.2218 89.4775C62.2734 88.7141 61.5331 87.2799 61.3249 86.077C61.1399 84.9435 61.7876 83.6712 62.0652 82.4683C63.1525 82.9772 64.2628 83.4167 65.3038 83.9719C66.1597 84.4345 66.9693 85.036 67.8021 85.568C68.3341 84.7121 69.19 83.9025 69.3751 82.9772C70.6243 76.1299 71.6884 69.2363 72.9144 62.389C74.3024 54.7552 75.7829 47.1445 77.3328 38.7936ZM115.826 113.883C118.602 111.754 120.799 109.487 123.459 108.238C126.259 106.92 126.629 105.092 126.513 102.455C126.004 92.2534 122.812 82.6533 119.411 73.2383C115.363 62.0883 109.557 51.6786 102.131 42.4255C97.0881 36.1334 96.5098 34.4909 90.3334 36.8967C91.0274 38.5623 91.6288 40.2741 92.4616 41.8703C95.8159 48.3243 99.4477 54.6627 102.594 61.2324C103.843 63.8464 104.699 65.1187 107.521 63.1061C108.331 62.5278 109.765 62.8054 111.824 62.5972C110.389 65.9515 109.256 68.5886 108.354 70.74C111.06 72.66 113.212 74.1867 115.34 75.6904C115.109 76.1067 114.9 76.5 114.669 76.9164C113.004 76.9164 111.338 76.9164 109.603 76.9164C111.639 89.2461 113.674 101.206 115.826 113.883ZM154.642 188.37C157.164 182.61 159.385 177.405 161.698 172.223C162.831 169.679 165.168 167.204 165.145 164.705C165.098 158.552 164.96 152.098 163.109 146.315C160.564 138.311 156.748 130.654 152.861 123.159C150.27 118.185 146.523 113.813 140.393 111.292C140.393 113.05 140.138 114.391 140.439 115.594C142.567 124.292 144.811 132.99 147.078 141.665C147.24 142.336 148.073 143.377 148.443 143.307C149.183 143.169 150.016 142.544 150.432 141.896C151.334 140.462 151.936 138.82 152.838 137.409C153.347 136.622 154.249 136.067 154.966 135.396C155.429 136.275 156.331 137.177 156.285 138.01C156.146 140.485 155.614 142.96 155.244 145.32C156.655 146.453 158.112 147.61 159.593 148.79C159.385 149.114 159.176 149.438 158.968 149.761C157.65 149.761 156.308 149.761 154.989 149.761C149.692 149.738 149.646 149.738 150.155 154.851C151.173 165.029 152.237 175.207 153.347 185.363C153.416 186.381 154.134 187.283 154.642 188.37ZM103.75 215.644C103.149 187.838 106.318 160.981 110.528 134.17C107.614 140.069 104.514 145.898 102.918 152.098C101.206 158.691 100.928 165.63 99.9798 172.408C98.4067 183.697 96.7181 194.986 95.2376 206.298C94.9831 208.195 94.7055 210.994 95.7465 211.919C97.6665 213.654 100.535 214.256 103.75 215.644ZM95.5845 216.476C95.3532 217.587 94.8906 218.581 95.0294 219.46C95.7465 223.555 96.5561 227.626 97.5045 231.674C99.7021 241.043 102.432 250.296 104.167 259.735C105.994 269.589 106.92 279.629 108.192 289.576C108.446 291.635 108.331 293.763 111.407 293.531C114.507 293.3 113.79 291.033 113.582 289.344C112.333 279.536 110.991 269.728 109.603 259.943C108.238 250.389 106.804 240.858 105.37 231.304C105.254 230.541 105.092 229.778 104.953 229.084C103.288 228.899 101.807 228.76 100.165 228.575C102.709 222.514 101.784 220.108 95.5845 216.476ZM156.724 282.196C154.966 273.545 153.393 265.818 151.82 258.069C151.358 258.069 150.918 258.046 150.455 258.046C149.183 263.713 147.795 269.381 146.639 275.072C145.621 280.138 144.765 285.227 144.025 290.339C143.839 291.681 144.371 293.115 144.58 294.503C146.176 293.878 148.165 293.647 149.276 292.537C150.594 291.218 151.173 289.136 151.913 287.725C150.802 285.689 149.808 283.862 148.304 281.132C151.658 281.572 153.671 281.826 156.724 282.196ZM94.1966 277.616C94.104 277.639 93.9884 277.662 93.8958 277.662C94.6129 282.034 95.5614 286.36 95.9778 290.756C96.4635 295.868 100.142 293.161 102.455 293.601C104.953 294.087 105.879 292.56 105.532 290.247C104.791 285.088 104.19 279.883 103.149 274.771C102.339 270.769 100.211 269.728 95.8159 270.676C92.346 271.44 94.5667 274.169 94.1272 275.997C93.9884 276.506 94.1503 277.084 94.1966 277.616ZM92.0221 494.995C92.6235 486.921 90.4722 484.515 83.5092 484.816C82.9772 484.839 82.422 484.839 81.8899 484.909C78.3969 485.395 77.3559 487.315 77.4947 492.196C77.6104 495.758 80.155 494.902 82.1212 494.971C85.3367 495.064 88.5753 494.995 92.0221 494.995ZM203.961 490.252C208.287 490.021 211.989 490.09 215.597 489.489C216.939 489.258 219.137 487.338 218.998 486.459C218.674 483.983 217.332 481.67 216.361 479.287C216.314 479.172 215.852 479.172 215.574 479.218C212.428 479.773 209.051 479.889 206.205 481.161C205.141 481.624 205.303 484.793 204.864 486.736C204.725 487.523 204.494 488.286 203.961 490.252ZM110.251 486.528C106.272 486.065 102.594 485.58 98.8925 485.256C98.2216 485.209 96.9494 485.741 96.88 486.181C96.4867 488.633 96.0934 491.155 96.3479 493.584C96.3941 494.116 99.0313 494.463 100.512 494.717C101.414 494.879 102.386 494.694 103.311 494.671C110.598 494.439 110.598 494.439 110.251 486.528ZM187.213 490.183C191.03 490.183 194.477 490.299 197.924 490.114C198.687 490.067 199.89 489.142 200.075 488.402C201.532 482.665 200.306 481.208 194.408 481.439C193.066 481.485 191.539 481.184 190.429 481.693C189.249 482.248 188.069 483.451 187.607 484.631C187.075 486.065 187.352 487.777 187.213 490.183ZM235.098 478.408C231.698 478.408 229.13 478.223 226.632 478.501C225.567 478.617 223.902 479.588 223.74 480.398C223.277 482.665 223.439 485.071 223.439 487.43C223.439 487.638 224.11 488.078 224.411 488.032C227.719 487.546 231.351 487.615 234.127 486.112C235.329 485.441 234.774 481.508 235.098 478.408ZM117.723 494.648C120.452 494 122.257 493.283 124.084 493.19C128.155 493.005 128.179 490.345 127.739 487.523C127.23 484.238 124.709 484.7 122.395 485.071C120.938 485.302 119.527 485.95 118.07 485.996C113.489 486.135 115.109 489.79 114.854 492.01C114.785 492.866 116.89 493.93 117.723 494.648ZM66.2522 494.624C73.4002 494.902 73.3076 494.856 72.9144 489.397C72.7293 486.829 71.619 486.158 69.352 486.389C67.4782 486.574 65.6044 486.806 63.7307 486.852C60.1914 486.944 60.2608 489.466 60.0757 491.941C59.8675 494.971 61.9726 494.601 63.8464 494.624C64.6329 494.624 65.4426 494.624 66.2522 494.624ZM145.019 487.777C144.672 487.569 144.302 487.361 143.955 487.176C145.065 483.035 143.007 482.434 139.884 482.989C138.426 483.243 136.992 483.498 135.535 483.66C131.741 484.076 132.342 486.991 132.319 489.443C132.296 492.612 134.633 492.149 136.622 491.964C138.195 491.825 139.93 491.779 141.272 491.085C142.729 490.368 143.793 488.911 145.019 487.777ZM49.5966 494.347C49.5966 494.416 49.5966 494.463 49.5966 494.532C50.2675 494.532 50.9614 494.601 51.6091 494.509C53.2747 494.277 55.8193 495.365 55.6574 492.196C55.5417 489.674 54.9865 487.106 51.6323 487.361C49.134 487.546 46.5894 487.962 44.2529 488.795C43.4896 489.049 42.8881 490.969 43.0038 492.08C43.0732 492.913 44.2761 494.023 45.1782 494.254C46.5662 494.601 48.1161 494.347 49.5966 494.347ZM247.497 476.65C241.436 476.211 237.758 479.935 238.799 484.192C239.285 486.181 241.344 487.315 242.732 485.556C244.652 483.104 245.739 480.028 247.497 476.65ZM34.6529 495.827C36.3878 493.954 37.8683 493.075 38.0302 492.034C38.3772 489.489 36.3415 488.818 34.3521 489.235C33.1492 489.512 32.1314 490.738 31.0442 491.548C32.0157 492.704 33.0104 493.861 34.6529 495.827ZM116.728 290.825C117.283 290.941 117.861 291.056 118.417 291.172C119.064 289.46 120.522 287.54 120.152 286.106C119.689 284.325 117.699 282.96 116.381 281.41C115.918 281.687 115.432 281.942 114.97 282.22C115.571 285.088 116.15 287.956 116.728 290.825ZM152.144 103.033C151.797 102.894 151.473 102.756 151.126 102.64C149.923 104.097 148.535 105.439 147.61 107.035C147.217 107.729 147.425 109.233 147.957 109.857C148.535 110.528 149.9 111.037 150.733 110.852C151.358 110.713 151.959 109.349 152.075 108.469C152.306 106.665 152.144 104.838 152.144 103.033ZM27.9906 492.751C26.0475 490.946 24.8214 489.767 23.5723 488.61C23.0171 489.211 21.9298 489.929 22.0223 490.368C22.3462 491.71 22.8783 493.237 23.873 494.092C24.3125 494.486 26.0012 493.445 27.9906 492.751ZM152.537 292.629C152.746 293.37 152.954 294.087 153.139 294.827C154.689 294.526 156.377 294.48 157.696 293.786C158.159 293.531 157.765 291.658 157.765 290.501C156.007 291.195 154.272 291.912 152.537 292.629ZM34.3984 339.704C30.5121 341.671 29.8643 344.585 31.7844 347.662C32.6865 344.932 33.5425 342.318 34.3984 339.704Z" fill="white"/>
<path d="M142.22 464.02C138.357 461.406 137.663 456.455 139.051 451.181C141.272 442.761 141.017 434.225 139.19 425.689C138.265 421.363 137.501 416.922 137.224 412.503C136.206 396.912 135.419 381.297 134.517 365.706C133.777 352.682 132.99 339.658 132.319 326.611C132.227 324.668 132.643 322.702 132.805 320.736C133.291 320.597 133.8 320.435 134.286 320.296C135.095 321.985 136.506 323.627 136.622 325.362C137.362 336.813 137.802 348.287 138.403 359.737C139.236 375.861 139.93 392.008 141.017 408.108C141.642 417.222 143.585 426.267 143.77 435.382C144.001 444.773 142.822 454.165 142.22 464.02Z" fill="white"/>
<path d="M214.325 462.956C213.215 459.486 211.942 456.456 211.318 453.286C210.392 448.428 209.976 443.455 209.236 438.551C207.894 429.807 207.432 420.808 204.91 412.434C200.33 397.328 197.415 382.084 196.166 366.353C195.634 359.784 193.598 353.214 189.666 347.385C186.82 343.151 185.062 338.178 182.934 333.505C182.518 332.58 182.471 331.377 182.564 330.313C182.61 329.619 183.073 328.578 183.582 328.416C184.137 328.231 184.993 328.832 185.617 329.225C186.057 329.503 186.45 329.966 186.658 330.428C190.892 339.496 195.518 348.426 199.173 357.748C201.093 362.652 201.903 368.181 202.157 373.478C202.782 387.289 206.599 400.382 210.184 413.567C210.855 416.02 211.341 418.587 211.572 421.109C212.405 430.084 212.937 439.083 213.885 448.035C214.209 451.112 215.459 454.096 216.291 457.126C216.962 459.509 217.749 461.938 214.325 462.956Z" fill="white"/>
<path d="M69.6296 464.136C68.8662 460.596 67.8947 457.08 67.4089 453.494C66.2754 445.097 64.6561 436.677 64.5867 428.257C64.471 417.153 65.2807 405.98 66.391 394.922C67.2238 386.664 68.9819 378.475 70.5781 370.286C72.4055 360.964 74.1868 351.595 76.6388 342.411C77.7492 338.317 80.34 334.569 82.5377 330.822C82.9078 330.174 84.5734 330.289 86.3546 329.873C84.3652 334.685 82.2601 338.432 81.2885 342.457C79.1835 351.271 77.5872 360.223 75.8754 369.153C73.9091 379.423 71.8966 389.718 70.2311 400.035C67.2007 418.819 69.1206 437.556 71.1101 456.294C71.3877 458.861 70.925 461.498 70.7862 464.112C70.4161 464.112 70.0229 464.112 69.6296 464.136Z" fill="white"/>
<path d="M59.3124 453.032C59.2662 460.064 56.2126 463.349 51.1003 463.21C45.5715 463.071 40.8756 459.416 40.8293 454.489C40.7831 448.775 46.3349 444.218 53.0666 444.426C57.9013 444.565 59.4281 446.67 59.3124 453.032ZM50.6839 457.404C54.1075 457.335 55.4492 455.461 55.4955 451.598C55.5186 448.752 54.362 447.341 51.4704 447.387C48.6019 447.434 45.9417 450.487 45.9417 453.587C45.9186 457.196 48.7408 456.849 50.6839 457.404Z" fill="white"/>
<path d="M178.654 389.602C177.359 388.653 174.375 387.566 173.843 385.762C173.056 383.055 172.964 379.169 174.421 376.994C178.192 371.327 184.553 371.674 189.226 376.671C191.632 379.261 189.735 380.811 188.694 382.916C186.82 386.71 183.975 388.908 178.654 389.602ZM180.621 384.929C182.702 382.593 184.368 380.927 185.663 379.053C185.825 378.845 184.09 376.555 183.165 376.509C180.135 376.393 178.654 378.567 178.4 381.32C178.33 382.153 179.464 383.125 180.621 384.929Z" fill="white"/>
<path d="M40.5518 393.812C41.2227 398.23 36.2723 401.608 32.3166 401.492C27.7825 401.353 23.1791 396.704 23.2485 392.193C23.3179 388.492 28.7541 384.143 33.265 384.189C36.9662 384.235 40.5749 389.024 40.5518 393.812ZM37.0587 392.817C35.0925 390.643 33.7276 389.139 32.3628 387.636C30.9748 389.024 28.2915 390.643 28.4997 391.707C28.8467 393.627 30.9749 395.223 32.3397 396.981C33.6814 395.801 35.0231 394.622 37.0587 392.817Z" fill="white"/>
<path d="M81.8899 449.863C81.8205 446.208 87.1179 440.216 90.4491 440.17C93.5257 440.147 98.3836 444.866 98.453 447.943C98.5455 451.898 93.5257 458.121 89.9864 458.422C86.4239 458.722 81.9593 454.05 81.8899 449.863ZM90.1021 454.397C91.7908 451.459 93.1787 449.654 93.8264 447.596C94.0346 446.925 92.4154 445.629 91.6288 444.635C90.1021 446.231 88.2283 447.665 87.1873 449.539C86.8403 450.163 88.5753 451.945 90.1021 454.397Z" fill="white"/>
<path d="M49.5735 344.909C49.5735 340.237 52.5808 336.628 56.3977 336.628C59.3818 336.628 65.7664 342.087 65.7664 344.609C65.7433 349.79 62.0189 353.792 57.2536 353.723C52.627 353.677 49.5504 350.137 49.5735 344.909ZM56.7678 340.167C54.015 342.989 53.6911 345.696 56.1663 347.893C56.8603 348.495 59.9138 347.847 60.5615 346.876C63.5225 342.48 58.549 342.388 56.7678 340.167Z" fill="white"/>
<path d="M162.253 329.572C166.81 329.619 169.818 332.071 169.679 335.587C169.54 339.057 163.109 345.118 159.847 344.84C156.262 344.539 152.445 340.306 152.399 336.605C152.399 332.418 156.493 329.503 162.253 329.572ZM156.979 335.24C156.933 335.841 156.909 336.42 156.863 337.021C158.089 337.831 159.847 339.612 160.472 339.265C162.161 338.363 163.364 336.582 164.775 335.124C164.474 334.615 164.173 334.106 163.872 333.621C161.582 334.176 159.269 334.708 156.979 335.24Z" fill="white"/>
<path d="M198.687 468.947C194.176 468.646 189.157 464.089 188.787 461.105C188.463 458.537 192.673 452.454 195.518 451.875C196.559 451.667 198.063 452.268 198.942 452.986C200.376 454.165 201.764 455.623 202.689 457.242C203.615 458.908 205.003 461.475 204.378 462.609C202.805 465.292 200.214 467.328 198.687 468.947ZM196.397 456.641C194.014 459.625 193.344 461.776 196.559 462.401C197.6 462.609 198.826 461.776 199.96 461.406C198.78 459.833 197.577 458.237 196.397 456.641Z" fill="white"/>
<path d="M116.774 397.953C116.797 392.609 119.573 390.088 125.426 390.065C129.15 390.041 132.435 393.951 132.342 398.3C132.273 401.839 127.415 406.003 123.552 405.841C119.943 405.656 116.751 401.978 116.774 397.953ZM126.235 392.794C124.13 394.761 122.604 396.195 121.054 397.606C122.072 398.531 123.182 400.289 124.084 400.197C125.565 400.035 127.6 398.924 128.109 397.698C128.526 396.681 127.091 394.876 126.235 392.794Z" fill="white"/>
<path d="M237.296 414.493C237.273 418.425 232.97 422.265 228.644 422.196C226.215 422.15 221.727 416.69 221.704 413.752C221.704 410.861 226.169 406.905 229.408 406.951C233.571 407.021 237.342 410.63 237.296 414.493ZM225.66 413.359C227.742 414.817 228.806 416.066 229.986 416.181C230.842 416.274 231.836 414.84 232.762 414.099C232.021 413.244 231.328 411.786 230.495 411.694C229.315 411.578 228.019 412.48 225.66 413.359Z" fill="white"/>
<path d="M94.4973 342.874C100.234 342.943 102.802 344.932 102.709 349.258C102.617 354.07 99.0545 357.725 94.4511 357.702C89.894 357.679 87.4418 354.695 87.5344 349.305C87.6269 344.146 89.0843 342.804 94.4973 342.874ZM95.1913 353.607C96.3711 351.04 101.183 350.184 97.4352 346.737C96.6255 345.997 93.919 346.043 93.0631 346.829C89.9633 349.652 92.9243 351.317 95.1913 353.607Z" fill="white"/>
<path d="M213.33 365.683C208.889 365.683 206.043 363.069 206.043 358.951C206.043 355.342 209.051 351.595 212.058 351.479C215.366 351.34 220.016 356.013 219.969 359.39C219.923 363.346 217.448 365.683 213.33 365.683ZM217.517 359.367C217.147 358.882 216.8 358.396 216.43 357.933C215.273 357.193 214.117 356.476 212.012 355.134C212.012 357.355 211.85 358.743 212.104 360.084C212.197 360.593 213.353 361.357 213.793 361.241C215.111 360.802 216.291 360.015 217.517 359.367Z" fill="white"/>
<path d="M160.888 439.522C156.863 439.545 153.231 436.608 153.301 433.369C153.37 429.668 156.886 425.504 159.94 425.481C163.109 425.458 166.741 429.876 166.671 433.693C166.625 437.14 164.266 439.522 160.888 439.522ZM161.814 429.552C161.258 429.413 160.703 429.298 160.125 429.159C159.685 430.501 159.2 431.842 158.899 433.23C158.876 433.323 160.379 433.739 161.166 433.994C161.397 432.513 161.605 431.033 161.814 429.552Z" fill="white"/>
</svg>
