<svg width="221" height="500" viewBox="0 0 221 500" fill="none" xmlns="http://www.w3.org/2000/svg">
<path d="M64.6879 18.1381C64.8539 15.4647 65.0014 12.736 65.1858 10.0072C65.4255 6.31976 66.7898 3.44356 70.0164 1.15733C73.372 -1.23953 78.9216 0.18014 79.9541 4.54979C80.71 7.75789 81.1341 11.0213 81.7425 14.2663C81.89 15.0591 82.1666 15.815 82.4616 16.8291C83.8813 14.6903 84.9875 12.8097 86.2781 11.0582C88.5459 7.99758 93.4687 6.90977 96.5661 9.15913C97.6908 9.98881 98.7233 12.1275 98.4836 13.455C97.5802 18.6543 96.5108 23.8905 94.833 28.8871C92.2149 36.7045 87.2 43.2498 82.5353 49.9426C79.6038 54.1647 77.8522 58.8478 75.9532 63.623C74.1095 68.2877 74.0173 71.2008 76.5247 75.552C79.8435 81.3045 81.5397 87.9235 82.2219 94.69C82.7934 100.295 83.7706 105.882 84.7847 111.431C84.9691 112.427 85.9462 113.625 86.8865 114.105C90.0578 115.709 93.358 117.055 96.6215 118.456C98.373 119.212 100.198 120.373 101.305 117.46C101.47 116.999 102.724 116.944 103.48 116.723C103.665 117.534 104.236 118.53 103.96 119.101C102.65 121.885 103.775 123.6 105.84 125.425C108.034 127.361 110.228 129.481 111.795 131.933C113.694 134.902 115.575 135.418 118.304 133.021C119.742 134.754 119.189 136.027 118.322 137.723C117.659 138.995 117.677 140.949 118.119 142.369C119.115 145.596 120.83 148.582 121.752 151.809C122.95 155.957 122.932 156.16 127.32 155.994C127.928 155.976 128.555 156.142 129.606 156.271C129.09 157.211 128.887 158.299 128.315 158.539C125.199 159.866 124.941 162.281 125.347 165.139C125.789 168.2 126.084 171.279 126.453 174.321C128.997 174.45 131.099 174.561 133.256 174.671C133.588 177.289 132.113 177.935 130.27 178.156C127.412 178.488 126.232 179.889 126.601 182.876C126.932 185.642 126.951 188.462 126.822 191.265C126.693 194.307 128.168 195.45 130.97 195.782C131.966 195.893 132.869 196.759 133.81 197.275C132.906 197.847 132.077 198.677 131.099 198.953C127.08 200.06 126.582 200.945 127.338 205.111C127.633 206.734 127.596 208.541 127.227 210.145C126.379 213.869 126.859 214.699 130.509 216.045C131.597 216.45 132.371 217.686 133.275 218.552C132.169 218.976 131.026 219.824 129.975 219.714C127.135 219.437 126.14 220.543 126.066 223.291C125.974 226.831 125.531 230.371 125.292 233.911C125.181 235.68 125.347 237.192 127.504 237.985C129.237 238.63 129.071 239.847 127.301 240.603C124.554 241.783 123.89 243.59 124.831 246.559C125.771 249.527 126.011 252.717 126.711 256.718C128.407 254.855 129.292 253.731 130.343 252.79C130.897 252.311 131.726 252.164 132.445 251.85C132.611 252.532 132.906 253.196 132.925 253.878C132.943 254.911 132.759 255.962 132.574 257.971C139.12 253.694 140.853 247.222 144.356 241.396C143.305 240.861 142.217 240.585 141.553 239.903C140.834 239.147 140.484 238.004 139.986 237.045C140.89 236.713 141.922 235.92 142.678 236.141C145.683 236.971 146.697 235.773 147.103 232.915C147.545 229.873 148.523 226.923 149.242 223.917C149.703 222.037 148.725 221.207 147.048 220.636C145.646 220.156 144.337 219.363 142.991 218.7C143.047 218.22 143.084 217.741 143.139 217.243C145.185 216.948 147.25 216.653 149.758 216.303C150.366 212.837 151.03 209.094 151.675 205.369C149.131 204.097 146.089 204.189 145.462 201.055C145.72 200.834 145.849 200.594 146.015 200.576C151.657 199.469 151.823 199.488 152.192 193.459C152.413 189.937 154.275 185.881 149.076 182.894C155.363 182.157 154.257 177.197 155.787 173.86C156.838 171.537 157.778 169.177 158.737 166.817C159.603 164.697 158.608 163.554 156.801 162.484C155.861 161.931 155.381 160.548 154.699 159.553C156.285 159.534 157.889 159.424 159.456 159.553C159.935 159.589 160.359 160.309 160.949 160.862C163.254 158.41 165.54 156.179 167.55 153.726C168.048 153.118 167.845 151.735 167.661 150.795C167.292 148.988 165.946 145.817 166.278 145.651C169.136 144.139 169.357 147.55 170.924 148.656C171.237 148.877 171.367 149.338 171.662 149.836C174.777 148.085 177.764 146.407 181.231 144.471C179.608 142.517 177.764 140.894 176.658 138.847C175.644 136.985 174.685 134.552 175.054 132.634C175.57 129.942 178.557 129.205 180.843 131.012C182.503 132.321 183.185 132.063 184.402 130.569C186.559 127.933 187.886 128.135 190.154 130.864C190.578 131.38 191.666 131.915 192.145 131.712C195.98 130.2 195.962 130.145 197.529 134.238C205.642 134.164 204.074 138.516 201.014 144.379C199.944 146.425 198.562 148.287 197.64 149.744C198.469 154.906 202.673 151.366 204.757 153.026C204.757 153.413 204.849 153.726 204.738 153.8C200.313 157.746 203.355 162.042 204.222 166.19C204.591 167.96 205.512 169.269 207.836 168.55C208.499 168.347 209.864 168.919 210.159 169.509C210.435 170.044 209.642 171.094 209.384 171.924C209.163 172.662 208.628 173.713 208.923 174.1C211.781 177.935 212.906 182.267 212.887 186.969C212.887 188.923 213.809 189.901 215.801 190.066C216.409 190.122 216.962 190.749 217.534 191.117C217.128 191.652 216.833 192.445 216.28 192.685C213.496 193.92 212.869 196.095 212.943 198.916C213.053 202.567 212.832 206.236 212.685 209.887C212.611 211.823 212.869 213.224 215.321 212.265C215.506 212.191 215.764 212.154 215.966 212.21C217.368 212.597 218.75 213.021 220.133 213.445C218.732 214.367 217.349 216.008 215.911 216.063C213.312 216.174 212.648 217.114 212.537 219.511C212.353 223.438 211.837 227.365 211.412 231.698C212.924 231.698 214.381 231.55 215.819 231.753C216.649 231.864 217.386 232.528 218.161 232.952C217.626 233.763 217.165 234.63 216.501 235.33C216.188 235.68 215.487 235.92 215.008 235.846C210.767 235.201 210.546 238.133 210.03 241.083C209.495 244.217 208.61 247.296 207.946 250.412C207.78 251.223 207.836 252.071 207.78 252.809C209.384 253.436 210.822 253.86 212.095 254.579C212.556 254.837 212.998 256.164 212.795 256.386C212.334 256.883 211.394 257.344 210.749 257.234C205.347 256.367 205.383 256.367 203.466 261.253C202.784 263.023 202.138 265.033 200.866 266.305C197.566 269.587 200.442 271.301 202.175 273.496C202.802 274.288 202.95 275.45 203.337 276.427C202.987 276.648 202.618 276.87 202.268 277.109C200.903 276.206 199.631 275.118 198.156 274.491C197.289 274.122 195.667 274.085 195.132 274.62C190.984 278.805 187.038 283.175 183 287.508C184.863 289.13 186.78 290.827 188.771 292.578C186.338 294.367 186.338 294.367 179.405 289.868C176.676 291.841 173.8 293.648 171.274 295.842C170.555 296.468 170.703 298.146 170.555 299.363C170.445 300.248 170.5 301.152 170.481 302.055C169.578 301.723 168.675 301.281 167.753 301.115C166.499 300.875 164.84 300.285 164.01 300.838C160.028 303.493 156.285 306.498 152.524 309.319C153.906 311.384 155.123 313.21 156.358 315.053C155.99 315.422 155.603 315.809 155.234 316.178C153.833 315.33 152.358 314.574 151.049 313.597C149.74 312.62 148.596 312.159 147.195 313.357C143.489 316.565 139.673 319.626 136.077 322.945C134.418 324.475 135.1 326.134 136.483 327.738C137.073 328.42 137.018 329.637 137.257 330.596C136.151 330.559 134.473 330.965 134.012 330.412C130.823 326.411 129.993 330.633 128.684 331.997C127.652 333.067 127.062 334.708 126.637 336.201C125.974 338.598 124.37 341.29 128.205 342.82C128.961 343.115 129.219 344.664 129.698 345.641C128.721 345.862 127.688 346.378 126.748 346.231C124.554 345.899 123.78 346.839 123.706 348.831C123.614 351.522 123.319 354.214 123.503 356.888C123.577 358.012 124.425 359.285 125.292 360.096C126.73 361.479 126.73 362.364 125.144 363.617C124.314 364.281 123.503 365.443 123.411 366.457C123.153 369.13 123.024 371.859 123.356 374.514C123.558 376.136 124.702 377.63 125.273 378.847C124.204 381.225 123.098 383.677 122.01 386.111C122.305 386.314 122.618 386.498 122.913 386.701C125.679 386 127.596 381.944 130.989 384.027C133.459 385.539 135.598 387.623 137.976 389.522C139.175 388.397 140.392 387.236 141.627 386.092C144.614 383.345 146.863 383.235 149.02 386.424C150.754 388.969 151.878 388.323 153.39 386.535C153.796 386.056 154.275 385.595 154.791 385.207C157.225 383.272 160.267 383.732 162.203 386.369C162.885 387.291 163.365 388.379 164.047 389.596C166.647 387.143 169.283 386.793 171.662 389.632C175.626 387.457 177.193 387.18 179.774 392.416C182.134 397.173 181.304 402.281 182.337 407.148C183.388 412.144 184.623 417.104 185.766 422.101C185.987 423.041 186.338 424 186.319 424.94C186.245 435.8 186.375 446.659 185.895 457.5C185.526 466.055 184.383 474.592 183.572 483.128C183.332 485.709 183.203 488.18 187.241 488.069C187.186 488.42 187.13 488.77 187.057 489.12C186.061 489.397 185.065 489.858 184.051 489.913C168.177 490.724 152.284 491.351 136.391 492.273C126.213 492.863 116.036 493.73 105.877 494.615C97.2115 495.371 88.5827 496.477 79.8987 497.122C68.7626 497.933 57.608 498.45 46.4534 499.077C40.6825 499.408 34.93 499.962 29.1591 499.998C24.5867 500.035 20.0142 499.39 15.4233 499.15C14.3908 499.095 13.2846 499.298 12.289 499.611C9.96587 500.349 8.87808 498.874 8.15903 497.214C7.71653 496.182 7.80869 494.891 7.79026 493.711C7.6612 484.898 7.58746 476.067 7.4584 467.235C7.18184 447.784 6.86837 428.332 6.55493 408.881C6.51806 407.203 6.22308 405.525 6.00183 403.387C9.9843 404.014 11.1827 400.916 13.3215 398.575C15.6999 395.938 18.7789 393.504 23.0011 394.168C24.6604 394.445 26.0433 394.26 27.5736 392.841C29.4542 391.089 32.0538 391.679 33.9713 393.486C35.5201 394.924 36.7185 395.164 38.2119 393.375C39.0047 392.435 40.1847 391.347 41.2909 391.236C44.1671 390.923 44.0012 389.227 43.8537 387.143C43.5587 382.847 43.3191 378.552 43.2822 374.237C43.2637 372.117 42.6 371.084 40.3875 370.845C39.5394 370.753 38.7835 369.794 37.9722 369.241C38.7097 368.632 39.5578 368.116 40.1847 367.415C40.9406 366.567 42.0469 365.553 42.0653 364.595C42.1022 360.944 41.7519 357.293 41.6044 353.624C41.5122 351.43 40.6088 350.453 38.3225 350.988C37.6035 351.154 36.7738 351.209 36.0732 351.025C35.4832 350.877 34.6166 350.342 34.5613 349.918C34.506 349.402 35.1513 348.333 35.5569 348.296C42.5262 347.872 40.7932 342.838 40.4797 338.819C40.1847 335.003 39.3919 331.223 38.9309 328.07C37.1794 327.019 35.7966 326.208 34.4323 325.397C35.7413 324.346 37.0688 323.295 39.1338 321.654C39.1338 317.284 39.2259 311.827 39.0047 306.369C38.9863 305.687 37.3085 305.06 36.3682 304.452C35.7229 304.028 35.0406 303.641 34.3769 303.235C35.0038 302.608 35.5938 301.465 36.2391 301.447C39.1891 301.336 39.3735 299.492 39.2997 297.28C39.2444 295.233 39.2997 293.187 39.3366 291.14C39.4103 287.932 40.3875 284.374 35.8335 283.101C35.2066 282.935 34.801 281.903 34.3769 281.35C34.6719 280.889 34.7826 280.557 34.8932 280.575C41.586 280.723 39.7422 275.1 40.1663 271.855C40.9591 265.918 40.6825 259.833 40.6272 253.804C40.6272 252.901 39.5394 251.979 38.8941 251.094C38.3963 250.394 37.4929 249.785 37.4191 249.066C37.3638 248.568 38.4516 247.978 38.9494 247.37C39.65 246.503 40.7194 245.618 40.83 244.641C41.2172 241.12 41.1987 237.543 41.4753 234.003C41.6412 232.03 41.0697 231.016 39.0047 230.666C38.2303 230.536 37.6403 229.393 36.9766 228.711C37.7141 228.103 38.4332 227.476 39.1891 226.886C40.0556 226.204 41.6228 225.632 41.715 224.858C42.4709 219.234 42.9503 213.574 43.4666 207.932C43.6141 206.42 43.6694 205.204 41.6044 204.484C39.4841 203.747 39.8344 202.069 41.7519 200.76C42.8028 200.041 43.8906 198.75 44.1119 197.552C44.8309 193.772 44.9784 189.882 45.7159 186.102C46.2322 183.484 45.1812 182.36 42.9872 181.659C41.8072 181.29 40.6456 180.866 39.4656 180.461C39.4288 180.037 39.3919 179.612 39.355 179.188C41.5306 178.672 43.7063 178.156 46.6378 177.474C47.4122 171.887 48.2787 165.692 49.1453 159.405C47.6887 159 46.5087 158.963 45.7159 158.391C44.8862 157.801 44.4438 156.695 43.8169 155.81C44.7756 155.404 45.9925 154.39 46.6562 154.667C50.0855 156.105 50.4359 153.911 51.1365 151.514C51.9109 148.877 52.9987 146.296 54.2155 143.826C54.9899 142.277 55.7827 141.171 53.8468 139.788C53.1462 139.29 53.2015 137.723 52.9065 136.635C53.8837 136.561 54.8609 136.617 55.8012 136.395C56.723 136.192 57.9215 135.99 58.4377 135.326C60.5764 132.616 62.5308 129.758 64.4667 126.882C65.3148 125.609 66.0155 124.319 64.1533 123.047C63.342 122.494 63.0102 121.258 62.4755 120.318C62.6599 120.004 62.8258 119.691 63.0102 119.378C64.3192 119.654 65.9417 119.544 66.8451 120.3C68.4492 121.609 69.0208 120.687 70.4957 120.023C75.7873 117.626 76.7276 114.289 74.6995 109.071C71.8232 101.678 69.5739 94.0263 66.8083 86.5776C65.0936 81.9498 62.9364 77.488 60.5395 71.9383C62.2911 72.6942 64.0058 72.8602 64.4667 73.7083C67.306 79.0182 69.6292 84.6048 72.5976 89.8226C76.58 96.8472 76.6354 104.794 78.5897 112.279C78.811 113.109 79.6406 113.791 80.1938 114.547C80.7284 113.662 81.8347 112.703 81.7241 111.892C81.171 107.781 80.3966 103.706 79.5116 99.6497C78.5344 95.1694 77.4835 90.6891 76.1929 86.301C74.9576 82.1526 73.3904 78.0779 71.9154 74.0033C71.7126 73.4686 71.1964 72.9708 70.717 72.6205C68.7073 71.1455 69.0392 69.5968 70.5326 68.0111C74.3491 63.9365 74.3307 58.4422 75.7873 53.5194C75.9716 52.911 75.0866 51.7494 74.4229 51.2147C74.1647 51.0119 72.9479 51.7125 72.4132 52.2288C71.2885 53.3534 70.422 54.7178 69.2789 55.8056C68.5967 56.4509 67.5826 57.1331 66.7345 57.1147C66.1261 57.0962 65.5176 55.9531 65.0014 55.2525C64.2455 54.2385 63.5817 53.1691 62.8811 52.1366C61.9961 53.2982 60.6686 54.3306 60.2814 55.6397C59.4702 58.4606 58.5114 59.1059 55.8749 57.9997C54.5474 57.4466 53.1093 57.2069 51.7265 56.8197C51.4868 57.0594 51.2287 57.2806 50.989 57.5203C51.5237 58.6634 52.2428 59.7512 52.5193 60.9497C52.759 61.9822 52.8696 63.4387 52.298 64.1209C51.8002 64.7293 50.3253 64.6556 49.2743 64.6371C48.2234 64.6187 47.1909 64.1393 46.1584 64.2131C45.3472 64.2684 44.5544 64.8215 43.7431 65.1534C44.2962 66.0752 44.665 67.624 45.4209 67.8268C48.5 68.638 51.7081 68.9699 54.824 69.6521C55.8749 69.8918 56.7968 70.6477 57.7924 71.1824C56.8152 71.6064 55.838 72.3808 54.8793 72.3808C50.6756 72.3439 46.2506 73.3949 42.4894 70.4449C42.3235 70.3158 42.0837 70.2052 41.8809 70.2237C36.2391 70.869 32.8282 65.854 27.7579 64.6924C22.7429 63.5309 17.8386 61.429 13.2477 59.0322C7.90088 56.2481 2.88593 52.8372 0.636573 46.6423C-0.451231 43.6185 -0.248441 39.5992 2.05623 37.737C4.39777 35.838 7.1634 35.1005 10.1503 36.4095C13.7271 37.9952 17.3039 39.5807 20.9177 41.111C22.0239 41.5904 23.2223 41.867 24.1811 42.1804C22.6139 37.7555 21.1205 33.5886 19.6824 29.4033C18.7052 26.5086 20.1618 21.6965 22.3742 20.2584C25.1398 18.4515 30.2654 18.5622 32.736 20.6825C35.1144 22.729 37.3269 24.9784 40.3322 27.8362C39.5578 23.9643 39.3919 20.7193 38.2119 17.88C36.2576 13.1416 37.6219 9.04846 39.9081 5.13974C41.5306 2.3557 48.9425 1.72884 52.0952 3.70163C57.0549 6.78067 59.9127 11.5376 62.6046 16.4788C62.8996 17.0319 63.3236 17.5296 63.6924 18.0459C63.9874 18.1934 64.1533 18.1381 64.6879 18.1381ZM86.0015 396.325C85.9646 395.422 85.8909 394.279 85.854 393.154C85.7434 389.393 85.5222 385.632 85.5959 381.87C85.6512 379.437 86.2597 377.058 89.3387 376.745C92.4362 376.431 93.4871 378.533 93.8743 381.041C94.5749 385.576 95.0174 390.167 95.7733 394.703C95.9393 395.754 96.8427 397.468 97.488 397.505C100.512 397.653 103.572 397.321 106.817 397.155C106.817 393.762 106.522 390.941 106.891 388.194C107.352 384.747 108.219 381.317 109.251 377.98C109.564 376.984 110.929 375.749 111.888 375.657C112.736 375.583 114.119 376.782 114.561 377.759C115.335 379.437 115.87 381.354 115.944 383.179C116.128 387.66 115.999 392.14 115.999 396.749C117.843 396.749 118.986 396.749 120.461 396.749C120.461 395.496 120.516 394.352 120.443 393.228C120.332 391.642 119.926 390.038 119.982 388.471C120.221 382.055 120.756 375.657 120.83 369.241C120.959 358.916 120.553 348.554 123.651 338.561C124.665 335.261 125.789 331.684 127.928 329.121C132.15 324.069 136.796 319.257 141.83 315.053C150.44 307.863 159.53 301.244 168.324 294.293C175.294 288.78 182.724 283.691 188.956 277.423C199.742 266.545 205.144 252.661 207.854 237.801C208.96 231.698 209.513 225.448 209.735 219.234C210.103 208.909 210.048 198.566 210.067 188.241C210.085 183.171 208.37 178.727 205.199 174.708C203.595 172.68 202.563 170.173 201.419 167.794C199.152 163.056 198.93 157.525 195.077 153.339C191.058 148.951 186.135 146.61 182.023 148.214C176.64 150.334 172.307 154.021 168.398 158.114C161.797 164.992 159.235 173.86 157.483 182.839C156.027 190.361 155.252 198.05 154.718 205.72C153.851 218.11 152.763 230.371 147.914 242.041C145.333 248.218 142.66 254.155 137.921 259.077C133.404 263.779 126.121 263.392 123.005 256.293C120.738 251.131 120.553 245.821 120.903 240.493C121.512 231.09 122.876 221.723 123.429 212.32C124.296 197.589 123.079 182.913 121.457 168.273C120.922 163.517 119.908 158.76 118.562 154.169C117.308 149.91 115.815 145.559 113.492 141.816C110.542 137.041 106.596 132.892 103.185 128.412C101.802 126.605 100.438 125.37 98.539 127.158C97.6724 125.646 97.1746 124.079 96.1237 123.084C89.8365 117.128 81.8347 116.594 75.0866 122.014C66.0708 129.242 60.3552 138.995 56.2621 149.523C53.9943 155.331 52.7221 161.654 51.8371 167.849C49.8827 181.641 48.205 195.487 46.9143 209.352C45.679 222.756 44.8125 236.215 44.2594 249.674C43.4297 269.974 42.895 290.274 42.4709 310.591C42.1575 324.659 43.2453 338.635 45.1444 352.592C46.1215 359.819 45.8081 367.213 46.2875 374.514C46.8222 382.645 47.5596 390.757 48.2971 398.869C48.3709 399.662 49.1453 401.045 49.5693 401.045C51.7818 401.027 54.3446 401.193 56.0593 400.142C56.9996 399.552 56.7046 396.657 56.6308 394.795C56.4649 389.983 55.7643 385.171 56.0039 380.395C56.0961 378.607 57.9768 375.878 59.5439 375.454C62.3464 374.698 62.9917 377.888 64.1164 379.861C64.2086 380.027 64.1717 380.285 64.2086 380.487C65.0751 385.963 65.9417 391.458 66.8451 396.934C66.9742 397.671 67.2692 398.39 67.3798 398.759C70.4035 396.491 73.0401 393.062 76.0638 392.675C79.0691 392.324 82.4984 394.942 86.0015 396.325ZM152.487 408.586C152.321 408.66 151.934 408.697 151.749 408.918C149.205 411.831 146.789 414.873 144.079 417.62C143.434 418.266 141.443 418.487 140.705 417.989C137.276 415.592 134.123 412.808 130.731 410.356C130.159 409.95 128.426 410.19 127.965 410.743C126.121 412.9 124.609 415.353 122.895 417.62C121.143 419.943 118.728 420.109 116.497 418.339C113.197 415.721 109.933 413.029 106.393 410.762C105.49 410.19 103.148 410.559 102.355 411.37C100.42 413.361 98.8339 415.74 97.4142 418.155C95.9392 420.681 94.7961 421.16 92.3071 419.372C89.9287 417.657 87.5503 415.924 85.4115 413.914C81.7241 410.43 77.2807 410.706 74.6257 414.836C73.7776 416.164 73.0585 417.583 72.2104 418.929C70.6248 421.455 69.0945 421.695 66.882 419.667C64.7432 417.694 62.6598 415.629 60.6501 413.527C58.493 411.259 56.9443 411.167 54.8608 413.619C53.2937 415.445 51.8924 417.418 50.4727 419.372C48.6106 421.972 45.5684 422.211 43.5587 419.814C41.9915 417.934 40.3875 416.072 39.0785 414.025C38.046 412.403 37.161 412.495 36.1469 413.785C34.5244 415.85 33.0679 418.044 31.4454 420.109C29.9335 422.045 28.2926 423.76 25.7298 421.455C23.628 419.575 21.5445 417.657 19.3136 415.906C18.6683 415.389 17.1011 414.965 16.7692 415.316C13.3768 418.708 8.9334 421.64 10.4637 427.558C10.6665 428.314 10.9984 429.051 11.2565 429.789C11.8834 429.531 12.5655 429.346 13.1371 428.978C18.0414 425.733 23.4067 428.056 24.2733 433.919C25.0845 439.303 24.513 444.52 22.448 449.628C20.0327 455.601 17.9123 461.815 13.3583 466.498C10.9799 468.95 10.6665 471.439 10.5927 474.481C10.519 477.615 11.6068 478.777 14.7043 478.537C21.6552 478.003 28.6245 477.652 35.5754 477.173C47.5597 476.325 59.5439 475.495 71.5282 474.536C78.0366 474.02 84.545 473.264 91.0534 472.674C98.4283 472.011 105.803 471.255 113.178 470.794C128.721 469.798 144.264 468.895 159.825 468.102C165.632 467.807 171.459 468.065 177.248 467.862C178.76 467.807 181.525 467.014 181.544 466.479C181.636 463.788 183.461 460.782 180.806 458.33C178.815 456.486 176.547 454.827 174.906 452.707C171.901 448.779 168.638 444.852 166.665 440.39C164.987 436.629 164.305 432.112 164.36 427.945C164.434 422.82 168.343 420.994 172.602 423.723C174.962 425.235 176.861 427.429 179.018 429.236C179.59 429.715 180.438 430.176 181.101 430.084C181.507 430.029 181.968 428.996 182.079 428.332C182.245 427.392 182.226 426.378 182.06 425.438C181.028 419.556 179.921 413.675 178.834 407.793C178.797 407.627 178.539 407.517 177.912 406.964C176.879 407.941 175.607 408.807 174.796 409.987C173.782 411.444 173.081 413.122 172.381 414.763C170.869 418.266 168.675 419.28 165.651 417.399C161.3 414.634 156.985 411.591 152.487 408.586ZM79.3641 50.4588C84.121 43.2867 89.7443 36.7229 92.2334 28.3708C93.524 24.0934 94.8515 19.8343 95.8102 15.4831C96.1052 14.1556 95.2018 11.3163 94.8146 11.3163C92.8787 11.2978 90.1684 11.3347 89.1359 12.5331C86.9418 15.0775 85.2087 18.2119 84.0103 21.3831C82.2034 26.0846 81.0788 31.0442 79.5116 35.8564C79.2903 36.5386 78.3132 36.9811 77.6863 37.5342C77.2807 36.7598 76.6907 36.0224 76.5247 35.2111C76.3957 34.5289 76.8198 33.7546 76.8935 33.0171C77.7232 24.5728 80.4335 16.2022 77.5572 7.57349C76.8382 5.39788 76.2666 3.07477 73.8329 3.13008C71.7864 3.18539 70.3482 4.82634 69.5001 7.13101C67.3245 13.1416 67.8776 19.0415 68.9101 25.1443C69.6292 29.348 69.5186 33.7177 69.5186 37.9951C69.5186 38.7142 68.357 39.7651 67.5273 40.0417C66.9189 40.2261 65.5176 39.5807 65.2595 38.9723C64.4851 37.1101 63.7292 35.1189 63.6371 33.1461C63.2499 24.0012 59.1752 16.534 53.5518 9.69377C51.4315 7.11254 47.449 5.58227 45.2919 6.67008C42.2128 8.20038 41.1066 11.0951 41.9732 14.1741C43.7063 20.3875 45.6975 26.5455 47.9468 32.593C49.3296 36.3358 51.5052 39.802 53.0724 43.4895C53.478 44.4298 52.8696 45.7942 52.7406 46.9557C51.5053 46.587 49.8828 46.6054 49.1084 45.7941C46.4719 43.0654 44.0934 40.0786 41.6965 37.1102C38.5253 33.183 35.5938 29.053 32.2382 25.2918C30.4498 23.2821 27.7579 22.6921 25.1398 24.038C22.6508 25.3286 22.8536 28.0574 23.7201 29.7168C26.7439 35.6167 30.0257 41.4429 33.7317 46.9373C35.6491 49.795 38.7651 51.8047 41.1066 54.4228C41.7519 55.1419 41.5675 56.6353 41.7519 57.76C40.8116 57.8337 39.7422 58.2209 38.9863 57.8891C37.3822 57.1884 35.8335 56.2297 34.4323 55.1603C32.5148 53.7038 30.837 51.9338 28.9195 50.4957C26.0801 48.3754 23.2777 46.0891 20.1249 44.5035C16.253 42.5676 12.0862 41.2401 7.99306 39.7652C7.40307 39.5439 6.49965 39.8388 5.87278 40.1707C3.60498 41.3323 2.81221 45.4254 4.98782 47.73C8.04842 50.975 11.2749 54.5334 15.1652 56.4325C22.6508 60.0646 30.671 62.609 38.7282 65.6881C39.1522 62.1481 41.5306 61.3921 44.37 60.8759C45.3287 60.6915 46.564 59.2719 46.7853 58.2394C47.5781 54.3122 49.4218 52.5238 53.3121 52.9847C55.4693 53.2428 56.7968 52.8926 58.0689 50.8829C60.4105 47.1954 63.8399 47.1032 67.3245 49.8135C67.9698 50.3113 69.8504 49.9794 70.6985 49.371C74.1094 46.9926 75.3448 47.011 78.2763 49.9426C78.5898 50.2376 79.0507 50.3113 79.3641 50.4588ZM119.797 416.072C121.401 413.638 122.71 411.831 123.835 409.932C127.209 404.179 130.233 403.829 134.529 408.807C134.879 409.213 135.082 409.729 135.432 410.116C140.134 415.426 142.862 415.279 146.882 409.563C147.416 408.807 148.135 408.199 148.799 407.535C151.288 405.009 153.445 404.991 155.99 407.056C159.825 410.153 163.789 413.103 168.011 416.348C168.97 414.984 169.67 413.988 170.371 412.993C172.067 410.596 173.266 407.277 175.57 406.005C178.668 404.29 179.165 402.391 178.963 399.367C178.834 397.542 178.354 396.86 176.492 397.026C169.947 397.579 163.383 398.114 156.819 398.501C144.595 399.257 132.353 399.828 120.129 400.621C109.306 401.322 98.5205 402.28 87.6978 403.055C77.2991 403.792 66.9188 404.64 56.5017 405.009C42.1943 405.525 27.887 405.581 13.5612 405.949C12.4549 405.986 10.5374 406.89 10.4452 407.572C10.0949 410.356 10.2977 413.195 10.2977 416.016C11.7543 415.703 12.418 415.223 12.8974 414.597C16.9352 409.176 17.2671 409.139 22.0792 413.988C27.4445 419.39 27.4445 419.39 31.7588 413.158C35.5016 407.775 40.1294 407.904 43.5403 413.509C44.0196 414.302 44.665 415.021 45.2181 415.777C46.3428 417.325 47.3568 417.27 48.4815 415.703C49.8275 413.822 51.2655 411.997 52.7221 410.19C55.3771 406.908 59.2858 406.65 62.4017 409.545C64.5958 411.591 66.7714 413.638 69.1498 415.869C70.256 414.209 71.1595 413.011 71.8785 411.72C75.2157 405.839 80.8759 404.843 85.9462 409.213C88.4352 411.352 91.1087 413.306 93.6531 415.297C95.3677 413.048 96.6952 411.259 98.078 409.526C101.636 405.046 105.158 404.622 109.528 408.051C112.809 410.669 116.147 413.232 119.797 416.072ZM154.072 472.398C153.943 472.14 153.814 471.863 153.685 471.605C148.873 471.9 144.079 472.176 139.267 472.527C138.732 472.564 138.124 472.988 137.718 473.412C133.773 477.597 129.846 481.801 126.011 486.078C125.531 486.631 125.255 487.793 125.513 488.438C125.716 488.954 126.84 489.36 127.559 489.36C131.431 489.379 135.303 489.342 139.156 489.084C140.152 489.01 141.369 488.272 141.996 487.461C144.19 484.659 146.07 481.616 148.264 478.814C150.071 476.565 152.136 474.536 154.072 472.398ZM171.827 471.236C165.559 468.987 157.483 471.9 153.962 477.302C151.97 480.363 149.463 483.091 147.25 486.041C146.789 486.65 146.458 487.553 146.513 488.291C146.55 488.623 147.693 489.083 148.32 489.102C151.639 489.12 154.994 489.194 158.294 488.844C159.216 488.752 160.193 487.369 160.747 486.355C161.613 484.824 161.834 482.833 162.885 481.487C165.651 477.984 168.73 474.739 171.827 471.236ZM182.908 445.608C182.853 441.202 184.088 436.887 179.442 433.993C176.824 432.37 174.925 429.642 172.399 427.872C169.726 426.009 168.14 426.986 168.38 430.231C169.062 439.671 174.464 446.733 180.438 453.444C180.567 453.592 182.355 452.836 182.429 452.356C182.742 450.033 182.779 447.655 182.908 445.608ZM75.4369 478.556C70.7354 478.98 66.6054 479.035 62.6414 479.846C60.6502 480.252 58.6405 481.709 57.1655 483.202C54.234 486.189 51.6343 489.489 48.9793 492.753C48.5737 493.25 48.6475 494.172 48.5921 494.393C52.593 494.393 56.2068 494.504 59.8205 494.338C60.9636 494.283 62.4017 493.785 63.1208 492.974C67.1033 488.512 70.8829 483.94 75.4369 478.556ZM11.404 462.718C11.8465 462.755 12.2889 462.773 12.713 462.81C14.9624 457.39 17.6542 452.098 19.2952 446.493C20.4567 442.584 20.5305 438.233 20.4567 434.103C20.4014 430.545 18.5392 429.973 15.2758 431.504C11.8833 433.108 10.7956 435.873 10.7956 439.247C10.7771 446.217 10.8878 453.186 10.9799 460.155C10.9984 461.022 11.2565 461.87 11.404 462.718ZM27.7948 496.09C33.0863 496.09 37.2163 496.182 41.3463 495.998C42.0469 495.961 42.8028 494.891 43.3743 494.191C45.4762 491.591 47.4859 488.918 49.5693 486.3C50.989 484.53 52.464 482.796 54.3077 480.565C47.0803 481.1 39.5578 478.39 35.4094 486.576C35.2804 486.816 34.801 486.871 34.6166 487.092C32.4963 489.858 30.4129 492.642 27.7948 496.09ZM93.653 477.247C88.7118 476.767 84.084 476.601 80.7838 479.312C76.6169 482.723 73.3351 487.24 69.7398 491.351C69.2789 491.886 69.2789 492.826 69.0576 493.582C69.7582 493.748 70.4404 494.043 71.141 494.062C77.5388 494.154 83.5494 493.711 86.8312 486.687C88.3431 483.442 91.0534 480.768 93.653 477.247ZM113.307 475.864C106.541 475.495 100.198 475.237 95.7365 480.842C92.9709 484.308 89.7443 487.608 88.1955 492.328C92.3071 492.07 95.7549 492.052 99.1289 491.536C100.29 491.351 101.341 490.042 102.319 489.102C102.89 488.549 103.13 487.645 103.665 487.018C106.707 483.442 109.804 479.902 113.307 475.864ZM131.892 474.666C131.855 474.352 131.8 474.039 131.763 473.725C128.352 473.891 124.941 473.965 121.549 474.26C120.498 474.352 119.207 474.813 118.525 475.551C114.672 479.754 110.966 484.087 107.26 488.438C106.965 488.789 107.039 489.692 107.26 490.208C107.407 490.54 108.126 490.854 108.569 490.817C111.961 490.522 115.372 490.245 118.746 489.729C119.558 489.6 120.443 488.77 120.959 488.033C123.061 485.046 124.904 481.875 127.135 478.998C128.426 477.32 130.288 476.085 131.892 474.666ZM35.1697 481.377C24.5498 479.238 20.6042 487.664 14.6674 492.624C13.8193 493.343 13.3399 494.523 12.3996 495.942C16.2346 495.942 19.2951 496.053 22.3373 495.85C23.0564 495.795 23.8123 494.799 24.3839 494.098C26.4857 491.499 28.477 488.807 30.6157 486.244C31.9801 484.585 33.5288 483.11 35.1697 481.377ZM162.683 487.94C167.421 488.328 171.256 489.213 173.431 484.529C174.058 483.184 175.386 481.746 176.713 481.248C180.309 479.902 180.714 476.786 181.323 473.836C181.507 472.914 180.936 471.347 180.198 470.849C179.553 470.425 177.82 470.757 177.193 471.384C173.856 474.739 170.666 478.242 167.531 481.782C165.983 483.534 164.618 485.47 162.683 487.94ZM194.081 136.764C193.657 136.561 193.233 136.34 192.809 136.137C192.44 140.765 189.269 141.797 185.545 142.351C188.513 144.434 191.297 146.112 194.155 147.605C194.634 147.863 195.87 147.605 196.109 147.2C197.64 144.637 198.986 141.982 200.387 139.364C199.76 138.866 199.152 138.368 198.525 137.87C197.511 139.788 196.515 141.724 195.501 143.641C195.022 143.346 194.524 143.033 194.044 142.738C194.081 140.747 194.081 138.755 194.081 136.764ZM60.0233 382.645C60.0233 388.121 59.9127 393.043 60.1155 397.929C60.1524 398.851 61.3877 399.718 62.0698 400.603C62.7705 399.625 64.1532 398.593 64.0611 397.708C63.6186 393.504 62.8257 389.337 61.9776 385.189C61.8117 384.396 60.8898 383.732 60.0233 382.645ZM128.905 396.233C130.583 395.975 131.523 396.012 132.261 395.643C133.275 395.127 134.824 394.352 134.916 393.578C135.008 392.545 133.976 391.347 133.275 390.333C132.943 389.835 132.298 389.466 131.708 389.245C130.638 388.84 128.813 388.047 128.537 388.397C127.32 389.946 125.992 391.808 125.826 393.652C125.734 394.518 128.149 395.643 128.905 396.233ZM91.1271 382.958C90.7031 382.921 90.279 382.866 89.855 382.829C89.5047 383.88 88.8225 384.949 88.8778 385.963C89.0622 389.356 89.4309 392.748 89.9103 396.104C90.0393 396.989 90.8506 397.782 91.3484 398.611C91.9384 397.745 93.0815 396.823 93.0077 396.03C92.5468 391.661 91.7909 387.309 91.1271 382.958ZM10.7218 490.263C14.0221 487.553 16.8799 485.193 19.9036 482.723C11.8649 480.381 10.058 481.745 10.7218 490.263ZM36.6632 399.146C34.3769 398.187 32.3488 396.565 30.6341 396.86C29.1591 397.118 28.0529 399.533 26.7992 400.99C27.0573 401.285 27.3154 401.598 27.592 401.893C30.4129 401.469 33.6579 403.147 36.6632 399.146ZM109.767 396.639C112.146 397.542 113.252 396.62 113.178 394.795C113.012 391.329 112.533 387.862 112.146 384.157C108.845 388.028 110.191 392.398 109.767 396.639ZM38.2119 400.676C38.4885 401.082 38.765 401.488 39.06 401.893C41.125 401.469 43.9275 401.69 45.0521 400.437C46.1584 399.201 45.9003 396.344 42.9134 394.74C41.3647 396.712 39.7791 398.704 38.2119 400.676ZM16.0318 402.852C18.5946 402.539 20.678 402.575 22.5033 401.912C23.3145 401.617 23.6279 399.921 24.181 398.851C23.3514 398.501 22.3004 397.653 21.7104 397.911C19.6823 398.741 17.8017 399.902 15.9395 401.045C15.6077 401.248 15.368 401.985 15.4602 402.373C15.5524 402.723 16.1608 402.944 16.0318 402.852ZM145.849 387.881C144.374 390.278 140.613 390.646 142.678 393.726C143.231 394.555 146.771 394.592 147.804 393.689C150.514 391.365 146.937 390.388 145.849 387.881ZM158.534 394.094C159.179 392.988 160.101 391.956 160.341 390.794C160.452 390.222 159.013 388.711 158.7 388.821C157.17 389.374 155.787 390.315 153.888 391.384C155.75 392.472 156.912 393.154 158.534 394.094ZM73.8513 399.589C76.7275 399.257 78.9584 398.999 81.1709 398.741C77.8522 395.92 75.7319 396.159 73.8513 399.589ZM179.958 483.313C178.262 484.677 176.953 485.728 175.644 486.76C180.438 488.438 180.77 488.125 179.958 483.313Z" fill="white"/>
<path d="M157.207 287.674C155.99 292.615 153.003 297.151 147.951 300.267C143.489 303.014 138.64 304.636 133.496 305.779C128.905 306.793 125.568 303.917 125.937 299.326C126.195 296.21 127.43 295.768 130.048 295.731C134.916 295.657 138.843 293.205 142.623 290.366C145.628 288.116 148.744 285.904 152.1 284.245C155.344 282.64 157.28 283.876 157.207 287.674ZM151.27 289.757C147.638 291.915 144.411 294.238 140.853 295.805C137.221 297.39 133.257 298.183 129.458 299.418C128.961 299.584 128.297 300.211 128.297 300.635C128.297 301.244 128.684 302.037 129.163 302.442C130.878 303.88 132.482 303.456 134.566 302.663C139.286 300.857 144.172 299.437 147.822 295.749C149.389 294.127 152.044 292.873 151.27 289.757Z" fill="white"/>
<path d="M81.8347 240.198C81.8347 236.012 81.7978 231.827 81.8715 227.642C81.89 226.702 81.9453 225.411 82.5353 224.913C84.1947 223.475 86.2597 221.189 87.9375 221.373C90.5924 221.668 90.9427 224.637 91.0718 227.255C91.3299 232.601 92.1965 237.93 92.1596 243.258C92.1227 247.794 91.459 252.477 88.1034 256.035C87.3659 256.828 85.3931 257.566 84.84 257.16C83.6969 256.33 82.5353 254.782 82.3878 253.417C81.9084 249.048 81.89 244.623 81.6872 240.216C81.724 240.179 81.7794 240.198 81.8347 240.198ZM85.9278 230.112C85.9278 237.801 85.9278 245.508 85.9278 253.454C89.7259 251.242 89.689 237.653 85.9278 230.112Z" fill="white"/>
<path d="M114.708 244.936C114.063 248.236 113.307 252.606 112.33 256.939C111.888 258.856 110.671 260.977 108.514 260.313C107.131 259.889 105.545 257.861 105.287 256.33C104.218 250.025 102.964 243.627 103.075 237.285C103.148 232.952 105.176 228.601 106.725 224.415C107.057 223.512 109.177 222.608 110.228 222.848C111.187 223.069 112.293 224.747 112.459 225.909C113.307 231.809 113.897 237.764 114.708 244.936ZM108.44 230.352C105.361 239.313 107.813 248.236 108.348 257.934C112.219 252.016 112.238 238.188 108.44 230.352Z" fill="white"/>
<path d="M106.946 293.666C106.946 297.685 106.891 301.723 106.965 305.742C107.02 309.467 109.399 313.283 106.264 318.059C105.803 316.971 105.471 316.491 105.398 315.975C104.531 310.167 103.241 304.378 102.982 298.552C102.78 294.016 103.775 289.407 104.494 284.871C104.808 282.917 105.564 280.225 108.016 280.834C109.454 281.184 111.076 283.618 111.353 285.314C112.09 289.739 112.091 294.293 112.441 298.792C112.754 302.94 113.4 307.107 113.381 311.255C113.363 313.744 112.662 316.381 111.685 318.686C110.763 320.861 108.938 320.142 106.817 319.202C110.542 316.473 111.943 313.652 110.265 309.504C109.454 307.512 109.878 305.042 109.601 302.811C109.233 299.769 108.716 296.727 108.255 293.684C107.813 293.684 107.371 293.666 106.946 293.666Z" fill="white"/>
<path d="M178.594 210.938C179.221 203.544 179.7 196.114 184.033 189.624C185.084 188.057 186.172 186.471 187.96 187.356C189.325 188.038 190.191 189.808 191.168 191.191C191.426 191.56 191.316 192.242 191.261 192.777C190.56 201.055 190.062 209.389 186.743 217.188C186.504 217.741 186.08 218.257 185.637 218.681C184.346 219.935 183.001 221.152 181.673 222.369C180.641 220.488 179.258 218.718 178.686 216.708C178.188 214.902 178.594 212.855 178.594 210.938ZM182.484 218.036C185.951 214.588 188.31 200.189 186.209 195.174C182.89 199.488 181.341 210.219 182.484 218.036Z" fill="white"/>
<path d="M81.1894 192.15C81.4844 186.342 81.7057 180.774 84.1763 175.427C85.7435 172.053 88.2141 171.463 90.4081 174.413C91.4591 175.833 92.51 177.566 92.7312 179.262C93.8744 187.983 93.7269 196.593 88.9885 204.429C88.3432 205.48 87.0341 206.568 85.8909 206.734C85.2456 206.826 83.8813 205.204 83.6232 204.171C82.646 200.207 81.9638 196.169 81.1894 192.15ZM87.495 179.262C87.1263 179.281 86.7391 179.299 86.3703 179.336C86.3703 187.117 86.3703 194.897 86.3703 202.567C89.9472 199.949 90.8691 183.263 87.495 179.262Z" fill="white"/>
<path d="M93.1737 299.179C93.1737 301.649 93.561 304.194 93.0816 306.572C92.5285 309.283 91.4775 311.993 90.1316 314.408C88.9885 316.473 84.6373 314.887 84.1948 311.845C82.9042 303.235 80.3598 294.662 82.0929 285.812C82.4248 284.079 83.2176 282.364 84.121 280.852C85.2457 278.972 88.1403 278.861 89.2466 280.871C90.8138 283.691 92.2519 286.734 92.8972 289.85C93.5056 292.836 93.0263 296.044 93.0263 299.16C93.0632 299.179 93.1184 299.179 93.1737 299.179ZM86.6101 312.712C90.2607 310.389 90.445 310.389 90.4266 306.941C90.4082 301.908 90.316 296.856 89.8366 291.859C89.6153 289.628 88.3616 287.49 87.5872 285.314C83.9551 294.367 87.1816 303.235 86.6101 312.712Z" fill="white"/>
<path d="M104.716 182.433C105.471 179.483 106.043 176.478 107.076 173.62C107.407 172.68 108.864 171.666 109.86 171.611C110.763 171.555 112.422 172.625 112.588 173.436C113.658 178.746 114.211 184.167 115.335 189.458C116.276 193.865 116.46 198.068 115.04 202.401C114.45 204.19 113.953 205.535 111.74 205.591C109.343 205.646 109.767 203.839 109.436 202.493C108.108 197.146 106.725 191.8 105.49 186.416C105.213 185.199 105.453 183.853 105.453 182.562C105.195 182.544 104.955 182.489 104.716 182.433ZM111.279 181.032C110.837 181.069 110.376 181.124 109.933 181.18C108.882 187.43 110.062 193.422 112.127 199.341C112.441 199.304 112.773 199.285 113.086 199.248C112.478 193.164 111.888 187.098 111.279 181.032Z" fill="white"/>
<path d="M58.2534 280.078C56.5202 284.281 55.9856 288.411 56.9259 292.855C57.4421 295.307 58.9171 298.294 55.2481 300.359C54.7687 299.197 54.0865 298.275 54.0128 297.298C53.644 292.799 53.0356 288.264 53.3306 283.784C53.515 280.815 54.9347 277.884 56.1515 275.081C56.465 274.362 58.3824 273.588 59.0093 273.92C60.3552 274.62 61.8855 275.819 62.4202 277.165C65.5914 285.166 65.3149 293.537 64.5037 301.889C64.2824 304.267 63.1946 306.554 62.5862 308.895C62.0515 311.034 60.3552 311.403 58.8987 310.702C57.6081 310.075 56.7784 308.508 55.7459 307.346C56.0225 307.07 56.299 306.793 56.5756 306.517C57.6449 306.867 58.7143 307.236 59.8021 307.586C62.6046 302.055 61.7011 283.083 58.2534 280.078Z" fill="white"/>
<path d="M93.6161 351.006C93.0077 353.864 92.4362 357.386 91.4959 360.796C90.9612 362.751 89.3203 364.539 87.2553 363.691C85.7987 363.083 84.3238 361.184 83.9181 359.598C82.8672 355.468 81.89 351.209 81.8716 346.987C81.8531 342.562 82.775 338.1 83.7338 333.749C84.1209 332.016 85.4853 330.375 87.919 330.633C90.279 330.873 90.8322 332.587 91.1272 334.376C91.9937 339.63 92.7312 344.922 93.6161 351.006ZM88.3246 336.791C84.9322 339.741 84.8031 355.892 87.9928 361.903C88.9146 359.782 90.15 358.289 90.0762 356.888C89.7075 350.435 88.9884 344 88.3246 336.791Z" fill="white"/>
<path d="M170.168 232.768C169.597 234.537 169.117 236.602 168.288 238.52C166.204 243.332 163.973 248.089 161.742 252.827C161.447 253.473 160.765 253.934 160.304 254.505C158.977 256.183 157.078 256.976 155.658 255.316C154.718 254.21 154.607 252.071 154.754 250.449C154.902 248.513 155.713 246.651 156.248 244.752C157.649 239.645 158.848 234.482 160.562 229.486C161.337 227.218 162.701 224.231 166.02 225.356C169.154 226.388 169.357 229.652 170.168 232.768ZM157.612 252.588C162.424 246.411 164.766 239.387 165.024 231.661C159.825 237.672 159.899 245.545 157.612 252.588Z" fill="white"/>
<path d="M192.938 246.503C190.431 256.017 187.739 264.812 179.608 270.509C178.557 271.246 176.713 271.338 175.404 271.025C174.907 270.914 174.372 268.647 174.722 267.669C175.865 264.314 177.248 261.013 178.815 257.805C180.696 253.915 182.779 250.099 184.918 246.356C185.453 245.415 186.504 244.641 187.481 244.143C188.624 243.553 190.375 242.668 191.131 243.111C192.127 243.701 192.44 245.489 192.938 246.503ZM187.241 251.998C186.946 251.832 186.651 251.666 186.356 251.5C183.591 256.699 180.825 261.88 178.059 267.079C184.199 263.761 185.619 257.824 187.241 251.998Z" fill="white"/>
<path d="M64.264 351.006C64.4852 359.469 63.3605 360.852 56.8521 361.479C55.9303 361.571 54.0313 360.354 53.9944 359.653C53.4966 351.762 53.1831 343.834 53.0541 335.924C53.0172 333.325 54.8056 331.352 57.2762 331.112C59.9865 330.836 60.5765 333.251 61.019 335.445C62.2174 341.271 63.4528 347.098 64.264 351.006ZM57.7187 338.211C57.4421 338.192 57.184 338.174 56.9075 338.155C56.5571 339.501 55.875 340.866 55.9303 342.193C56.1146 346.01 56.465 349.845 56.9997 353.624C57.2578 355.523 56.1147 358.289 59.1384 358.731C59.4703 358.787 61.0743 354.989 60.8346 353.145C60.1524 348.13 58.8065 343.189 57.7187 338.211Z" fill="white"/>
<path d="M56.8705 245.637C57.8108 248.034 58.364 249.472 59.1383 251.426C62.6046 245.821 62.5123 231.514 58.7511 225.208C57.9214 231.477 57.0733 237.746 56.2437 243.996C55.8565 244.051 55.4508 244.106 55.0636 244.162C54.6027 243.185 53.6809 242.189 53.7178 241.23C54.0496 234.925 54.3815 228.601 55.2296 222.35C55.414 221.004 57.6818 219.179 59.1383 219.032C60.3368 218.903 62.6045 220.728 62.9548 222.055C64.9645 229.781 65.7205 237.69 64.7064 245.655C64.4114 247.923 63.508 250.246 62.2911 252.182C61.7196 253.085 59.6914 253.638 58.4746 253.436C55.6168 252.975 55.6536 250.264 55.3586 248.089C55.2849 247.444 56.2068 246.669 56.8705 245.637Z" fill="white"/>
<path d="M113.197 349.052C112.791 353.311 112.459 357.478 111.998 361.608C111.795 363.488 110.413 364.668 108.68 364.115C107.37 363.709 105.711 362.493 105.379 361.294C104.218 357.312 103.019 353.2 102.909 349.107C102.78 344.608 103.646 340.036 104.531 335.574C104.752 334.468 106.762 332.901 107.813 333.011C109.159 333.14 111.187 334.578 111.445 335.758C112.349 340.128 112.662 344.627 113.197 349.052ZM109.177 360.686C110.984 355.523 109.915 341.585 107.223 339.151C106.485 346.618 106.283 353.532 109.177 360.686Z" fill="white"/>
<path d="M161.152 199.009C161.927 195.376 162.719 191.117 163.77 186.932C164.065 185.789 164.895 184.609 165.817 183.816C167.439 182.433 169.541 182.433 170.408 184.462C171.477 186.951 172.417 189.808 172.288 192.426C172.067 196.538 171.145 200.686 170.057 204.687C169.449 206.955 168.103 209.094 166.757 211.067C165.448 212.966 163.604 212.708 163.07 210.514C162.203 207.01 161.853 203.378 161.152 199.009ZM167.458 189.642C165.374 192.297 164.526 202.143 166.075 205.812C168.656 197.312 169.043 192.777 167.458 189.642Z" fill="white"/>
<path d="M197.05 210.772C197.05 206.586 197.031 202.401 197.068 198.234C197.068 197.607 197.087 196.759 197.455 196.372C198.746 195.1 200.203 194.012 201.585 192.851C202.821 194.455 205.015 196.003 205.144 197.7C205.623 204.097 205.586 210.55 205.402 216.985C205.347 218.644 204.333 220.562 203.153 221.816C202.323 222.701 200.387 223.143 199.17 222.848C198.285 222.627 197.271 220.931 197.16 219.806C196.884 216.819 197.068 213.795 197.068 210.772C197.05 210.772 197.05 210.772 197.05 210.772ZM201.456 202.106C199.465 204.743 199.354 217.723 201.493 219.972C204.554 213.906 203.134 208.043 201.456 202.106Z" fill="white"/>
<path d="M147.343 266.047C147.97 266.397 149.74 267.024 149.703 267.448C149.5 269.347 149.334 271.744 148.135 272.979C144.098 277.183 138.917 280.022 133.312 281.129C130.583 281.663 127.32 279.746 124.388 278.658C124.112 278.547 124.13 275.892 124.757 275.413C126.656 273.993 128.887 272.998 131.062 271.984C134.897 270.195 138.751 268.462 142.66 266.858C143.932 266.36 145.407 266.379 147.343 266.047ZM142.696 272.021C142.586 271.689 142.494 271.357 142.383 271.007C137.663 272.74 132.943 274.454 127.541 276.427C133.386 279.211 135.137 277.091 142.696 272.021Z" fill="white"/>
<path d="M58.7512 196.759C59.7653 197.349 60.5765 197.792 61.7196 198.456C63.3053 191.837 63.7846 185.531 61.9777 179.17C61.6827 179.115 61.3878 179.078 61.0928 179.023C60.6503 181.825 60.3184 184.664 59.7284 187.43C59.3965 188.997 60.6318 191.873 57.9031 191.763C55.0084 191.634 56.1515 188.721 56.2806 187.08C56.594 183.042 57.2578 179.041 57.9584 175.059C58.2534 173.436 58.7696 171.187 60.9453 171.703C62.5124 172.072 64.559 173.455 65.0753 174.856C68.1543 183.319 67.9146 191.744 63.5081 199.783C62.9365 200.816 61.7196 201.479 60.7978 202.309C59.6547 200.76 57.055 199.82 58.7512 196.759Z" fill="white"/>
<path d="M86.6285 140.673C87.4213 144.895 88.1588 148.619 88.8041 152.344C89.1175 154.132 89.3204 155.957 89.3388 157.783C89.3388 158.28 88.5644 158.778 88.1403 159.276C87.6425 158.834 86.8129 158.483 86.6838 157.967C85.5223 152.989 84.2869 148.011 83.5126 142.959C83.1623 140.636 82.3141 137.575 85.6329 136.322C88.1588 135.363 91.9016 137.133 93.0078 140.415C93.985 143.328 94.0403 146.573 94.2615 149.707C94.409 151.827 94.1878 153.985 94.0403 156.123C93.9665 157.285 93.9297 158.502 93.5056 159.553C93.2843 160.143 92.3072 160.438 91.6803 160.862C91.5144 160.216 91.2194 159.59 91.2009 158.944C91.1087 154.335 91.201 149.726 90.9428 145.116C90.8138 143.033 89.7629 141.281 86.6285 140.673Z" fill="white"/>
<path d="M99.9587 142.646C100.438 141.484 101.065 140.028 101.673 138.571C103.093 139.198 104.716 139.567 105.914 140.488C109.343 143.07 110.966 146.591 110.929 150.942C110.911 152.934 111.666 154.962 111.537 156.935C111.445 158.207 110.505 159.553 109.62 160.567C109.417 160.788 107.684 160.014 106.928 159.387C101.839 155.183 101.415 149.025 99.9587 142.646ZM106.91 145.706C106.43 145.798 105.969 145.891 105.49 145.983C104.199 149.32 106.449 151.883 107.555 154.704C107.868 154.648 108.182 154.575 108.495 154.519C107.961 151.569 107.444 148.638 106.91 145.706Z" fill="white"/>
<path d="M64.9645 156.658C72.0629 153.284 70.1823 147.089 71.4913 141.927C70.9566 141.742 70.422 141.558 69.8873 141.355C68.1911 145.356 66.4948 149.357 64.7986 153.358C64.4298 153.376 64.0427 153.395 63.6739 153.432C63.3973 152.417 62.6599 151.256 62.9364 150.408C64.393 146.038 65.8127 141.595 67.8961 137.502C68.4676 136.377 71.2148 135.971 72.9479 136.008C73.6116 136.027 74.6994 138.202 74.7732 139.438C75.105 144.711 74.5704 149.855 71.9154 154.667C70.3667 157.432 68.2648 157.617 64.9645 156.658Z" fill="white"/>
<path d="M173.948 168.679C173.376 165.416 175.072 162.54 177.23 159.59C179.792 156.068 182.576 156.935 184.439 160.806C186.282 164.66 183.664 173.713 180.309 176.202C178.133 177.824 174.722 176.294 174.206 173.381C173.966 172.016 174.04 170.597 173.948 168.679ZM177.949 173.436C180.677 171.334 181.526 166.669 179.995 163.369C177.635 165.065 177.119 167.481 177.949 173.436Z" fill="white"/>
<path d="M189.306 170.007C189.546 167.665 190.117 165.674 192.551 165.195C194.893 164.734 196.404 166.061 197.087 168.274C197.714 170.375 198.93 172.588 198.635 174.579C198.396 176.238 196.681 178.433 195.095 178.986C192.92 179.76 191.98 177.511 191.371 175.556C190.781 173.694 190.007 171.869 189.306 170.007Z" fill="white"/>
<path d="M84.2685 436.095C84.2316 431.264 86.8312 427.079 91.0349 426.47C92.9524 426.194 95.7549 427.54 97.1193 429.07C99.258 431.467 100.346 430.527 102.263 429.033C106.283 425.899 113.602 425.143 115.575 430.711C116.866 434.343 116.737 439.303 115.299 442.898C113.381 447.729 109.601 451.84 106.615 456.247C105.914 457.279 105.01 458.201 104.457 459.289C102.927 462.294 100.309 462.718 98.0227 460.303C93.2474 455.251 88.6565 450.052 86.149 443.433C85.2087 440.962 84.8216 438.289 84.2685 436.095ZM113.565 436.666C113.473 431.264 110.081 428.406 106.43 430.84C104.218 432.315 101.6 433.679 101.305 436.998C101.231 437.736 99.9955 438.565 99.129 438.897C98.8155 439.008 97.9305 437.809 97.4142 437.127C95.9208 435.154 94.5749 433.052 92.9524 431.19C92.5653 430.766 91.0165 430.803 90.4265 431.227C87.2922 433.477 87.9743 436.887 88.7856 439.727C90.7952 446.696 94.999 452.485 99.9218 457.74C100.917 458.809 101.673 459.049 102.595 457.5C103.72 455.62 105.25 453.979 106.467 452.135C109.638 447.36 113.787 443.009 113.565 436.666Z" fill="white"/>
</svg>
