<svg width="280" height="500" viewBox="0 0 280 500" fill="none" xmlns="http://www.w3.org/2000/svg">
<path d="M220.87 189.154C225.361 184.772 230.236 180.719 234.289 175.981C240.479 168.696 246.093 160.918 252.008 153.414C252.967 152.209 254.199 150.977 255.569 150.374C257.13 149.69 259.321 149.005 260.663 149.607C261.731 150.073 262.662 152.675 262.361 154.017C261.32 158.809 260.005 163.602 258.253 168.203C255.404 175.679 252.447 183.129 248.996 190.331C245.983 196.658 242.231 202.628 238.863 208.79C238.233 209.94 237.932 211.255 238.041 213.062C252.748 206.188 264.059 194.193 278.08 186.552C278.573 186.963 279.066 187.374 279.559 187.812C279.149 189.701 279.258 192.002 278.217 193.453C272.274 201.642 265.62 209.365 260.087 217.8C254.911 225.66 248.695 232.342 241.355 237.984C236.206 241.928 230.702 245.406 225.197 249.185C227.552 251.321 229.798 253.677 232.345 255.621C235.522 258.059 235.166 261.016 233.413 263.645C229.853 268.931 230.756 274.052 232.892 279.42C234.673 283.966 236.014 288.677 237.932 293.168C238.534 294.592 240.177 296.153 241.629 296.564C249.324 298.673 253.186 307.984 249.352 315.023C248.311 316.94 247.736 319.569 248.01 321.733C250.584 341.259 249.708 360.786 246.914 380.066C244.696 395.211 240.752 410.164 236.946 425.035C235.604 430.293 232.372 435.086 229.907 440.043C226.977 445.931 224.457 452.12 220.815 457.543C217.118 463.048 212.325 467.786 207.916 472.797C206.492 474.441 204.712 475.755 203.178 477.316C199.371 481.26 199.289 485.477 202.795 490.599C205.533 494.597 204.328 497.5 199.289 498.349C196.468 498.815 193.565 498.842 190.69 498.842C168.15 498.678 145.584 498.377 123.045 498.349C119.621 498.349 116.225 499.746 112.802 499.992C111.296 500.102 108.393 499.006 108.338 498.294C107.954 492.844 103.6 487.449 107.927 481.808C108.365 481.26 107.407 479.288 106.667 478.275C97.3284 464.828 87.3322 451.764 78.7328 437.879C72.3517 427.609 67.5043 416.353 62.4651 405.317C56.933 393.212 51.7023 380.943 46.8275 368.564C44.0614 361.498 42.3634 354.021 39.926 346.846C39.1318 344.546 37.4611 342.546 37.1599 340.52C37.4885 337.781 38.1733 335.043 38.0911 332.304C37.5981 315.708 39.6795 299.577 46.6083 284.322C47.8133 281.638 49.6483 279.009 49.9496 276.189C50.2235 273.888 48.5528 271.423 47.9502 268.986C47.4025 266.822 46.2523 264.166 46.9918 262.44C48.1146 259.839 50.3877 257.456 52.7429 255.731C54.0301 254.8 56.4949 255.566 58.3571 255.265C59.48 255.073 61.2055 254.471 61.3698 253.786C61.5889 252.855 60.7399 251.404 59.973 250.582C51.2641 241.49 41.3501 233.301 33.9557 223.223C24.343 210.105 16.6746 195.562 8.37648 181.54C7.03453 179.295 6.59639 176.528 5.85695 173.954C3.96727 167.244 2.05018 160.535 0.352209 153.798C-0.0585914 152.154 -0.140664 150.237 0.270136 148.594C0.900029 146.047 1.88584 144.048 5.11746 146.759C10.2388 151.031 16.0722 154.482 20.9196 159.001C25.6849 163.438 29.5739 168.805 34.6678 174.694C34.6678 172.503 34.9416 171.078 34.613 169.846C32.3946 161.11 29.8203 152.428 27.7663 143.637C24.699 130.382 21.6865 117.072 19.2217 103.707C17.688 95.4365 16.9487 87.0014 16.4009 78.5937C16.2092 75.5538 17.3319 72.3496 18.3179 69.3644C19.2764 66.4341 21.1387 65.9685 23.001 68.8167C25.9862 73.4176 28.807 78.1281 31.8469 82.6743C36.0644 89.0006 40.3915 95.2722 44.6638 101.544C45.1294 101.489 45.6224 101.407 46.088 101.352C45.8141 95.9021 45.4581 90.4522 45.2938 85.0022C44.8556 71.3637 44.0341 57.6977 44.3079 44.0865C44.4723 34.8846 46.1428 25.7374 47.3752 16.5903C47.567 15.221 49.0458 14.0159 49.9222 12.7288C51.2915 13.7421 53.2907 14.4815 53.9479 15.8235C58.4394 25.4088 59.754 35.7884 61.2329 46.1679C62.7665 56.9857 64.355 67.9403 67.5592 78.3199C69.9145 86.0155 74.8987 92.8895 78.7328 100.12C80.1569 102.804 81.5811 105.46 84.1007 107.98C84.1828 106.199 84.3197 104.392 84.3745 102.612C84.6757 87.111 84.1555 71.5554 85.5248 56.1641C86.7299 42.4433 91.4403 29.3799 99.1634 17.7406C100.204 16.1795 102.641 15.5222 104.422 14.4541C105.627 16.5081 107.9 18.6169 107.817 20.6435C107.626 26.6412 106.339 32.6115 105.873 38.6092C105.572 42.7172 104.531 47.2633 108.064 50.0294C109.899 44.0043 111.789 37.8971 113.651 31.8173C113.788 31.3517 113.815 30.804 114.089 30.4479C116.28 27.7367 117.074 22.9714 121.566 23.3548C125.811 23.7108 124.167 28.1475 125.126 30.7218C127.016 35.7884 128.659 40.9645 130.411 46.0858C131.206 45.9489 132 45.8119 132.794 45.6749C132.603 41.8956 132.548 38.0889 132.219 34.3369C131.918 31.0231 131.069 27.7367 130.959 24.3955C130.904 23.0809 131.808 21.0269 132.849 20.5887C134.136 20.0136 136.683 20.1506 137.477 21.0543C140.024 23.9025 142.434 27.052 144.078 30.4753C145.83 34.1452 146.624 38.2805 147.912 42.1694C148.185 42.991 148.843 43.6757 150.102 45.6202C150.924 42.9089 151.691 41.3204 151.855 39.6772C152.869 29.0512 153.636 18.3978 154.704 7.77178C155.005 4.92357 153.362 0.623838 158.072 0.0487186C162.427 -0.499015 163.604 3.69119 164.919 6.59417C167.356 11.8798 169.191 17.4119 171.136 22.9166C173.737 30.3658 176.312 37.8149 178.694 45.3189C182.446 57.1773 183.131 69.4192 183.186 81.7432C183.213 87.0562 183.788 92.3418 184.117 97.6548C184.555 97.8192 184.993 97.9561 185.459 98.1205C186.828 94.6423 188.636 91.3011 189.485 87.6861C190.909 81.661 191.265 75.3347 192.963 69.3918C194.442 64.1883 197.125 59.3409 199.289 54.3291C199.864 54.3017 200.439 54.2743 201.014 54.247C201.891 55.6985 203.342 57.0678 203.534 58.5741C205.122 72.1579 206.41 85.769 207.943 99.3528C208.354 102.968 210.025 106.61 209.641 110.088C208.683 118.88 207.231 127.643 205.369 136.297C203.835 143.391 201.425 150.292 199.426 157.303C199.152 158.207 199.043 159.193 198.96 160.151C198.823 161.493 198.769 162.862 198.659 164.204C199.892 163.41 201.452 162.863 202.301 161.767C208.765 153.496 215.31 145.445 218.569 134.983C220.486 128.848 224.896 123.453 228.401 117.839C228.648 117.428 231.249 117.702 231.687 118.387C232.4 119.455 232.454 121.125 232.4 122.522C231.879 134.024 231.605 145.527 230.537 156.974C230.154 161.055 227.634 164.917 226.21 168.888C223.882 175.296 221.637 181.759 219.363 188.195C219.747 188.551 220.295 188.852 220.87 189.154ZM210.928 337.863C204.465 338.466 198.906 338.657 193.456 339.534C181.707 341.396 170.068 343.888 158.291 345.477C153.992 346.052 152.923 347.64 153.143 351.475C153.827 362.484 154.32 373.493 154.95 384.503C155.142 387.844 155.224 391.24 155.991 394.471C158.894 406.522 157.963 418.544 156.319 430.595C155.799 434.346 155.06 438.29 155.662 441.933C157.36 452.586 159.825 463.102 161.66 473.729C162.153 476.659 163.44 477.481 166.069 477.398C172.45 477.207 178.859 477.234 185.24 476.796C186.773 476.686 188.909 475.427 189.539 474.112C192.908 467.019 196.824 459.981 198.823 452.477C201.863 441.002 203.945 429.225 205.56 417.449C207.779 401.346 209.559 385.187 210.791 369.002C211.558 358.978 210.928 348.873 210.928 337.863ZM44.9104 329.236C43.185 337.754 43.8423 338.411 51.9488 338.712C65.4778 339.233 79.0068 340.109 92.5358 340.657C121.073 341.752 149.5 342.629 177.845 336.823C192.442 333.837 207.56 333.481 222.458 332.112C227.388 331.647 232.372 331.537 237.302 331.674C241.3 331.783 242.669 330.332 242.423 326.334C241.738 315.16 236.151 305.52 232.838 295.195C232.427 293.935 229.551 292.648 227.881 292.73C219.802 293.168 211.723 293.99 203.644 294.784C181.46 297.002 159.332 299.604 137.121 301.412C118.252 302.945 99.3003 303.685 80.3761 304.534C70.4895 304.972 60.5755 304.78 50.6615 305.054C48.7992 305.109 46.9644 306.177 45.1295 306.779C45.2938 307.491 45.4581 308.203 45.6224 308.916C50.0865 307.519 54.5779 304.561 58.7954 308.888C62.4926 312.695 63.9715 317.077 63.2869 322.308C62.2462 329.866 59.4253 330.962 44.9104 329.236ZM46.2523 343.615C46.2523 345.34 46.088 345.997 46.2797 346.545C46.9644 348.462 47.8133 350.324 48.498 352.241C53.0716 364.949 57.5904 377.683 62.1913 390.391C68.7094 408.329 77.4184 425.172 86.8668 441.741C94.0968 454.421 101.82 466.663 111.35 477.727C112.911 479.535 115.239 481.972 117.184 481.945C124.688 481.835 132.192 480.822 139.832 480.137C139.641 478.33 139.723 477.645 139.477 477.125C139.066 476.303 138.436 475.563 137.888 474.797C132.438 467.019 128.029 458.775 125.564 449.519C124.222 444.48 122.743 439.495 121.045 434.566C118.224 426.432 115.349 418.271 112.172 410.274C109.433 403.427 106.421 396.662 103.134 390.035C100.56 384.859 96.7534 380.203 94.5898 374.89C91.6594 367.605 89.9614 359.827 87.3049 352.406C86.3737 349.831 84.3746 345.888 82.567 345.696C70.7086 344.6 58.768 344.272 46.2523 343.615ZM149.884 369.851C149.61 369.851 149.308 369.851 149.035 369.851C149.035 363.935 148.952 358.02 149.062 352.104C149.117 348.9 147.72 347.421 144.543 347.339C128.138 346.901 111.707 346.517 95.3019 345.888C91.6047 345.751 90.6187 347.147 91.4951 350.324C92.6727 354.569 93.8776 358.841 95.3291 363.004C96.452 366.263 97.3559 369.851 99.3825 372.535C107.927 384.01 113.87 396.772 118.69 410.082C122.332 420.133 125.865 430.293 128.248 440.7C130.74 451.6 134.081 461.952 140.243 471.318C142.023 474.002 143.256 478.329 145.611 479.069C149.089 480.137 153.69 479.452 157.059 477.891C158.264 477.316 157.333 472.058 157.305 468.936C157.305 468.306 156.977 467.703 156.867 467.074C154.868 457.488 151.609 447.958 151.143 438.29C149.993 415.532 150.212 392.664 149.884 369.851ZM226.265 269.534C224.649 269.534 222.102 269.314 219.637 269.588C214.899 270.109 210.216 271.505 205.506 271.56C158.675 272.081 111.816 272.382 64.9848 272.765C63.5607 272.765 62.1092 272.793 60.6851 272.875C57.9464 273.066 56.0841 274.025 55.1804 277.092C54.2492 280.187 52.2225 282.926 50.9901 285.966C49.3195 290.156 47.9502 294.455 46.1975 299.44C49.2648 299.604 51.62 300.015 53.9205 299.823C66.135 298.892 78.2948 297.632 90.5092 296.865C113.432 295.441 136.382 294.346 159.305 292.977C176.64 291.936 193.976 290.621 211.312 289.526C216.406 289.197 221.527 289.17 226.648 289.088C230.4 289.033 230.756 287.088 229.88 283.994C228.593 279.53 227.607 274.984 226.265 269.534ZM140.846 241.763C137.067 244.091 136.656 243.872 136.026 239.737C135.807 238.285 135.259 236.587 134.246 235.629C130.795 232.26 126.687 229.494 123.565 225.852C120.689 222.456 118.307 218.923 114.144 219.635C113.377 216.568 113.35 213.72 112.035 211.748C108.913 207.092 104.778 203.121 101.738 198.41C93.5765 185.73 85.0866 173.187 78.0756 159.877C73.995 152.182 68.3533 146.157 62.8486 139.83C60.329 136.955 57.1522 134.654 54.2766 132.08C53.811 132.354 53.3181 132.628 52.8526 132.901C53.0991 138.434 53.2633 143.993 53.6193 149.498C53.7289 151.031 54.3862 152.538 54.9066 154.044C55.6186 156.125 56.4676 158.152 57.1249 160.261C57.4535 161.301 57.2343 162.506 57.5356 163.575C60.6029 174.803 63.6428 186.059 66.9292 197.26C67.9151 200.601 69.531 203.778 70.6265 206.407C73.3104 206.106 74.8165 205.942 76.3228 205.75C75.912 207.119 75.4192 208.461 75.0905 209.858C74.8714 210.707 74.4605 211.83 74.8166 212.46C77.5826 217.28 79.7188 222.511 84.5936 225.907C88.5647 228.673 92.0429 232.178 95.9866 234.972C102.45 239.518 109.132 243.79 116.143 248.418C117.211 242.503 118.389 242.147 122.442 245.598C121.347 246.885 120.278 248.172 119.183 249.459C122.086 251.568 124.715 255.265 128.714 250.965C129.042 250.609 130.439 251.239 131.315 251.486C135.067 252.499 138.847 253.512 142.599 254.526C142.626 254.033 142.653 253.54 142.681 253.019C143.53 251.677 144.351 250.308 145.2 248.939C146.131 250.5 147.035 252.061 148.405 254.361C150.541 252.746 152.649 251.157 155.251 249.185C150.157 246.556 145.748 244.283 140.846 241.763ZM162.509 13.6599C161.851 13.4956 161.194 13.3587 160.537 13.1944C160.099 15.4401 159.469 17.6583 159.25 19.9041C157.963 33.57 156.648 47.2086 155.607 60.9019C155.416 63.3941 156.511 65.9958 156.949 68.5428C157.168 69.8574 157.607 71.2815 157.36 72.5139C156.812 75.1704 155.06 77.7995 155.224 80.3465C155.826 90.6438 151.581 100.695 153.772 111.047C153.882 111.595 153.416 112.252 153.225 112.854C151.308 118.77 149.308 124.685 147.528 130.656C146.98 132.545 146.241 134.928 149.664 135.284C150.185 135.339 150.979 136.352 150.951 136.873C150.924 137.42 149.938 138.406 149.527 138.351C145.967 137.776 145.474 140.844 144.981 142.761C143.968 146.595 142.078 151.47 143.557 154.4C146.104 159.384 146.652 161.329 140.326 161.192C138.436 165.711 136.546 170.202 134.657 174.721C134.903 175.132 135.15 175.542 135.369 175.926C139.367 173.735 142.133 172.968 140.572 178.582C140.408 179.13 142.462 180.856 143.694 181.102C145.83 181.513 148.131 181.212 151.39 181.212C154.348 175.077 158.127 168.504 160.756 161.521C162.783 156.098 167.247 151.004 164.59 144.376C164.344 143.801 165.384 142.569 166.042 141.802C166.726 141.008 168.041 140.625 168.424 139.776C170.615 134.736 172.751 129.67 174.641 124.521C175.49 122.193 176.996 118.825 176.01 117.291C172.614 111.896 176.312 111.896 180.173 111.458C180.173 106.994 180.283 102.694 180.146 98.3943C179.598 81.3597 179.625 64.2157 174.641 47.6742C172.916 41.923 170.533 36.3361 168.15 30.8314C167.301 28.8595 165.494 27.3259 164.207 25.5458C163.412 24.4503 162.262 23.2727 162.208 22.095C161.961 19.3564 162.344 16.5081 162.509 13.6599ZM103.737 153.387C104.257 151.251 105.736 148.758 105.024 147.608C100.259 139.912 94.9183 132.573 90.0161 124.959C85.826 118.414 78.6782 114.169 76.1312 106.309C75.337 103.844 73.4473 101.051 69.5858 102.584C69.3667 102.667 67.6961 99.7362 67.7235 99.7088C71.7494 96.9154 68.9011 94.7519 67.3675 92.2049C65.8338 89.6853 65.1765 86.618 63.5881 84.1532C60.7399 79.6892 61.671 73.0342 55.509 70.4325C55.016 70.2134 54.7423 67.8034 55.2626 67.0092C58.1656 62.6547 57.6726 54.11 53.2086 49.2078C52.031 51.3988 50.196 53.2337 50.1686 55.1233C49.9495 67.5843 50.059 80.0726 50.196 92.5335C50.196 93.629 51.1819 94.6971 51.401 95.8473C51.7023 97.3536 51.8119 98.942 51.8393 100.503C51.8667 101.489 51.1546 102.639 51.4832 103.433C53.592 108.418 55.8102 113.375 58.1928 118.222C59.5348 120.961 61.0959 123.645 62.8486 126.11C66.5732 131.286 70.6538 136.188 74.2688 141.446C78.1303 147.033 81.636 152.894 85.0319 158.179C87.5515 157.276 89.1672 156.7 90.783 156.098C90.5913 157.96 90.4271 159.823 90.1806 162.342C90.7831 163.164 91.7416 164.834 93.0014 166.204C94.8089 168.148 96.6437 171.133 98.7799 171.435C102.504 171.955 106.722 170.503 102.395 176.419C102.176 176.72 102.532 177.679 102.86 178.117C104.367 180.116 105.736 182.307 107.598 183.95C113.952 189.482 120.333 195.014 127.07 200.081C129.699 202.08 133.561 204.326 136.3 203.751C138.682 203.258 140.572 199.122 142.106 196.302C143.475 193.809 144.05 190.879 145.255 187.319C143.092 185.922 139.586 183.978 136.491 181.458C133.506 179.048 130.85 176.994 127.372 180.472C127.262 180.582 126.796 180.335 125.838 180.034C129.919 173.078 123.894 170.942 119.895 167.737C119.539 167.436 119.402 166.888 119.019 166.614C113.404 162.534 111.734 153.524 103.737 153.387ZM194.223 476.002C197.016 478.22 199.426 476.495 201.672 474.249C203.233 472.688 204.739 471.072 206.108 469.319C210.107 464.225 215.885 460.556 217.83 453.736C218.925 449.93 221.198 446.424 223.006 442.809C227.607 433.662 232.345 424.624 234.07 414.354C235.494 405.892 237.603 397.539 238.726 389.022C240.862 372.644 242.478 356.185 244.285 339.78C244.723 335.891 242.56 334.686 239.082 334.933C231.578 335.426 224.101 335.837 216.597 336.467C215.639 336.549 213.941 337.726 213.941 338.356C214.105 344.381 214.571 350.406 214.982 356.432C215.474 363.826 216.515 371.248 216.296 378.615C216.104 385.242 214.516 391.815 213.612 398.415C212.024 409.89 210.654 421.42 208.819 432.868C207.806 439.112 206.519 445.411 204.41 451.381C201.507 459.652 197.728 467.649 194.223 476.002ZM119.977 114.306C121.922 109.486 119.95 103.899 117.129 98.2026C114.363 92.6157 110.584 86.8097 110.228 80.9215C109.433 67.8307 102.477 56.8487 99.8754 44.4699C99.6837 43.5387 99.4646 42.5529 98.9716 41.7586C97.5475 39.4034 96.0139 39.0474 94.5076 41.7861C90.9473 48.2493 91.5225 55.2329 91.4677 61.4771C93.686 62.4904 95.3018 63.2024 96.9176 63.9419C96.7533 64.4622 96.6164 64.9826 96.4521 65.5029C94.672 65.6672 92.9191 65.8042 90.0435 66.078C89.4684 74.5405 88.9207 82.9482 88.373 91.2464C91.0569 91.6298 92.5084 91.8488 93.9872 92.0679C94.0146 92.4787 94.0147 92.8896 94.0421 93.3004C92.4536 93.5195 90.8652 93.7385 89.2768 93.9576C89.2768 100.147 88.866 106.364 89.4411 112.498C89.715 115.484 91.5225 118.496 93.1657 121.153C98.5608 129.779 103.956 138.406 109.817 146.704C112.364 150.319 112.473 157.522 119.95 154.756C120.224 155.468 120.443 155.769 120.415 156.043C120.388 156.673 120.333 157.33 120.141 157.906C118.854 161.575 122.305 165.875 126.03 165.464C128.056 165.245 130.138 165.601 132.548 165.711C133.095 164.643 133.972 162.945 134.821 161.274C136.355 158.207 138.819 155.167 134.602 152.154C134.328 151.963 134.821 149.854 135.423 149.553C136.464 149.005 137.861 149.169 139.559 148.977C139.559 145.664 139.559 142.487 139.559 139.365C137.505 139.529 135.916 139.666 134.328 139.776C134.684 139.392 135.04 139.009 135.423 138.625C134.547 136.626 133.89 134.517 132.767 132.682C130.822 129.533 128.604 126.52 126.468 123.48C124.523 120.632 122.552 117.894 119.977 114.306ZM206.409 205.613C202.657 201.889 202.712 201.998 206.711 199.451C207.971 198.63 208.847 197.151 209.696 195.836C213.366 190.331 216.104 184.58 218.131 178.089C221.144 168.477 225.443 159.22 226.539 149.087C226.758 147.06 225.498 144.869 224.923 142.733C224.32 142.733 223.745 142.761 223.143 142.761C221.637 144.897 219.336 146.869 218.843 149.251C218.432 151.196 220.13 153.578 221.171 156.509C218.898 155.879 217.173 155.386 215.42 154.866C213.667 157.084 211.914 159.302 210.162 161.521C207.724 164.615 203.589 166.916 205.56 172.037C205.725 172.448 204.301 173.598 203.452 174.201C196.605 179.048 189.704 183.841 182.83 188.661C183.049 194.165 178.366 194.823 174.997 197.178C171.519 199.615 169.027 203.504 166.124 206.763C165.275 207.722 163.33 207.503 162.235 208.352C158.428 211.337 154.95 214.705 151.308 217.91C150.431 218.677 149.528 219.416 148.542 220.018C144.981 222.155 141.202 223.935 137.861 226.345C134.903 228.481 135.396 231.548 137.916 233.739C141.558 236.916 145.146 240.695 149.5 242.339C153.69 243.927 159.25 247.734 163.358 243.078C167.712 238.148 176.284 237.3 176.366 228.207C180.995 231.302 183.788 229.056 186.308 226.482C192.99 219.69 199.535 212.761 206.409 205.613ZM187.074 110.828C188.964 113.046 191.84 115.182 186.363 116.716C184.911 117.127 183.487 119.153 182.83 120.769C178.311 131.614 173.984 142.542 169.684 153.469C168.999 155.167 168.561 156.865 171.574 156.947C172.395 156.974 173.19 158.59 173.984 159.494C172.888 159.768 171.82 160.261 170.725 160.206C169.903 160.179 169.082 159.467 168.479 159.165C164.344 167.546 160.318 175.707 156.566 183.293C157.387 185.265 158.045 186.826 158.976 189.017C152.513 187.757 151.527 188.716 152.732 193.344C150.787 194.823 148.542 195.918 147.172 197.671C143.639 202.19 140.49 206.982 137.176 211.666C136.081 213.199 134.602 214.569 133.944 216.266C133.451 217.526 133.972 219.169 134.027 220.648C135.396 220.457 136.93 220.621 138.052 220.018C139.613 219.197 140.901 217.773 141.394 217.389C141.229 214.815 141.12 213.062 141.01 211.282C142.571 212.131 144.105 212.953 146.104 214.021C150.65 210.461 155.744 206.818 160.427 202.71C164.535 199.095 169.985 196.247 169.876 189.455C169.876 188.989 171.546 188.332 172.505 188.003C173.518 187.647 174.887 187.921 175.654 187.319C180.337 183.649 184.966 179.952 189.402 175.981C190.936 174.611 192.333 172.64 192.853 170.695C194.003 166.45 194.661 162.041 195.29 157.686C195.427 156.81 194.359 155.797 194.25 154.811C194.113 153.441 193.976 151.826 194.524 150.675C195.564 148.594 197.646 146.978 198.358 144.842C200.302 138.981 202 133.038 203.315 127.013C204.41 121.919 205.396 116.661 205.342 111.485C205.259 105.652 203.945 99.8458 203.233 94.0398C202.904 91.3559 203.014 88.5625 202.384 85.9608C202.11 84.8105 200.549 83.4685 199.398 83.2494C198.577 83.0851 196.879 84.4271 196.496 85.4404C195.701 87.604 195.51 89.9866 195.181 91.7393C197.125 92.8896 198.44 93.6564 199.782 94.4506C198.33 94.7244 196.742 94.7519 195.428 95.3544C194.332 95.8473 193.127 96.7785 192.661 97.8192C190.69 101.955 189.019 106.199 187.074 110.828ZM9.85547 157.221C9.25296 157.577 8.65036 157.933 8.04786 158.316C17.688 198.109 41.1311 228.673 72.1875 254.553C75.5013 249.322 75.5561 249.459 78.8425 253.375C79.9927 254.717 82.3753 255.813 84.1281 255.703C92.5358 255.265 100.916 254.444 109.296 253.622C110.255 253.54 111.104 252.636 112.008 252.116C111.323 251.184 110.857 250.007 109.954 249.377C102.422 244.009 94.8088 238.806 87.2775 233.438C81.8275 229.549 76.5694 225.359 71.0099 221.634C69.9145 220.895 67.8331 221.607 66.2173 221.716C65.1218 221.799 63.6429 222.483 63.0677 222.018C62.1366 221.251 61.671 219.799 61.315 218.567C60.9042 217.17 61.2602 215.363 60.4934 214.295C57.0427 209.42 53.4824 204.627 49.6756 200.026C44.7186 194.029 40.501 186.881 31.4908 186.251C30.9157 176.857 21.5495 165.656 12.5119 163.109C11.5807 160.973 10.7318 159.083 9.85547 157.221ZM204.739 235.382C204.931 234.944 205.122 234.506 205.314 234.068C206.903 234.643 208.491 235.218 210.326 235.903C210.928 235.355 212.079 234.506 212.955 233.438C219.747 225.222 226.511 216.979 233.249 208.735C239.465 201.149 243.847 192.659 245.874 182.964C241.547 181.978 241.547 181.978 242.971 178.309C250.831 182.417 247.681 173.489 251.077 172.037C247.435 169.271 247.462 169.271 245.381 172.147C244.203 173.762 243.19 175.515 241.821 176.939C238.178 180.856 233.96 184.306 230.756 188.551C227.114 193.344 218.323 195.097 221.144 203.942C221.198 204.079 220.76 204.381 220.377 204.791C217.09 203.176 214.598 203.395 212.325 207.174C210.216 210.68 206.793 213.391 204 216.513C201.425 219.361 197.947 221.881 199.755 225.304C195.866 227.55 192.388 229.44 189.074 231.521C187.485 232.534 185.897 233.821 187.841 236.094C188.252 236.56 187.869 237.683 187.869 238.504C187.102 238.313 186.362 238.094 185.596 237.957C184.007 237.656 181.926 236.642 180.912 237.272C175.243 240.887 169.766 244.831 164.426 248.911C163.33 249.76 162.153 252.417 162.591 252.965C163.604 254.224 165.658 255.457 167.192 255.32C171.574 254.909 175.901 253.759 180.255 253.047C182.063 252.746 183.952 252.965 185.787 252.718C187.513 252.472 190.224 252.389 190.69 251.404C192.524 247.35 192.278 247.241 196.441 250.116C200.22 246.638 204.082 243.133 207.971 239.573C206.574 237.847 205.67 236.615 204.739 235.382ZM33.7914 148.402C34.6678 152.236 35.3251 155.66 36.2563 159.001C37.4887 163.41 38.5292 167.956 40.4189 172.092C43.2945 178.391 46.6906 184.443 50.1139 190.468C50.7986 191.673 52.4965 192.331 53.8384 193.07C54.7148 193.563 55.7829 193.727 56.714 194.029C55.5912 200.464 63.2046 211.967 69.3666 213.61C69.3119 213.117 69.4762 212.487 69.2297 212.241C63.3416 206.079 61.5066 198.246 59.7265 190.304C59.4252 188.907 57.3714 187.976 56.4402 186.607C55.6734 185.484 54.7147 183.046 54.9338 182.91C58.7679 180.5 56.5497 177.487 55.7281 174.858C53.9206 168.97 51.8118 163.191 49.8399 157.358C47.7586 151.196 49.2922 143.829 43.541 138.844C43.2946 138.625 44.3079 136.517 45.1021 135.64C47.1287 133.394 49.0457 131.532 46.7726 128.081C46.0606 126.986 47.2657 124.549 47.7313 122.741C48.0325 121.673 49.1827 119.92 48.991 119.783C44.7186 116.579 45.2665 108.226 37.4339 108.829C37.1052 108.856 36.7218 107.952 36.4206 107.514C39.8165 103.735 39.8164 103.735 36.667 100.037C36.0645 99.298 35.5167 98.5312 34.9416 97.7644C31.3265 92.9991 27.7115 88.2065 23.85 83.0578C21.5495 90.9451 22.5903 92.8622 29.1905 94.0124C29.4643 97.7644 29.4642 97.7644 24.6442 99.2706C25.7944 106.309 26.9447 113.457 28.1223 120.605C28.5331 120.304 28.9166 119.975 29.3274 119.674C31.217 120.66 33.1067 121.646 36.1466 123.234C33.0519 124.275 31.4361 124.822 29.1082 125.589C30.3954 131.779 31.71 137.968 33.0793 144.486C36.667 142.295 38.9948 141.912 38.721 146.869C37.1325 147.334 35.6537 147.8 33.7914 148.402ZM141.695 267.397C141.695 267.014 141.695 266.603 141.695 266.22C167.438 266.22 193.182 266.275 218.925 266.138C221.335 266.138 224.32 265.562 225.964 264.084C227.442 262.742 227.799 259.756 227.908 257.483C227.935 256.881 225.252 255.539 223.828 255.566C216.789 255.676 209.751 255.895 202.74 256.525C194.852 257.237 187.02 258.743 179.105 259.291C169.711 259.948 160.263 260.113 150.842 260.195C130.932 260.386 110.967 257.949 91.1391 261.893C89.0303 262.303 86.7298 261.646 84.4841 261.509C74.981 260.907 65.4504 260.249 55.9199 259.839C54.9613 259.784 53.1811 261.235 53.099 262.112C52.962 263.536 53.5919 265.316 54.4957 266.494C57.5356 270.465 61.4245 267.37 64.9026 267.37C90.5365 267.425 116.116 267.397 141.695 267.397ZM146.049 90.9999C149.555 90.5617 148.35 86.7002 148.624 83.4686C148.98 79.1963 149.747 74.9239 149.664 70.679C149.637 68.9536 147.884 67.2283 146.816 65.5577C146.268 64.6813 145.009 63.9419 145.036 63.175C145.063 62.4082 146.159 61.3949 147.035 60.9567C150.404 59.2588 151.855 54.2744 149.747 51.2892C147.583 48.2219 145.639 44.9629 143.311 42.0325C142.462 40.9918 140.764 40.6084 139.477 39.9238C138.901 41.074 137.943 42.1694 137.806 43.3744C137.477 46.0583 137.696 48.797 137.395 51.5083C135.971 64.3253 134.465 77.1149 132.959 89.9045C132.876 90.6987 132.657 91.4655 132.575 92.2597C132.301 94.6697 132.055 97.0524 131.699 100.503C128.221 101.845 125.92 106.282 126.714 110.91C127.618 116.196 129.946 121.399 132.52 126.164C134.191 129.286 137.368 131.642 139.86 134.326C140.599 133.75 141.311 133.175 142.051 132.6C141.092 131.121 140.435 129.259 139.093 128.246C136.683 126.411 137.696 125.343 139.586 124.494C140.627 124.028 141.941 124.165 143.475 123.973C144.817 116.223 146.433 108.473 147.419 100.613C147.802 97.7917 146.652 94.7245 146.049 90.9999ZM116.253 61.6961C115.212 64.1883 113.404 66.6532 113.295 69.1727C112.774 79.3606 118.937 87.7682 121.429 97.2166C121.648 98.0656 123.291 98.6681 124.387 99.0242C124.633 99.1063 125.975 97.2988 125.811 97.0797C123.044 93.1908 123.921 90.0961 127.563 87.4123C127.81 87.2205 127.645 86.4811 127.7 86.0155C128.412 78.2651 128.823 70.4599 129.919 62.7368C131.178 53.9731 127.289 47.5099 121.894 41.3753C120.771 40.1155 120.114 38.4448 119.183 36.8564C114.034 39.8963 111.46 57.8072 116.253 61.6961ZM112.857 493.447C120.58 492.927 127.399 491.995 134.218 492.078C153.197 492.324 172.176 493.064 191.155 493.502C193.565 493.557 195.975 493.146 198.111 492.981C197.016 488.956 196.304 485.642 195.154 482.52C194.88 481.753 192.771 480.931 191.977 481.287C190.361 481.999 189.156 483.56 187.65 484.546C186.198 485.532 184.582 486.244 182.611 487.312C182.474 485.149 182.391 483.862 182.337 482.793C158.976 484.437 135.889 486.053 112.336 487.696C112.501 489.394 112.692 491.502 112.857 493.447ZM214.078 249.651C220.349 246.857 220.267 246.885 217.227 241.271C216.652 240.23 217.145 238.587 217.145 237.245C217.666 237.217 218.158 237.217 218.679 237.19C219.692 238.751 220.569 240.449 221.801 241.791C222.513 242.558 224.403 243.352 224.868 242.996C227.936 240.641 230.756 237.984 233.632 235.382C234.399 234.698 234.974 233.274 235.713 233.191C241.519 232.671 243.984 227.687 247.572 224.318C249.489 222.538 252.666 220.32 249.27 216.814C248.859 216.376 249.927 214.541 250.338 213.309C244.094 213.062 242.122 217.8 240.177 222.565C234.782 216.622 233.413 216.951 229.853 224.181C223.417 224.811 223.444 224.784 224.923 230.617C225.58 233.246 224.293 234.15 221.801 233.849C220.432 233.684 218.35 232.863 217.857 233.438C214.626 237.108 211.75 241.079 209.285 244.283C211.175 246.419 212.462 247.843 214.078 249.651ZM122.278 217.088C126.605 218.019 133.479 212.022 132.904 208.461C132.794 207.777 132.329 206.845 131.754 206.572C127.947 204.682 124.058 202.929 120.196 201.149C118.005 199.369 116.307 196.411 113.815 194.467C109.379 190.989 103.244 189.537 101.245 183.266C101.08 182.745 100.177 182.444 99.492 181.924C98.7799 185.429 102.915 192.577 106.311 194.385C107.215 194.878 108.776 195.617 108.749 196.165C108.447 201.642 112.829 204.435 115.294 208.352C116.965 211.008 118.389 212.871 121.867 211.118C122.579 210.762 123.921 211.748 125.126 212.131C124.003 214.048 123.264 215.39 122.278 217.088ZM45.9511 320.144C45.9237 323.294 50.9354 328.415 53.9205 327.402C56.0293 326.662 58.2751 323.896 58.8228 321.623C59.7266 317.953 56.0842 313.133 53.3455 313.024C49.8674 312.887 45.9785 316.639 45.9511 320.144ZM51.2641 37.1577C49.4566 44.5795 49.977 45.9488 54.3862 46.1405C54.0576 43.128 55.4816 39.6773 51.2641 37.1577ZM200.905 71.4185C200.029 71.3911 199.152 71.3636 198.276 71.3362C198.139 73.6915 197.947 76.0468 197.974 78.402C197.974 78.5116 199.892 78.5937 200.905 78.6759C200.905 76.2659 200.905 73.8559 200.905 71.4185Z" fill="white"/>
<path d="M129.07 305.903C137.587 305.876 143.721 311.079 144.187 318.008C144.79 326.443 138.682 331.482 130.22 329.921C125.893 329.127 121.976 327.867 119.292 324.252C116.855 320.966 115.048 316.94 117.293 313.215C120.005 308.779 123.784 304.999 129.07 305.903ZM129.48 312.01C126.03 312.229 122.606 312.969 122.25 317.542C121.922 321.787 127.399 327.538 131.48 327.429C134.081 327.374 139.668 322.089 139.531 319.843C139.285 315.762 134.574 312.01 129.48 312.01Z" fill="white"/>
<path d="M173.546 328.141C166.452 328.114 159.852 323.869 157.963 318.474C156.812 315.214 159.277 308.532 162.646 305.739C165.932 303.027 172.012 302.014 175.025 304.369C178.53 307.135 182.118 310.175 184.582 313.79C186.335 316.337 186.472 319.815 183.405 322.828C180.338 325.786 177.462 328.333 173.546 328.141ZM163.522 315.981C163.33 319.432 167.849 324.279 171.629 324.608C174.395 324.855 180.885 320.117 180.831 317.871C180.776 315.598 172.888 309.518 169.794 309.409C166.973 309.272 163.714 312.695 163.522 315.981Z" fill="white"/>
<path d="M85.1414 306.067C93.5765 305.492 102.997 317.679 98.6704 326.251C97.4654 328.634 93.6586 331.181 91.0842 331.153C81.718 331.016 77.5279 327.182 75.0631 318.309C73.5568 312.914 79.2259 306.013 85.1414 306.067ZM90.2901 327.703C93.8504 328.141 95.0554 325.649 95.1102 322.499C95.2197 318.391 90.4544 312.531 86.4833 312.558C84.5388 312.558 81.5538 314.365 80.9239 316.091C79.089 320.911 84.7854 327.758 90.2901 327.703Z" fill="white"/>
<path d="M201.891 311.463C201.891 304.643 205.424 300.316 211.065 300.261C216.241 300.207 224.156 308.094 224.184 313.352C224.211 317.186 218.46 322.664 214.379 322.718C207.505 322.773 201.891 317.707 201.891 311.463ZM220.87 313.599C217.118 310.887 214.133 308.669 211.065 306.56C210.819 306.396 209.915 306.67 209.778 306.971C208.847 309.162 206.656 312.366 207.423 313.462C209.012 315.735 212.024 317.597 214.763 318.227C216.132 318.556 218.213 315.735 220.87 313.599Z" fill="white"/>
<path d="M113.925 234.807C117.239 233.246 119.813 232.041 122.387 230.836C122.688 231.658 123.428 233.082 123.236 233.219C121.21 234.698 119.101 236.094 116.855 237.217C116.499 237.436 115.376 236.067 113.925 234.807Z" fill="white"/>
<path d="M168.863 82.0717C168.424 80.7298 167.548 79.3605 167.658 78.0733C167.74 77.2243 169.219 76.5122 170.068 75.718C170.67 76.7861 171.738 77.8268 171.793 78.9223C171.848 79.9904 170.862 81.0858 170.341 82.1813C169.848 82.1539 169.356 82.1265 168.863 82.0717Z" fill="white"/>
<path d="M54.9342 86.0154C56.7143 86.7823 58.5767 87.3848 60.1925 88.3981C60.439 88.5624 59.6722 90.3973 59.371 91.4654C57.5087 90.5342 55.6463 89.6305 53.784 88.6994C54.1674 87.823 54.5508 86.9192 54.9342 86.0154Z" fill="white"/>
<path d="M42.1718 162.589C44.0341 161.685 45.1022 160.726 46.1703 160.754C47.0193 160.781 47.8134 162.013 48.635 162.698C47.4574 163.52 46.3345 164.533 45.0199 164.999C44.6091 165.19 43.6507 163.876 42.1718 162.589Z" fill="white"/>
</svg>
