<svg width="330" height="500" viewBox="0 0 330 500" fill="none" xmlns="http://www.w3.org/2000/svg">
<path d="M63.6186 206.719C61.4804 199.407 59.4478 192.094 57.204 184.861C53.9571 174.381 49.8654 164.218 49.4694 152.894C49.0207 140.46 48.0967 127.974 46.0905 115.726C44.0315 103.292 40.8902 91.0437 35.241 79.5342C33.0764 75.0994 32.0205 70.2423 28.0608 66.705C27.1633 65.913 27.7705 63.3788 27.6913 61.6366C29.5919 61.6366 31.8093 61.003 33.3404 61.7422C41.9197 65.8602 50.6045 69.8991 58.7615 74.7562C65.1233 78.5575 70.7461 83.5996 76.8175 87.9288C78.4542 89.0903 80.4868 89.6974 82.3347 90.5686C82.889 89.0639 83.549 87.612 83.9977 86.0809C85.476 80.9334 86.7959 75.7594 88.3006 70.6382C89.1453 67.7344 92.0491 66.9162 94.4513 69.028C98.3845 72.4333 102.107 76.0761 106.568 80.1942C107.941 75.1522 109.287 71.0342 110.211 66.8106C112.032 58.3897 115.965 50.9191 120.691 43.8972C125.917 36.1363 131.435 28.5601 137.321 21.3008C144.475 12.4839 153.688 6.01647 163.402 0.288157C164.326 -0.239799 165.778 0.129725 166.992 0.0769297C167.019 1.47601 167.573 3.11272 167.019 4.24782C162.188 14.1206 162.558 23.7821 167.019 33.7341C169.87 40.096 172.008 46.7746 174.384 53.3213C175.096 55.2747 175.545 57.3073 176.232 59.8151C181.696 54.9843 186.527 50.5231 191.542 46.3259C198.485 40.5448 205.454 34.7637 212.66 29.3257C217.016 26.026 220.633 27.2931 222.005 32.4671C224.539 42.0758 227.021 51.711 228.922 61.4518C230.637 70.3214 231.509 79.3495 232.881 88.2719C233.092 89.671 233.911 90.9909 234.571 92.7331C240.695 86.82 248.218 85.6058 255.451 83.2828C266.301 79.7719 277.229 78.3991 288.448 79.1119C291.088 79.2703 294.89 80.3526 295.866 82.2005C296.79 83.9691 295.365 87.7704 293.834 89.8558C288 97.8543 283.38 106.486 281.743 116.148C280.133 125.572 279.764 135.286 279.447 144.869C279.13 154.029 277.625 162.687 272.847 170.633C272.557 171.108 272.715 171.821 272.636 172.745C273.587 172.745 274.537 173.009 275.25 172.718C288.422 167.228 302.439 165.617 316.404 163.902C318.463 163.638 320.654 164.588 322.792 164.984C322.079 166.911 321.287 168.785 320.627 170.739C320.047 172.481 319.703 174.302 319.07 175.992C315.031 186.577 311.362 197.348 306.742 207.695C303.442 215.113 298.876 221.977 294.494 229.738C295.787 230.503 297.16 231.744 298.744 232.14C305.501 233.829 310.807 237.921 315.189 242.857C320.152 248.454 324.297 254.789 328.652 260.887C329.418 261.943 329.787 263.421 329.919 264.741C330.236 267.988 328.626 269.149 325.749 267.618C313.896 261.362 301.119 261.309 288.264 262.128C281.717 262.55 275.17 263.448 268.677 264.398C267.383 264.583 265.509 265.982 265.271 267.09C261.813 283.061 257.669 298.821 259.147 315.636C259.912 324.242 256.771 333.138 256.058 341.955C255.478 349.135 255.557 356.421 255.979 363.627C256.296 369.092 257.141 374.635 258.593 379.915C262.051 392.401 263.133 405.098 261.708 417.795C260.44 429.146 257.774 440.339 255.821 451.611C255.346 454.303 255.346 457.075 255.161 459.24C260.784 461.668 265.931 463.754 270.973 466.077C274.458 467.687 275.593 470.776 275.514 474.445C275.434 478.035 273.745 480.305 270.551 482.021C259.332 488.066 247.4 491.076 234.729 492.316C224.724 493.319 214.878 495.748 204.926 497.358C201.917 497.833 198.775 497.649 195.713 497.833C184.547 498.572 173.407 499.813 162.241 499.972C148.91 500.156 135.553 499.391 122.195 499.101C119.925 499.048 117.576 499.866 115.411 499.47C107.518 498.045 99.4668 496.936 91.8907 494.455C85.5816 492.369 82.625 486.35 81.0676 480.121C80.1172 476.346 83.4698 470.327 87.1654 468.849C90.7819 467.397 94.6888 466.605 98.2789 465.127C99.5724 464.599 101.341 462.751 101.209 461.721C100.259 454.145 99.0445 446.595 97.5662 439.125C96.2727 432.552 94.4512 426.084 92.9466 419.538C90.5708 409.11 87.8518 398.736 86.0831 388.177C84.7104 379.994 84.3145 371.599 83.9713 363.284C83.3114 347.445 83.5753 331.527 82.3083 315.742C81.4107 304.338 78.7182 293.066 76.6855 281.768C76.5272 280.817 75.0753 280.184 74.4417 279.233C73.8874 278.441 73.1482 277.201 73.4386 276.594C73.7554 275.907 75.1545 275.379 76.052 275.432C79.8533 275.617 80.3548 278.6 80.9884 281.556C82.6514 289.238 84.4729 296.894 86.3735 305.182C88.7493 302.147 90.4916 299.744 92.3658 297.501C97.0118 291.957 102.767 292.564 104.958 299.19C106.33 303.308 106.99 307.822 107.149 312.204C107.492 322.209 107.096 332.24 107.518 342.245C107.729 346.891 109.076 351.51 110.158 356.104C110.422 357.186 111.9 358.928 112.481 358.823C113.933 358.506 116.124 357.476 116.335 356.42C117.444 350.613 118.975 344.647 118.658 338.84C118.024 327.04 115.886 315.24 120.559 303.81C122.538 299.005 125.31 294.729 130.563 292.828C135.526 291.06 139.697 293.066 140.7 298.161C142.152 305.367 143.419 312.627 144.317 319.912C145.584 330.128 146.191 340.423 147.643 350.613C148.012 353.174 150.467 355.444 151.946 357.872C153.529 355.47 156.38 353.147 156.512 350.692C157.225 337.784 157.331 324.849 157.516 311.914C157.621 304.047 159.891 296.999 164.696 290.822C167.019 287.839 170.53 287.681 172.8 290.637C174.806 293.251 177.05 296.207 177.604 299.296C179.135 308.165 180.033 317.193 180.798 326.169C181.326 332.293 181.221 338.496 181.432 344.647C181.485 346.02 181.326 347.525 181.801 348.765C182.752 351.299 184.072 353.702 185.233 356.157C187.213 353.702 190.381 351.511 190.962 348.765C192.493 341.321 193.073 333.666 193.733 326.063C194.446 317.774 194.208 309.38 195.581 301.223C196.32 296.841 199.013 292.432 201.837 288.869C205.639 284.038 211.895 285.199 214.112 290.954C215.855 295.442 217.306 300.22 217.887 304.971C219.603 319.305 220.712 333.718 222.322 348.052C222.533 349.847 224.355 351.431 225.437 353.121C226.546 351.801 227.76 350.587 228.763 349.187C232.3 344.198 231.614 338.364 231.746 332.742C232.063 320.44 231.984 308.086 232.776 295.811C232.987 292.564 234.967 288.552 237.448 286.493C242.068 282.692 247.875 285.041 250.832 290.954C251.492 292.248 252.072 293.594 252.706 294.914C253.128 294.887 253.551 294.861 253.973 294.834C254.95 290.109 255.926 285.358 257.114 279.656C251.835 279.92 247.136 279.999 242.49 280.448C234.887 281.187 227.338 282.586 219.735 283.008C210.047 283.536 200.306 283.035 190.618 283.536C175.281 284.328 159.548 283.853 144.739 287.206C131.567 290.189 118.684 286.651 105.855 289.212C99.6252 290.453 93.3425 291.324 86.8487 292.406C86.0039 288.499 86.5847 287.074 89.7788 286.625C96.5895 285.674 103.295 283.932 110.105 283.246C114.936 282.771 119.872 283.563 124.782 283.642C127.871 283.695 131.039 283.8 134.074 283.325C138.879 282.533 143.578 281.002 148.382 280.237C168.708 277.069 189.219 277.042 209.651 277.94C225.199 278.6 240.563 276.567 256.006 275.907C257.141 275.855 258.513 274.271 259.2 273.056C259.992 271.657 260.124 269.915 260.784 267.407C259.094 267.064 257.299 266.378 255.53 266.378C249.67 266.378 243.81 266.378 237.976 266.879C234.518 267.17 231.192 268.938 227.76 269.123C212.265 269.915 196.743 270.469 181.221 270.918C174.753 271.103 168.259 271.103 161.818 270.628C155.166 270.126 149.147 272.238 142.97 274.033C140.357 274.799 137.691 275.696 135.025 275.854C119.978 276.726 104.931 277.412 89.8844 278.125C88.6701 278.178 87.2447 278.389 86.2415 277.887C85.1856 277.333 84.4993 276.039 83.6545 275.063C84.6841 274.429 85.608 273.505 86.7167 273.241C88.327 272.845 90.0692 272.951 91.7587 272.792C91.9962 272.766 92.2074 272.449 92.841 271.921C73.597 255.502 49.0999 249.114 27.7177 236.759C30.463 243.781 35.4786 249.246 41.1541 253.311C47.0936 257.587 54.2738 260.306 61.1637 263.078C68.0271 265.823 75.2337 267.803 82.3347 270.126C81.8331 272.951 79.9061 273.664 76.184 272.872C63.8826 270.258 52.426 265.163 41.2333 259.857C35.5314 257.165 30.6742 251.806 26.6882 246.659C21.1182 239.426 14.2284 235.044 5.67552 232.562C3.6165 231.955 1.87426 230.186 1.69315e-05 228.946C1.68947 227.019 3.11493 224.696 5.17396 223.323C7.39137 221.818 10.1368 221 12.7501 220.182C21.1974 217.568 29.6183 214.849 38.1712 212.632C45.9849 210.599 53.957 209.174 61.85 207.458C62.1932 207.273 62.6155 207.062 63.6186 206.719ZM251.069 465.998C250.251 459.319 256.032 451.109 246.159 446.384C246.027 446.331 245.869 446.173 245.842 446.067C245.684 444.8 245.578 443.533 245.447 442.266C246.608 442.345 247.822 442.266 248.931 442.556C250.066 442.847 251.122 443.507 253.128 444.404C254.607 436.907 256.56 429.859 257.273 422.679C258.434 410.906 258.329 399.106 254.871 387.544C252.891 380.918 252.389 380.152 245.447 380.574C234.254 381.234 223.061 381.947 211.869 382.686C194.05 383.874 176.258 385.326 158.439 386.25C147.986 386.804 137.48 386.303 127 386.725C116.863 387.121 106.779 388.203 96.6422 388.811C92.9993 389.022 92.2866 390.896 92.9202 393.958C95.0056 403.937 97.3286 413.888 99.0972 423.92C101.367 436.907 103.163 449.974 105.195 462.988C105.776 466.658 106.541 470.301 106.99 472.835C114.355 472.544 120.717 472.175 127.105 472.096C144.818 471.858 162.531 471.858 180.244 471.541C185.154 471.462 190.117 470.67 191.516 464.572C191.648 463.965 191.885 463.358 192.07 462.777C192.519 462.962 192.968 463.173 193.416 463.358C194.261 465.232 195.132 467.08 196.215 469.456C214.139 468.294 232.327 467.159 251.069 465.998ZM90.7027 371.678C91.8378 371.837 92.7354 372.154 93.6065 372.101C108.785 371.256 123.99 370.464 139.169 369.435C156.512 368.273 173.803 366.584 191.146 365.739C208.991 364.841 226.889 364.683 244.734 364.155C247.717 364.076 250.515 363.891 250.726 359.667C251.175 349.927 251.729 340.186 252.548 330.471C252.917 325.931 255.187 321.259 254.475 317.009C253.102 308.878 250.515 300.906 247.77 293.092C247.057 291.086 243.995 288.895 241.804 288.657C238.055 288.261 237.21 292.195 236.339 294.914C235.521 297.501 235.468 300.378 235.442 303.15C235.363 315.002 235.891 326.908 235.231 338.734C234.94 344.04 232.934 349.425 230.796 354.388C228.816 359.008 223.299 360.011 221.477 356.579C219.999 353.807 218.653 350.745 218.23 347.683C216.884 337.335 216.198 326.934 214.878 316.586C213.954 309.459 212.581 302.384 211.024 295.362C210.707 293.884 208.991 292.116 207.566 291.693C206.563 291.403 204.319 292.855 203.712 294.069C201.917 297.712 199.699 301.513 199.356 305.394C198.432 315.953 198.749 326.644 197.851 337.203C197.323 343.354 195.713 349.504 193.944 355.444C192.625 359.879 187.503 362.703 183.57 362.175C178.871 361.542 177.815 358.11 177.472 354.203C176.654 344.885 176.126 335.54 175.096 326.221C174.093 317.114 172.694 308.033 171.269 299.005C171.058 297.712 169.632 296.63 168.207 294.703C167.388 297.342 167.23 298.636 166.623 299.639C161.871 307.4 161.95 315.715 163.165 324.4C164.669 335.302 163.481 346.205 160.498 356.764C159.337 360.829 155.852 363.97 151.55 363.944C149.2 363.918 145.98 361.674 144.765 359.509C142.812 356.025 141.545 351.827 141.096 347.841C139.75 335.777 139.063 323.634 137.796 311.544C137.4 307.637 136.16 303.783 134.84 300.061C134.576 299.296 131.962 298.53 131.065 298.979C129.428 299.824 127.66 301.355 127 303.018C125.469 306.74 123.726 310.7 123.594 314.606C123.172 326.301 123.753 338.021 123.33 349.715C123.198 353.49 121.773 357.556 119.872 360.855C117.153 365.528 113.326 366.346 108.838 363.046C104.799 360.063 103.77 356.157 103.638 351.88C103.215 338.787 103.321 325.694 102.872 312.627C102.74 308.561 101.684 304.496 100.681 300.51C100.074 298.055 98.2789 297.158 96.3783 299.507C91.4419 305.605 87.5878 312.336 87.8782 320.44C88.4589 336.253 89.4093 352.065 90.2276 367.877C90.3332 369.197 90.5444 370.385 90.7027 371.678ZM63.9354 178.051C65.1761 185.759 66.1264 191.962 67.1823 198.166C67.4991 200.119 67.8159 202.126 68.5286 203.973C71.3004 211.074 74.0194 218.202 77.1607 225.144C80.5924 232.747 83.8657 240.508 88.2742 247.53C93.3689 255.634 99.546 263.078 105.512 270.601C106.489 271.842 108.891 272.66 110.554 272.555C116.361 272.212 122.116 271.209 127.924 270.786C131.355 270.549 132.015 269.413 131.118 266.14C129.428 259.989 128.108 253.707 126.841 247.451C126.208 244.283 125.997 241.009 125.601 237.789C125.363 235.756 125.073 233.697 124.914 231.638C124.729 229.368 124.941 227.019 124.492 224.828C123.621 220.815 122.406 216.908 121.298 212.949C118.816 204.026 116.889 194.893 113.669 186.234C111.082 179.318 106.885 173.114 100.549 168.627C93.3953 163.585 86.5055 158.2 79.4573 153.026C77.4247 151.521 75.3129 150.148 73.2274 148.723C72.1187 150.887 70.614 152.947 69.9541 155.243C67.6575 163.189 65.6777 171.293 63.9354 178.051ZM127.633 223.085C128.003 222.927 128.372 222.769 128.768 222.61C131.857 216.064 134.338 209.095 138.272 203.102C141.228 198.588 141.307 194.259 140.647 189.639C139.723 183.146 138.536 176.625 136.899 170.29C133.494 157.091 136.556 144.42 139.671 131.802C141.809 123.117 143.446 114.986 134.998 108.44C132.2 106.275 130.326 102.949 127.554 100.705C121.403 95.7425 115.015 91.0701 108.6 86.4504C104.852 83.7579 100.866 81.4085 96.9326 78.9799C95.9031 78.3464 94.636 77.5017 93.5801 77.6073C92.8938 77.6864 92.0491 79.2703 91.8115 80.2998C90.122 87.5856 88.1422 94.8186 87.1127 102.184C85.6344 112.479 84.8425 122.879 83.9185 133.254C83.7601 135.181 84.3673 137.213 84.8688 139.14C85.7136 142.519 87.2182 145.819 87.5878 149.251C88.0102 153.052 89.858 155.111 92.9466 157.064C97.8038 160.127 102.74 163.347 106.779 167.36C116.731 177.338 120.347 190.511 123.542 203.736C125.099 210.15 126.287 216.644 127.633 223.085ZM181.036 229.289C182.673 227.388 183.808 226.068 184.916 224.748C190.645 217.911 196.426 211.048 205.164 208.012C207.513 207.194 210.417 207.88 213.056 207.88C212.898 210.441 213.03 213.054 212.476 215.536C211.288 221.079 209.757 226.57 208.358 232.087C208.727 232.43 209.07 232.8 209.44 233.143C213.294 231.269 217.043 229.21 220.976 227.547C227.786 224.669 234.518 221.501 241.592 219.442C246.027 218.149 247.136 220.155 245.209 224.564C241.724 232.509 238.346 240.508 234.518 248.269C231.825 253.733 228.262 258.617 222.586 261.6C221.266 262.286 220.501 264.107 219.498 265.401C221.029 265.982 222.084 266.035 222.612 265.507C226.229 262.18 229.687 258.696 233.251 255.343C247.268 242.197 252.072 224.696 254.818 206.772C257.273 190.695 257.959 174.355 259.385 158.147C259.517 156.695 259.411 155.243 259.411 153.712C258.038 153.712 257.22 153.527 256.507 153.738C249.961 155.797 243.282 157.487 236.973 160.153C229.872 163.162 222.507 166.198 216.409 170.765C204.266 179.819 193.654 190.59 185.55 203.577C180.746 211.259 179.373 219.548 181.036 229.289ZM264.321 176.652C271.052 168.706 274.378 160.602 274.88 151.706C275.487 141.12 274.933 130.456 275.276 119.844C275.408 116.069 276.094 112.109 277.52 108.651C280.582 101.233 284.278 94.0794 287.894 86.3977C284.172 86.2129 280.688 85.8697 277.203 85.8961C262.843 85.9489 248.825 87.5856 236.682 96.2968C235.468 97.168 234.148 98.6727 233.963 100.019C233.277 105.642 233.092 111.317 232.564 116.966C231.35 129.558 231.086 142.361 225.041 154.002C224.434 155.19 224.46 156.695 224.064 158.675C231.35 155.956 237.686 153.395 244.179 151.283C249.406 149.594 254.739 147.984 260.124 147.218C265.482 146.453 267.145 148.723 266.274 154.002C265.298 159.889 264.295 165.802 263.45 171.715C263.318 172.93 263.899 174.276 264.321 176.652ZM102.371 485.875C101.737 485.321 101.103 484.766 100.47 484.186C101.209 482.47 102.45 480.78 102.555 479.012C102.74 476.029 103.347 471.568 101.711 470.274C98.3581 467.529 94.1081 469.667 90.7555 471.937C88.1422 473.706 85.608 475.712 86.2151 479.698C86.9279 484.186 91.4419 489.835 95.9823 490.68C103.215 492 110.475 493.636 117.76 493.847C133.916 494.322 150.098 494.19 166.253 493.874C172.166 493.742 178.079 491.577 183.94 491.709C199.066 492.079 213.928 490.917 228.895 488.621C240.273 486.878 251.439 484.846 262.367 481.335C264.902 480.516 267.409 479.197 269.521 477.56C273.032 474.815 272.742 473.099 269.653 469.72C266.459 466.209 262.447 465.47 258.117 465.153C255.187 464.942 254.158 466.209 254.554 468.981C254.844 471.145 255.108 473.31 255.451 475.976C252.864 475.527 250.225 474.366 249.565 475.078C246.291 478.537 245.024 475.052 242.965 473.785C241.328 472.782 239.322 471.515 237.554 471.647C224.698 472.571 211.869 473.811 199.013 474.973C194.34 475.395 189.642 475.923 184.969 476.425C184.705 478.695 184.52 480.464 184.124 483.763C181.089 481.071 178.845 479.065 176.575 477.058C174.648 477.401 172.589 478.035 170.477 478.088C160.472 478.299 150.467 478.537 140.463 478.405C136.556 478.352 132.649 477.217 128.716 476.768C125.02 476.346 121.166 475.131 119.16 480.305C118.42 482.232 115.913 483.473 113.827 485.347C113.141 483.684 112.956 483.288 112.824 482.839C112.349 481.282 111.9 479.698 111.425 478.141C110.052 479.487 108.759 480.886 107.307 482.127C105.749 483.447 104.034 484.635 102.371 485.875ZM176.522 209.332C181.221 202.337 185.92 195.42 190.566 188.451C194.314 182.802 199.435 177.549 201.309 171.346C204.398 161.051 205.771 150.148 207.143 139.404C209.15 123.883 210.522 108.281 212.159 92.7068C213.426 80.643 214.667 68.6056 215.828 56.5418C215.96 55.1691 215.406 53.7436 215.168 52.3181C213.69 53.1629 213.32 53.9284 213.136 54.7468C210.206 66.9162 207.275 79.0855 204.398 91.2813C201.336 104.19 198.274 117.098 195.317 130.06C193.654 137.372 192.493 144.842 190.566 152.102C187.635 163.11 184.362 174.038 180.983 184.914C179.32 190.273 177.367 195.552 175.149 200.7C173.381 204.686 173.909 207.801 176.522 209.332ZM201.705 46.933C201.389 46.6162 201.072 46.2995 200.755 45.9827C195.502 50.6551 189.8 54.9051 185.101 60.0791C179.267 66.5202 173.724 73.41 169.051 80.7222C162.742 90.6213 156.592 100.784 151.814 111.476C147.88 120.266 146.085 130.007 143.261 139.325C138.852 153.95 140.595 168.495 143.947 182.987C144.079 183.594 144.739 184.439 145.267 184.545C145.821 184.65 146.904 184.175 147.115 183.673C148.672 180.268 150.863 176.995 149.623 172.85C149.253 171.636 149.332 170.184 149.543 168.891C151.022 160.179 152.5 151.468 154.163 142.783C155.588 135.418 156.592 127.869 159.047 120.847C162.373 111.449 166.332 102.184 171.11 93.4459C176.68 83.23 183.28 73.5948 189.642 63.8276C193.469 58.0465 197.693 52.5557 201.705 46.933ZM202.946 57.4921C202.471 57.2809 201.969 57.0697 201.494 56.8321C200.491 57.9145 199.277 58.8648 198.485 60.1055C192.281 69.9255 186.342 79.9302 179.954 89.6182C172.298 101.26 166.2 113.64 162.531 126.997C159.099 139.431 157.753 152.577 153.265 164.562C149.491 174.645 156.961 178.605 160.525 184.914C160.657 185.178 161.29 185.152 161.845 185.284C169.236 140.619 182.197 97.8279 202.946 57.4921ZM223.695 57.2545C223.14 57.3337 222.586 57.4393 222.032 57.5185C217.254 95.2673 212.449 132.99 207.724 170.369C213.452 166.805 218.626 162.344 220.949 155.217C222.111 151.653 224.513 148.406 225.279 144.816C226.757 137.794 228.05 130.64 228.341 123.487C228.869 111.502 229.185 99.4118 228.394 87.4536C227.734 77.3432 225.331 67.3385 223.695 57.2545ZM171.269 200.436C172.536 197.348 174.146 194.391 175.017 191.223C177.314 182.987 179.505 174.725 181.326 166.383C185.101 149.251 188.401 131.987 192.334 114.881C194.789 104.19 198.01 93.6571 200.887 83.0452C202.128 78.5048 203.395 73.9907 204.636 69.4767C203.131 69.6351 202.577 70.1102 202.339 70.7174C195.687 87.1896 188.427 103.451 182.646 120.213C177.947 133.887 175.017 148.142 171.269 162.159C169.342 169.392 167.468 176.625 165.356 183.779C163.165 191.25 165.092 197.453 171.269 200.436ZM191.331 265.269C191.542 265.744 191.78 266.193 191.991 266.668C198.722 266.668 205.454 266.694 212.185 266.642C212.924 266.642 213.901 266.483 214.35 266.035C218.283 261.864 222.85 258.036 225.833 253.232C229.687 247.028 232.3 240.033 235.31 233.328C236.128 231.48 236.366 229.394 237.131 226.438C229.397 229.79 223.008 232.509 216.673 235.36C209.07 238.766 203.395 243.808 200.729 252.176C199.646 255.555 196.822 258.379 194.71 261.389C193.68 262.735 192.466 263.976 191.331 265.269ZM143.287 35.5292C142.812 35.318 142.363 35.1068 141.888 34.8956C141.598 35.4236 141.281 35.978 141.017 36.5323C137.532 43.7389 134.444 51.1566 130.511 58.0993C125.152 67.5497 123.066 77.6336 123.146 88.3247C123.146 89.5918 123.753 91.1493 124.624 92.0732C128.716 96.4552 132.966 100.705 137.242 104.903C137.77 105.404 138.958 105.8 139.512 105.536C140.014 105.298 140.304 104.058 140.225 103.319C139.908 100.151 138.931 97.0096 139.063 93.8683C139.565 81.9365 140.278 70.0311 141.149 58.1257C141.598 52.0542 142.601 46.0091 143.261 39.9376C143.446 38.4857 143.287 37.0075 143.287 35.5292ZM319.36 256.479C314.477 249.034 309.831 241.59 301.357 237.208C292.012 232.351 287.947 235.308 282.694 242.461C279.605 246.632 276.174 250.592 272.689 254.472C271.343 255.951 269.468 256.954 267.832 258.194C268.175 258.511 268.492 258.854 268.835 259.171C285.492 258.274 302.123 257.402 319.36 256.479ZM206.695 215.588C199.937 215.536 197.191 219.522 194.05 222.637C186.738 229.87 180.35 237.525 180.746 248.85C180.878 252.492 179.215 256.188 178.687 259.91C178.423 261.705 178.449 264.979 179.188 265.216C181.511 266.008 185.26 266.853 186.527 265.639C190.09 262.26 193.337 258.194 195.449 253.786C198.063 248.348 199.567 242.356 201.257 236.495C203.157 229.843 204.768 223.059 206.695 215.588ZM232.776 262.471C233.013 262.603 233.277 262.708 233.515 262.84C236.656 260.517 239.797 258.168 242.992 255.924C244.971 254.552 247.189 253.522 249.063 252.017C257.642 245.075 266.433 238.37 274.563 230.899C284.014 222.241 293.358 213.371 299.932 202.099C301.885 198.747 304.261 195.605 306.214 192.253C308.352 188.557 310.253 184.756 312.101 180.928C312.338 180.427 311.626 179.476 311.283 178.526C307.323 184.043 303.337 188.979 300.011 194.365C290.719 209.385 278.523 221.581 264.347 231.876C254.844 238.766 245.262 245.523 238.187 255.106C236.366 257.534 234.571 260.016 232.776 262.471ZM151.761 31.9919C151.101 31.9655 150.441 31.9391 149.807 31.9127C149.596 32.7574 149.306 33.6022 149.227 34.4469C147.405 53.4269 145.505 72.3805 143.894 91.3605C143.446 96.5608 143.921 101.84 144.132 107.067C144.158 107.912 145.109 108.73 145.637 109.548C146.27 108.862 147.115 108.255 147.511 107.437C150.494 101.312 152.764 94.713 156.512 89.1431C159.126 85.2626 158.598 82.1476 157.674 78.3727C155.615 69.9782 153.133 61.6102 151.972 53.0837C151.022 46.1675 151.761 39.0401 151.761 31.9919ZM162.056 199.829C161.475 200.119 160.894 200.383 160.314 200.674C167.731 221.211 170.134 242.145 166.702 264.16C169.315 264.477 172.536 265.982 174.252 262.154C175.545 259.277 176.601 256.109 176.944 252.994C178.792 236.363 176.654 220.393 167.573 205.927C166.148 203.657 163.93 201.862 162.056 199.829ZM95.5864 271.657C95.4544 272.106 95.3224 272.555 95.1904 273.03C97.0118 272.872 98.8333 272.687 101.262 272.476C97.2494 267.302 93.8177 262.946 90.4652 258.511C87.7726 254.921 85.9248 250.143 82.4139 247.82C76.0784 243.623 68.8982 240.587 61.85 237.551C57.4416 235.651 52.69 234.304 47.9912 233.301C44.3483 232.509 40.5206 232.589 36.7721 232.272C36.6929 232.853 36.5873 233.433 36.5081 233.988C40.679 236.231 44.8234 238.554 49.0471 240.666C62.8531 247.53 76.9231 253.944 88.8021 264.002C91.3891 266.167 93.3425 269.097 95.5864 271.657ZM162.03 79.4551C164.643 76.1289 167.283 73.5156 169.025 70.4006C170.53 67.6553 171.691 64.382 171.85 61.267C172.298 52.3182 166.94 45.0324 164.009 37.0602C162.769 33.6549 160.842 30.4872 159.152 27.0291C155.694 33.7605 157.331 64.8043 162.03 79.4551ZM154.374 200.806C153.582 206.244 152.949 210.678 152.289 215.113C149.781 232.008 157.331 247.556 158.783 264.873C160.261 263.791 161.792 263.289 162.082 262.365C163.112 259.092 164.485 255.634 164.353 252.308C164.141 246.685 162.742 241.115 162.135 235.492C160.921 223.983 159.205 212.632 154.374 200.806ZM252.072 231.744C252.574 232.008 253.075 232.298 253.577 232.562C264.268 228.55 304.393 186.287 307.191 175.86C300.723 181.667 294.388 187.211 288.211 192.939C278.206 202.258 268.122 211.55 258.461 221.211C255.636 224.062 254.158 228.207 252.072 231.744ZM52.8748 114.854C52.4524 115.013 52.03 115.171 51.6341 115.33C55.1714 133.861 51.7661 153.158 58.4447 171.425C59.3158 170.211 59.6326 168.97 59.8966 167.729C60.5301 164.561 60.5037 161.077 61.9028 158.305C64.9649 152.339 67.2615 146.822 63.909 139.959C60.7941 133.597 58.867 126.681 56.2009 120.081C55.4617 118.207 54.0099 116.597 52.8748 114.854ZM81.3052 146.109C74.4681 127.737 66.6544 109.971 53.0859 95.2145C55.0394 102.975 57.9431 110.314 60.6621 117.732C63.4339 125.229 66.0472 132.805 68.951 140.988C75.3129 136.659 77.0815 143.285 81.3052 146.109ZM147.036 207.22C146.64 207.194 146.27 207.167 145.874 207.141C144.633 211.47 142.654 215.72 142.31 220.129C141.73 227.388 141.941 234.753 142.363 242.039C142.574 245.286 144.211 248.454 145.109 251.674C146.085 255.185 146.64 258.854 147.96 262.26C148.487 263.632 150.335 264.847 151.84 265.295C152.5 265.48 154.585 263.527 154.612 262.524C154.691 259.805 154.533 256.822 153.556 254.34C149.675 244.573 146.719 234.7 147.168 224.062C147.352 220.05 147.379 216.064 147.405 212.051C147.405 210.388 147.168 208.804 147.036 207.22ZM134.47 227.098C131.012 231.691 130.88 237.789 131.461 243.623C132.2 251.014 133.784 258.379 135.473 265.639C136.239 268.938 139.063 270.1 142.363 268.78C145.478 267.539 145.637 265.19 144.554 262.339C142.363 256.505 140.014 250.697 138.324 244.705C136.635 238.792 135.658 232.694 134.47 227.098ZM301.463 174.461C301.304 174.038 301.172 173.616 301.014 173.167C296.685 175.464 292.065 177.338 288.053 180.11C279.737 185.864 271.791 192.147 263.661 198.166C259.49 201.254 257.88 207.775 259.754 211.286C273.534 199.116 287.498 186.788 301.463 174.461ZM292.197 222.769C291.801 222.425 291.379 222.056 290.983 221.713C278.153 237.393 262.236 249.457 245.341 260.94C252.943 263.896 257.563 258.406 263.001 256.267C266.565 254.868 269.838 251.938 272.451 249.008C278.101 242.646 283.301 235.888 288.528 229.157C290.006 227.23 290.983 224.907 292.197 222.769ZM118.024 85.8697C119.028 79.8774 119.582 73.938 121.139 68.2888C122.644 62.7981 125.178 57.5713 127.316 52.2654C129.376 47.1178 131.54 42.023 133.652 36.8754C133.203 36.6642 132.728 36.4531 132.279 36.2419C128.716 41.6007 124.914 46.8274 121.641 52.3446C117.365 59.5512 114.118 67.2593 113.009 75.6802C112.428 80.0358 112.375 84.101 118.024 85.8697ZM77.0287 241.194C77.4775 240.719 77.9526 240.27 78.4014 239.795C76.3424 236.073 74.7321 231.981 72.0659 228.761C70.6141 226.992 67.4727 226.332 64.9649 225.725C62.1668 225.039 59.2102 224.88 56.3065 224.696C53.4027 224.511 50.4725 224.511 47.5688 224.564C44.8762 224.616 42.1573 224.828 39.4647 224.96C52.5052 229.526 66.4696 230.978 77.0287 241.194ZM68.291 220.842C67.8687 219.258 67.2087 217.436 66.9712 215.562C66.364 210.969 63.5394 210.309 59.6854 211.127C56.412 211.814 53.0595 212.262 49.839 213.186C45.7473 214.348 41.7877 215.852 37.7488 217.225C37.8808 217.568 37.9864 217.911 38.1184 218.255C47.912 219.073 57.7055 219.918 68.291 220.842ZM58.1279 79.3495C57.9695 79.6663 57.8111 79.983 57.6263 80.3262C64.0146 88.4831 70.4029 96.6928 76.8439 104.797C77.3983 105.483 78.507 106.011 79.3781 106.038C79.7741 106.038 80.434 104.691 80.5924 103.899C81.3316 99.887 81.6219 96.0593 77.6095 93.2347C73.333 90.2253 69.2942 86.8729 65.0705 83.7843C62.8795 82.1477 60.4509 80.8014 58.1279 79.3495ZM66.1264 99.887C65.9944 100.098 65.8889 100.283 65.7569 100.494C69.8221 108.809 73.9138 117.151 77.9262 125.361C80.1965 122.695 80.5924 115.752 78.3222 113.007C75.3657 109.417 72.2771 105.932 69.1622 102.448C68.2911 101.471 67.1559 100.732 66.1264 99.887ZM209.994 377.46C211.605 376.958 215.3 378.885 215.036 373.896C214.852 370.306 213.452 368.88 209.915 369.276C206.985 369.593 203.949 369.303 203.817 373.685C203.685 378.093 206.457 377.803 209.994 377.46ZM280.925 177.153C278.497 176.15 269.68 180.136 263.978 185.548C262.552 186.894 262.341 189.534 261.576 191.566C262.024 191.804 262.499 192.068 262.948 192.306C268.993 187.237 275.012 182.142 280.925 177.153ZM243.229 367.481C242.675 368.115 242.147 368.722 241.592 369.355C242.833 371.863 243.704 374.714 245.526 376.668C246.318 377.512 250.462 376.984 250.779 376.193C251.571 374.107 252.046 370.464 250.858 369.435C249.116 367.904 245.869 368.062 243.229 367.481ZM183.359 378.674C183.702 378.199 184.072 377.723 184.415 377.248C183.385 375.585 182.488 372.655 181.326 372.55C178.66 372.286 175.809 373.236 173.169 374.107C172.457 374.345 171.85 376.087 171.929 377.09C171.982 377.671 173.46 378.515 174.331 378.568C177.34 378.779 180.35 378.674 183.359 378.674ZM197.799 370.411C194.42 372.286 189.51 368.59 188.823 374.767C188.322 379.096 191.542 378.199 193.997 378.225C199.382 378.331 197.957 374.661 197.799 370.411ZM145.769 382.132C148.012 380.416 150.731 379.387 151.338 377.644C152.21 375.084 149.596 374.265 147.537 374.978C145.214 375.77 143.155 377.275 140.991 378.463C142.31 379.466 143.63 380.469 145.769 382.132ZM230.162 371.995C232.327 374.292 233.647 375.664 234.967 377.064C235.891 375.664 237.369 374.318 237.633 372.814C237.976 370.781 238.372 367.666 234.676 368.273C233.356 368.458 232.3 370.147 230.162 371.995ZM227.813 376.932C226.994 374.239 226.599 372.338 225.807 370.649C225.384 369.751 224.117 368.458 223.51 368.59C222.48 368.828 220.949 369.963 220.87 370.86C220.685 372.866 220.553 375.638 221.715 376.747C222.771 377.723 225.543 376.932 227.813 376.932ZM161.871 381.762C164.221 379.703 165.567 378.489 166.94 377.275C165.356 376.272 163.825 374.582 162.162 374.45C160.762 374.318 159.205 375.981 157.727 376.852C158.835 378.199 159.971 379.519 161.871 381.762ZM104.166 375.269C102.529 378.014 101.315 379.307 101.077 380.759C100.971 381.498 102.582 383.135 103.585 383.294C105.829 383.61 108.152 382.924 107.571 379.915C107.333 378.7 105.987 377.697 104.166 375.269ZM135.157 376.852C132.543 376.852 130.458 376.747 128.399 376.905C127.844 376.958 126.92 377.776 126.92 378.251C126.92 379.043 127.316 380.126 127.924 380.574C130.115 382.211 133.916 380.601 135.157 376.852ZM97.5662 382.528C95.56 380.574 93.9761 379.07 92.4186 377.565C91.9698 378.832 90.9139 380.231 91.1779 381.287C91.8906 384.165 93.9761 384.27 97.5662 382.528ZM117.101 382.422C118.632 380.944 119.635 379.941 120.664 378.964C119.556 378.304 118.394 377.064 117.338 377.169C116.045 377.301 114.883 378.568 113.669 379.334C114.619 380.205 115.569 381.05 117.101 382.422Z" fill="white"/>
<path d="M148.382 442.9C148.751 441.976 148.857 440.682 149.517 440.233C152.051 438.57 154.981 439.019 156.38 441.369C158.202 444.457 156.592 448.021 153.609 448.971C149.834 450.185 145.504 450.317 141.518 449.895C139.987 449.737 137.638 446.807 137.664 445.144C137.664 443.269 139.776 441.289 141.307 439.653C141.545 439.389 144.633 440.92 144.581 441.395C143.683 448.153 147.036 445.091 149.623 443.876C149.174 443.586 148.778 443.243 148.382 442.9Z" fill="white"/>
<path d="M211.393 427.51C206.721 427.431 202.92 424.368 203.052 420.778C203.184 416.792 206.299 414.707 212.053 414.76C215.828 414.813 218.864 418.033 218.838 421.966C218.838 425.636 216.198 427.589 211.393 427.51Z" fill="white"/>
<path d="M240.404 402.696C235.283 402.828 231.112 399.898 231.931 397.548C232.512 395.912 234.887 393.958 236.577 393.853C239.639 393.642 243.651 394.275 244.127 397.997C244.338 399.634 241.249 401.693 240.404 402.696Z" fill="white"/>
<path d="M130.035 409.85C127.633 411.222 125.205 413.466 122.565 413.757C121.007 413.941 119.107 411.038 117.364 409.533C118.764 408.081 119.872 405.969 121.588 405.283C124.914 403.989 127.871 405.019 130.035 409.85Z" fill="white"/>
</svg>
