<svg width="331" height="500" viewBox="0 0 331 500" fill="none" xmlns="http://www.w3.org/2000/svg">
<path d="M77.8015 108.596C76.8007 110.853 76.5877 112.641 75.6508 113.216C69.1351 117.283 73.564 122.287 74.288 126.951C74.501 128.271 74.9268 129.57 75.1823 130.89C76.4812 137.64 77.7588 144.39 79.0364 151.118C79.3771 151.161 79.7178 151.225 80.0585 151.267C80.4418 149.99 81.1231 148.755 81.187 147.456C81.5064 141.494 81.5703 135.532 81.8684 129.57C81.9749 127.462 81.1232 126.865 79.1429 126.525C77.7163 126.269 76.4386 125.055 74.1389 123.714C76.2683 122.777 77.2265 121.968 78.1421 122.01C81.7407 122.181 82.0175 120.137 81.911 117.305C81.7194 111.726 81.6129 106.104 81.7407 100.526C81.8258 97.3103 81.1232 95.6707 77.4182 96.1604C75.0972 96.4585 72.4568 96.2456 73.202 92.1147C74.9694 91.9657 76.7794 91.6037 78.5893 91.7101C80.9316 91.8379 81.5916 90.8584 81.5916 88.6439C81.6129 82.9373 81.762 77.2094 82.0175 71.5028C82.1027 69.5864 81.6555 68.7347 79.6113 68.1385C77.4181 67.4997 75.4805 65.9453 73.4151 64.7954C73.5428 64.3909 73.6492 64.0076 73.777 63.603C76.8006 63.603 79.8243 63.603 83.1886 63.603C84.2746 60.7071 85.3818 57.4918 86.6594 54.3617C87.9157 51.3168 89.4914 48.3996 90.6626 45.3121C91.0033 44.3965 90.8329 42.7995 90.2154 42.0968C88.7248 40.372 86.7233 39.1157 85.1689 37.4336C84.5301 36.7522 84.5301 35.4959 84.2319 34.5164C85.1901 34.3886 86.3613 33.8563 87.064 34.2396C88.9591 35.2191 90.5773 36.7309 92.4724 37.6891C93.3242 38.115 94.9425 38.2214 95.5813 37.7104C100.01 34.1118 104.269 30.3216 108.591 26.574C108.953 26.2546 109.273 25.85 109.677 25.5945C115.022 22.2089 115.043 21.6553 109.89 18.1419C109.379 17.8012 108.655 17.6308 108.336 17.1624C107.655 16.1616 107.186 15.0118 106.633 13.9258C107.953 13.649 109.763 12.6908 110.529 13.2231C112.786 14.7988 115.043 16.6939 116.491 18.9723C117.684 20.8461 118.706 20.9739 120.388 20.3564C125.222 18.5464 130.119 16.8856 134.803 14.7349C135.719 14.3091 136.252 11.9029 136.081 10.5189C135.847 8.49601 134.569 6.6222 134.25 4.59934C134.122 3.7689 135.357 2.74682 135.975 1.80992C136.763 2.42742 137.848 2.89587 138.253 3.70502C139.488 6.21762 139.807 10.0078 141.724 11.1151C143.534 12.1372 147.026 10.6679 149.602 9.7949C154.734 8.02756 159.717 7.98497 164.784 9.92266C168.149 11.2003 169.618 9.53938 170.661 6.38798C171.428 4.1096 173.11 2.10803 174.388 -6.81222e-06C174.963 0.191633 175.538 0.383273 176.113 0.574913C175.878 2.72553 176.198 5.15297 175.303 6.9629C172.258 13.1592 173.408 13.3935 177.241 15.9274C182.394 19.3556 187.228 23.231 192.593 27.1915C194.489 25.1687 196.448 22.9116 198.556 20.8248C199.407 19.9731 200.578 19.4621 201.6 18.7807C201.877 20.2286 202.836 22.0598 202.282 23.0606C201.217 25.0409 199.514 26.8508 197.683 28.1923C195.489 29.7893 195.532 30.6836 197.235 32.8129C200.855 37.3484 203.964 42.2672 207.286 47.0369C208.819 49.2301 210.331 48.0802 212.077 47.2072C214.121 46.1851 216.357 45.5889 218.529 44.8223C218.827 45.3547 219.125 45.887 219.423 46.4193C217.102 48.3783 214.951 50.6354 212.375 52.1685C210.16 53.51 209.202 54.8515 209.543 57.4706C209.905 60.2813 208.798 63.9863 210.224 65.7324C211.374 67.1377 215.377 66.1369 218.103 66.3286C219.317 66.4137 220.509 66.7757 221.701 67.01C221.829 67.3719 221.957 67.7339 222.063 68.0959C218.763 69.6077 215.441 71.0983 211.566 72.8656C211.566 77.3372 211.502 82.4902 211.651 87.6431C211.672 88.1968 212.929 88.8781 213.738 89.1762C214.973 89.6234 216.314 89.7938 217.634 90.0706C217.805 90.4539 217.975 90.8371 218.167 91.2204C216.868 92.136 215.569 93.7969 214.27 93.7756C211.651 93.7543 210.331 95.33 210.097 97.1186C209.479 101.675 209.458 106.296 209.181 110.895C209.692 111.023 210.182 111.151 210.693 111.279C215.952 103.421 221.19 95.5642 226.429 87.7283C224.491 85.9397 222.617 84.2362 220.637 82.405C221.531 81.3829 222.212 80.5951 222.894 79.8285C224.299 80.6163 225.79 81.0209 226.578 82.0004C229.367 85.5351 231.134 83.64 233.242 81.2126C235.457 78.6574 239.119 76.741 240.099 73.8664C240.993 71.226 238.97 67.67 238.63 64.476C238.459 62.8365 239.204 61.1117 239.524 59.4295C240.056 59.3869 240.588 59.3657 241.121 59.3231C242.249 62.9216 243.378 66.5415 244.656 70.5446C249.489 67.2868 254.451 63.9437 259.476 60.5581C257.794 58.7482 256.175 57.3002 255.004 55.5755C254.557 54.9154 255.089 53.5952 255.174 52.5518C256.133 52.7647 257.197 52.786 258.028 53.2332C258.965 53.7229 259.838 54.4895 260.476 55.3199C263.777 59.6425 263.756 59.6638 269.207 57.3215C269.1 56.7679 269.207 55.9374 268.845 55.6606C263.521 51.4871 262.329 45.2908 260.54 39.3287C260.306 38.5621 258.475 37.902 257.368 37.8594C252.726 37.753 252.726 37.8595 250.32 34.921C252.853 34.3035 254.983 33.4091 257.112 33.3666C259.348 33.324 260.178 32.8342 260.924 30.5346C261.797 27.7877 263.947 25.4668 265.331 22.8477C266.098 21.3784 266.843 19.6537 266.822 18.0567C266.801 14.9692 266.226 11.8816 265.821 8.2192C271.485 9.98655 271.123 14.0323 271.719 18.0141C277.213 15.9487 282.536 14.5007 288.733 17.0772C289.201 15.2886 289.478 13.4148 290.181 11.7113C290.819 10.1995 291.863 8.81542 292.885 7.49523C293.013 7.32489 294.695 7.94239 294.673 8.17662C294.61 9.92267 294.78 11.9242 294.013 13.3722C292.246 16.6726 291.714 19.1214 295.099 22.0385C297.463 24.0827 298.953 27.3406 300.316 30.279C301.21 32.238 302.126 32.8342 303.936 31.9186C306.3 30.7262 308.408 30.6836 310.984 33.7498C308.983 34.5803 307.407 35.6237 305.746 35.8153C302.552 36.1986 301.423 37.6678 301.125 40.8618C300.827 44.2474 299.507 47.5266 298.911 50.8909C298.613 52.5518 298.272 54.8302 299.124 55.9374C300.636 57.9177 302.616 60.3026 305.938 58.2158C306.938 57.577 308.493 57.79 310.75 57.4919C309.664 59.6212 309.217 61.1756 308.237 62.2615C306.768 63.8798 307.024 64.7742 308.195 66.6267C310.707 70.6085 312.56 75.0162 314.689 79.2536C315.285 80.4247 315.903 81.5745 316.542 82.7883C320.736 80.8293 323.355 76.1661 329.19 77.5927C328.551 78.8064 328.274 79.9563 327.55 80.5738C325.144 82.6179 322.759 84.8537 319.991 86.2591C317.777 87.3663 318.096 88.6013 318.266 90.4113C318.927 97.2677 319.565 104.124 319.927 111.002C320.034 113.025 320.311 114.153 322.206 115.431C325.208 117.475 327.593 120.413 330.233 122.969C329.914 123.501 329.594 124.012 329.275 124.544C325.762 122.82 322.227 121.095 318.522 119.285C315.945 127.696 312.283 134.744 307.449 141.302C306.576 142.495 307.024 145.007 307.449 146.753C308.11 149.521 309.259 152.162 310.494 155.739C305.214 154.866 305.299 150.331 302.467 148.073C298.379 152.204 294.184 156.442 289.968 160.658C289.201 161.424 288.456 162.319 287.519 162.851C284.325 164.661 283.09 166.79 285.113 170.389C285.858 171.73 285.603 173.625 285.815 175.286C285.496 175.457 285.177 175.627 284.836 175.819C283.367 174.456 282.004 172.944 280.386 171.815C279.598 171.262 277.916 170.9 277.341 171.368C274.019 174.009 270.931 176.968 267.695 179.737C266.268 180.95 265.715 181.632 267.354 183.484C269.483 185.869 269.867 189.106 269.1 193.492C266.971 190.809 265.289 188.978 263.947 186.934C262.499 184.698 261.222 184.932 259.497 186.55C255.92 189.851 252.321 193.173 248.573 196.26C246.742 197.772 246.657 199.05 247.807 200.966C248.765 202.563 249.297 204.415 250.064 206.247C246.423 207.822 245.55 204.799 244.443 203.436C242.292 200.774 240.801 200.604 238.097 202.733C234.967 205.182 231.326 207.035 227.813 208.994C223.66 211.293 223.469 212.55 226.429 216.361C228.132 218.554 230.666 220.534 229.601 224.452C224.47 222.749 222.745 217.745 219.231 214.508C216.591 216.276 213.908 217.788 211.566 219.704C208.031 222.579 208.84 227.37 212.865 229.733C215.505 231.288 217.869 233.289 220.722 235.376C216.186 238.357 213.418 234.034 209.181 234.354C209.181 237.101 209.181 239.762 209.181 242.424C209.16 245.788 209.351 249.153 209.074 252.496C208.755 256.499 209.053 259.565 214.142 260.097C215.505 260.246 216.698 262.248 217.954 263.398C216.314 263.717 214.59 264.548 213.035 264.292C208.649 263.568 208.691 263.504 208.223 268.04C207.84 271.809 207.371 275.62 206.391 279.261C205.327 283.158 207.882 283.839 210.373 284.947C211.821 285.585 213.141 286.458 214.526 287.246C214.44 287.63 214.334 288.013 214.249 288.396C213.12 288.503 211.885 288.971 210.863 288.652C205.157 286.884 202.942 290.802 200.855 294.72C197.384 301.215 197.47 301.236 203.943 305.431C204.965 306.091 205.774 307.049 206.69 307.88C206.477 308.348 206.285 308.816 206.072 309.285C203.687 308.71 200.983 308.646 199.003 307.432C196.511 305.899 195.532 306.581 194.489 308.795C193.53 310.818 192.423 312.777 190.869 315.715C194.361 315.715 196.788 315.843 199.173 315.694C207.094 315.226 214.994 314.693 222.915 314.161C228.068 313.82 232.433 316.716 234.818 320.144C238.523 325.404 241.355 331.707 242.782 337.988C243.719 342.055 241.802 346.931 240.567 351.275C239.098 356.45 237.395 361.666 235.031 366.479C232.646 371.312 232.902 375.826 234.456 380.617C234.605 381.065 234.669 381.661 234.52 382.087C232.199 389.199 234.52 396.311 234.392 403.401C234.222 413.132 232.859 422.842 232.135 432.573C231.39 442.581 228.089 451.992 224.959 461.34C223.767 464.896 220.381 467.749 217.826 470.794C216.144 472.817 214.078 474.521 212.418 476.544C212.013 477.033 212.375 478.247 212.503 479.099C212.907 481.76 213.716 484.401 213.716 487.063C213.738 490.299 210.544 491.257 208.457 491.151C198.747 490.725 189.74 493.898 180.456 495.771C175.133 496.836 169.575 496.879 164.124 497.07C146.132 497.667 128.139 498.561 110.167 498.39C102.949 498.327 95.8794 498.454 88.8527 499.881C84.7856 500.69 85.1689 497.177 84.0617 495.239C83.4868 494.26 83.4228 492.769 83.6145 491.577C84.4662 485.849 81.2296 482.655 76.9497 479.738C74.8203 478.29 72.7761 476.331 71.456 474.137C68.8156 469.751 65.8771 465.258 64.557 460.403C62.7257 453.696 61.5546 446.648 61.3843 439.706C60.8945 420.564 61.1501 401.421 60.8946 382.278C60.8733 380.298 59.8938 377.785 58.4671 376.486C47.6288 366.628 45.4356 354.278 48.8851 340.948C51.5255 330.77 56.2952 321.465 67.2613 317.483C69.0286 316.844 71.0514 316.695 72.9465 316.738C79.2706 316.844 85.5735 317.142 91.8763 317.291C92.3873 317.312 92.8984 316.78 93.4946 316.482C92.8984 313.906 91.4078 313.629 89.2997 314.161C88.3203 314.395 87.2131 314.097 86.1697 314.033C86.5104 312.969 86.5317 311.35 87.2557 310.946C90.2793 309.2 88.8313 307.603 88.0222 305.175C86.2123 299.852 83.2525 299.192 78.6744 301.385C77.8653 301.768 76.6942 301.449 75.6934 301.449C75.5444 301.108 75.3953 300.768 75.2462 300.406C76.3109 299.362 77.2052 297.957 78.4615 297.361C83.2099 295.104 81.3361 291.611 80.2714 288.396C78.8661 284.138 76.907 280.049 75.7146 275.748C74.8203 272.533 73.7557 270.169 69.3906 270.659C69.7952 269.403 69.8378 267.976 70.3488 267.784C73.6067 266.592 72.7762 264.271 72.2013 261.971C71.7116 260.055 71.0089 258.181 70.7108 256.243C70.2849 253.582 69.8804 251.239 66.2179 252.006C65.7282 252.112 64.5357 251.346 64.5783 251.112C64.6847 250.239 64.9403 248.982 65.5791 248.62C70.1572 245.873 67.4955 241.806 67.5381 238.272C67.5381 237.803 66.6864 237.058 66.0902 236.866C63.3007 235.951 60.4687 235.163 57.6367 234.396C54.8046 233.63 52.1004 233.012 50.4182 236.632C49.9497 237.633 48.1186 238.016 46.9262 238.676C46.9688 237.079 46.3725 234.971 47.1604 233.992C49.0129 231.692 48.3102 230.734 46.4364 228.903C42.1351 224.644 38.1534 220.045 34.278 215.382C32.8513 213.657 31.9783 213.614 30.4877 215.083C29.785 215.765 28.7204 216.084 27.8047 216.553C27.5705 215.445 27.1234 214.317 27.1447 213.21C27.166 212.443 27.9964 211.74 28.1242 210.931C28.4649 208.866 29.2741 206.566 28.6992 204.735C27.379 200.583 25.2283 196.707 23.6738 192.619C22.7156 190.106 21.1187 190.745 19.4791 191.341C18.5848 191.661 17.9034 192.619 17.009 192.853C16.3277 193.024 15.2417 192.747 14.752 192.278C14.4539 192.001 14.7308 190.703 15.1354 190.192C16.7749 188.233 18.5848 186.401 20.1392 184.74C18.6487 179.864 17.2647 175.159 15.7954 170.474C14.9437 167.727 14.1345 165.129 10.174 167.259C9.1732 167.791 7.23547 166.62 5.74494 166.215C6.80961 165.129 7.68267 163.511 8.98156 163.021C12.8782 161.531 13.304 160.807 12.3884 157.102C10.9405 151.14 9.53522 145.135 8.61961 139.088C8.12987 135.809 7.32065 134.084 3.61562 134.467C2.44449 134.595 0.16612 133.488 0.0383601 132.7C-0.323626 130.272 1.95476 130.187 3.63693 130.145C6.74575 130.038 7.91686 128.76 7.74652 125.524C7.53358 121.563 7.70394 117.56 8.1511 113.621C8.53437 110.214 7.68266 108.596 4.04151 109.043C3.46659 109.107 2.84909 108.894 2.189 108.787C1.27339 105.21 3.46655 104.401 6.00045 104.507C9.21574 104.656 10.4721 103.528 11.2173 100.313C11.8987 97.4167 13.7512 94.7125 15.4547 92.1786C16.9665 89.9428 17.3285 88.0477 15.7741 85.7054C14.8585 84.3001 14.1345 82.6605 13.8151 81.0209C13.666 80.2544 14.6456 78.5296 15.1354 78.5296C16.1361 78.5083 17.584 79.0832 18.095 79.9137C19.0532 81.4468 19.4791 83.3206 20.1392 85.0666C24.5682 82.6179 28.9547 80.3608 33.0856 77.763C34.1077 77.1242 34.5334 75.3569 34.9806 74.0367C35.4916 72.5462 35.7472 70.9492 36.0879 69.3948C36.4499 69.3948 36.8119 69.3948 37.1738 69.3735C37.6636 70.1613 38.5153 70.9066 38.5791 71.7158C38.8985 75.8254 41.6881 76.9965 45.0737 78.1463C48.0122 79.1471 51.0145 80.6589 53.3142 82.7244C55.6352 84.7898 57.0405 84.2149 58.9781 82.6392C59.7021 82.043 60.852 81.9791 61.7889 81.6597C61.8953 82.7031 62.5128 84.2788 62.0444 84.7047C56.7211 89.5382 62.1934 93.0942 63.4923 96.9909C64.6847 100.568 66.6651 103.89 68.0917 107.403C69.1351 109.98 70.3062 111.321 73.202 109.639C74.2667 108.936 75.6934 109 77.8015 108.596ZM96.9654 309.178C96.3053 315.566 97.9661 317.653 104.056 317.589C116.363 317.461 128.671 317.973 140.979 318.036C152.903 318.1 164.848 318.058 176.773 317.76C179.924 317.674 183.586 317.27 186.014 315.566C188.633 313.735 190.443 310.413 191.997 307.432C194.254 303.089 195.276 297.978 198.045 294.081C202.005 288.503 204.113 282.2 204.518 275.94C205.646 258.245 205.604 240.465 206.157 222.728C206.2 221.386 206.924 219.598 207.946 218.81C213.163 214.7 218.443 210.654 223.958 206.971C232.944 200.966 242.654 196.132 250.745 188.701C258.794 181.291 267.716 174.839 275.808 167.493C285.198 158.954 295.014 150.863 302.552 140.408C308.77 131.763 314.221 122.756 315.009 112.067C315.562 104.72 315.498 96.9483 313.603 89.9428C311.58 82.4476 307.386 75.4421 303.553 68.5431C301.019 63.965 298.059 59.3231 291.756 58.9185C289.499 58.7694 289.095 56.4485 290.819 54.4682C291.671 53.4887 292.651 52.5944 293.353 51.5084C296.931 45.9296 296.803 39.6694 296.079 33.473C295.248 26.1694 288.2 19.8879 280.918 20.8035C270.569 22.1024 263.01 27.2554 265.331 39.3287C265.63 40.9044 265.587 42.7143 266.375 44.0345C268.142 46.9943 270.229 49.7837 272.401 52.4879C273.593 53.9785 275.19 55.107 276.617 56.4059C275.084 57.8964 273.593 59.4083 272.039 60.8562C271.783 61.0904 271.336 61.1117 271.017 61.2821C264.458 64.476 257.048 65.8601 251.363 70.8853C249.276 72.7378 246.827 74.1858 244.783 76.0809C239.375 81.1061 233.753 85.961 228.898 91.4759C224.831 96.0966 221.595 101.484 218.273 106.701C214.036 113.387 210.097 120.264 205.987 127.036C205.689 127.547 204.646 128.164 204.369 127.994C203.751 127.632 202.899 126.674 203.027 126.205C203.645 124.012 204.347 121.755 205.455 119.753C206.945 117.049 208.478 114.622 207.648 111.194C206.903 108.149 206.541 104.891 206.711 101.782C206.924 97.7362 208.244 93.733 208.351 89.6873C208.478 85.0667 207.776 80.4034 207.477 75.7615C207.137 70.1827 206.903 64.6038 206.519 59.025C206.328 56.2994 206.455 53.4035 205.519 50.9335C202.069 41.7348 194.829 35.2191 187.845 28.9376C182.288 23.9336 175.623 20.0796 169.15 16.2468C163.848 13.1167 157.949 11.3067 151.732 13.5851C144.024 16.3958 136.443 19.6324 128.671 22.2728C116.747 26.3185 106.207 32.3232 98.4133 42.4588C92.4512 50.2095 88.4693 59.0037 87.2982 68.6282C86.2548 77.103 86.4039 85.748 86.1484 94.3079C85.7225 109.554 85.5521 124.821 85.0198 140.046C84.7004 149.223 83.9552 158.401 83.2099 167.578C82.8479 171.943 81.9962 176.244 81.3787 180.588C80.9954 180.652 80.6121 180.737 80.2288 180.801C79.7816 179.375 79.1216 177.969 78.9299 176.5C77.9717 168.621 79.2706 160.722 76.6302 152.758C72.8613 141.366 70.8173 129.421 67.7085 117.816C66.2179 112.279 64.5357 106.615 61.8315 101.612C59.7235 97.6936 59.4893 91.263 53.3355 91.8379C52.9948 89.9854 53.229 87.9199 52.356 87.2599C49.524 85.0454 46.4577 82.9799 43.1786 81.5107C40.0697 80.1053 36.9821 85.4499 33.5113 82.043C33.49 82.0217 33.2985 82.1495 33.192 82.2133C25.1432 86.7488 18.3932 92.498 15.7315 101.782C14.3474 106.615 12.495 111.47 12.1969 116.389C11.8988 121.35 9.15184 127.355 14.4965 130.528C13.9428 133.189 12.8994 135.447 13.155 137.512C14.028 144.241 14.3474 151.353 16.9452 157.443C18.308 160.658 18.968 163.383 19.4152 166.748C19.9475 170.9 21.8852 174.903 23.4183 178.906C24.2701 181.142 25.8033 183.165 26.5485 185.422C27.89 189.446 28.763 193.641 29.998 197.708C31.1479 201.456 32.3402 205.246 36.4498 206.545C36.2156 208.206 35.3639 210.101 35.9388 210.867C39.8993 215.935 44.0515 220.875 48.4379 225.581C50.1414 227.412 52.3134 227.242 54.2511 225.07C55.1454 224.09 56.8276 223.814 58.2542 223.175C58.5098 224.133 58.6801 224.431 58.6162 224.602C56.423 229.733 56.4229 229.733 62.0231 232.118C62.7044 232.416 63.3433 232.778 64.046 233.034C66.2817 233.821 67.9001 233.438 68.475 230.777C69.7313 224.985 71.0727 219.214 72.3929 213.444C72.691 212.102 73.053 210.782 73.3937 209.441C73.8622 209.483 74.3093 209.505 74.7777 209.547C74.7777 212.358 75.0546 215.19 74.7139 217.958C73.9261 224.325 72.6485 230.628 71.9671 237.016C71.6051 240.508 70.8811 244.766 77.0136 245.022C76.0128 246.597 75.2036 247.662 74.65 248.833C74.2241 249.728 73.777 250.835 73.9474 251.729C74.501 254.625 75.4804 257.436 76.0128 260.31C76.4599 262.631 76.3961 265.016 79.5262 265.612C80.0372 265.719 80.7612 267.848 80.5909 267.976C77.4182 270.339 79.8668 272.852 80.5269 275.067C81.8897 279.581 83.657 283.967 85.3179 288.396C86.5955 291.846 87.575 295.466 89.3424 298.66C91.4291 302.343 92.0254 307.241 96.9654 309.178ZM210.714 347.783C210.246 347.868 209.777 347.932 209.309 348.017C208.84 346.889 208.244 345.803 207.925 344.632C206.157 338.137 206.775 331.025 202.878 325.085C201.494 322.976 200.067 319.25 198.513 319.165C193.552 318.909 188.505 319.953 183.501 320.655C181.5 320.932 181.478 322.082 182.288 323.913C184.034 327.916 186.056 332.005 186.695 336.242C187.462 341.225 186.908 346.399 186.823 351.488C186.802 352.383 186.269 353.256 185.993 354.15C185.609 354.107 185.226 354.065 184.864 354.022C184.63 352.638 184.396 351.254 184.161 349.87C183.224 344.44 182.394 339.01 181.308 333.623C180.967 331.898 179.732 330.344 179.285 328.619C177.518 321.72 177.56 321.741 170.81 322.615C168.724 322.891 166.594 322.976 164.486 323.019C162.038 323.083 159.568 323.04 156.693 323.04C156.693 324.957 156.672 326.277 156.693 327.597C156.842 335.305 157.034 342.992 157.098 350.7C157.098 351.914 156.501 353.149 156.203 354.363C155.032 353.66 154.628 353.149 154.585 352.595C153.776 343.972 153.009 335.348 152.264 326.724C152.136 325.148 152.541 323.317 150.05 323.232C142.959 323.04 135.889 322.657 128.799 322.785C127.542 322.806 125.562 324.637 125.2 325.979C123.88 331.11 122.794 336.327 122.198 341.587C121.538 347.442 121.495 353.362 121.155 359.75C120.367 359.26 119.217 358.919 119.196 358.494C118.748 352.319 115.512 346.378 117.982 339.883C119.494 335.88 120.26 331.558 121.218 327.342C122.24 322.827 121.282 321.55 116.853 321.465C112.126 321.358 107.378 321.06 102.693 321.465C100.883 321.614 98.6688 323.126 97.6042 324.68C95.7304 327.384 94.5805 330.578 93.1325 333.581C89.7256 340.692 86.1909 347.783 87.1704 356.066C87.2556 356.833 87.0428 357.663 86.8724 359.26C85.6587 357.45 84.7005 356.364 84.1681 355.108C83.7635 354.129 83.8486 352.915 83.8274 351.786C83.4441 340.629 88.661 331.281 94.2398 321.869C93.3029 321.55 92.8771 321.273 92.4299 321.252C86.1058 320.975 79.7603 320.655 73.4362 320.57C72.2651 320.549 70.6469 321.252 69.9655 322.167C66.2392 327.214 62.7258 332.409 59.1911 337.584C57.4238 340.181 55.7842 342.886 54.102 345.547C53.2716 346.846 51.9301 348.06 51.6959 349.465C50.5886 356.407 52.2069 362.795 56.0823 368.714C60.128 374.911 60.3835 374.485 67.751 373.292C68.1981 365.776 64.1524 358.558 66.6012 350.679C68.9647 343.077 74.8203 332.026 78.3763 332.196C77.7588 333.644 77.2691 334.965 76.6728 336.242C73.202 343.61 69.6674 350.998 70.6043 359.494C71.0515 363.54 71.4773 367.607 72.3291 371.568C72.542 372.569 74.2242 373.91 75.2889 373.953C82.7415 374.315 90.1942 374.357 97.6468 374.57C100.202 374.655 100.606 373.676 100.5 371.206C100.223 365.137 99.7336 358.941 100.713 353.021C101.501 348.23 101.799 342.609 107.74 338.521C107.484 340.756 107.442 342.013 107.165 343.226C106.526 345.952 105.291 348.614 105.163 351.339C104.844 358.046 105.078 364.754 104.972 371.461C104.929 373.761 105.802 374.868 108.166 374.996C115.086 375.358 122.028 375.72 128.927 376.295C132.504 376.593 133.334 375.081 133.27 371.738C133.121 363.05 133.313 354.341 133.356 345.633C133.356 343.439 133.909 341.778 136.784 341.544C136.933 342.758 137.146 343.844 137.167 344.909C137.337 353.852 137.614 362.795 137.55 371.738C137.529 375.145 138.53 376.55 142.043 376.167C149.049 375.401 156.076 374.591 163.124 374.293C166.488 374.144 167.68 373.143 167.638 369.8C167.531 362.476 167.659 355.129 167.851 347.804C167.893 346.42 168.617 345.079 169.022 343.716C169.426 343.823 169.852 343.929 170.257 344.057C170.81 348.699 171.534 353.341 171.833 357.983C172.088 361.858 172.109 365.776 171.683 369.609C171.364 372.419 172.024 373.953 175.005 373.974C179.732 374.016 184.481 374.08 189.165 373.676C190.485 373.569 192.381 372.057 192.785 370.78C195.064 363.86 196.98 356.833 196.703 349.38C196.639 347.591 197.299 345.76 197.64 343.95C198.151 343.972 198.641 343.993 199.152 344.014C199.599 348.677 200.578 353.362 200.323 357.983C200.067 362.752 198.598 367.437 197.555 372.696C201.473 372.505 205.05 372.228 208.606 372.164C215.974 372.036 218.635 368.757 218.933 361.198C219.146 355.619 219.572 350.04 220.019 344.461C220.104 343.482 220.807 342.566 221.233 341.629C221.638 341.715 222.042 341.8 222.447 341.885C222.447 350.7 222.447 359.516 222.447 368.991C224.768 368.48 226.748 367.671 228.707 367.692C231.837 367.735 232.497 366.202 233.008 363.476C233.86 358.77 234.818 353.98 236.607 349.572C240.439 340.16 237.139 331.92 232.753 324.062C231.113 321.124 228.366 318.015 223.213 317.973C230.24 325.851 232.54 334.539 232.156 344.163C231.028 343.716 230.048 343.056 229.921 342.268C228.92 335.667 226.045 329.876 222.298 324.488C220.637 322.082 218.827 318.931 216.399 318.079C213.205 316.972 209.351 317.802 205.05 317.802C207.158 323.402 209.607 328.023 210.522 332.942C211.417 337.818 210.714 342.864 210.714 347.783ZM109.763 486.53C109.763 486.445 109.763 486.381 109.763 486.296C103.439 486.296 97.0931 486.168 90.769 486.402C89.5978 486.445 87.4899 487.999 87.5112 488.83C87.5538 491.13 88.4693 493.429 89.1507 495.686C89.1933 495.857 90.3005 495.793 90.8967 495.686C93.6436 495.239 96.3904 494.409 99.1585 494.323C122.602 493.493 146.068 492.897 169.512 492.024C174.92 491.811 180.286 490.704 185.694 490.15C191.72 489.533 197.746 489.043 203.794 488.51C204.901 488.404 206.051 488.574 207.137 488.361C210.991 487.616 211.332 486.424 210.331 481.015C209.649 477.374 207.328 478.417 205.263 478.886C199.258 480.249 193.36 482.378 187.313 483.059C180.307 483.826 173.174 483.443 166.105 483.357C165.189 483.336 164.295 482.144 163.4 481.484C164.38 480.781 165.317 479.567 166.36 479.461C179.306 478.247 192.295 477.289 205.242 475.99C207.265 475.798 209.351 474.542 211.012 473.264C212.801 471.902 214.355 470.092 215.569 468.197C216.314 467.026 217.038 464.619 216.442 463.959C212.694 459.892 209.522 455.25 204.113 452.823C199.194 450.63 194.382 447.989 191.38 443.028C189.037 439.153 186.333 435.597 181.372 434.575C180.201 434.34 179.094 433.105 178.284 432.083C176.262 429.528 174.686 429.4 172.514 432.105C168.489 437.108 164.21 441.899 159.93 446.69C155.714 451.418 151.242 455.932 147.154 460.765C143.938 464.556 141.128 468.665 138.168 472.647C136.251 475.223 134.186 474.521 132.184 472.839C130.524 471.455 128.99 469.921 127.372 468.495C121.197 463.044 114.596 457.997 108.932 452.035C103.588 446.414 99.2863 439.791 94.4102 433.723C93.9204 433.127 92.3447 432.701 91.7272 433.041C90.0663 433.957 88.5545 435.213 87.1704 436.534C81.2296 442.112 75.4591 447.883 69.3693 453.313C66.8141 455.57 67.2613 457.806 68.3685 460.212C69.5823 462.852 71.6476 465.194 72.4355 467.941C74.4158 474.925 79.3771 478.865 85.4243 481.846C86.851 482.548 88.5971 482.974 90.1728 482.91C99.3077 482.548 108.442 481.973 117.577 481.569C125.009 481.228 132.461 481.1 139.893 480.738C143.704 480.547 147.494 479.908 151.285 479.716C152.072 479.674 152.903 480.781 153.712 481.377C153.009 481.952 152.37 482.974 151.604 483.059C141.788 484.294 131.972 485.529 122.134 486.466C117.982 486.85 113.851 486.53 109.763 486.53ZM133.632 430.486C134.867 428.911 136.188 427.356 137.359 425.695C139.594 422.565 141.426 419.094 144.002 416.284C152.839 406.68 161.697 397.056 171.045 387.964C176.091 383.045 179.583 382.385 184.651 388.964C188.101 393.457 192.338 397.333 196.192 401.527C199.216 404.828 202.452 407.979 205.05 411.62C208.84 416.944 213.205 421.564 218.912 424.801C219.615 425.206 221.361 425.205 221.595 424.78C224.427 420.031 229.324 416.305 229.452 410.151C229.622 402.209 229.686 394.245 229.793 386.303C229.857 382.087 230.048 377.871 229.814 373.654C229.771 372.76 228.047 371.206 227.174 371.27C223.852 371.483 220.126 371.419 217.336 372.909C209.905 376.934 201.771 376.593 193.914 377.381C182.351 378.552 170.704 378.701 159.078 379.212C149.155 379.659 139.211 380.575 129.289 380.277C108.954 379.638 88.6397 378.36 68.3259 377.253C65.643 377.104 64.1311 377.402 64.2588 380.681C64.706 392.967 64.9403 405.275 65.3023 417.561C65.3236 418.477 65.7707 419.392 66.2604 421.138C69.1776 417.029 71.1579 413.473 73.8621 410.62C80.5269 403.614 87.5538 396.949 94.4315 390.157C97.0293 387.602 99.9891 387.644 103.226 389.965C109.081 394.139 112.446 400.314 115.853 406.255C120.686 414.729 125.754 422.948 133.632 430.486ZM227.919 420.776C226.386 422.927 225.406 424.183 224.576 425.546C223.022 428.123 220.956 429.656 218.209 427.633C213.844 424.396 209.415 421.138 205.582 417.327C201.302 413.068 197.725 408.107 193.679 403.593C190.464 399.994 187.121 396.481 183.544 393.223C181.5 391.371 180.116 387.41 176.155 389.454C174.324 390.391 172.514 391.69 171.194 393.244C159.759 406.659 146.919 418.881 137.231 433.765C135.357 436.64 131.78 436.768 129.693 434.34C120.878 424.162 113.979 412.728 107.335 401.059C105.44 397.737 102.076 395.076 98.8817 392.882C98.3281 392.499 95.0489 395.885 93.1751 397.695C86.7872 403.891 80.3992 410.087 74.1816 416.433C72.0735 418.583 70.7108 421.522 68.475 423.523C65.2384 426.44 64.1524 430.72 66.5159 435.405C68.2194 433.574 69.7313 431.743 71.4348 430.124C76.609 425.227 81.762 420.287 87.1279 415.581C90.3006 412.813 93.8353 410.449 97.1996 407.915C99.5419 410.13 102.225 412.089 104.184 414.601C110.274 422.416 116.236 430.337 122.006 438.386C124.476 441.836 126.244 445.754 128.565 449.31C128.99 449.948 131.077 450.374 131.609 449.927C139.531 443.411 145.28 435 151.583 427.058C158.013 418.967 164.785 411.152 171.641 403.422C172.471 402.486 175.112 401.996 176.134 402.613C177.944 403.678 179.605 405.531 180.52 407.447C183.906 414.431 188.697 420.351 193.829 426.036C200.131 433.02 207.477 438.705 215.484 443.539C217.187 444.561 220.381 445.86 221.19 445.136C223.511 443.092 225.619 440.26 226.578 437.343C227.94 433.169 228.26 428.634 228.877 424.226C229.026 423.374 228.43 422.459 227.919 420.776ZM66.8354 450.481C68.9647 448.735 70.9024 447.287 72.6697 445.626C78.7809 439.855 84.7643 433.957 90.9607 428.25C93.09 426.291 95.0916 426.888 96.8376 429.315C100.756 434.724 104.461 440.388 109.017 445.221C116.513 453.227 124.178 461.127 133.547 467.111C135.464 468.324 135.975 468.197 137.274 466.621C142.363 460.425 147.58 454.335 152.839 448.266C156.31 444.263 159.844 440.324 163.464 436.47C166.68 433.041 169.937 429.677 173.408 426.504C175.09 424.971 177.049 424.822 178.859 426.909C180.414 428.719 182.075 430.763 184.14 431.721C188.228 433.616 190.997 436.363 193.317 440.196C195.702 444.178 199.556 446.776 203.772 449.054C207.584 451.119 210.757 454.462 214.014 457.444C216.016 459.275 217.634 461.511 219.423 463.576C219.977 463.406 220.53 463.235 221.105 463.065C222.34 457.976 223.554 452.908 224.789 447.819C224.448 447.649 224.086 447.478 223.746 447.308C220.722 449.395 218.039 449.139 215.292 446.818C213.567 445.349 211.396 444.412 209.437 443.22C201.537 438.386 194.446 432.594 188.697 425.312C184.417 419.903 180.307 414.346 176.389 408.682C175.027 406.723 174.132 406.659 172.748 408.256C168.34 413.409 163.784 418.434 159.589 423.758C154.457 430.273 149.879 437.215 144.598 443.603C141.404 447.5 137.274 450.608 133.696 454.207C130.587 457.337 129.352 457.72 126.584 454.377C124.072 451.332 122.56 447.5 120.303 444.22C114.277 435.448 108.123 426.781 101.969 418.094C100.521 416.049 98.9882 414.069 97.4764 412.068C96.0498 413.281 95.6877 413.409 95.4322 413.643C86.2548 422.139 77.0987 430.635 67.9213 439.11C65.0042 441.963 64.4505 446.009 66.8354 450.481Z" fill="white"/>
<path d="M152.413 212.507C153.861 213.955 155.351 215.382 156.757 216.893C158.46 218.746 160.121 220.662 161.718 222.6C163.166 224.346 164.124 223.899 165.487 222.323C168.17 219.172 171.045 216.148 173.983 213.231C175.431 211.783 177.134 210.527 178.923 209.526C179.562 209.164 180.776 209.824 181.713 210.016C181.372 210.803 181.244 212.081 180.669 212.337C175.687 214.53 173.898 219.491 170.768 223.303C169.831 224.431 168.979 225.666 167.872 226.624C163.528 230.436 160.568 229.989 157.268 225.113C155.564 222.579 153.818 220.066 152.307 217.426C151.625 216.255 151.455 214.785 151.05 213.444C151.497 213.103 151.944 212.805 152.413 212.507Z" fill="white"/>
<path d="M201.196 216.467C196.511 214.146 194.19 211.208 192.615 207.482C191.38 204.564 189.378 201.903 188.569 198.9C187.526 195.068 187.142 191.001 186.865 186.998C186.695 184.57 187.185 182.058 187.589 179.63C187.696 179.013 188.612 178.544 189.165 178.012C189.612 178.502 190.187 178.949 190.485 179.524C190.869 180.269 191.337 181.163 191.295 181.951C190.89 189.34 191.869 196.452 195.255 203.138C196.703 206.012 198.13 208.908 199.492 211.826C200.046 213.061 200.429 214.359 201.196 216.467Z" fill="white"/>
<path d="M157.396 262.504C156.395 263.717 155.351 264.888 154.415 266.123C151.54 269.914 148.793 273.81 145.812 277.515C144.343 279.346 142.533 280.816 140.361 278.111C137.827 274.939 135.208 271.809 132.653 268.636C132.355 268.253 132.099 267.806 131.908 267.358C131.354 265.996 130.843 264.59 130.311 263.206C131.801 263.739 133.611 263.909 134.718 264.888C136.784 266.72 138.7 268.87 140.212 271.191C142.277 274.364 143.811 273.108 145.557 271.042C147.601 268.636 149.581 266.166 151.881 263.994C153.137 262.802 154.947 262.205 156.523 261.332C156.821 261.737 157.098 262.12 157.396 262.504Z" fill="white"/>
<path d="M148.282 98.886C151.668 95.6707 154.67 92.7535 157.779 89.9428C158.247 89.5169 159.206 89.6234 159.93 89.4743C159.845 90.2409 159.993 91.2204 159.589 91.774C157.012 95.2448 154.479 98.7582 151.583 101.952C150.518 103.145 148.474 104.188 146.983 104.06C145.748 103.954 144.428 102.208 143.534 100.909C141.021 97.2251 138.679 93.4349 136.337 89.6447C135.868 88.8781 135.655 87.9625 135.336 87.1108C136.23 86.8978 137.487 86.1739 137.976 86.5358C140.063 88.0903 142.15 89.7298 143.789 91.7314C145.514 93.8182 146.728 96.3521 148.282 98.886Z" fill="white"/>
<path d="M129.885 166.705C130.332 166.066 130.8 165.023 131.12 165.066C132.12 165.193 133.27 165.491 134.016 166.13C136.187 168.025 138.296 170.006 140.212 172.156C142.043 174.179 143.236 174.435 145.131 172.028C147.367 169.196 150.092 166.726 152.818 164.342C153.478 163.767 154.904 164.065 155.99 163.958C155.5 164.767 155.011 165.598 154.478 166.386C152.03 169.963 149.538 173.498 147.111 177.096C144.045 181.653 143.896 181.781 139.829 178.203C136.933 175.67 134.186 172.944 131.524 170.155C130.715 169.303 130.46 167.961 129.885 166.705Z" fill="white"/>
<path d="M119.302 182.59C116.704 185.635 114.404 188.19 112.275 190.894C111.083 192.406 110.486 194.45 109.124 195.707C105.163 199.348 103.332 198.986 100.223 194.77C98.1363 191.959 95.7302 189.361 93.6009 186.572C93.1324 185.954 93.2389 184.911 93.0899 184.08C94.5804 184.08 96.5393 183.463 97.455 184.187C99.4991 185.805 101.011 188.105 102.8 190.064C103.587 190.937 104.546 191.639 105.248 192.278C110.465 189.617 111.296 181.546 119.302 182.59Z" fill="white"/>
<path d="M106.057 47.0156C108.825 50.4864 111.594 53.9785 114.915 58.1307C117.385 54.6173 119.515 51.4872 121.772 48.4635C122.858 47.0156 124.114 45.6741 125.477 44.4817C125.945 44.0771 126.925 44.2901 127.67 44.2049C127.606 44.9927 127.755 45.9083 127.415 46.5471C125.498 50.018 123.582 53.5101 121.431 56.8318C120.068 58.9185 118.514 61.0266 116.576 62.5597C115.895 63.092 113.638 62.3255 112.531 61.5589C107.803 58.2371 105.163 53.6804 104.865 47.9312C105.248 47.6118 105.653 47.3137 106.057 47.0156Z" fill="white"/>
<path d="M239.928 141.132C238.821 142.537 238.331 143.772 237.437 144.219C233.604 146.114 229.729 147.967 225.726 149.5C220.828 151.374 217.464 148.861 216.932 143.389C216.591 139.812 216.101 136.256 215.611 132.146C217.272 131.422 219.061 131.614 219.806 134.573C220.381 136.831 220.786 139.152 221.51 141.366C222.851 145.348 224.597 145.902 228.451 144.113C231.113 142.878 233.881 141.898 236.649 140.94C237.352 140.685 238.267 141.004 239.928 141.132Z" fill="white"/>
<path d="M176.73 33.473C175.175 35.6237 173.706 37.8595 172.003 39.8823C170.746 41.3729 169.171 42.5866 167.765 43.9706C165.444 46.249 162.591 46.3129 160.824 43.6086C157.907 39.1371 155.287 34.4738 152.775 29.768C152.285 28.8524 152.86 27.3619 152.945 26.1269C153.307 26.0204 153.648 25.9139 153.989 25.8075C155.926 28.384 157.907 30.9391 159.802 33.5582C160.59 34.6442 161.164 35.8792 161.952 36.9651C164.955 41.1386 165.146 41.0747 168.766 37.7104C170.853 35.794 173.216 34.197 175.474 32.451C175.899 32.7704 176.325 33.1324 176.73 33.473Z" fill="white"/>
<path d="M114.277 303.472C112.658 302.343 110.465 301.066 108.613 299.426C106.611 297.659 104.844 295.615 103.162 293.57C102.544 292.825 102.438 291.675 102.118 290.717C103.247 290.696 104.695 290.206 105.461 290.717C108.144 292.591 110.678 294.72 113.127 296.913C114.681 298.297 115.767 298.404 117.023 296.594C118.557 294.38 120.111 292.186 121.9 290.185C122.73 289.248 124.029 288.545 125.264 288.183C125.967 287.97 126.925 288.673 127.755 288.971C127.244 289.546 126.648 290.057 126.201 290.696C124.625 292.953 123.028 295.21 121.559 297.574C119.919 300.107 118.684 303.003 114.277 303.472Z" fill="white"/>
<path d="M121.58 122.053C118.855 125.907 116.236 129.846 113.34 133.573C111.956 135.34 107.484 135.553 105.674 132.572C103.311 128.697 100.394 125.162 97.9448 121.308C97.4125 120.477 97.8597 119.008 97.8597 117.645C103.673 119.498 105.589 124.225 108.4 128.015C109.614 129.655 110.338 129.974 111.722 128.335C113.191 126.589 114.681 124.779 116.47 123.373C117.811 122.33 119.643 121.883 121.24 121.18C121.346 121.478 121.474 121.776 121.58 122.053Z" fill="white"/>
<path d="M179.562 73.4192C181.095 74.1857 182.309 74.5051 183.118 75.2717C185.396 77.4436 187.675 79.6794 189.655 82.1281C191.167 84.0019 191.955 83.7677 193.232 81.9578C194.85 79.6581 196.746 77.5714 198.513 75.3994C200.131 73.4192 201.92 73.1211 203.41 74.1432C200.557 78.5083 197.874 82.5327 195.319 86.6423C193.594 89.4104 190.102 90.2835 188.207 87.9199C185.119 84.0445 182.394 79.8498 179.583 75.7401C179.37 75.4207 179.562 74.8245 179.562 73.4192Z" fill="white"/>
<path d="M230.325 180.716C229.58 181.419 228.962 182.313 228.089 182.76C223.831 184.954 219.508 186.976 215.249 189.148C212.652 190.468 210.203 189.745 209.394 187.062C208.286 183.42 207.307 179.737 206.498 176.01C206.306 175.137 207.03 174.073 207.328 173.093C208.137 173.562 209.351 173.817 209.692 174.52C210.714 176.564 211.544 178.757 212.141 180.972C212.822 183.484 214.121 184.123 216.506 183.314C220.232 182.058 224.022 180.95 227.791 179.822C228.409 179.63 229.133 179.801 229.793 179.801C229.963 180.12 230.155 180.418 230.325 180.716Z" fill="white"/>
<path d="M100.223 247.257C98.1787 245.639 96.4966 244.489 95.0486 243.105C92.6851 240.806 90.3854 238.421 88.2348 235.929C87.5534 235.12 87.4256 233.843 87.021 232.799C88.2773 232.757 89.853 232.224 90.7474 232.778C92.6851 233.97 94.2821 235.695 96.0069 237.228C99.8397 240.657 100.329 240.422 103.119 236.355C104.46 234.396 106.717 232.991 108.74 231.586C109.145 231.309 110.337 232.118 111.146 232.416C110.699 233.012 110.252 233.608 109.826 234.205C107.654 237.292 105.504 240.422 103.289 243.489C102.416 244.702 101.394 245.831 100.223 247.257Z" fill="white"/>
<path d="M277.128 147.69C276.681 149.202 276.702 150.054 276.276 150.501C272.358 154.653 267.908 158.06 262.393 159.785C259.923 160.551 256.133 157.932 255.877 155.143C255.579 151.821 255.558 148.457 255.622 145.114C255.643 144.411 256.558 143.708 257.069 143.006C257.644 143.645 258.539 144.198 258.773 144.943C259.476 147.286 260.05 149.671 260.476 152.077C260.945 154.674 261.967 155.569 264.501 154.057C267.631 152.183 270.889 150.48 274.104 148.776C274.764 148.393 275.573 148.223 277.128 147.69Z" fill="white"/>
<path d="M186.589 133.956C186.163 134.999 185.95 136.192 185.311 137.065C182.33 141.174 179.221 145.178 176.176 149.266C174.813 151.097 172.109 151.267 170.47 149.479C168.34 147.179 166.083 144.965 164.188 142.473C163.358 141.387 163.272 139.748 162.868 138.342C163.954 138.768 165.146 139.024 166.104 139.641C168.447 141.132 171.449 144.56 172.812 143.985C176.176 142.558 178.795 139.322 181.691 136.767C182.947 135.659 184.097 134.467 185.311 133.317C185.737 133.551 186.163 133.743 186.589 133.956Z" fill="white"/>
<path d="M260.221 106.914C256.431 110.533 252.662 114.068 249.021 117.688C246.7 119.988 245.039 119.924 243.697 117.028C242.782 115.048 242.377 112.854 241.611 110.81C241.057 109.384 240.099 108.085 239.652 106.637C239.332 105.572 239.545 104.358 239.503 103.208C240.397 103.528 241.611 103.592 242.143 104.209C243.697 106.04 245.209 107.978 246.274 110.107C247.253 112.066 247.615 112.407 249.659 110.959C252.449 109 255.792 107.872 258.964 106.488C259.326 106.317 260.008 106.85 260.221 106.914Z" fill="white"/>
<path d="M180.626 252.07C182.841 254.22 185.29 256.158 187.164 258.543C189.165 261.077 190.294 260.672 192.253 258.5C194.233 256.286 196.724 254.412 199.237 252.794C200.344 252.091 202.111 252.432 203.581 252.304C203.687 252.687 203.794 253.071 203.9 253.454C201.877 254.923 199.599 256.115 197.917 257.904C195.702 260.289 193.956 263.121 192.04 265.783C190.549 267.869 188.228 267.955 186.695 265.91C184.395 262.823 181.989 259.799 179.881 256.584C179.242 255.604 179.477 254.093 179.306 252.815C179.775 252.559 180.201 252.325 180.626 252.07Z" fill="white"/>
<path d="M264.16 74.356C265.352 76.6557 266.651 78.9127 267.737 81.255C268.93 83.8102 269.909 84.7258 272.486 82.2771C275.446 79.4664 278.98 77.2306 282.345 74.867C282.834 74.5263 283.792 74.8457 284.538 74.867C284.474 75.5484 284.665 76.4853 284.282 76.8473C280.854 80.3394 277.362 83.7889 273.827 87.1533C270.356 90.4537 267.524 89.9853 265.097 85.9182C263.01 82.4048 262.457 78.6785 262.925 74.7606C263.351 74.6541 263.755 74.505 264.16 74.356Z" fill="white"/>
<path d="M19.3938 143.857C21.9916 140.749 24.27 142.686 26.3141 143.581C28.2944 144.454 30.0616 145.816 31.9142 146.988C33.0427 145.114 34.1713 143.261 35.2785 141.387C36.1941 139.812 36.9821 138.151 38.0255 136.66C38.4513 136.064 39.4094 135.851 40.5805 135.212C40.5805 136.533 40.751 137.193 40.5594 137.704C38.9837 141.941 37.3653 146.178 35.6831 150.373C34.4481 153.461 32.2975 154.121 29.6784 152.162C27.911 150.842 26.3354 149.287 24.6319 147.882C23.0136 146.583 21.3528 145.369 19.3938 143.857Z" fill="white"/>
<path d="M306.087 115.069C303.042 117.241 300.103 119.562 296.952 121.585C292.267 124.566 287.753 122.479 287.37 117.028C287.136 113.727 287.434 110.363 287.924 107.084C288.051 106.275 289.776 105.7 290.777 105.018C290.926 106.062 291.181 107.084 291.203 108.127C291.203 109.469 290.713 110.895 290.99 112.152C291.394 113.983 291.841 116.538 293.119 117.198C294.354 117.837 296.654 116.538 298.442 115.984C300.849 115.239 303.233 114.387 305.618 113.578C305.746 114.068 305.916 114.558 306.087 115.069Z" fill="white"/>
<path d="M174.941 301.492C176.219 300.831 177.305 300.469 178.114 299.788C180.137 298.106 182.01 296.232 184.033 294.55C184.651 294.039 185.588 293.89 186.397 293.57C186.291 294.571 186.546 295.828 186.035 296.551C184.949 298.127 183.331 299.341 182.181 300.895C180.903 302.62 179.753 304.451 178.838 306.389C177.581 309.008 175.026 309.562 173.003 307.454C170.682 305.026 168.234 302.684 166.126 300.065C165.466 299.234 165.742 297.659 165.593 296.424C166.509 296.637 167.574 296.615 168.319 297.084C170.619 298.447 172.748 300.001 174.941 301.492Z" fill="white"/>
<path d="M24.9088 98.9498C26.8891 99.8867 28.0602 100.27 29.0397 100.93C31.5949 102.612 33.9797 104.55 36.5988 106.126C38.3023 107.148 40.1122 107.978 41.3898 105.082C42.135 103.379 43.7108 101.995 45.0736 100.653C45.6911 100.057 46.7558 99.9293 48.0121 99.4396C46.8835 102.335 46.0104 104.571 45.1374 106.807C42.9016 112.514 38.3448 113.94 33.5326 110.257C30.7644 108.127 28.1453 105.764 25.6753 103.294C25.0152 102.634 25.2495 101.143 24.9088 98.9498Z" fill="white"/>
<path d="M55.2305 158.997C57.445 159.976 59.9363 160.573 61.8101 161.999C66.8354 165.853 66.8353 165.96 70.0293 160.296C70.8598 158.827 71.8819 157.442 72.9891 156.165C73.3511 155.76 74.4796 155.633 74.9481 155.909C75.3526 156.144 75.5869 157.293 75.3526 157.783C73.8408 161.084 72.4355 164.469 70.4765 167.493C68.4111 170.666 65.9837 170.879 62.9174 168.451C59.8512 166.045 56.9765 163.383 54.0167 160.828C54.4213 160.253 54.8259 159.614 55.2305 158.997Z" fill="white"/>
<path d="M44.8818 193.875C48.6508 195.174 51.5041 196.345 54.4638 197.027C55.1665 197.197 56.2738 195.728 57.1681 194.982C58.829 193.577 58.467 190.042 62.321 190.298C61.2138 194.557 60.2769 198.645 58.978 202.605C58.7863 203.202 56.5719 203.84 55.8053 203.457C52.228 201.647 48.7786 199.582 45.4568 197.325C44.818 196.899 45.0735 195.217 44.8818 193.875Z" fill="white"/>
<path d="M283.005 39.9249C286.263 37.1355 287.37 32.0038 293.566 32.1955C290.5 36.6458 288.051 40.4998 285.219 44.0771C284.58 44.8863 282.174 45.3547 281.472 44.8224C278.874 42.8634 276.617 40.4573 274.36 38.0937C273.934 37.6465 273.827 36.1986 274.189 35.8792C274.679 35.432 275.957 35.2617 276.531 35.6024C278.703 36.8587 280.748 38.3705 283.005 39.9249Z" fill="white"/>
<path d="M190.251 149.926C191.401 147.562 192.317 145.433 193.53 143.453C193.807 143.006 195.383 142.75 195.745 143.069C196.384 143.623 197.001 144.879 196.788 145.582C196.235 147.456 195.362 149.266 194.339 150.927C193.935 151.587 192.721 152.204 192.018 152.076C191.358 151.97 190.911 150.82 190.251 149.926Z" fill="white"/>
</svg>
