<svg width="308" height="500" viewBox="0 0 308 500" fill="none" xmlns="http://www.w3.org/2000/svg">
<path d="M111.396 287.943C110.842 288.794 110.407 289.763 109.695 290.435C109.081 291.029 108.152 291.326 107.361 291.761C106.965 290.772 106.213 289.763 106.293 288.814C106.391 287.647 107.183 286.559 107.776 285.194C106.609 284.779 105.679 284.442 104.453 284.007C104.908 282.405 105.343 280.843 105.64 279.775C104.394 278.568 103.464 277.678 102.535 276.788C104.75 275.482 106.985 274.177 109.892 272.476C109.062 264.584 108.132 255.862 107.084 246.051C104.71 249.097 102.891 251.451 101.091 253.785C100.814 253.686 100.517 253.587 100.24 253.488C100.082 252.321 99.6073 251.095 99.805 249.987C100.181 247.752 101.902 245.616 99.6864 243.282C99.4095 242.986 100.596 240.948 101.466 240.058C102.08 239.425 103.266 239.326 104.295 238.951C102.99 237.269 101.921 235.865 100.497 234.026C103.286 233.452 106.075 233.67 106.807 232.562C107.934 230.821 107.677 228.171 108.013 225.857C104.374 224.393 100.952 222.91 97.4711 221.644C95.6119 220.971 93.9504 221.268 93.8713 223.82C93.8516 224.176 93.9702 224.571 93.812 224.848C93.0802 226.134 92.289 227.38 91.5374 228.646C90.7858 227.499 90.054 226.371 89.065 224.828C89.4013 224.848 89.0848 224.809 88.7684 224.809C87.4234 224.868 86.0784 224.947 84.7137 225.006C85.2675 223.464 85.485 221.644 86.4542 220.437C88.2145 218.242 88.0761 217.569 85.5048 216.422C79.6107 213.792 73.578 211.319 68.0399 208.056C65.0335 206.276 65.1522 207.66 64.6182 209.697C64.2424 211.161 65.5082 213.891 62.7985 213.614C61.8689 213.515 60.9393 210.686 60.5437 208.966C60.0097 206.671 59.9701 204.278 59.7129 201.904C59.3569 201.904 58.9811 201.904 58.6251 201.904C57.379 203.625 56.2516 205.445 54.8671 207.047C54.2341 207.779 53.1463 208.135 52.276 208.649C52.098 207.601 51.7024 206.533 51.8013 205.504C51.92 204.298 52.4738 203.151 53.0276 201.39C51.4453 201.39 50.2981 201.568 49.2498 201.331C48.3795 201.153 47.628 200.48 46.817 200.025C47.3115 199.175 47.6082 198.008 48.34 197.553C49.4674 196.861 50.8915 196.663 52.6914 196.109C51.1882 194.052 49.7641 192.232 48.4785 190.314C47.2126 188.455 45.8083 186.615 44.9775 184.538C42.9601 179.534 42.4656 179.198 36.8682 180.958C36.8682 181.809 37.0462 182.758 36.8286 183.589C36.5319 184.697 35.899 185.705 35.4243 186.754C34.5738 186.101 33.565 185.567 32.9321 184.756C31.8838 183.451 31.0729 181.967 29.8862 180.108C28.8181 182.007 28.1654 183.589 27.0577 184.716C26.8006 184.974 24.9216 183.629 24.17 182.343C22.2514 182.462 20.3329 182.58 17.5243 182.758C19.2055 180.167 20.3329 178.427 21.5592 176.568C19.7197 175.46 17.9198 174.55 16.2979 173.363C14.142 171.781 11.7884 170.357 11.5312 167.133C11.4719 166.381 9.84998 165.551 8.78191 165.135C7.73363 164.72 6.48752 164.819 4.54917 164.601C6.15127 162.663 7.21939 161.377 8.80171 159.439C6.15132 159.221 4.23275 159.162 2.37352 158.865C1.54281 158.727 0.791177 158.074 1.56264e-05 157.639C0.53405 156.729 0.890065 155.305 1.66145 155.028C3.10532 154.514 4.78655 154.553 6.36887 154.553C7.33804 154.553 8.32702 154.87 9.29619 155.048C9.63243 154.652 9.96864 154.237 10.3049 153.841C8.76211 152.912 7.21939 151.982 5.77552 151.092C7.89188 147.512 8.95993 147.453 12.1246 150.42C15.0717 153.189 15.4277 152.872 17.0891 149.233C18.8099 145.475 21.124 141.974 23.4184 138.513C24.4073 137.049 24.803 136.436 22.9635 135.388C21.223 134.399 19.5615 133.034 18.2956 131.511C17.4649 130.502 16.8517 128.762 17.1089 127.535C17.3067 126.625 18.9681 125.636 20.1153 125.439C22.7064 124.964 24.4469 123.995 24.4865 121.127C24.5063 118.793 25.9699 118.041 27.9083 118.318C30.262 118.654 31.33 117.764 32.4179 115.688C32.9915 114.58 35.2661 113.848 36.7297 113.907C37.7978 113.947 39.6768 115.549 39.6768 116.479C39.7559 122.947 43.3755 128.01 45.7687 133.588C48.0829 138.987 50.2388 144.466 52.5331 150.064C53.1067 149.648 53.8386 149.272 54.3528 148.699C57.3593 145.317 60.1679 141.776 63.3127 138.552C65.0731 136.752 64.5192 136.278 62.5413 135.664C61.1568 135.229 59.7525 134.656 58.5658 133.845C57.7746 133.291 57.3593 132.203 56.7659 131.372C57.6955 131.076 58.724 130.364 59.4954 130.581C61.2953 131.056 63.0358 131.906 64.717 132.757C65.8049 133.311 66.7741 134.141 68.396 134.458C68.0597 133.607 67.8421 132.698 67.3476 131.946C66.1213 130.107 64.6379 128.406 63.5303 126.507C63.1149 125.795 63.4314 124.648 63.4116 123.698C64.3412 123.856 65.4291 123.777 66.1807 124.232C67.0905 124.786 67.7037 125.795 68.8509 127.041C69.6816 125.458 70.4134 124.074 71.1452 122.689C71.4815 122.59 71.8375 122.492 72.1935 122.393C73.2418 125.201 74.3099 128.03 75.4373 131.036C77.613 131.115 78.9975 130.443 77.8108 127.634C76.98 125.656 76.1493 123.678 75.3977 121.681C74.033 117.982 72.7276 114.244 71.2639 110.13C70.0969 111.376 69.1278 112.582 67.9608 113.591C67.4466 114.046 66.3983 114.402 65.9038 114.165C65.4093 113.927 64.8753 112.642 65.0929 112.226C66.4774 109.635 64.9346 108.468 61.8887 106.253C63.1941 105.581 64.4995 104.888 65.6665 104.295C66.0027 102.001 61.0579 101.644 63.827 99.0139C64.5983 98.282 66.6751 98.8952 68.7124 98.8952C67.4861 90.4891 66.2202 81.7666 64.8753 72.4902C61.9875 73.8748 59.1592 75.2395 56.3308 76.6042C56.0143 76.3076 55.7176 76.0306 55.4011 75.734C56.1725 74.033 56.9637 72.332 57.7548 70.5717C54.8473 67.8817 54.8671 67.941 58.7438 66.1609C59.9701 65.6071 60.9986 64.6775 61.9678 64.0248C61.0184 62.0271 60.1283 60.148 59.1393 58.0317C65.528 56.1329 64.7171 62.8183 68.2575 64.5193C70.5321 59.1196 75.1406 59.2976 79.848 59.436C84.7928 59.5943 89.7375 59.4756 95.4141 59.4756C94.1878 55.9945 93.0802 53.1067 92.1704 50.1597C91.0034 46.3423 89.8958 42.5249 88.9662 38.6483C88.2937 35.8792 89.4408 32.9717 91.8341 32.3585C93.6735 31.8838 96.2646 33.5255 98.2228 34.7122C99.3304 35.4045 99.8446 37.066 100.616 38.312C101.11 39.123 101.565 39.9339 101.981 40.6855C103.939 37.7978 105.521 35.1869 107.44 32.8134C108.073 32.0223 109.892 31.2114 110.486 31.5674C111.712 32.2992 112.879 33.6837 113.294 35.0287C113.828 36.7693 113.611 38.7669 113.69 40.2306C116.439 39.3405 118.773 38.1933 121.206 37.8571C123.955 37.4813 125.577 39.0438 126.032 41.9909C127.159 49.1509 123.045 53.5616 118.101 57.5372C115.114 59.9503 111.949 62.126 108.983 64.5588C108.35 65.0731 107.697 66.4774 107.974 67.0707C111.218 74.0527 110.466 81.4501 110.506 88.7486C110.506 89.1837 110.664 89.6188 110.842 90.5089C112.464 89.3222 113.809 88.2145 115.292 87.364C115.866 87.0278 116.795 87.3245 117.567 87.3442C117.527 88.2739 117.784 89.342 117.408 90.0936C116.677 91.5176 115.589 92.7637 114.481 94.3262C116.716 95.3152 118.397 96.047 120.059 96.7591C120.039 97.0558 119.999 97.3722 119.98 97.6689C116.815 98.6776 113.67 99.7062 109.793 100.952C112.187 103.069 114.442 105.027 116.677 107.005C116.518 107.341 116.34 107.677 116.182 108.033C113.868 107.796 111.554 107.578 108.884 107.321C108.468 109.714 108.251 112.108 107.598 114.382C106.668 117.507 105.343 120.494 104.295 123.579C103.306 126.507 102.277 129.434 101.704 132.46C101.526 133.41 102.633 134.695 103.326 135.724C105.046 138.236 106.807 140.728 108.646 143.121C109.398 144.09 110.426 144.822 111.712 146.009C112.226 144.229 112.345 143.161 112.839 142.31C113.334 141.44 114.204 140.748 114.896 139.996C115.391 141.044 116.38 142.152 116.261 143.101C115.945 145.455 115.114 147.73 114.402 150.4C115.292 149.984 116.241 149.51 117.191 149.094C118.318 148.6 119.446 147.848 120.632 147.73C121.542 147.651 122.551 148.363 123.5 148.719C122.966 149.648 122.63 150.875 121.839 151.428C120.098 152.655 118.12 153.545 116.222 154.553C116.241 154.989 116.281 155.424 116.301 155.839C117.685 155.839 119.149 156.116 120.454 155.8C123.579 155.048 126.546 154.672 129.256 157.085C128.959 160.151 126.507 159.34 124.786 159.518C122.887 159.716 120.949 159.558 118.951 159.558C123.837 169.862 128.623 179.93 133.766 190.729C134.695 190.116 136.179 189.305 137.365 188.198C137.524 188.039 136.258 186.358 135.625 185.389C135.368 184.993 134.933 184.677 134.834 184.262C134.557 183.114 134.418 181.947 134.221 180.78C135.566 181.057 137.029 181.117 138.236 181.67C139.264 182.145 139.996 183.213 141.203 184.341C141.301 183.233 141.222 182.62 141.44 182.125C141.816 181.314 142.37 180.583 142.864 179.811C143.695 180.326 144.644 180.741 145.277 181.433C145.692 181.868 145.534 182.798 145.851 183.391C146.306 184.202 147.037 185.547 147.552 185.508C148.501 185.429 149.648 184.697 150.242 183.886C151.428 182.224 152.16 180.128 154.89 180.583C155.206 182.343 154.969 185.033 155.918 185.567C158.252 186.853 161.14 187.149 164.107 187.94C164.74 183.965 165.313 180.464 165.867 176.983C166.243 174.689 165.412 174.095 163.157 174.728C161.832 175.104 160.349 174.787 158.925 174.787C158.885 174.451 158.865 174.135 158.826 173.798C159.577 173.027 160.21 171.939 161.14 171.504C163.533 170.396 164.403 169.427 161.713 167.548C161.456 167.37 162.168 165.412 162.801 164.562C163.157 164.087 164.285 164.186 165.155 164.028C164.384 161.377 160.309 160.309 161.753 156.769C167.825 157.342 167.608 157.322 168.26 151.132C168.873 145.554 170.08 140.036 170.97 134.478C171.247 132.797 171.306 131.056 171.524 128.762C169.447 128.762 167.647 128.86 165.867 128.702C165.195 128.643 164.562 128.03 163.929 127.654C164.344 127.041 164.641 126.111 165.214 125.894C166.876 125.221 168.636 124.845 170.357 124.331C171.385 124.015 172.414 123.659 173.423 123.303C173.363 123.006 173.324 122.709 173.264 122.413C171.603 121.859 169.843 121.483 168.32 120.652C167.489 120.197 167.074 118.991 166.46 118.12C167.331 117.705 168.201 117.29 169.071 116.874C169.546 116.657 170.06 116.459 170.574 116.241C169.823 114.896 169.17 113.749 167.983 111.613C171.247 112.068 173.423 112.385 175.776 112.721C180.029 101.664 184.341 90.4496 188.633 79.3536C186.516 78.958 184.459 78.5623 182.145 78.1272C183.965 74.3099 186.615 74.3494 189.305 74.2307C190.176 74.1912 191.006 73.5385 191.857 73.1627C191.145 72.5693 190.433 71.9957 189.721 71.3825C188.85 70.6309 188 69.8794 187.13 69.1278C187.228 68.6926 187.308 68.2773 187.406 67.8421C189.978 67.6839 192.529 67.5257 195.457 67.3279C194.527 65.4291 193.36 63.8072 192.984 62.0073C192.707 60.7414 193.518 59.2383 193.835 57.834C194.705 58.4471 195.753 58.902 196.386 59.7129C197.514 61.1172 198.443 61.5524 199.59 59.8514C201.41 57.1219 203.012 54.1946 205.109 51.7024C207.126 49.2894 209.678 47.3115 211.932 45.0962C214.741 42.3272 214.682 40.6657 212.882 37.0857C209.658 30.7168 205.979 24.3678 207.225 16.7331C207.462 15.3288 207.799 13.7069 208.669 12.6586C210.845 10.0082 212.664 7.31827 213.02 3.73826C213.119 2.70975 214.247 1.78012 214.899 0.810944C215.493 1.7999 216.066 2.78885 216.66 3.7778C217.154 4.58874 217.649 5.39972 218.262 6.40845C220.042 4.15364 217.925 0.672484 221.763 -3.72629e-06C222.672 2.47238 223.602 4.96456 224.828 8.30722C226.074 6.54688 226.609 5.36015 227.518 4.66788C228.408 3.99539 229.694 3.81737 230.821 3.42179C230.881 4.52942 231.375 5.89418 230.901 6.70512C229.536 9.07861 230.228 10.9774 230.881 13.4498C231.771 16.8122 231.613 20.6889 230.901 24.1502C230.307 27.038 228.211 29.6093 226.885 32.3783C226.45 33.2684 226.292 34.2969 226.173 35.9385C231.494 33.3277 236.538 34.6134 240.731 36.077C242.432 34.2771 243.658 32.9717 244.884 31.6663C245.854 33.1497 246.803 34.6331 247.891 36.2748C249.434 35.1276 251.174 33.8618 253.053 32.497C256.218 36.2748 251.214 37.4813 251.075 40.3888C252.499 41.8129 253.864 42.4656 255.407 39.8746C256.178 38.5889 257.503 37.5209 258.789 36.6704C259.343 36.2946 260.569 36.4528 261.182 36.8484C261.558 37.0857 261.598 38.3911 261.301 38.9647C260.47 40.5866 259.382 42.0502 258.057 44.127C259.837 45.3336 261.697 46.6192 263.595 47.8851C264.624 48.5774 265.633 49.3883 266.78 49.7839C267.551 50.041 268.876 49.9619 269.391 49.4674C272.179 46.7181 274.79 43.7512 277.48 40.9228C280.764 37.4813 284.502 35.5628 289.466 36.888C290.416 37.1451 291.741 36.3934 292.769 35.8594C293.877 35.2858 294.846 34.4353 296.033 33.5848C298.406 37.4615 294.826 39.123 293.798 42.7227C295.558 41.8722 296.607 41.4371 297.596 40.8833C298.703 40.2702 299.771 39.5384 300.958 38.8065C303.074 42.1887 299.949 43.5139 299.316 45.5907C299.079 46.3621 298.683 47.0741 298.367 47.806C299.217 48.0038 300.068 48.2609 300.938 48.3598C302.956 48.5971 304.973 48.7751 307.01 48.9729C305.428 50.1597 303.806 51.3069 302.283 52.5727C301.551 53.1859 300.523 54.0166 300.503 54.7682C300.266 62.838 294.273 65.2313 288.161 67.3674C284.957 68.4948 281.535 69.0486 278.232 69.8991C276.234 70.4134 275.265 71.4814 275.186 73.7956C275.028 79.0964 274.751 84.417 273.94 89.6386C273.386 93.1593 271.823 96.5019 270.736 99.9435C270.478 100.754 270.38 101.585 270.122 102.851C273.366 102.851 276.175 102.851 278.964 102.851C279.043 103.306 279.142 103.761 279.221 104.216C276.61 105.244 273.999 106.253 271.626 107.183C274.395 109.299 277.065 111.336 279.735 113.393C279.537 113.888 279.359 114.382 279.161 114.877C277.638 114.718 275.937 114.916 274.612 114.303C272.793 113.472 271.329 111.851 269.549 110.921C268.698 110.486 267.413 110.862 266.325 110.881C266.562 112.187 266.384 113.868 267.156 114.679C268.342 115.945 270.281 116.499 271.645 117.646C272.278 118.18 272.338 119.426 272.654 120.336C271.645 120.553 270.637 120.988 269.648 120.929C268.936 120.89 268.263 120.197 267.551 119.861C262.725 117.606 262.626 117.547 259.798 122.057C252.816 133.232 244.35 143.24 235.727 153.129C234.896 154.079 234.401 155.345 233.531 156.828C235.944 157.125 237.803 157.145 239.504 157.659C240.414 157.936 241.067 159.063 241.838 159.815C240.988 160.408 240.197 161.239 239.247 161.535C238.08 161.891 236.775 161.793 235.43 161.891C235.113 163.434 235.015 166.006 234.481 166.104C231.336 166.678 229.556 168.438 228.507 171.247C227.835 170.832 226.826 170.594 226.549 170.001C226.074 169.012 226.074 167.805 225.738 166.006C224.136 167.726 222.831 168.992 221.664 170.396C219.765 172.671 218.143 175.223 216.046 177.28C213.732 179.534 213.218 181.216 216.383 183.015C216.778 183.253 217.075 184.301 216.897 184.756C216.719 185.211 215.849 185.646 215.295 185.646C213.475 185.607 211.675 185.369 209.203 185.132C209.737 186.754 210.192 188.079 210.746 189.8C208.689 189.8 206.75 189.8 204.337 189.8C204.337 191.58 204.456 193.162 204.278 194.725C204.219 195.397 203.685 196.129 203.151 196.544C202.953 196.703 201.885 196.129 201.588 195.674C200.461 193.874 199.491 194.685 198.206 195.536C193.934 198.384 189.562 201.094 184.677 204.219C186.576 210.884 188.751 218.558 191.046 226.668C192.905 225.738 194.487 224.947 196.287 224.057C198.483 228.527 194.606 230.03 192.272 232.74C192.885 232.661 193.558 232.681 194.112 232.463C195.041 232.087 195.931 231.138 196.801 231.177C198.206 231.237 200.421 231.553 200.817 232.424C201.845 234.718 199.768 235.094 198.008 235.568C196.604 235.944 195.318 236.735 193.676 237.467C195.931 238.357 197.988 239.049 199.927 239.999C200.579 240.315 200.916 241.265 201.41 241.917C200.718 242.333 200.085 242.966 199.333 243.124C198.463 243.302 197.494 243.144 196.584 243.005C192.153 242.313 192.114 242.293 192.252 246.645C192.45 252.163 192.846 257.662 192.964 263.18C193.024 266.008 192.648 268.837 192.45 271.902C192.885 271.843 193.4 271.744 193.914 271.724C195.061 271.645 196.228 271.586 197.375 271.507C197.237 272.476 196.742 273.564 197.019 274.414C197.474 275.819 198.423 277.045 199.531 279.043C198.028 279.676 195.991 280.546 193.518 281.594C193.736 282.267 194.072 283.275 194.408 284.284C194.725 285.253 195.021 286.242 195.338 287.211C194.131 287.231 192.885 287.409 191.718 287.211C191.026 287.093 190.452 286.381 189.107 285.412C188.672 287.904 187.94 289.901 188.217 291.761C188.316 292.492 190.749 293.541 191.956 293.383C198.542 292.433 205.069 291.088 211.636 290C220.358 288.556 229.101 287.172 237.863 285.886C238.634 285.768 239.544 286.48 241.107 287.073C236.874 289.209 236.775 292.512 237.072 295.697C238.061 306.219 239.366 316.702 240.335 327.224C240.869 333.079 241.008 338.973 241.245 344.867C241.265 345.579 240.751 346.311 240.474 347.043C240.098 347.023 239.702 346.984 239.326 346.964C238.061 339.013 236.814 331.081 235.43 322.398C233.056 323.605 230.94 324.673 228.824 325.781C221.941 329.44 214.899 329.598 208.095 325.959C202.023 322.695 196.386 318.64 190.334 315.317C183.609 311.619 176.587 311.777 169.961 315.535C164.542 318.601 158.984 321.706 154.316 325.781C150.617 329.005 147.196 331.734 142.33 333.079C135.308 335.037 128.702 333.791 122.511 331.141C113.947 327.462 105.877 322.715 97.4909 318.64C93.2384 316.564 88.531 316.84 84.2785 318.403C79.9667 319.985 75.8131 322.28 71.976 324.831C68.5542 327.106 66.9125 330.191 68.9695 334.82C70.1167 337.371 69.4244 340.734 69.5827 343.72C69.642 345.045 69.7607 346.371 69.8398 347.597C82.0632 345.718 93.9109 346.41 105.739 347.221C114.224 347.795 122.67 349.061 131.135 349.337C150.143 349.931 169.19 350.366 188.198 350.227C194.863 350.188 201.509 348.17 208.174 347.261C215.888 346.212 223.622 345.342 231.375 344.511C232.186 344.432 233.076 345.006 233.927 345.283C233.729 345.916 233.689 346.113 233.65 346.113C229.516 345.916 227.696 349.12 225.501 351.691C224.888 352.423 224.393 353.412 224.235 354.342C223.464 358.634 222.89 362.965 222.138 367.277C220.398 376.989 218.4 386.641 216.838 396.392C215.315 405.807 214.247 415.301 212.902 424.735C211.932 431.42 210.568 438.046 209.856 444.752C209.44 448.707 209.875 452.762 210.212 456.757C210.251 457.272 211.952 457.984 212.902 458.004C221.684 458.261 226.846 463.68 230.901 470.583C232.305 472.996 230.05 478.277 226.589 481.007C218.38 487.474 209.638 492.676 198.878 494.061C188.534 495.406 178.367 498.234 168.023 499.144C156.432 500.153 144.723 500.113 133.073 499.816C125.043 499.619 116.973 498.709 109.062 497.265C101.743 495.94 94.0493 494.951 88.5112 488.958C84.7136 484.863 81.8259 480.235 83.1708 474.479C84.4763 468.882 87.9772 464.728 93.4758 462.533C94.8603 461.979 96.2646 461.445 97.6689 460.97C99.2512 460.436 101.902 460.337 102.198 459.408C102.811 457.608 102.317 455.333 101.921 453.316C101.407 450.745 100.438 448.272 99.8446 445.721C97.9458 437.473 96.1657 429.205 94.2867 420.957C92.7044 414.074 91.0627 407.191 89.421 400.308C87.4234 391.981 85.3466 383.654 83.3885 375.307C81.7072 368.167 80.0656 361.007 78.5822 353.827C78.0481 351.197 76.7229 350.663 74.4088 351.414C73.222 351.81 72.0155 352.245 70.7892 352.463C66.873 353.115 65.2313 351.652 65.1522 347.676C65.0533 342.613 65.1719 337.51 64.6972 332.466C64.0445 325.266 62.937 318.106 62.0271 310.927C61.948 310.234 61.8293 309.562 61.7897 308.869C61.3546 302.006 62.6798 299.672 69.5233 298.921C81.0545 297.655 92.6648 297.121 104.255 296.31C105.521 296.211 106.827 296.468 108.053 296.211C109.892 295.835 112.839 295.558 113.235 294.49C113.927 292.651 112.998 290.198 112.741 288.022C112.207 287.983 111.791 287.963 111.396 287.943ZM234.698 38.9647C227.934 39.0043 223.503 41.8723 219.409 44.7996C213.772 48.8345 208.412 53.4034 204.911 59.6141C202.518 63.8468 200.085 68.0597 197.949 72.4309C193.221 82.1226 188.316 91.7748 184.182 101.724C181.453 108.31 179.811 115.351 177.972 122.274C175.737 130.641 173.106 138.987 171.9 147.512C170.021 160.725 169.17 174.095 168.043 187.406C167.964 188.455 168.834 189.978 169.744 190.65C173.086 193.202 177.458 194.843 179.871 198.028C182.58 201.628 185.073 200.54 187.782 199.452C189.938 198.601 192.015 197.217 193.696 195.634C197.593 191.956 201.252 188.039 204.95 184.182C208.807 180.167 212.763 176.231 216.363 171.999C220.319 167.331 223.859 162.327 227.716 157.56C231.474 152.912 235.568 148.541 239.188 143.813C244.706 136.634 250.442 129.513 255.189 121.839C259.758 114.442 263.595 106.51 266.997 98.4997C268.936 93.9505 268.936 88.6299 270.558 83.9027C273.307 75.912 271.072 68.3959 268.817 60.9986C267.907 57.9921 265.534 54.7286 262.883 53.0672C255.941 48.6565 248.524 44.9578 241.186 41.1998C238.832 39.9933 236.122 39.4394 234.698 38.9647ZM187.228 360.691C183.767 363.994 180.741 367.811 176.884 370.323C172.691 373.053 167.746 374.674 163.058 376.573C156.294 379.322 146.365 376.83 141.836 371.233C140.135 369.136 138.651 366.842 137.365 364.468C134.596 359.365 133.528 358.95 130.739 362.708C126.566 368.306 122.136 373.369 115.292 375.96C109.873 378.017 104.71 378.096 99.3304 376.099C93.7724 374.041 89.8957 370.066 86.2168 365.398C85.9993 366.763 86.1971 367.989 86.4344 369.215C87.9179 376.534 89.3024 383.872 90.9441 391.131C92.9417 399.912 95.3152 408.615 97.2931 417.417C98.6183 423.351 99.2908 429.443 100.774 435.337C101.565 438.482 102.851 441.903 104.987 444.198C108.646 448.114 113.116 451.298 117.389 454.601C117.824 454.938 119.683 454.206 120.217 453.474C125.063 446.927 130.641 441.211 137.84 437.275C139.858 436.167 141.697 435.534 143.853 438.007C148.996 443.881 155.859 448.252 158.984 455.986C160.27 455.373 161.377 455.116 162.069 454.443C165.135 451.457 168.102 448.707 172.216 446.769C180.108 443.031 187.604 438.422 194.962 433.715C198.048 431.757 199.175 433.359 200.757 435.258C202.32 437.117 204.001 438.877 206.197 441.33C206.869 438.897 207.68 437.315 207.72 435.713C208.076 420.245 210.924 405.095 213.713 389.944C214.108 387.827 214.781 385.77 215.255 383.654C216.244 379.164 217.293 374.694 218.143 370.185C218.519 368.187 217.925 367.079 215.433 368.009C213.001 368.919 210.39 369.868 207.838 369.947C199.491 370.303 193.202 365.794 187.228 360.691ZM189.78 257.226C189.859 241.522 187.644 226.252 182.996 211.319C182.125 208.53 181.334 205.346 179.475 203.289C172.829 195.951 164.206 191.857 154.474 190.413C151.389 189.958 148.264 191.263 145 191.323C139.561 191.422 134.656 195.16 130.66 199.135C125.518 204.238 120.83 209.658 117.151 216.046C112.76 223.681 110.248 231.652 110.624 240.414C110.881 246.368 111.969 252.282 112.207 258.235C112.661 270.063 113.71 281.792 117.329 293.125C117.567 293.877 118.892 294.846 119.683 294.807C124.054 294.569 128.406 293.956 132.777 293.64C141.242 293.027 149.727 292.136 158.193 292.117C165.649 292.097 173.086 293.145 180.543 293.521C181.868 293.58 184.143 293.007 184.44 292.196C185.903 288.102 187.288 283.889 187.861 279.597C188.831 272.179 189.167 264.683 189.78 257.226ZM87.5618 133.113C84.7136 133.825 81.8655 134.577 78.9975 135.269C69.5431 137.524 62.8578 143.655 57.7746 151.389C53.7397 157.54 50.753 164.364 47.0741 170.772C45.5313 173.442 45.6501 175.737 46.6786 178.565C48.9334 184.756 52.1771 190.176 56.9241 194.804C62.8776 200.619 69.3453 205.662 76.9009 209.242C82.7555 212.031 88.4519 215.137 94.3856 217.688C98.3216 219.389 102.535 220.556 106.708 221.565C107.736 221.822 109.853 220.853 110.268 219.923C113.71 212.071 118.259 204.911 124.648 199.254C129.474 194.982 129.731 190.413 127.377 185.152C125.063 179.95 122.729 174.728 119.94 169.783C115.094 161.259 110.11 152.793 104.77 144.565C100.814 138.473 96.3437 132.638 87.5618 133.113ZM234.223 288.992C226.529 290.356 219.488 291.306 212.605 292.908C203.526 295.004 194.448 297.022 185.073 297.101C166.085 297.239 147.136 294.846 128.129 298.446C117.804 300.384 107.044 300.008 96.4624 300.582C92.3088 300.8 88.1354 300.641 84.0016 300.859C79.0568 301.116 74.0725 301.334 69.1871 302.046C65.3302 302.6 64.2819 304.182 64.717 308.059C65.2115 312.588 65.9829 317.098 66.8334 321.568C66.9323 322.062 68.7124 322.814 69.1871 322.537C72.3715 320.697 75.2791 318.363 78.5228 316.662C86.296 312.568 94.0494 312.054 102.179 316.346C110.604 320.796 119.248 324.97 128.129 328.451C134.458 330.943 141.203 330.172 147.037 326.374C151.646 323.368 155.8 319.708 160.21 316.405C165.195 312.667 170.654 309.858 176.904 309.028C185.33 307.9 192.134 311.639 198.7 316.366C202.913 319.412 207.225 322.537 211.952 324.594C218.875 327.581 225.402 325.148 231.474 321.311C233.373 320.104 234.303 318.7 234.263 316.306C234.144 307.544 234.223 298.782 234.223 288.992ZM145.791 495.96C152.674 495.406 162.05 494.476 171.445 493.942C183.411 493.25 195.397 492.281 206.671 488.265C213.179 485.932 219.132 481.837 225.026 478.059C227.182 476.675 229.259 473.906 227.775 470.899C225.422 466.133 218.005 459.526 211.794 460.318C210.667 460.456 208.827 461.05 208.669 461.722C207.996 464.808 207.245 468.051 207.581 471.137C207.957 474.638 207.7 476.042 203.961 476.22C196.129 476.616 188.296 476.794 180.464 476.813C157.619 476.873 134.755 476.813 111.91 476.734C107.816 476.714 105.877 475.191 104.651 471.315C104.137 469.673 103.86 467.952 103.247 466.35C102.93 465.519 102.198 464.412 101.466 464.234C96.8184 463.106 88.5112 468.625 87.3245 473.471C85.5641 480.651 88.4519 484.804 94.5043 488.443C102.317 493.151 111.435 493.21 120.098 494.436C127.713 495.524 135.506 495.406 145.791 495.96ZM105.996 90.6671C105.917 90.6671 105.857 90.6671 105.778 90.6671C105.778 86.0586 106.016 81.4303 105.719 76.8218C105.086 66.9718 97.2536 61.4535 87.5223 63.4709C85.2675 63.9456 82.7951 63.649 80.4809 63.3325C77.1778 62.8776 74.5274 62.6996 72.1935 66.1411C69.1476 70.6507 68.3564 74.8835 69.5233 80.2634C71.9166 91.3594 73.4 102.633 75.5757 113.769C76.2284 117.151 78.2657 120.257 79.0569 123.619C80.2634 128.643 82.3599 130.977 88.0168 129.296C90.2716 128.623 93.1396 130.245 95.7702 130.443C96.7789 130.522 98.559 129.691 98.7964 128.92C101.111 121.285 103.563 113.67 105.165 105.877C106.174 100.932 105.778 95.7305 105.996 90.6671ZM49.4278 157.085C49.3487 155.879 49.3488 155.523 49.2894 155.186C47.7071 146.741 44.2457 139.007 40.0526 131.57C39.835 131.194 37.8769 131.313 37.1846 131.808C35.5825 132.955 34.2969 134.517 32.8134 135.862C28.3632 139.897 23.7546 143.734 21.5592 149.648C19.9571 153.98 18.177 158.252 16.3375 162.485C14.0827 167.647 14.5179 169.23 19.6209 171.326C25.0996 173.561 30.6575 175.618 36.2352 177.616C39.301 178.723 42.1294 177.537 42.2085 174.985C42.3469 170.179 44.4633 166.282 46.9357 162.406C48.1027 160.586 48.8147 158.43 49.4278 157.085ZM143.141 353.807C142.686 353.807 142.211 353.807 141.756 353.807C136.673 353.827 135.763 355.251 138.315 359.642C139.877 362.372 141.598 365.062 143.596 367.475C146.108 370.461 149.174 373.072 153.406 372.677C158.252 372.222 163.098 371.549 167.845 370.501C175.203 368.84 180.523 364.093 184.716 358.04C186.358 355.647 185.112 353.63 182.125 353.59C179.475 353.57 176.765 353.392 174.174 353.807C172.889 354.005 171.267 355.133 170.693 356.28C168.458 360.73 164.7 362.57 160.111 363.143C155.78 363.677 152.14 361.363 150.934 357.882C149.352 353.313 146.484 353.669 143.141 353.807ZM88.3926 350.742C84.1598 350.603 83.0918 351.909 85.1092 354.994C88.1948 359.682 91.3792 364.35 95.0581 368.563C99.7062 373.883 109.952 374.496 116.222 371.371C122.848 368.088 126.744 362.214 131.649 357.269C132.183 356.735 132.52 355.469 132.262 354.796C132.045 354.203 130.878 353.709 130.087 353.669C126.863 353.491 123.599 353.293 120.395 353.531C119.268 353.61 118.041 354.737 117.211 355.706C115.965 357.17 115.312 359.187 113.947 360.473C107.638 366.407 97.1744 363.717 94.3658 355.588C93.3571 352.641 91.8341 350.208 88.3926 350.742ZM297.259 55.5396C296.646 54.0759 296.468 53.1661 295.954 52.4738C293.719 49.408 291.345 46.4412 289.11 43.3952C287.132 40.6657 284.284 40.1317 281.832 42.4854C278.271 45.8874 274.83 49.4476 271.507 53.0869C270.993 53.6407 271.072 55.1044 271.368 55.9747C272.081 58.2098 273.366 60.2866 273.9 62.5414C275.166 68.0399 275.047 68.0399 280.546 66.0027C281.298 65.7258 282.188 65.8049 282.9 65.5082C286.48 63.9655 290.238 62.66 293.541 60.6228C295.222 59.5745 296.092 57.201 297.259 55.5396ZM218.183 11.2741C210.864 15.309 209.856 17.2275 211.992 25.1589C213.08 29.2136 214.899 33.0706 216.561 36.9473C216.956 37.8769 218.104 39.3207 218.638 39.2021C219.627 39.0043 220.695 37.9956 221.288 37.0462C222.85 34.554 224.373 32.0025 225.54 29.3125C226.806 26.405 227.953 23.3788 228.666 20.2933C229.694 15.7244 225.62 13.9047 223.147 10.8587C221.486 13.1729 219.765 13.4893 218.183 11.2741ZM196.485 474.064C198.562 473.965 199.61 474.064 200.619 473.847C201.647 473.629 202.617 473.115 203.605 472.739C203.111 471.691 202.735 470.524 202.082 469.594C200.757 467.755 199.175 466.093 197.87 464.234C193.934 458.656 189.859 453.158 186.299 447.323C184.578 444.494 182.956 445.681 181.136 446.472C179.811 447.046 178.644 448.015 177.378 448.747C174.669 450.29 174.293 451.714 176.726 453.632C182.402 458.122 186.714 463.917 190.195 469.95C192.272 473.49 194.052 474.44 196.485 474.064ZM203.507 466.904C203.882 466.865 204.238 466.805 204.614 466.766C204.891 465.698 205.326 464.669 205.405 463.581C205.781 458.874 206.098 454.147 206.335 449.439C206.473 446.611 206.078 444.138 203.19 442.398C200.935 441.033 199.234 437.493 197.197 437.394C194.824 437.295 192.391 440.005 189.879 441.31C188.178 442.2 188.158 442.774 189.285 444.396C192.628 449.202 195.694 454.245 198.819 459.21C200.401 461.742 201.944 464.333 203.507 466.904ZM189.127 473.807C189.187 473.451 189.246 473.095 189.325 472.719C185.607 468.823 181.928 464.906 178.15 461.069C176.726 459.625 174.748 458.656 173.581 457.074C170.258 452.505 169.981 452.366 165.63 455.729C165.175 456.065 164.878 456.599 164.443 456.955C161.595 459.329 161.516 460.377 164.126 462.909C166.559 465.282 169.328 467.359 171.484 469.95C176.587 476.141 183.213 472.699 189.127 473.807ZM188.178 353.827C188.969 355.192 189.305 356.141 189.938 356.834C195.002 362.57 201.291 365.912 209.005 365.952C219.132 366.011 220.101 361.205 220.655 351.019C219.686 351.79 219.033 352.285 218.42 352.819C213.475 357.229 205.425 358.891 201.014 355.37C197.019 352.186 193.202 353.175 188.178 353.827ZM137.445 473.53C139.343 472.027 140.708 471.117 141.875 469.99C144.941 467.023 147.908 463.937 150.954 460.951C152.22 459.704 155.424 460.159 154.751 457.371C154.336 455.63 152.793 454.127 151.745 452.544C151.507 452.169 151.191 451.832 150.914 451.476C148.738 448.747 147.769 448.727 145.752 451.536C141.895 456.876 137.148 461.247 131.689 464.906C131.016 465.361 130.364 467.26 130.66 467.557C132.678 469.594 134.933 471.374 137.445 473.53ZM139.225 439.154C133.687 444.85 128.366 450.112 123.303 455.59C120.593 458.518 124.034 459.863 125.419 461.603C126.606 463.107 128.168 463.205 129.592 461.92C134.656 457.351 139.759 452.802 144.605 448.015C145.297 447.323 145.317 444.989 144.664 444.119C143.398 442.378 141.44 441.092 139.225 439.154ZM129.889 472.442C130.047 472.106 130.205 471.77 130.364 471.453C122.037 464.353 113.73 457.272 105.403 450.171C105.106 450.389 104.829 450.626 104.532 450.844C105.225 454.483 104.354 458.498 107.578 461.524C111.316 465.045 114.956 468.645 118.753 472.106C119.545 472.838 120.791 473.53 121.78 473.471C124.509 473.352 127.199 472.818 129.889 472.442ZM145.594 471.414C145.851 471.75 146.088 472.086 146.345 472.422C153.921 472.422 161.496 472.422 169.744 472.422C165.017 468.308 160.863 464.709 156.61 460.99C152.773 464.63 149.174 468.031 145.594 471.414ZM104.631 63.0358C106.134 62.482 107.914 62.1853 109.22 61.2359C112.068 59.1987 115.015 57.1416 117.25 54.511C119.802 51.5046 123.856 49.0718 123.125 44.2062C122.966 43.1183 122.294 41.6151 121.483 41.2789C120.672 40.9624 118.931 41.5755 118.358 42.3469C115.767 45.828 113.393 49.507 111 53.1265C108.923 56.2714 106.906 59.4756 104.631 63.0358ZM106.312 359.168C107.974 358.752 109.793 358.653 111.218 357.842C112.246 357.269 113.017 355.845 113.393 354.658C113.512 354.302 112.009 352.957 111.119 352.819C107.084 352.166 103.009 351.711 98.915 351.414C98.5788 351.394 97.5898 353.254 97.8074 353.985C98.8557 357.467 101.645 358.97 106.312 359.168ZM94.2669 36.0572C91.2803 41.8525 98.0052 60.9788 101.645 60.9195C100.972 58.0713 100.201 55.1044 99.5875 52.1178C98.8952 48.7553 98.6184 45.294 97.6887 42.0305C97.0954 40.0328 95.5921 38.312 94.2669 36.0572ZM153.564 354.163C155.325 358.08 158.074 358.911 161.377 358.416C163.968 358.04 166.876 358.02 167.924 354.163C163.058 354.163 158.588 354.163 153.564 354.163ZM215.849 349.12C212.17 349.852 208.273 349.891 204.298 352.443C208.807 353.906 213.95 352.324 215.849 349.12ZM114.442 472.462C112.127 470.781 110.051 469.258 107.954 467.755C107.578 467.972 107.222 468.19 106.846 468.388C107.42 469.871 107.638 471.75 108.686 472.759C110.229 474.262 112.305 474.282 114.442 472.462ZM37.9362 124.924C37.7186 122.432 37.6593 120.395 37.2637 118.437C37.1648 117.962 35.4638 117.23 35.1672 117.448C33.4859 118.813 34.9298 123.777 37.9362 124.924ZM29.0554 123.916C29.4115 126.606 28.9565 129.236 32.6948 130.779C31.8443 127.872 32.5959 125.063 29.0554 123.916ZM21.3218 129.513C22.9833 130.819 24.3085 131.887 26.1479 133.35C24.8425 128.801 24.6645 128.663 21.3218 129.513Z" fill="white"/>
<path d="M186.477 325.306C186.457 329.539 184.716 331.853 181.512 331.912C177.596 331.991 173.225 327.759 173.264 323.941C173.304 319.906 175.499 317.671 179.396 317.651C184.321 317.651 186.477 319.966 186.477 325.306ZM176.271 323.684C176.389 327.541 178.921 327.759 181.374 328.016C183.767 328.273 183.589 326.453 183.569 325.009C183.55 322.458 182.106 320.836 179.613 320.678C177.418 320.539 176.251 321.904 176.271 323.684Z" fill="white"/>
<path d="M92.4275 334.563C87.2256 334.127 84.1598 331.754 84.4368 328.391C84.6345 325.899 89.4211 322.873 92.5857 323.229C94.5438 323.447 96.9767 327.363 96.7591 329.954C96.5415 332.644 94.5834 334.741 92.4275 334.563ZM93.7923 329.994C93.8714 329.46 93.9702 328.906 94.0493 328.372C92.823 327.937 91.5968 327.126 90.3903 327.165C89.4013 327.205 88.4321 328.233 87.4629 328.827C87.6014 329.222 87.7596 329.598 87.8981 329.994C89.876 329.994 91.8341 329.994 93.7923 329.994Z" fill="white"/>
<path d="M254.042 76.8218C256.02 76.9207 257.563 76.9998 259.125 77.0789C258.176 78.7404 257.306 80.4414 256.257 82.0237C255.842 82.6566 255.031 83.0325 254.378 83.5467C256.969 84.7335 259.125 85.7422 261.776 86.9487C259.402 90.0342 256.692 88.8475 254.279 88.7288C251.965 88.6101 252.321 87.0278 252.183 85.307C252.084 84.0412 250.561 82.9138 249.968 81.6083C249.394 80.382 248.82 78.958 248.939 77.6723C249.117 75.9318 249.968 74.2703 250.521 72.5693C251.194 72.866 252.163 72.9649 252.499 73.4792C253.231 74.6264 253.646 75.9317 254.042 76.8218Z" fill="white"/>
<path d="M210.528 90.6474C210.647 89.3222 210.587 88.4322 210.805 87.6015C211.181 86.2169 211.754 84.8917 212.229 83.527C212.941 84.872 213.792 86.1576 214.345 87.5817C214.741 88.5904 214.761 89.7376 214.939 90.865C217.471 89.6585 219.745 88.5904 222 87.5223C222.356 87.997 222.732 88.4717 223.088 88.9464C221.881 90.3309 220.932 92.1507 219.429 93.0605C214.702 95.8889 205.623 93.2583 203.665 88.6497C203.17 87.4828 203.21 86.0982 202.992 84.8126C203.388 84.5555 203.783 84.2984 204.159 84.0413C206.137 86.0785 208.115 88.1157 210.528 90.6474Z" fill="white"/>
<path d="M226.786 57.834C227.004 57.7945 227.241 57.7944 227.459 57.7351C228.903 57.3197 230.406 53.8189 231.533 56.7066C232.404 58.9219 230.881 62.047 230.426 64.7567C228.567 64.3611 226.727 63.9655 224.65 63.5304C224.907 64.3216 225.244 65.2709 225.56 66.2401C223.464 67.1104 219.35 65.8247 218.677 63.9655C218.4 63.1941 218.361 61.9283 218.816 61.414C219.231 60.9591 220.477 61.1173 221.308 61.236C221.901 61.3151 222.435 61.8096 222.574 61.9085C222.574 59.7921 222.574 57.6757 222.574 55.5594C224.057 56.0934 225.521 56.6275 227.004 57.1615C226.925 57.3791 226.866 57.6165 226.786 57.834Z" fill="white"/>
<path d="M233.986 115.134C236.795 114.125 239.01 113.334 241.403 112.483C242.392 117.23 238.792 117.171 236.894 118.595C235.39 119.742 234.322 119.465 233.393 117.685C232.878 116.677 230.98 115.984 230.999 115.193C231.098 112.127 231.692 109.062 232.226 106.016C232.265 105.739 233.274 105.323 233.61 105.482C234.144 105.739 234.817 106.372 234.856 106.886C234.975 108.587 234.935 110.308 234.777 112.009C234.678 112.978 234.303 113.927 233.986 115.134Z" fill="white"/>
<path d="M211.814 148.778C214.029 149.886 215.789 150.776 218.183 151.982C216.561 152.971 215.868 153.565 215.057 153.881C212.644 154.791 209.856 154.356 209.005 152.239C208.254 150.321 209.064 147.611 209.697 145.396C210.034 144.249 211.359 143.26 212.466 142.488C213.337 141.875 214.543 141.697 215.592 141.321C215.532 142.706 215.868 144.288 215.315 145.416C214.701 146.642 213.277 147.433 211.814 148.778Z" fill="white"/>
<path d="M197.197 123.639C195.555 121.127 194.369 119.347 193.202 117.567C193.399 117.211 193.617 116.835 193.815 116.479C195.397 116.953 197.593 116.973 198.443 118.041C199.472 119.347 200.105 121.799 199.59 123.283C198.938 125.102 197.85 127.753 194.665 126.764C193.459 126.388 192.074 126.546 190.947 126.072C190.037 125.696 189.384 124.707 188.633 123.995C189.661 123.283 190.69 121.997 191.738 121.977C193.241 121.977 194.784 122.867 197.197 123.639Z" fill="white"/>
<path d="M188.415 180.86C188.969 175.46 194.349 172.038 199.709 173.442C199.096 176.271 192.964 180.405 188.415 180.86Z" fill="white"/>
<path d="M245.814 125.795C241.443 127.555 238.08 126.329 235.212 122.116C237.724 119.901 242.392 121.443 245.814 125.795Z" fill="white"/>
<path d="M185.053 175.618C183.213 174.273 181.453 173.245 180.029 171.84C179.435 171.247 179.079 169.368 179.475 168.992C180.326 168.201 181.947 167.37 182.877 167.687C185.765 168.656 186.773 172.968 185.053 175.618Z" fill="white"/>
<path d="M210.686 160.388C209.242 159.953 207.858 159.914 207.166 159.202C206.434 158.45 206.375 157.046 206.018 155.938C207.027 155.839 208.056 155.523 209.005 155.681C209.856 155.819 210.706 156.393 211.398 156.947C212.17 157.58 212.763 158.43 213.436 159.162C212.447 159.617 211.478 160.052 210.686 160.388Z" fill="white"/>
<path d="M187.644 175.302C187.881 172.256 188 169.922 188.316 167.608C188.376 167.172 189.266 166.52 189.701 166.559C190.195 166.599 190.967 167.271 191.046 167.746C191.501 170.476 192.114 173.344 187.644 175.302Z" fill="white"/>
<path d="M202.874 126.744C203.071 124.311 203.071 122.294 203.467 120.356C203.586 119.782 204.812 119.446 205.524 118.991C205.92 119.624 206.651 120.276 206.632 120.909C206.572 123.204 206.612 125.735 202.874 126.744Z" fill="white"/>
<path d="M163.335 211.557C165.729 211.557 167.687 211.458 169.605 211.616C170.159 211.656 170.871 212.447 171.069 213.02C171.188 213.357 170.515 214.266 170.021 214.444C168.221 215.117 166.401 215.789 164.522 216.106C163.197 216.323 160.843 216.383 160.546 215.77C159.558 213.732 156.294 211.715 159.577 208.946C160.072 208.531 159.854 207.383 160.21 206.691C160.744 205.663 161.496 204.773 162.149 203.803C162.643 204.931 163.375 205.999 163.553 207.166C163.751 208.491 163.434 209.876 163.335 211.557Z" fill="white"/>
<path d="M137.029 266.186C134.438 269.648 128.959 269.925 126.507 267.116C127.575 265.257 128.603 263.496 130.047 261.004C132.678 260.114 133.489 260.589 137.029 266.186Z" fill="white"/>
<path d="M132.895 220.813C132.678 219.033 132.44 217.688 132.381 216.343C132.302 214.425 134.24 213.99 134.755 214.959C135.823 216.937 136.554 219.449 136.317 221.624C136.179 222.91 134.062 224.492 132.559 224.927C131.412 225.264 129.513 224.354 128.485 223.404C127.753 222.732 127.931 221.07 127.713 219.844C128.742 219.983 129.79 220.121 130.819 220.279C131.372 220.378 131.906 220.556 132.895 220.813Z" fill="white"/>
<path d="M148.442 243.262C146.424 242.076 144.585 241.126 142.943 239.92C142.488 239.584 142.231 238.298 142.528 237.823C142.805 237.349 143.932 237.012 144.585 237.171C146.345 237.566 147.71 237.606 148.442 235.568C148.541 235.311 150.083 235.193 150.202 235.39C151.092 237.151 152.14 238.97 152.378 240.849C152.437 241.423 150.103 242.274 148.442 243.262Z" fill="white"/>
<path d="M138.038 271.804C136.159 273.821 134.319 275.858 132.401 277.817C131.867 278.37 131.135 278.766 130.443 279.122C129.909 279.399 128.959 279.854 128.781 279.676C128.287 279.181 127.792 278.331 127.891 277.718C128.05 276.748 128.465 275.542 129.177 275.008C131.55 273.267 134.102 271.764 136.594 270.182C137.069 270.736 137.563 271.27 138.038 271.804Z" fill="white"/>
<path d="M164.482 266.167C167.588 264.802 174.154 266.958 174.886 269.667C175.005 270.083 173.423 271.527 172.612 271.527C168.814 271.546 166.698 268.817 164.482 266.167Z" fill="white"/>
<path d="M165.689 260.846C168.893 260.174 171.465 259.343 174.075 259.204C175.974 259.106 177.181 260.391 175.757 262.369C174.234 264.446 168.003 263.951 165.689 260.846Z" fill="white"/>
<path d="M155.562 213.93C154.87 213.277 153.822 212.743 153.545 211.933C152.971 210.33 152.556 208.57 152.556 206.889C152.556 205.742 153.426 204.614 153.901 203.487C154.652 204.456 155.859 205.346 156.076 206.414C156.492 208.629 156.393 210.944 156.492 213.218C156.195 213.455 155.879 213.693 155.562 213.93Z" fill="white"/>
<path d="M158.727 236.557C158.648 239.94 156.294 243.539 154.573 243.203C153.94 243.084 152.892 241.502 153.09 241.166C154.296 239.01 155.8 237.032 157.224 234.995C157.817 235.628 158.43 236.261 158.727 236.557Z" fill="white"/>
<path d="M133.489 229.219C131.629 230.129 129.81 231.276 127.852 231.83C127.318 231.988 126.309 230.406 125.498 229.635C127.298 228.586 129.058 227.38 130.957 226.589C131.491 226.371 132.539 227.38 133.35 227.815C133.39 228.29 133.429 228.745 133.489 229.219Z" fill="white"/>
<path d="M169.032 252.183C169.19 256.396 167.825 258.077 163.85 258.888C162.94 255.506 165.274 252.341 169.032 252.183Z" fill="white"/>
<path d="M103.365 206.177C101.882 204.337 100.992 203.23 100.082 202.102C101.704 201.074 103.345 200.045 105.422 198.76C105.244 198.048 104.928 196.703 104.592 195.338C107.222 194.487 110.901 196.96 112.226 200.283C114.006 204.753 113.532 205.544 107.064 208.748C106.134 209.203 105.224 209.757 104.255 210.054C103.128 210.41 101.921 210.528 100.754 210.766C101.229 209.401 101.644 208.016 102.238 206.711C102.396 206.394 103.069 206.315 103.365 206.177Z" fill="white"/>
<path d="M69.0683 178.684C67.7432 178.526 66.3784 178.506 65.0927 178.17C64.2225 177.932 63.4709 177.28 62.6797 176.805C63.2928 176.132 63.8665 175.401 64.5587 174.827C65.1521 174.313 65.8839 173.937 66.5366 173.522C65.9828 171.465 63.0753 169.665 65.8246 167.212C71.9363 169.882 74.1713 175.638 73.4593 178.882C72.5495 183.055 68.1387 187.367 64.7565 187.387C63.4708 183.174 67.0311 181.591 69.6024 179.475C69.4243 179.218 69.2464 178.941 69.0683 178.684Z" fill="white"/>
<path d="M95.9877 167.331C97.6096 166.322 98.6974 165.65 99.7853 164.977C101.684 168.28 100.379 172.928 96.9568 173.541C95.7899 173.759 93.5351 171.603 92.9022 170.08C92.111 168.201 92.3088 165.808 92.467 163.672C92.5263 162.861 93.6736 162.149 94.346 161.397C94.7812 162.208 95.3745 162.96 95.6317 163.83C95.8888 164.661 95.8294 165.61 95.9877 167.331Z" fill="white"/>
<path d="M111.752 174.234C110.288 175.341 109.932 175.776 109.477 175.954C105.778 177.319 102.099 178.704 98.3414 179.91C97.6491 180.128 96.2844 179.871 95.9877 179.376C95.6514 178.822 95.9284 177.557 96.3833 176.943C98.4008 174.293 106.451 172.157 109.457 173.344C110.09 173.601 110.723 173.838 111.752 174.234Z" fill="white"/>
<path d="M219.468 308.87C222.93 308.889 225.976 311.619 225.896 314.685C225.798 318.205 221.308 322.161 218.143 322.181C215.928 322.181 212.19 317.948 212.11 315.476C212.012 312.054 215.552 308.87 219.468 308.87ZM218.697 319.59C220.576 317.375 222.099 316.188 222.633 314.645C222.811 314.111 220.418 311.777 219.488 311.955C218.024 312.212 216.323 313.656 215.71 315.041C215.394 315.733 217.194 317.394 218.697 319.59Z" fill="white"/>
<path d="M143.536 317.731C143.536 321.746 141.954 323.348 137.919 323.368C132.876 323.407 130.383 321.489 130.344 317.572C130.324 313.261 132.974 310.294 136.812 310.353C140.926 310.412 143.536 313.28 143.536 317.731ZM141.025 318.462C141.084 317.948 141.143 317.454 141.183 316.94C139.798 315.713 138.493 313.735 136.97 313.557C135.941 313.439 133.924 315.674 133.548 317.157C132.796 320.163 135.605 320.361 137.524 320.341C138.71 320.341 139.858 319.135 141.025 318.462Z" fill="white"/>
<path d="M76.4856 89.1244C78.7206 86.8893 83.2896 89.3815 83.2896 83.606C85.3466 86.3751 86.7113 88.175 88.1156 90.054C90.9044 89.6188 91.7945 85.0301 95.6515 86.6124C95.8492 90.2716 92.6253 91.6957 91.0034 94.0889C88.9859 97.0953 86.7904 98.1634 83.7642 95.513C81.3512 93.4164 78.9777 91.3001 76.4856 89.1244Z" fill="white"/>
<path d="M89.0057 113.828C89.3618 113.512 89.9156 112.582 90.4496 112.582C91.3001 112.582 92.6055 113.018 92.9022 113.631C94.0692 116.202 95.0977 118.18 97.9656 115.193C98.1041 115.035 99.8645 115.905 100.22 116.637C100.517 117.23 100.122 118.457 99.6469 119.149C96.0273 124.45 93.2582 124.193 90.588 118.358C89.9749 117.013 89.6189 115.569 89.0057 113.828Z" fill="white"/>
<path d="M32.9519 154C32.2201 152.318 31.4092 151.132 31.2114 149.866C31.0729 148.976 31.8048 147.967 32.141 146.998C33.0113 147.314 34.0991 147.393 34.732 147.987C35.6617 148.857 36.2551 150.064 37.6 152.002C37.778 149.708 37.7582 148.481 38.0154 147.295C38.1538 146.622 38.6483 145.712 39.1823 145.514C39.7164 145.336 40.9625 145.791 41.1207 146.226C41.6745 147.868 42.6832 149.945 42.1294 151.25C39.8746 156.571 37.4616 160.309 30.3016 158.826C29.2731 158.608 28.383 157.698 27.4336 157.105C28.3039 156.235 29.0752 155.206 30.084 154.514C30.6773 154.118 31.607 154.217 32.9519 154Z" fill="white"/>
</svg>
