<svg width="500" height="380" viewBox="0 0 500 380" fill="none" xmlns="http://www.w3.org/2000/svg">
<path d="M100.11 104.109C114.851 72.8864 129.079 42.6876 149.244 0C179.851 64.6968 191.622 139.426 288.764 111.07C288.15 117.826 287.638 124.685 287.024 131.441C264.811 150.584 242.599 169.727 220.898 188.46C227.04 215.281 232.977 240.873 241.882 279.159C200.425 261.961 170.126 249.369 137.677 235.959C115.567 248.755 91.4096 262.78 60.1891 280.899C62.2363 241.692 72.0631 208.729 63.1575 182.011C54.4567 155.702 26.8189 135.741 0 104.109C41.6615 104.109 71.0394 104.109 100.11 104.109ZM236.355 143.213C166.953 150.993 170.945 89.47 147.914 44.5303C124.473 90.289 120.071 150.789 44.7324 124.48C62.9529 147.615 83.1183 158.671 90.5907 175.459C97.8584 191.838 92.2286 214.052 92.2286 245.889C129.898 187.129 167.26 227.565 206.67 237.085C200.733 213.438 196.229 195.728 191.827 178.121C207.693 165.632 222.024 154.474 236.355 143.213Z" fill="white"/>
<path d="M341.573 282.746C366.058 282.746 381.528 282.746 397.61 282.746C405.233 266.482 413.024 249.938 423.875 226.966C440.458 261.955 447.358 301.973 498.164 289.733C498.776 293.31 499.388 296.943 500 300.52C488.147 309.966 476.35 319.412 462.995 330.087C465.833 343.278 469.005 358.145 473.679 379.775C451.754 370.274 435.394 363.175 417.698 355.518C406.068 362.56 393.102 370.497 380.137 378.378C377.577 378.154 375.017 377.931 372.457 377.651C391.377 338.527 369.619 312.76 341.573 282.746ZM424.877 247.982C416.307 266.929 413.747 281.684 405.011 289.342C397.331 296.105 382.807 294.931 366.058 298.341C387.092 313.879 405.512 328.131 391.544 358.145C412.69 328.466 433.224 351.997 456.985 355.853C441.348 330.534 452.811 315.946 479.745 299.458C436.785 304.6 433.168 278.555 424.877 247.982Z" fill="white"/>
</svg>
