<svg width="349" height="500" viewBox="0 0 349 500" fill="none" xmlns="http://www.w3.org/2000/svg">
<path d="M63.2912 0C75.1809 9.90055 89.1954 18.1284 98.4178 30.0633C113.834 50.0904 129.25 51.085 149.458 38.5172C158.364 33.0018 169.44 31.0126 186.393 24.9548C176.085 52.4864 168.4 73.1465 160.262 94.9368C176.899 108.228 193.535 121.519 210.127 134.81C207.912 138.698 205.742 142.631 203.526 146.519C184.403 146.519 165.235 147.514 146.203 146.203C132.459 145.253 125.136 148.825 118.671 162.025C110.669 178.346 98.1918 192.496 87.6583 207.595C84.991 207.279 82.369 206.962 79.7017 206.691C74.3672 184.855 69.0779 163.02 63.9693 142.044C42.9024 136.709 22.1971 131.465 1.49187 126.221C0.994584 123.78 0.497288 121.338 0 118.897C9.71972 113.291 18.9873 106.555 29.2948 102.306C49.9096 93.8066 59.9458 80.8771 56.8265 57.1881C54.5209 39.6926 56.3744 21.6547 56.3744 3.84271C58.6348 2.57688 60.9856 1.31103 63.2912 0ZM27.803 117.857C74.3672 117.948 83.7252 146.971 87.2063 185.488C102.939 138.969 134.449 126.628 176.492 133.951C177.306 134.087 178.481 132.279 182.143 129.069C140.235 111.121 146.157 81.1031 167.993 44.8915C155.922 50.3617 150.452 52.4864 145.344 55.1989C126.311 65.2803 110.488 64.5571 96.9711 44.982C90.1899 35.2171 79.7017 28.0742 69.1682 18.1284C62.9295 56.4648 89.0598 102.984 27.803 117.857Z" fill="white"/>
<path d="M148.327 500C154.384 394.123 141.229 290.687 109.764 189.557C150.406 227.577 180.515 464.964 148.327 500Z" fill="white"/>
<path d="M151.129 173.779C191.138 211.302 278.841 426.989 271.427 473.056C230.966 372.423 190.505 271.79 151.129 173.779Z" fill="white"/>
<path d="M173.689 161.799C225.995 166.23 345.66 303.797 348.689 364.105C342.767 355.922 336.845 347.74 330.968 339.512C304.883 302.893 280.244 265.054 252.125 230.063C236.89 211.076 215.687 196.836 197.061 180.606C190.552 175 183.59 169.801 173.689 161.799Z" fill="white"/>
</svg>
