<svg width="500" height="496" viewBox="0 0 500 496" fill="none" xmlns="http://www.w3.org/2000/svg">
<path d="M217.357 0C237.795 28.4338 261.093 46.2247 293.763 46.4894C325.797 46.7542 349.624 30.5253 370.433 2.54156C372.71 11.1458 374.537 16.123 375.331 21.2591C379.223 46.966 387.271 71.0579 403.712 91.5758C423.541 116.303 448.878 130.493 481.282 130.414C483.824 130.414 486.366 130.891 492.587 131.5C480.065 152.759 469.104 172.906 470.428 197.13C471.778 221.831 482.606 241.713 500 260.881C432.013 293.074 427.618 348.3 445.436 411.892C413.428 409.404 385.153 415.917 359.023 431.034C333.236 445.939 314.175 467.304 301.043 495.658C245.261 423.329 184.396 443.741 120.486 483.533C120.486 475.379 120.195 469.581 120.539 463.862C122.233 435.64 117.442 409.139 98.3533 387.139C82.1243 368.448 61.58 358.811 36.2967 360.611C33.5169 360.796 30.6841 359.923 26.2628 359.314C63.2479 299.216 67.378 245.632 0 205.311C67.7751 177.009 81.5948 124.193 68.7282 56.7881C74.3143 58.2442 79.1327 59.0914 83.6599 60.7593C109.287 70.0784 135.153 72.8317 161.31 63.4862C185.481 54.8555 202.452 38.4677 211.744 14.3757C213.068 10.9076 214.445 7.4129 217.357 0ZM130.838 465.98C189.85 432.781 247.406 421.635 299.984 478.609C331.357 429.498 376.205 404.109 433.84 402.494C418.273 341.788 428.836 291.856 484.115 257.625C455.602 220.348 453.643 181.431 475.882 140.554C408.212 131.367 378.773 85.9632 365.694 24.0655C343.826 45.0598 320.449 56.6557 291.751 55.8615C262.814 55.0408 240.151 41.3798 220.825 21.0208C188.341 79.821 139.336 88.3988 80.6682 69.7077C88.3194 129.302 72.6994 177.459 18.3999 207.455C70.7138 247.75 69.6548 297.178 42.333 350.815C101.716 359.552 121.598 385.577 130.838 465.98Z" fill="white"/>
<path d="M93.0317 242.296C92.4757 184.925 131.896 130.017 191.941 106.004C226.993 91.9993 262.999 89.4578 299.56 99.0151C362.014 115.35 402.785 164.54 410.065 234.036C412.078 253.097 412.078 272.953 409.192 291.856C402.282 336.89 374.96 367.283 334.242 385.788C302.79 400.111 269.273 405.83 234.962 403.579C162.183 398.867 115.032 355.528 98.0883 278.884C95.4409 266.917 94.6731 254.501 93.0317 242.296ZM248.014 394.79C248.279 395.928 248.544 397.093 248.808 398.231C273.112 392.672 298.184 389.336 321.508 381.076C365.376 365.535 393.889 334.613 400.958 287.409C403.288 271.894 403.235 255.692 401.858 239.993C394.075 150.402 330.668 96.3941 242.11 102.933C166.896 108.493 84.9569 177.38 105.528 272.609C122.233 350.048 171.529 394.896 248.014 394.79Z" fill="white"/>
<path d="M312.507 355.184C381.526 294.477 385.921 226.993 335.566 153.156C365.827 165.546 384.941 228.158 374.193 275.23C365.456 313.486 333.925 356.534 312.507 355.184Z" fill="white"/>
<path d="M302.314 368.765C295.43 370.883 288.52 372.975 281.637 375.092C281.002 373.001 280.393 370.91 279.757 368.818C286.667 366.727 293.551 364.662 300.461 362.57C301.069 364.635 301.705 366.7 302.314 368.765Z" fill="white"/>
</svg>
