<svg width="500" height="493" viewBox="0 0 500 493" fill="none" xmlns="http://www.w3.org/2000/svg">
<path d="M243.521 492.476C221.018 488.611 191.941 486.299 164.453 478.425C48.9765 445.411 -13.2587 346.333 2.38137 227.136C31.3499 6.15193 262.303 -46.8365 402.269 38.9492C457.858 73.0107 489.247 122.17 497.23 186.645C503.081 233.782 499.541 280.269 487.766 326.25C463.674 420.235 399.199 468.6 307.273 485.324C288.454 488.755 269.13 489.695 243.521 492.476ZM260.533 480.881C271.297 479.617 291.272 478.642 310.632 474.777C389.302 459.028 448.323 418.79 473.065 338.748C489.247 286.373 494.701 232.807 486.249 178.265C479.747 136.293 461.832 99.7758 429.396 72.3966C354.843 9.36665 269.058 -6.81524 177.601 24.1399C88.131 54.4448 32.7586 118.342 16.1793 212.868C0.683737 301.291 19.2495 378.588 94.8132 434.25C140.975 468.203 194.939 479.689 260.533 480.881Z" fill="white"/>
<path d="M281.23 215.867C297.774 199.36 312.113 199.685 326.706 206.367C342.454 213.591 350.148 226.703 349.642 244.004C349.245 256.538 344.911 266.905 328.837 270.3C340.504 254.551 347.511 238.839 333.677 222.007C319.988 205.356 302.758 209.654 281.23 215.867Z" fill="white"/>
<path d="M86.8681 370.606C85.929 355.219 88.9993 338.748 83.2201 326.358C75.4181 309.599 58.1886 314.655 43.0903 319.279C50.8923 308.551 61.5478 305.3 74.3344 308.009C90.444 311.369 96.8012 323.505 98.6072 337.953C100.233 350.667 100.341 363.924 86.8681 370.606Z" fill="white"/>
<path d="M215.529 450.793C213.109 439.776 218.852 428.615 230.085 423.956C238.754 420.38 251.721 419.874 259.776 423.919C271.082 429.626 278.45 441.365 275.127 457.114C264.869 447.036 256.633 432.552 246.122 430.674C237.706 429.193 226.581 442.991 215.529 450.793Z" fill="white"/>
<path d="M225.389 166.309C218.093 169.054 210.688 174.256 203.464 174.039C188.547 173.57 176.807 165.479 172.906 150.38C170.017 139.183 166.838 126.649 180.6 118.305C182.153 159.772 182.153 159.772 225.389 166.309Z" fill="white"/>
<path d="M442.219 309.165C432.43 317.762 419.644 324.336 414.984 334.63C411.914 341.384 420.583 353.449 425.098 366.271C419.608 363.454 411.553 361.792 407.616 356.844C397.321 343.949 402.884 330.259 410.686 318.556C419.21 305.661 432.069 306.492 442.219 309.165Z" fill="white"/>
<path d="M69.1329 166.056C83.9061 169.524 92.4666 182.997 90.191 202.719C87.9154 222.44 77.6212 232.229 61.0059 231.651C67.363 221.971 78.3074 212.29 79.5716 201.49C80.872 190.076 72.9256 177.615 69.1329 166.056Z" fill="white"/>
<path d="M235.323 338.242C233.047 349.331 223.006 352.112 212.169 350.848C199.311 349.331 189.269 342.757 188.511 328.164C187.933 316.425 192.701 308.045 203.031 305.228C202.236 315.775 198.263 331.885 201.406 333.402C210.941 338.025 223.186 336.978 235.323 338.242Z" fill="white"/>
<path d="M237.779 156.882C234.492 142.687 234.817 129.214 228.496 120.762C222.175 112.309 209.171 108.842 199.021 103.171C210.219 94.8995 221.199 101.257 230.952 109.095C244.822 120.22 247.35 136.727 237.779 156.882Z" fill="white"/>
<path d="M307.021 281.714C292.753 291.322 283.289 284.17 275.487 276.404C265.663 266.616 261.292 254.732 270.214 240.79C283.506 270.842 283.506 270.842 307.021 281.714Z" fill="white"/>
<path d="M339.421 63.5831C332.522 90.7095 353.074 98.0058 370.593 107.758C353.074 112.598 342.346 103.532 335.158 92.2265C330.716 85.2192 331.727 74.7082 330.282 65.7865C333.316 65.064 336.387 64.3055 339.421 63.5831Z" fill="white"/>
<path d="M465.877 183.105C447.926 193.074 439.618 185.634 434.597 176.242C427.843 163.6 427.806 150.38 441.893 139.508C435.897 159.772 433.261 178.157 465.877 183.105Z" fill="white"/>
</svg>
