<svg width="493" height="500" viewBox="0 0 493 500" fill="none" xmlns="http://www.w3.org/2000/svg">
<path d="M245.046 0.012508C437.596 1.37041 554.725 206.569 458.818 374.522C393.173 489.517 216.491 536.422 102.815 468.605C32.7864 426.859 5.2016 359.973 0.58474 283.116C-6.47635 165.638 50.9823 68.9164 142.078 22.9418C174.435 6.60816 208.926 -0.336667 245.046 0.012508ZM12.9223 240.865C121.787 265.346 222.815 254.988 318.722 204.047C361.127 181.545 397.208 151.787 419.75 108.373C422.659 102.786 423.59 92.4274 420.37 88.0433C411.835 76.4818 400.467 66.9765 390.341 56.7728C289.857 150.856 142.427 199.702 26.5013 177.471C22.0785 197.917 17.7332 218.363 12.9223 240.865ZM453.154 136.656C350.07 302.281 199.925 344.726 17.3452 316.093C23.8631 334.6 29.993 351.399 35.6574 368.392C39.5759 380.186 47.1802 384.842 59.6341 386.898C110.575 395.317 161.399 396.054 211.913 385.54C317.286 363.62 401.204 308.644 461.806 219.372C466.849 211.923 471.466 201.06 469.992 192.951C466.578 174.212 459.284 156.21 453.154 136.656ZM434.725 107.985C327.218 253.319 181.03 281.952 13.4266 252.039C13.4266 261.467 13.8922 270.429 13.3102 279.352C12.1851 296.733 19.867 304.027 37.287 306.821C88.7708 315.046 140.293 317.723 191.506 307.791C297.228 287.267 383.397 237.335 436.82 139.76C443.61 127.5 445.782 117.335 434.725 107.985ZM355.424 37.607C232.204 -15.6227 109.411 24.3771 57.7719 118.809C168.033 135.104 263.242 101.351 355.424 37.607ZM479.303 221.738C477.48 221.428 475.656 221.156 473.833 220.846C369.507 364.628 229.682 424.454 52.6894 397.063C65.9193 423.949 84.3479 440.904 114.493 440.128C156.317 439.08 199.149 443.076 239.692 435.239C340.254 415.763 420.099 363.077 468.983 270.468C476.432 256.307 476.044 238.072 479.303 221.738ZM475.889 282.611C384.91 414.173 263.125 468.45 109.333 454.444C193.64 493.823 277.403 491.495 358.915 450.603C425.297 417.393 464.133 362.223 475.889 282.611ZM30.7302 166.375C122.136 196.443 325.046 127.539 377.926 49.4401C372.999 46.5691 368.149 43.6981 365.511 42.185C269.216 107.481 169.197 149.653 49.5469 127.384C43.4945 139.876 37.1706 152.99 30.7302 166.375Z" fill="white"/>
<path d="M58.5495 340.147C76.5514 340.147 94.5533 340.147 112.555 340.147C112.555 341.311 112.555 342.436 112.555 343.6C94.4369 343.6 76.2799 343.6 58.1616 343.6C58.3168 342.436 58.4331 341.311 58.5495 340.147Z" fill="white"/>
</svg>
