<svg width="492" height="500" viewBox="0 0 492 500" fill="none" xmlns="http://www.w3.org/2000/svg">
<path d="M491.45 252.414C489.9 376.755 405.558 472.648 277.302 495.051C235.325 502.376 193.58 502.299 152.727 489.857C84.3935 469.082 37.8815 424.934 15.9046 356.484C-13.1654 265.902 -3.12653 179.506 52.1451 101.986C116.099 12.3345 205.169 -15.5339 311.41 7.91586C403.814 28.3036 467.264 97.7226 485.365 198.692C488.543 216.367 489.474 234.506 491.45 252.414ZM368.93 438.888C371.178 439.818 373.465 440.748 375.713 441.64C434.357 403.616 469.008 350.709 476.218 279.468C426.45 284.468 423.969 283.073 399.667 238.344C399.047 237.22 398.388 236.096 397.69 235.01C386.566 216.793 375.713 214.971 360.597 229.778C350.946 239.235 343.194 250.747 333 259.507C311.294 278.15 286.061 270.592 279.821 242.801C276.837 229.468 279.278 214.816 279.86 200.824C280.79 178.847 275.906 173.304 253.891 172.529C224.743 171.483 211.991 156.211 220.79 128.343C226.294 110.901 236.061 94.3892 246.061 78.8852C257.534 61.0944 260.945 43.2649 252.379 24.0012C250.48 19.7376 244.705 13.8849 241.1 14.1949C218.387 15.9779 195.79 19.2337 178.154 21.4043C174.937 44.7378 174.937 63.0325 169.549 79.583C161.022 105.785 161.875 129.777 173.735 154.545C180.673 168.963 186.371 184.351 189.937 199.933C195.867 225.941 181.487 252.84 159.704 260.398C137.611 268.073 112.572 257.259 99.1222 234.08C95.2462 227.375 92.1842 220.204 88.2694 213.576C76.7965 194.119 67.7266 192.103 49.1219 204.312C42.1063 208.886 34.3544 212.568 28.1141 218.034C23.114 222.413 17.4162 228.46 16.4085 234.507C9.70301 274.274 16.5635 312.84 29.2768 350.592C30.2458 353.461 32.6489 355.864 34.3931 358.5C25.0132 321.988 47.1064 308.267 75.0523 297.956C80.9826 295.786 85.7888 290.67 91.6415 288.111C106.874 281.522 121.991 273.848 137.96 269.972C157.068 265.321 166.913 273.073 167.146 292.646C167.301 307.879 162.766 323.112 161.487 338.422C160.944 344.934 162.068 352.492 165.285 357.879C166.565 360.011 175.983 358.616 181.061 356.872C216.139 344.972 223.58 348.267 244.666 379.391C249.86 387.027 262.379 394.973 270.364 393.926C278.503 392.841 287.379 382.027 291.953 373.345C296.875 364.003 297.03 352.22 299.589 341.561C303.736 324.197 313.348 314.778 332.767 316.949C339.976 317.763 348.077 315.708 355.015 313.034C380.674 303.15 402.147 315.98 400.364 343.422C399.318 359.507 391.643 375.283 386.333 390.98C380.907 407.066 374.783 422.918 368.93 438.888ZM224.472 481.33C224.666 483.035 224.898 484.741 225.092 486.446C260.17 478.927 295.364 471.872 330.287 463.772C349.667 459.275 361.837 449.857 362.806 426.097C363.465 409.663 374.163 393.655 380.171 377.414C383.736 367.802 389.163 358.189 389.628 348.344C390.016 340.437 386.14 330.554 380.752 324.546C372.884 315.786 315.79 329.507 311.565 340.515C308.581 348.189 308 356.794 306.217 364.972C302.031 383.848 296.255 402.066 273.852 405.98C251.759 409.818 239.007 397.415 230.325 378.655C222.379 361.484 209.084 357.453 191.952 364.779C188.386 366.29 184.82 367.802 181.138 369.003C161.216 375.476 147.611 365.67 148.735 344.662C149.239 335.127 153.425 325.786 153.851 316.251C154.355 305.786 156.099 289.429 150.75 286.096C143.037 281.29 129.161 284.468 118.502 286.91C110.711 288.693 103.851 294.701 96.7191 299.042C89.5485 303.344 83.0756 309.817 75.3236 311.988C54.0832 317.918 43.3079 329.546 47.3002 352.492C47.9203 356.096 47.4165 360.67 45.6723 363.81C39.2769 375.283 44.0056 384.352 49.9746 394.081C90.0524 459.275 150.867 482.88 224.472 481.33ZM259.162 15.474C277.263 47.0634 264.743 72.4124 247.495 97.4901C241.371 106.366 236.371 116.521 233.154 126.793C225.557 151.095 232.999 160.63 258.154 160.979C281.914 161.328 291.1 170.01 291.1 193.615C291.1 205.824 287.418 218.344 289.278 230.127C290.713 239.235 296.333 251.871 303.387 254.662C310.17 257.375 321.372 249.933 330.209 245.979C333.426 244.545 335.79 240.631 337.845 237.414C364.395 196.25 399.047 198.111 415.481 246.251C421.644 264.39 436.062 271.832 455.093 270.359C470.559 269.158 481.14 263.848 477.923 245.359C473.621 220.669 472.109 195.165 465.132 171.289C437.031 75.1644 356.333 13.7298 259.162 15.474ZM164.316 30.5516C96.7966 48.4587 20.3621 146.638 23.3853 208.925C32.0676 202.917 39.897 197.452 47.8041 192.142C67.8042 178.692 82.1841 181.56 94.626 201.987C100.324 211.328 104.665 221.483 110.634 230.592C122.107 248.072 139.626 255.127 155.053 249.468C170.014 243.964 181.099 226.173 178.58 206.987C176.836 193.847 173.425 179.971 166.991 168.537C149.045 136.521 146.642 104.699 159.743 70.3581C164.2 58.7301 162.882 44.9316 164.316 30.5516Z" fill="white"/>
<path d="M411.916 330.088C400.017 307.53 385.443 290.127 355.598 298.615C356.179 295.786 356.761 292.918 357.342 290.088C368.815 290.67 381.334 288.538 391.528 292.491C406.373 298.228 413.815 311.561 411.916 330.088Z" fill="white"/>
</svg>
