<svg width="500" height="386" viewBox="0 0 500 386" fill="none" xmlns="http://www.w3.org/2000/svg">
<path d="M307.677 321.474C258.407 304.941 233.179 319.959 206.107 351.247C173.897 388.463 125.285 393.271 78.3208 377.528C34.9131 363.037 15.6135 328.719 11.5955 284.785C8.43377 249.874 8.03856 214.568 2.57144 180.053C-17.5845 51.6085 83.8538 -15.9072 198.202 3.19477C203.604 4.11694 209.005 5.30268 214.077 7.21288C275.137 30.5305 336.198 49.3032 403.318 52.0697C457.529 54.3092 490.792 93.8306 497.972 141.849C507.655 206.796 482.361 269.569 428.546 291.569C388.103 308.168 342.851 313.174 307.677 321.474ZM22.398 179.987C25.4939 216.017 27.9969 252.114 31.8831 288.078C37.2844 337.085 68.7039 364.618 117.974 364.552C155.19 364.486 184.502 350.061 209.927 321.671C225.999 303.689 239.041 259.162 276.586 299.803C277.64 300.923 280.868 300.396 283.042 300.132C321.048 296.312 360.504 297.432 396.797 287.354C457.792 270.557 489.673 212.197 479.99 148.238C471.954 95.3456 431.049 68.8662 363.204 65.5727C330.138 63.9919 297.269 53.9797 264.796 45.9437C244.706 40.9376 225.933 30.8598 205.843 25.9197C88.8598 -3.0627 13.5057 60.6984 22.398 179.987Z" fill="white"/>
<path d="M180.482 113.393C181.931 117.609 182.787 118.794 182.59 119.651C173.368 157.591 142.739 184.466 114.876 178.142C90.2412 172.478 86.4866 153.771 88.5286 132.232C92.2831 93.2372 124.888 56.3507 155.978 59.71C166.847 60.8956 176.595 72.291 184.368 82.7641C146.427 68.8658 116.062 83.8838 106.643 125.842C104.337 135.986 106.708 152.519 113.427 157.723C119.355 162.334 136.942 158.777 144.781 152.783C158.284 142.507 168.098 127.555 180.482 113.393Z" fill="white"/>
<path d="M329.345 145.471C322.824 151.334 316.303 157.262 307.082 165.561C334.483 187.232 362.609 181.567 388.957 173.992C398.969 171.094 405.885 157.393 417.28 145.405C429.4 161.411 424.131 180.513 404.436 184.202C373.478 189.999 340.477 189.01 308.926 185.519C301.022 184.663 295.489 163.058 288.836 150.938C300.956 145.998 313.01 141.058 325.13 136.118C326.579 139.214 327.962 142.309 329.345 145.471Z" fill="white"/>
<path d="M143.793 321.341C129.565 304.676 118.235 289.066 104.403 276.155C98.1454 270.293 84.2471 264.694 78.7799 267.79C72.193 271.478 70.8757 284.586 65.2768 298.616C60.3366 291.371 51.3785 283.994 52.4982 278.658C54.4743 269.371 63.5642 253.562 67.9116 254.089C87.1453 256.526 107.96 260.347 124.032 270.359C140.894 280.832 154.266 298.551 143.793 321.341Z" fill="white"/>
</svg>
