<svg width="493" height="500" viewBox="0 0 493 500" fill="none" xmlns="http://www.w3.org/2000/svg">
<path d="M492.607 251.863C491.689 377.21 408.069 475.67 279.096 495.845C241.538 501.723 200.812 501.681 163.837 493.678C66.2942 472.543 7.97694 397.677 0.723751 286.087C-4.65361 202.967 19.7322 128.017 80.6339 68.4076C153.916 -3.29059 241.455 -14.1704 335.454 15.1758C424.577 42.9797 467.054 111.843 486.145 198.298C490.022 215.764 490.564 233.98 492.607 251.863ZM169.256 140.648C168.381 137.271 167.505 133.853 166.588 130.476C130.781 128.726 94.9318 126.808 59.0827 125.474C55.7896 125.349 50.8291 128.267 49.2034 131.185C29.4447 166.451 16.6892 203.8 15.3969 247.695C59.9582 247.695 102.268 246.944 144.495 248.028C162.295 248.487 180.261 251.905 197.644 256.032C202.771 257.24 209.399 265.327 209.607 270.538C209.816 275.332 202.729 284.461 198.269 284.836C166.005 287.545 133.574 288.504 101.226 290.005C101.101 287.67 100.976 285.295 100.851 282.96C133.699 274.498 169.715 287.462 201.645 269.079C140.41 251.655 77.8826 257.532 14.3964 254.281C12.3122 307.304 23.9423 354.241 51.2877 396.843C54.1639 401.345 63.9182 403.805 70.2543 403.388C106.27 401.012 142.161 396.01 178.177 394.843C197.894 394.217 218.069 398.177 237.411 402.638C243.622 404.055 247.874 413.768 253.043 419.729C247.165 424.731 241.871 433.026 235.327 434.193C212.192 438.278 188.723 440.738 165.254 442.072C155.375 442.614 145.204 438.82 135.2 436.986C135.45 435.069 135.741 433.151 135.992 431.192C171.049 429.233 207.982 439.404 242.33 419.312C219.82 400.553 120.693 399.053 64.0432 415.268C82.5514 439.612 104.728 457.954 132.49 468.167C191.891 489.968 252.584 489.759 312.444 471.418C340.081 462.956 365.843 448.449 392.479 436.694C391.646 434.61 390.812 432.568 389.978 430.483C369.386 429.066 348.71 428.524 328.326 425.773C322.157 424.939 314.153 418.978 311.944 413.434C310.235 409.141 314.82 400.095 319.239 396.093C332.119 384.505 393.73 375.751 413.614 382.129C381.558 390.716 347.585 388.34 316.696 408.182C323.449 413.142 325.825 415.935 328.826 416.936C377.223 433.234 418.532 418.395 446.003 375.001C449.338 369.748 453.214 364.538 455.299 358.785C463.427 335.983 470.93 313.015 479.351 288.087C446.92 288.087 420.783 288.087 394.605 288.087C394.564 286.795 394.522 285.545 394.438 284.252C421.784 282.126 449.171 279.959 477.642 277.75C477.642 268.412 477.642 259.783 477.642 245.068C429.037 254.948 382.35 263.785 336.121 274.456C329.452 275.999 324.824 286.212 319.239 292.464C326.534 296.383 333.787 303.511 341.165 303.636C370.261 304.094 399.399 302.302 428.537 301.468C435.165 301.26 441.751 301.427 448.379 301.427C448.254 303.678 448.17 305.929 448.045 308.18C407.152 314.557 365.968 318.184 324.866 309.472C303.107 304.845 298.938 288.754 316.821 275.999C330.41 266.328 347.459 259.2 363.925 256.24C401.275 249.57 439.208 246.194 479.226 241.192C471.681 163.824 446.378 96.7117 379.89 50.8165C374.513 47.1066 366.843 43.855 360.757 44.6054C316.779 50.2328 272.885 56.569 229.158 63.7805C221.946 64.9893 215.61 71.4923 208.857 75.5774C209.774 77.4532 210.649 79.3289 211.566 81.2048C273.76 91.626 335.871 78.5787 398.065 76.8279C337.83 90.0837 277.262 96.7116 216.027 90.042C209.732 89.375 204.105 82.8305 198.144 78.9955C202.979 72.9928 206.689 63.7805 212.859 61.5712C231.033 55.11 250 50.0244 269.092 47.0648C295.853 42.8963 322.949 41.1456 352.628 38.0609C247.457 -12.1278 114.774 18.1354 61.5005 116.012C66.7111 116.304 71.3381 116.554 76.0068 116.804C101.643 118.346 127.321 119.722 152.916 121.598C165.63 122.515 181.053 124.516 180.344 140.022C180.094 145.566 163.295 153.737 153.458 154.779C130.781 157.113 107.687 155.863 84.8024 155.738C81.0508 155.738 77.2992 153.945 73.5058 152.986C73.7142 151.194 73.9226 149.36 74.0893 147.567C99.5589 147.567 125.028 148.026 150.456 147.234C156.792 147.025 162.962 142.94 169.256 140.648Z" fill="white"/>
<path d="M249.416 157.822C301.647 163.199 353.962 167.868 405.984 174.746C413.905 175.788 420.449 187.001 427.661 193.546C422.45 199.215 417.573 209.511 412.029 209.886C355.921 213.805 299.729 216.097 243.58 218.849C243.413 215.264 243.246 211.637 243.08 208.052C256.085 208.052 269.049 208.261 282.055 208.011C318.821 207.302 355.629 206.968 392.312 205.051C399.648 204.676 406.651 197.923 413.78 194.088C407.36 189.461 401.316 181.624 394.396 180.79C352.419 175.663 310.234 172.161 268.091 168.076C261.629 167.451 255.168 166.659 248.707 165.95C248.916 163.241 249.166 160.531 249.416 157.822Z" fill="white"/>
<path d="M226.655 344.487C172.381 341.236 118.107 338.026 63.7915 334.775C63.9582 331.732 64.125 328.73 64.2917 325.687C118.607 328.647 172.881 331.606 227.197 334.566C227.03 337.859 226.821 341.152 226.655 344.487Z" fill="white"/>
<path d="M65.3345 196.505C103.476 196.505 141.66 196.505 179.802 196.505C179.802 198.131 179.843 199.715 179.843 201.341C141.951 201.341 104.06 201.341 66.1682 201.341C65.9181 199.715 65.6263 198.131 65.3345 196.505Z" fill="white"/>
<path d="M257.003 339.526C280.305 341.277 303.607 343.028 326.951 344.779C326.784 347.322 326.575 349.823 326.409 352.366C303.023 350.698 279.638 349.072 256.253 347.405C256.461 344.779 256.753 342.153 257.003 339.526Z" fill="white"/>
</svg>
