<svg width="411" height="500" viewBox="0 0 411 500" fill="none" xmlns="http://www.w3.org/2000/svg">
<path d="M0 454.948C13.0992 449.139 21.9838 445.152 30.9254 441.222C127.916 398.621 195.292 332.043 201.101 220.415C205.088 143.073 158.671 76.1538 86.7392 46.9939C78.3671 43.5767 70.2229 39.6468 57.5793 33.9515C66.2931 27.0032 70.3937 21.7637 75.6903 19.8843C126.549 1.5454 179.06 -5.11815 232.368 4.16518C341.148 23.0736 410.118 109.699 410.004 224.972C409.89 357.103 325.03 468.958 204.233 494.245C139.933 507.686 77.9685 496.751 18.5665 470.097C13.156 467.648 8.99857 462.409 0 454.948ZM41.006 457.397C108.837 481.032 169.72 489.006 231.457 466.395C355.329 421.004 425.552 258.232 374.75 136.182C325.828 18.5742 180.769 -1.01744 107.641 34.5212C197.798 83.159 231.741 160.558 215.282 258.062C198.937 355.394 130.137 412.404 41.006 457.397Z" fill="white"/>
<path d="M206.796 373.505C241.594 320.824 272.576 267.288 268.817 201.451C265.001 134.816 237.379 81.6785 179.06 45.9121C180.483 43.9187 181.85 41.9821 183.274 39.9887C196.43 47.3926 211.352 52.6893 222.401 62.4282C304.641 135.043 297.351 306.585 206.796 373.505Z" fill="white"/>
</svg>
