<svg width="347" height="500" viewBox="0 0 347 500" fill="none" xmlns="http://www.w3.org/2000/svg">
<path d="M190.507 413.919C175.978 412.54 161.257 412.284 146.985 409.525C128.416 405.933 113.983 409.718 101.604 424.92C91.982 436.69 79.955 446.44 67.1263 458.916C57.0878 436.53 66.8698 417.768 68.0564 396.825C47.4342 390.378 26.4593 383.836 0 375.593C20.0449 361.353 36.1129 349.936 51.3149 339.128C47.6908 321.232 44.3232 304.554 40.9557 287.909C42.7196 286.851 44.4836 285.792 46.2475 284.734C62.0589 293.714 77.8704 302.726 92.9121 311.257C110.071 202.854 175.273 129.763 260.295 70.7506C262.636 71.8732 264.977 72.9956 267.287 74.1181C263.919 84.6377 260.551 95.1573 256.446 107.954C280.949 99.7115 304.49 90.4427 332.392 97.274C319.499 110.84 306.575 124.439 293.586 138.101C311.353 141.277 328.48 144.355 345.606 147.434C345.83 149.262 346.087 151.058 346.312 152.887C341.854 155.965 337.588 159.493 332.873 162.091C298.332 181.206 263.278 199.487 229.185 219.404C198.108 237.556 170.141 259.814 148.332 288.967C144.932 293.489 141.822 298.204 136.017 306.479C147.883 301.315 155.612 297.947 163.374 294.58C164.593 295.735 165.843 296.889 167.062 298.076C161.321 310.776 156.222 323.829 149.647 336.113C144.131 346.408 144.291 354.65 152.469 363.438C166.164 378.095 179.217 393.329 192.527 408.339C191.854 410.167 191.18 412.059 190.507 413.919ZM106.35 326.042C113.695 318.922 120.494 314.625 124.086 308.435C141.308 278.833 162.925 252.822 191.565 234.509C231.078 209.237 272.29 186.658 312.732 162.925C317.383 160.199 321.937 157.377 326.555 154.586C326.138 153.56 325.689 152.534 325.272 151.475C307.312 151.475 289.32 151.475 267.639 151.475C283.868 134.445 297.594 120.045 311.321 105.645C310.519 104.041 309.718 102.47 308.916 100.866C285.664 109.141 262.412 117.383 235.407 127.005C242.142 112.957 247.21 102.373 253.175 89.8975C179.602 124.439 89.6408 266.293 106.35 326.042ZM170.173 404.65C170.013 402.598 169.82 400.545 169.66 398.493C160.167 387.781 150.77 376.972 141.18 366.357C133.098 357.409 131.206 348.108 137.716 337.235C141.597 330.789 144.195 323.541 147.37 316.677C137.171 318.987 129.378 322.514 122.386 327.229C111.802 334.381 103.239 334.638 92.7517 325.69C81.4303 316.068 67.9281 309.012 55.388 300.802C55.388 312.091 57.0237 321.103 60.8082 329.121C65.4906 339.096 62.4759 344.869 53.9768 350.321C44.3553 356.511 35.3111 363.598 24.1501 371.681C39.8653 376.395 52.4053 381.174 65.4265 383.772C79.1532 386.53 80.7569 394.612 78.3835 405.965C76.4272 415.298 74.6631 424.695 72.803 434.06C73.9896 435.215 75.1763 436.401 76.3309 437.556C98.5246 401.347 128.127 385.728 170.173 404.65Z" fill="white"/>
<path d="M99.6157 29.7305C104.908 18.7299 109.43 9.36497 113.952 0C115.331 0.0962155 116.742 0.160316 118.121 0.256532C121.585 9.52529 122.739 21.1995 129.186 27.3894C134.991 32.9699 146.601 32.5529 161.29 36.1449C151.861 44.0346 145.222 49.5509 137.621 55.9012C139.449 63.406 141.502 71.8088 144.484 84.1244C124.054 75.5933 106.062 63.9833 87.2039 84.7017C96.633 61.2893 85.2796 46.2475 67.9287 29.7305C81.9762 29.7305 91.4374 29.7305 99.6157 29.7305ZM143.009 40.2822C121.745 41.982 121.168 25.4651 116.101 11.0648C106.704 22.6748 107.602 44.6119 80.3085 32.9057C92.2071 47.4343 105.966 54.6183 97.6593 66.0359C109.333 66.6773 120.815 67.3509 132.393 67.9923C125.915 57.152 130.116 48.0436 143.009 40.2822Z" fill="white"/>
<path d="M242.111 444.323C256.222 444.323 265.138 444.323 274.407 444.323C278.801 434.99 283.291 425.497 289.545 412.316C299.102 432.393 303.079 455.356 332.361 448.332C332.714 450.385 333.066 452.469 333.419 454.522C326.588 459.942 319.789 465.362 312.091 471.488C313.727 479.057 315.555 487.588 318.249 500C305.613 494.548 296.184 490.475 285.985 486.081C279.282 490.122 271.809 494.676 264.337 499.198C262.861 499.07 261.386 498.942 259.911 498.781C270.815 476.331 258.275 461.546 242.111 444.323ZM290.122 424.375C285.183 435.247 283.708 443.714 278.673 448.108C274.247 451.988 265.876 451.315 256.222 453.271C268.345 462.187 278.961 470.365 270.911 487.588C283.099 470.558 294.933 484.06 308.628 486.273C299.616 471.745 306.222 463.374 321.745 453.913C296.986 456.863 294.901 441.918 290.122 424.375Z" fill="white"/>
</svg>
