<svg width="500" height="436" viewBox="0 0 500 436" fill="none" xmlns="http://www.w3.org/2000/svg">
<path d="M270.673 234.918C252.9 241.067 232.896 223.126 238.034 198.909C241.866 180.884 253.616 169.555 270.968 163.954C309.882 151.362 372.086 170.061 397.692 201.9C421.908 232.054 420.224 272.737 390.617 298.175C376.171 310.599 358.02 320.622 339.868 326.518C287.309 343.533 233.864 346.733 181.263 325.76C114.131 298.975 75.1749 225.779 90.4627 156.752C105.835 87.473 169.176 39.125 241.403 41.5677C246.288 41.7361 251.637 41.2728 255.933 43.0837C261.029 45.2737 265.198 49.6115 269.789 53.0228C264.272 55.2128 258.586 59.7193 253.322 59.256C192.339 54.2443 139.443 83.0509 115.437 135.189C78.2493 215.924 129.925 307.356 222.199 322.433C267.43 329.845 311.819 324.075 354.061 306.219C379.035 295.69 399.84 279.518 400.766 249.658C401.735 218.367 382.236 199.457 356.04 186.822C331.571 174.988 305.839 168.545 278.675 175.915C263.64 180 249.11 189.055 251.047 205.564C252.395 216.303 264.271 225.821 270.673 234.918Z" fill="white"/>
<path d="M296.659 207.122C321.338 209.733 333.215 227.547 322.012 246.246C315.4 257.281 303.187 268.567 291.226 272.105C249.827 284.234 210.113 277.791 177.052 248.647C135.864 212.302 141.633 157.089 188.297 128.072C277.497 72.606 425.321 107.225 480.281 196.382C514.689 252.269 503.949 320.832 448.989 356.04C418.582 375.54 381.226 384.258 346.734 397.145C343.028 398.535 337.679 395.629 333.131 394.702C333.004 392.554 332.878 390.449 332.794 388.301C339.448 386.111 346.186 384.173 352.756 381.773C379.542 371.833 408.306 365.264 432.522 350.945C489.42 317.337 501.338 253.28 464.403 198.319C411.044 118.89 278.423 89.2415 196.215 138.348C156.626 161.974 151.446 208.553 186.402 238.876C216.388 264.861 252.396 269.073 289.289 258.376C314.937 250.921 317.885 230.032 296.659 207.122Z" fill="white"/>
<path d="M367.075 0C359.41 21.3102 352.63 40.22 346.523 57.1923C326.392 59.3402 305.63 61.6144 286.004 63.7201C293.037 43.6733 300.323 23.037 308.283 0.336992C324.287 12.9294 345.133 12.087 367.075 0ZM344.712 20.7627C333.847 19.794 324.497 18.9939 315.232 18.1937C312.157 28.8488 309.588 37.9457 306.767 47.7164C318.643 47.0005 328.793 46.3686 339.279 45.7369C341.048 37.6087 342.649 30.1544 344.712 20.7627Z" fill="white"/>
<path d="M296.574 428.352C276.443 430.584 255.723 432.859 236.013 435.049C243.13 415.086 250.542 394.408 258.671 371.665C274.632 384.005 295.395 384.258 318.011 369.602C309.672 392.597 302.765 411.464 296.574 428.352ZM294.805 392.175C284.571 391.207 275.18 390.364 265.493 389.438C262.461 399.672 259.808 408.727 257.028 418.16C268.231 418.16 278.38 418.16 289.078 418.16C291.057 409.148 292.826 401.146 294.805 392.175Z" fill="white"/>
<path d="M60.4351 290.046C39.7988 292.236 18.9518 294.426 0 296.448C7.07533 276.148 14.3192 255.343 22.1526 232.812C38.6196 246.078 59.5086 245.952 81.998 231.296C73.6171 254.08 66.9209 272.442 60.4351 290.046ZM53.1492 279.812C54.8759 271.052 56.4342 263.093 58.203 254.038C48.1375 253.027 38.8722 252.101 29.0594 251.132C26.1535 261.366 23.5845 270.378 20.8891 279.812C32.0496 279.812 42.1993 279.812 53.1492 279.812Z" fill="white"/>
</svg>
