<svg width="500" height="394" viewBox="0 0 500 394" fill="none" xmlns="http://www.w3.org/2000/svg">
<path d="M247.169 393.701C196.194 392.892 152.848 381.882 114.299 355.498C66.3007 322.671 41.6802 276.984 42.1136 218.612C42.1714 210 39.9174 204.625 33.2422 199.222C25.4977 192.922 18.1866 185.495 12.5805 177.259C-16.6347 134.347 7.52352 81.6672 59.3654 79.4999C83.379 78.4885 98.9547 69.9637 115.975 54.1568C210.672 -33.8067 366.631 -11.4401 425.986 98.2253C435.609 116.026 439.972 136.89 445.174 156.771C447.139 164.314 449.393 167.781 457.022 170.093C495.253 181.71 510.482 218.323 492.45 253.982C479.33 279.903 456.79 293.08 429.887 301.287C421.94 303.714 413.271 308.916 408.416 315.418C366.949 371.334 309.356 392.025 247.169 393.701ZM438.701 189.974C437.949 91.4922 358.771 11.2154 256.85 9.8861C169.06 8.75911 109.907 55.4862 73.0916 131.544C55.0308 168.85 53.8171 163.649 91.0368 182.028C147.907 210.087 209.429 224.94 270.547 240.227C317.448 251.959 365.013 258.461 413.647 252.595C424.801 251.237 431.303 247.509 432.546 235.661C434.164 220.374 436.62 205.174 438.701 189.974ZM54.3372 215.057C55.6376 269.471 72.8893 313.308 118.403 342.321C157.761 367.404 201.222 380.957 247.949 381.506C303.981 382.171 352.731 364.081 390.644 321.197C394.199 317.18 397.204 312.644 401.828 306.575C338.543 307.066 280.228 295.45 222.722 279.094C165.476 262.796 109.329 243.463 54.3372 215.057ZM85.2285 91.8968C84.4193 90.2785 83.6102 88.6603 82.7722 87.042C77.5129 87.042 72.2247 86.782 66.9942 87.0999C43.414 88.4581 23.0703 96.2024 13.5631 119.667C3.65127 144.114 12.0604 165.672 29.8612 182.635C41.8825 194.049 56.0422 204.134 70.9243 211.474C148.196 249.734 230.12 274.095 314.673 289.757C351.2 296.519 388.101 301.171 425.061 292.473C450.924 286.376 472.684 273.863 484.965 249.127C500.83 217.167 484.619 184.773 449.711 177.693C447.717 188.443 447.717 188.443 456.386 194.482C471.528 205.03 477.712 221.964 468.089 235.574C461.934 244.301 451.387 253.115 441.388 255.282C417.143 260.542 391.887 265.57 367.382 264.241C265.663 258.75 170.042 228.292 77.5129 187.46C66.8498 182.75 56.7357 174.745 49.0201 165.932C28.7053 142.756 36.7387 115.91 65.3182 105.016C72.6003 102.184 78.6399 96.347 85.2285 91.8968ZM441.937 244.33C456.675 237.857 463.639 230.228 461.819 220.432C460.576 213.67 455.577 207.631 452.225 201.244C450.838 201.909 449.451 202.545 448.063 203.209C446.098 216.358 444.133 229.506 441.937 244.33ZM51.303 151.396C57.3136 138.537 62.8041 126.776 68.6414 114.292C48.9045 122.672 44.6855 131.428 51.303 151.396Z" fill="white"/>
<path d="M385.067 225.402C394.574 224.275 404.11 223.148 413.617 222.021C413.906 223.871 414.195 225.72 414.484 227.598C405.064 229.13 395.614 230.633 386.194 232.164C385.818 229.91 385.443 227.656 385.067 225.402Z" fill="white"/>
<path d="M91.9902 285.567C97.1051 287.792 103.202 289.005 107.046 292.589C110.051 295.392 110.282 301.171 112.565 302.327C106.612 296.519 100.688 290.681 94.7355 284.873C93.8397 285.104 92.9149 285.335 91.9902 285.567Z" fill="white"/>
</svg>
