<svg width="270" height="500" viewBox="0 0 270 500" fill="none" xmlns="http://www.w3.org/2000/svg">
<path d="M177.638 312.174C182.437 318.944 186.398 326.572 192.203 332.336C219.009 358.848 219.7 391.06 213.581 424.949C212.805 429.225 211.38 433.374 209.452 440.647C202.389 433.207 197.17 427.716 190.904 421.114C187.048 450.602 181.515 477.973 161.458 500C150.266 475.605 139.515 452.132 128.03 427.087C121.784 432.075 117.299 435.659 111.725 440.102C108.644 436.204 105.269 432.809 102.88 428.827C85.527 399.925 86.3234 369.83 97.5359 339.189C102.859 324.644 100.281 320.536 86.8473 314.438C77.6677 310.267 69.1168 310.728 59.6648 311.042C44.0301 311.545 28.3116 310.539 12.6769 309.387C1.10803 308.548 -2.91592 302.995 2.15593 292.453C19.0691 257.327 37.1139 222.746 54.4672 187.851C56.8145 183.115 58.7426 177.77 59.2456 172.552C63.6887 126.046 67.7546 79.519 72.009 32.9921C72.2186 30.582 72.9522 28.1928 73.6228 25.8664C77.0599 13.8784 82.9282 3.52517 96.006 0.591042C108.581 -2.23829 117.383 5.5581 124.886 14.0251C144 35.57 155.443 61.4742 164.434 88.3843C171.937 110.851 177.784 133.863 184.617 156.561C185.664 160.019 187.173 163.959 189.751 166.243C219.512 192.839 242.691 224.528 262.497 258.899C264.068 261.602 265.452 264.453 266.583 267.387C271.53 280.171 269.643 284.677 256.649 288.156C244.536 291.405 232.128 293.48 219.931 296.456C206.371 299.767 192.916 303.518 179.398 307.06C178.832 308.758 178.224 310.477 177.638 312.174ZM99.4012 309.303C97.2425 285.243 95.3144 262.001 92.9881 238.779C91.9821 228.824 95.8802 222.055 105.353 219.917C120.254 216.585 135.428 214.447 150.434 211.513C161.353 209.375 165.042 214.698 166.425 224.632C169.967 250.117 174.158 275.498 178.078 300.92C194.467 297.441 200.251 288.533 197.212 269.525C192.643 240.959 188.62 212.267 182.709 183.953C176.548 154.381 168.479 125.208 160.871 94.3363C131.09 111.501 101.308 115.797 70.2905 111.48C69.7037 113.24 69.1797 114.184 69.0959 115.19C63.6049 173.097 66.7276 230.899 71.9462 288.617C73.1827 302.177 83.6408 309.156 99.4012 309.303ZM172.251 327.453C192.12 366.141 195.012 380.665 185.12 392.108C180.865 388.419 176.569 384.71 171.224 380.099C169.401 397.138 167.976 412.898 155.946 427.338C147.814 411.348 140.689 397.306 133.29 382.74C128.847 386.345 125.494 389.069 122.12 391.815C112.06 379.428 108.204 362.599 111.263 343.8C112.165 338.267 111.85 334.893 104.494 335.857C94.979 368.09 91.6467 399.569 112.018 429.581C118.515 425.243 123.859 421.68 130.021 417.551C141.715 441.108 152.739 463.386 163.889 485.832C180.173 462.276 182.647 434.255 184.784 406.129C185.874 406.066 186.964 406.003 188.054 405.919C193.566 412.249 199.099 418.578 205.072 425.431C215.928 381.294 205.428 347.279 172.251 327.453ZM117.844 338.812C114.219 352.979 115.707 367.461 122.56 382.048C135.428 372.366 135.533 372.324 142.449 385.548C147.269 394.77 151.775 404.138 156.428 413.443C157.392 413.485 158.335 413.506 159.299 413.548C161.521 398.857 163.721 384.165 166.153 368.069C172.314 371.946 177.344 375.111 183.108 378.737C183.527 362.117 178.308 348.809 168.039 337.512C166.173 335.459 162.841 333.237 160.431 333.488C146.599 334.809 132.85 336.863 117.844 338.812ZM143.224 51.8544C134.338 39.4891 126.961 27.2287 117.614 16.7288C104.284 1.76472 87.8952 5.30659 81.7964 24.4832C77.7725 37.1838 76.4312 50.7227 73.7695 64.4711C98.9401 70.4442 120.674 66.9022 143.224 51.8544ZM145.32 59.6508C122.79 74.992 98.8772 77.5699 73.0989 72.4771C71.9881 83.6267 70.9611 93.9172 69.9132 104.543C101.308 109.615 129.665 104.417 157.099 88.4471C153.075 78.6388 149.302 69.3962 145.32 59.6508ZM170.428 304.294C166.53 277.048 162.946 250.83 158.817 224.695C158.461 222.411 154.269 218.722 152.362 218.995C136.937 221.258 121.512 223.878 106.359 227.546C103.551 228.216 100.03 234.21 100.198 237.564C101.329 259.863 103.488 282.099 105.018 304.399C105.479 311.294 108.539 312.614 114.994 310.351C113.59 290.042 111.913 269.944 111.096 249.803C110.928 245.737 113.108 238.779 115.79 237.878C125.745 234.567 136.35 233.246 147.332 231.067C150.497 257.998 153.368 282.498 156.323 307.752C161.039 306.578 164.665 305.698 170.428 304.294ZM143.874 235.531C135.428 237.04 128.156 237.689 121.365 239.848C118.515 240.749 114.617 244.941 114.742 247.477C115.811 268.56 117.698 289.602 119.437 311.86C130.419 310.854 140.647 309.89 152.048 308.842C149.302 284.363 146.703 260.995 143.874 235.531ZM19.8026 303.644C37.7007 303.644 53.2307 303.644 67.3983 303.644C64.527 276.063 61.7396 249.489 58.6378 219.728C51.3444 233.288 44.9732 243.704 39.9642 254.728C33.09 269.902 27.2217 285.516 19.8026 303.644ZM245.164 284.027C232.422 253.701 215.048 228.552 194.76 203.15C198.91 233.288 202.787 261.56 206.79 290.734C218.338 288.701 230.892 286.521 245.164 284.027ZM248.622 282.036C261.763 279.249 263.293 277.614 258.766 268.812C241.14 234.504 218.233 204.094 189.185 177.917C191.093 185.713 193.272 193.74 197.988 199.776C217.856 225.135 234.853 252.129 248.622 282.036ZM61.4043 197.303C59.2037 196.549 56.9821 195.773 54.7815 195.019C39.6289 227.818 24.3924 260.575 9.40742 293.438C5.73976 301.465 10.7068 302.848 14.0182 302.932C27.8924 274.617 41.1379 248.273 53.6917 221.594C57.2756 213.986 58.8893 205.435 61.4043 197.303ZM102.943 320.83C106.862 324.036 109.671 328.27 113.024 328.752C132.578 331.623 151.859 329.884 170.176 322.045C172.105 321.228 172.859 317.602 174.158 315.276C171.937 314.312 169.59 312.3 167.515 312.53C146.934 314.962 126.416 317.749 102.943 320.83Z" fill="white"/>
<path d="M149.805 158.677C149.784 177.54 134.568 191.749 114.176 191.959C95.0416 192.147 81.6284 178.022 81.4817 157.546C81.335 138.16 94.308 124.956 113.296 125.166C134.652 125.438 149.826 139.354 149.805 158.677ZM115.748 131.327C99.0655 131.076 88.0416 141.094 87.5176 156.917C86.9937 173.034 97.7242 185.168 112.94 185.692C129.601 186.258 143.35 174.438 143.58 159.369C143.811 144.028 131.446 131.558 115.748 131.327Z" fill="white"/>
<path d="M110.299 13.6688C116.398 21.9472 122.497 30.2047 128.595 38.4831C127.82 39.049 127.045 39.6358 126.269 40.2016C120.191 31.9232 114.092 23.6448 108.015 15.3664C108.769 14.8005 109.545 14.2346 110.299 13.6688Z" fill="white"/>
<path d="M117.299 140.633C112.059 151.929 106.82 163.246 101.58 174.543C100.448 174.019 99.3168 173.516 98.1641 172.992C103.445 161.695 108.706 150.42 113.987 139.124C115.098 139.606 116.188 140.109 117.299 140.633Z" fill="white"/>
</svg>
