<svg width="500" height="484" viewBox="0 0 500 484" fill="none" xmlns="http://www.w3.org/2000/svg">
<path d="M428.782 410.316C425.233 411.849 416.601 413.099 411.841 418.06C346.056 486.508 264.701 494.454 178.91 474.045C146.562 466.341 116.876 446.617 86.867 430.766C78.3968 426.289 73.234 423.707 63.836 428.507C40.9261 440.123 32.3752 437.179 19.7909 414.672C12.6113 401.846 4.54445 388.697 1.35803 374.661C-1.18304 363.407 -0.295689 348.726 5.18979 339.005C11.8853 327.187 12.3693 317.708 9.54591 305.285C0.430331 265.314 0.309329 224.98 12.6517 185.774C17.9758 168.915 17.0481 154.515 8.05354 140.035C-3.4821 121.481 -0.497355 104.42 12.813 88.0845C18.2985 81.3083 23.1386 74.0078 28.4224 67.0703C49.5577 39.3606 54.8818 38.1101 87.956 48.3551C93.8852 50.1701 102.476 48.9601 107.962 45.8544C172.86 9.02903 241.993 -0.24788 314.353 14.4742C327.623 17.1766 337.586 15.8859 347.669 7.77866C371.225 -11.2189 388.77 9.47273 407.324 18.1446C423.135 25.5258 428.903 38.9975 421.804 56.906C420.029 61.4234 421.118 69.813 424.305 73.1607C476.901 128.379 483.153 195.697 477.022 266.887C476.215 276.083 479.724 288.143 485.694 294.96C502.231 313.836 504.57 332.39 491.986 353.767C485.532 364.738 479.281 375.992 474.481 387.769C466.696 406.767 453.386 414.672 428.782 410.316ZM248.043 469.729C344.685 469.527 411.72 424.151 444.996 335.738C460.807 293.75 467.221 249.987 464.317 205.256C460.001 138.099 432.533 84.1317 372.717 49.1214C216.905 -42.0344 24.026 62.9964 17.6128 242.686C12.934 373.733 110.624 469.971 248.043 469.729ZM80.9782 60.0924C60.4479 51.0978 53.3088 53.5179 35.0373 77.0732C6.80317 113.455 5.14946 123.942 23.0176 146.368C41.8941 118.255 61.0933 89.6979 80.9782 60.0924ZM473.513 301.615C459.194 334.649 445.279 366.715 431.162 399.265C468.592 404.629 465.93 369.417 478.837 350.783C490.736 333.6 490.05 315.893 473.513 301.615ZM61.779 418.746C61.779 416.528 61.779 414.309 61.7387 412.131C47.1779 389.06 32.6172 366.029 18.2985 343.361C7.12585 359.576 13.7407 393.618 35.3599 413.785C40.9261 418.907 52.8248 417.254 61.779 418.746ZM407.364 55.6556C418.497 39.8848 409.623 30.3659 396.071 22.2183C368.2 5.51987 361.988 5.56029 348.315 22.2991C367.877 33.3507 387.56 44.483 407.364 55.6556Z" fill="white"/>
<path d="M62.7881 274.672C69.2013 266 74.0414 252.811 82.4309 249.947C90.6995 247.123 107.156 251.6 111.875 258.457C122.927 274.51 130.873 293.347 136.56 312.142C140.23 324.243 132.123 334.931 118.329 335.738C104.413 336.545 95.217 329.607 92.5146 314.966C95.3783 314.119 96.064 313.635 96.5883 313.796C105.139 316.539 113.69 319.362 122.241 322.145C121.878 311.416 121.717 300.687 120.991 289.999C120.829 287.538 118.732 285.199 117.441 282.86C99.8958 250.148 88.8845 249.18 69.1206 278.544C67.0232 277.213 64.9258 275.963 62.7881 274.672Z" fill="white"/>
<path d="M105.582 117.609C115.867 125.555 123.087 135.679 130.468 135.8C143.738 136.042 165.478 109.986 161.888 98.7326C159.226 90.3027 148.941 84.2929 140.471 75.5807C146.44 75.9437 157.331 73.443 161.687 77.6378C167.898 83.6476 172.577 94.7799 172.093 103.371C171.004 121.965 145.109 147.86 126.677 149.473C119.376 150.119 108.324 146.206 104.856 140.64C101.266 135.114 105.057 124.99 105.582 117.609Z" fill="white"/>
<path d="M235.258 421.126C243.487 421.126 251.876 422.094 259.862 420.763C265.065 419.875 269.664 415.64 274.544 412.898C270.712 408.057 267.526 399.991 262.887 399.023C248.77 396.159 234.129 396.078 220.254 394.949C234.371 382.848 264.178 381.275 277.166 394.061C282.208 399.063 286.765 408.461 285.596 414.753C284.466 420.843 276.399 428.668 270.107 430.08C258.854 432.581 246.673 430.766 234.855 430.766C234.976 427.579 235.097 424.353 235.258 421.126Z" fill="white"/>
<path d="M400.388 236.475C410.552 230.99 418.216 236.919 423.096 248.858C428.904 263.015 421.16 290.362 407.527 297.299C401.315 300.445 387.682 300.324 384.94 296.412C380.341 289.837 381.713 279.028 380.583 269.993C383.004 269.751 385.383 269.469 387.803 269.227C389.497 275.599 391.151 281.972 393.128 289.353C409.382 286.732 413.295 274.51 412.932 263.096C412.609 254.827 405.55 246.801 400.388 236.475Z" fill="white"/>
<path d="M332.584 76.8714C327.704 104.379 338.473 124.506 367.232 139.591C370.62 134.59 374.089 129.427 380.26 120.271C382.276 128.621 386.189 135.356 384.253 139.067C381.671 144.028 374.815 149.191 369.329 149.715C345.048 152.135 312.74 103.613 323.388 81.7922C324.84 78.8075 326.333 75.9033 327.785 72.9186C329.398 74.2496 330.971 75.5404 332.584 76.8714Z" fill="white"/>
<path d="M252.965 252.488C245.745 256.723 236.548 266 231.789 264.104C223.641 260.837 214.284 251.399 212.671 243.13C209.807 228.529 211.46 212.395 235.258 204.369C229.893 213.363 224.932 218.123 224.448 223.326C223.561 232.845 225.336 242.606 225.981 252.286C233.443 251.076 240.905 249.906 248.366 248.696C249.94 249.947 251.432 251.237 252.965 252.488Z" fill="white"/>
<path d="M48.6711 183.879C44.7183 206.95 41.6933 224.576 38.4665 243.372C24.4301 229.699 27.6972 205.256 48.6711 183.879Z" fill="white"/>
<path d="M384.736 395.554C366.666 391.439 370.337 380.468 374.128 370.828C380.178 355.501 390.706 352.597 409.139 361.995C387.519 363.972 381.187 376.153 384.736 395.554Z" fill="white"/>
<path d="M438.825 189.647C433.985 175.731 429.185 161.816 424.144 147.296C440.035 151.289 446.529 166.495 438.825 189.647Z" fill="white"/>
</svg>
