<svg width="266" height="500" viewBox="0 0 266 500" fill="none" xmlns="http://www.w3.org/2000/svg">
<path d="M150.847 16.4173C158.596 18.5003 166.323 20.5832 174.185 22.6886C179.806 15.2302 185.563 7.61512 191.296 0C192.394 0.0671923 193.491 0.111991 194.566 0.179183C195.664 5.98012 197.702 11.8034 197.657 17.6044C197.568 26.6305 201.151 31.222 209.953 32.8346C214.142 33.6185 218.039 35.9479 225.609 39.0163C216.113 44.7052 209.393 48.7144 200.905 53.7986C202.853 80.2275 204.914 108.224 207.154 138.55C213.403 131.63 217.725 126.837 224.198 119.647C225.811 129.076 227.826 135.482 227.782 141.888C227.715 149.122 230.201 152.594 237.211 154.229C242.385 155.438 247.178 158.215 255.353 161.642C245.588 167.219 238.689 171.183 230.985 175.573C230.985 182.561 230.985 190.49 230.985 201.017C224.064 196.358 219.047 192.976 212.148 188.34C213.671 220.592 215.105 250.829 216.628 282.476C224.691 277.123 231.365 272.689 241.131 266.193C240.19 275.04 240.683 281.401 238.667 286.844C235.375 295.758 238.443 300.73 245.946 304.941C249.664 307.046 252.755 310.271 259.004 315.333C247.895 318.111 239.966 320.104 235.151 321.291C229.394 330.586 224.489 337.977 220.256 345.704C219.159 347.72 219.943 350.833 220.055 353.431C221.264 379.883 222.496 406.334 223.795 434.062C231.119 429.448 237.771 425.282 247.357 419.235C246.282 428.194 246.416 434.42 244.647 440.042C242.094 448.195 243.997 453.257 251.568 457.176C255.622 459.281 258.869 462.977 265.073 468.106C254.412 470.794 246.73 472.742 238.241 474.892C236.315 481.522 234.098 489.115 230.94 500C225.049 492.273 220.413 487.525 217.412 481.881C213.85 475.184 209.573 473.033 202.181 474.691C197.769 475.676 192.954 474.87 186.123 474.87C192.237 465.822 199.539 459.304 200.994 451.689C202.495 443.805 198.329 434.846 196.649 426.357C197.635 425.753 198.62 425.17 199.606 424.565C204.936 427.522 210.267 430.456 216.583 433.972C214.881 399.615 213.447 366.243 211.432 332.893C210.939 324.897 206.728 320.014 197.232 321.963C192.416 322.948 187.22 322.142 179.336 322.142C184.264 315.378 187.623 310.809 191.991 304.829C137.431 259.877 82.6913 214.769 27.3025 169.123C21.188 171.251 13.7296 173.849 3.35961 177.455C7.14478 166.413 12.6097 158.171 11.8258 150.6C10.9971 142.582 4.18832 135.168 0 127.508C0.78391 126.411 1.56779 125.314 2.3517 124.216C10.2356 126.433 18.1195 128.628 26.1154 130.868C31.9163 123.387 37.874 115.683 43.8541 107.978C44.9068 108.247 45.9595 108.516 47.0122 108.807C48.4232 116.601 49.8343 124.373 51.5365 133.78C68.8497 121.17 85.4461 109.053 102.087 96.9584C117.766 85.5581 133.354 74.0459 149.189 62.8695C159.447 55.6352 161.821 45.9147 155.797 35.0071C152.997 29.9229 150.891 24.4356 148.473 19.1274C149.234 18.2091 150.04 17.3132 150.847 16.4173ZM189.482 168.608C143.657 166.838 98.907 165.114 51.4469 163.3C54.1794 172.079 54.1346 181.352 58.6813 185.182C103.14 222.563 148.383 259.026 193.648 295.96C192.797 288.143 192.013 280.729 190.983 271.322C198.352 274.727 203.122 276.966 209.259 279.811C207.624 246.932 206.079 215.553 204.488 183.928C196.358 186.391 189.885 188.362 183.412 190.311C182.718 189.482 182.024 188.631 181.352 187.802C183.838 181.912 186.324 176.021 189.482 168.608ZM174.901 61.1225C127.307 72.1645 99.019 114.966 55.7024 137.632C63.2279 141.193 68.8945 143.881 75.6809 147.084C70.7759 151.407 67.4386 154.341 62.7128 158.484C105.335 159.671 145.83 160.791 186.884 161.933C183.771 154.161 181.016 147.285 177.365 138.17C186.705 140.185 192.954 141.529 199.83 143.008C198.934 128.651 196.784 115.212 197.635 101.975C198.8 83.6096 195.261 68.8497 174.901 61.1225ZM196.672 469.853C214.299 463.783 220.995 473.929 228.409 485.106C227.558 469.293 237.189 465.732 250.605 464.948C231.567 457.557 238.824 443.491 241.175 429.314C228.409 437.287 218.845 452.249 204.78 432.987C207.266 459.08 207.266 459.08 196.672 469.853ZM42.891 117.138C37.65 124.238 34.7832 131.383 29.587 134.205C24.7715 136.803 17.47 134.765 10.37 134.765C15.0959 144.755 28.1759 153.825 13.5056 167.264C27.8624 157.431 37.0454 166.278 47.3482 173.714C42.152 158.619 50.5286 152.661 63.5639 149.167C47.7513 142.134 47.7513 142.134 42.891 117.138ZM191.722 315.624C207.915 311.078 214.746 320.843 222.205 332.176C221.533 316.14 231.365 313.004 244.445 312.108C224.892 304.426 232.844 290.472 235.195 276.183C228.118 281.446 223.235 287.516 217.345 288.725C211.768 289.89 205.138 285.948 198.262 284.044C199.763 294.862 209.685 307.158 191.722 315.624ZM158.731 23.5621C158.484 24.6595 158.238 25.7346 157.969 26.8321C161.194 31.7147 166.189 36.2838 167.13 41.5696C168.025 46.6314 164.733 52.4323 163.255 58.0093C176.492 54.7393 176.492 54.7393 194.006 64.527C195.574 49.7671 195.574 49.767 211.275 39.4866C190.692 39.1283 192.752 23.7189 191.588 8.5558C181.621 20.0681 176.917 36.5526 158.731 23.5621ZM221.398 130.084C211.409 143.075 206.034 158.753 186.414 144.732C191.632 158.551 206.258 167.398 190.848 181.352C205.519 171.475 214.612 179.672 225.497 188.609C218.308 172.483 228.476 167.264 240.302 162.113C220.211 160.657 222.474 146.076 221.398 130.084Z" fill="white"/>
</svg>
